<svg xmlns="http://www.w3.org/2000/svg" width="156" height="155" fill="none"><path fill="#D9D9D9" d="m53.284 130.338-9.76 8.866-2.294-1.356 3.068-12.825 1.347.798-.785 3.237 4.617 2.73 2.459-2.247 1.348.797Zm-4.828 2.435-3.951-2.336-1.77 7.235.218.128 5.503-5.027ZM38.84 120.54l-9.119 8.697-3.33-3.491c-.52-.547-.876-1.137-1.065-1.769a3.41 3.41 0 0 1-.083-1.887c.151-.624.504-1.201 1.06-1.731l.17-.162c.546-.522 1.144-.843 1.792-.963a3.41 3.41 0 0 1 1.88.171 4.562 4.562 0 0 1 1.692 1.148l2.285 2.397 3.673-3.504 1.044 1.094Zm-5.708 3.354-2.174-2.28c-.555-.581-1.137-.905-1.746-.97-.619-.057-1.193.167-1.722.672l-.13.124c-.53.505-.777 1.064-.74 1.676.02.612.31 1.213.874 1.803l2.174 2.28 3.464-3.305Zm-4.247-15.215-11.087 5.986-2.292-4.245c-.36-.665-.546-1.327-.562-1.987a3.41 3.41 0 0 1 .417-1.842c.31-.562.803-1.026 1.479-1.391l.206-.111c.665-.36 1.326-.512 1.983-.457.64.049 1.23.27 1.768.661.539.391.982.909 1.33 1.553l1.573 2.914 4.467-2.412.718 1.331Zm-6.389 1.731L21 107.638c-.382-.707-.858-1.173-1.43-1.397-.58-.217-1.193-.153-1.837.195l-.159.086c-.644.347-1.03.821-1.155 1.421-.143.595-.02 1.252.368 1.97l1.496 2.772 4.213-2.275Zm-.06-15.82-12.249 2.956-.355-1.47 10.92-2.635-1.495-6.194 1.33-.32 1.849 7.663Zm-2.459-17.576-4.805-.103-7.889 4.313.037-1.728 6.12-3.253.005-.252-5.973-3.513.037-1.728 7.696 4.65 4.804.103-.032 1.511Zm4.089-21.394-11.272-5.63 1.31-2.626 12.382 1.275.104-.21-10.418-5.203.668-1.337 11.272 5.63-1.311 2.626-12.39-1.3-.112.226 10.434 5.212-.667 1.337Zm11.547-17.4c-1.028 1.092-2.164 1.67-3.41 1.733-1.247.047-2.478-.502-3.693-1.645l-2.097-1.973c-1.215-1.143-1.833-2.334-1.854-3.573-.02-1.256.482-2.43 1.51-3.522 1.036-1.101 2.178-1.675 3.424-1.722 1.246-.063 2.477.477 3.691 1.62l2.098 1.973c1.215 1.143 1.833 2.342 1.854 3.598.02 1.239-.487 2.409-1.523 3.51Zm-.983-.926c.748-.795 1.092-1.633 1.031-2.514-.07-.89-.528-1.733-1.376-2.53l-2.176-2.048c-.848-.798-1.713-1.2-2.596-1.207-.892-.015-1.712.375-2.46 1.17-.74.787-1.076 1.625-1.006 2.514.06.88.515 1.72 1.363 2.518l2.176 2.047c.848.798 1.718 1.204 2.61 1.22.882.006 1.694-.383 2.434-1.17Zm11.404-8.541-7.75-10.145 1.334-.712 7.053 9.415.222-.12-3.434-11.349 2.382-1.273 7.513 9.17.222-.12-3.91-11.095L51 11.812l4.13 12.08-2.381 1.272-7.564-9.224-.222.119 3.468 11.413-2.397 1.281Zm54.625-5.071 9.383-9.264 2.347 1.26-2.531 12.94-1.38-.74.65-3.267-4.726-2.536-2.363 2.348-1.38-.74Zm4.722-2.634 4.045 2.17 1.467-7.302-.222-.12-5.29 5.252Zm10.117 11.822 8.748-9.068 3.472 3.35c.544.525.923 1.1 1.138 1.723.232.624.286 1.251.161 1.881-.124.63-.453 1.222-.986 1.775l-.163.168c-.525.544-1.108.89-1.751 1.037a3.406 3.406 0 0 1-1.885-.093 4.558 4.558 0 0 1-1.738-1.077l-2.384-2.299-3.524 3.653-1.088-1.05Zm5.562-3.587 2.267 2.186c.579.559 1.174.858 1.786.898.62.031 1.184-.217 1.692-.743l.125-.13c.508-.527.732-1.095.67-1.705-.045-.61-.361-1.199-.949-1.765l-2.267-2.187-3.324 3.445Zm4.877 15.025 10.828-6.442 2.467 4.145c.386.65.601 1.304.644 1.963a3.403 3.403 0 0 1-.341 1.857c-.286.575-.759 1.06-1.419 1.452l-.201.12c-.65.386-1.304.566-1.962.539a3.412 3.412 0 0 1-1.795-.587 4.555 4.555 0 0 1-1.392-1.497l-1.694-2.846-4.362 2.595-.773-1.3Zm6.311-1.995 1.61 2.707c.411.69.907 1.136 1.486 1.336.59.193 1.2.103 1.829-.271l.155-.092c.629-.375.994-.864 1.095-1.469.117-.6-.033-1.251-.45-1.952l-1.61-2.708-4.115 2.449Zm.717 15.803 12.115-3.462.416 1.454-10.8 3.086 1.751 6.127-1.315.376-2.167-7.581Zm3.188 17.458 4.805-.096 7.703-4.637.034 1.728-5.979 3.504.005.252 6.115 3.262.034 1.728-7.882-4.325-4.805.096-.03-1.512Zm-3.195 21.546 11.496 5.158-1.2 2.677-12.424-.759-.096.213 10.626 4.766-.611 1.364-11.497-5.157 1.201-2.677 12.433.783.103-.23-10.643-4.774.612-1.363Zm-10.814 17.866c.981-1.134 2.093-1.759 3.336-1.874 1.243-.098 2.496.398 3.757 1.49l2.178 1.884c1.261 1.092 1.928 2.256 2 3.493.074 1.254-.38 2.448-1.362 3.582-.989 1.143-2.106 1.764-3.349 1.862-1.243.116-2.494-.373-3.756-1.464l-2.177-1.884c-1.262-1.092-1.929-2.265-2.003-3.518-.072-1.237.387-2.427 1.376-3.571Zm1.021.884c-.715.825-1.023 1.677-.926 2.555.107.886.6 1.709 1.48 2.471l2.26 1.955c.88.762 1.761 1.128 2.644 1.098.892-.022 1.695-.446 2.409-1.271.707-.817 1.007-1.668.901-2.554-.098-.878-.587-1.697-1.467-2.459l-2.259-1.955c-.881-.762-1.767-1.132-2.658-1.11-.883.03-1.678.453-2.384 1.27Zm-11.038 9.007 8.164 9.814-1.302.768-7.439-9.114-.217.128 3.903 11.197-2.327 1.371-7.888-8.848-.217.127 4.368 10.923-1.303.768-4.628-11.897 2.326-1.371 7.94 8.901.217-.128-3.939-11.259 2.342-1.38Z"/></svg>