<svg xmlns="http://www.w3.org/2000/svg" width="360" height="342" fill="none"><g stroke="#1C1C1C" stroke-linecap="round" stroke-linejoin="round" stroke-width="2" clip-path="url(#a)"><path d="M0 23c5 1 20 6 30 6s20-6 30-6 20 6 30 6 20-6 30-6 20 6 30 6 20-6 30-6 20 6 30 6 20-6 30-6 20 6 30 6 20-6 30-6 20 6 30 6 25-5 30-6M0 52c5 1 20 6 30 6s20-6 30-6 20 6 30 6 20-6 30-6 20 6 30 6 20-6 30-6 20 6 30 6 20-6 30-6 20 6 30 6 20-6 30-6 20 6 30 6 25-5 30-6M0 81c5 1 20 6 30 6s20-6 30-6 20 6 30 6 20-6 30-6 20 6 30 6 20-6 30-6 20 6 30 6 20-6 30-6 20 6 30 6 20-6 30-6 20 6 30 6 25-5 30-6M0 110c5 1 20 6 30 6s20-6 30-6 20 6 30 6 20-6 30-6 20 6 30 6 20-6 30-6 20 6 30 6 20-6 30-6 20 6 30 6 20-6 30-6 20 6 30 6 25-5 30-6M0 139c5 1 20 6 30 6s20-6 30-6 20 6 30 6 20-6 30-6 20 6 30 6 20-6 30-6 20 6 30 6 20-6 30-6 20 6 30 6 20-6 30-6 20 6 30 6 25-5 30-6M0 168c5 1 20 6 30 6s20-6 30-6 20 6 30 6 20-6 30-6 20 6 30 6 20-6 30-6 20 6 30 6 20-6 30-6 20 6 30 6 20-6 30-6 20 6 30 6 25-5 30-6M0 197c5 1 20 6 30 6s20-6 30-6 20 6 30 6 20-6 30-6 20 6 30 6 20-6 30-6 20 6 30 6 20-6 30-6 20 6 30 6 20-6 30-6 20 6 30 6 25-5 30-6M0 226c5 1 20 6 30 6s20-6 30-6 20 6 30 6 20-6 30-6 20 6 30 6 20-6 30-6 20 6 30 6 20-6 30-6 20 6 30 6 20-6 30-6 20 6 30 6 25-5 30-6M0 255c5 1 20 6 30 6s20-6 30-6 20 6 30 6 20-6 30-6 20 6 30 6 20-6 30-6 20 6 30 6 20-6 30-6 20 6 30 6 20-6 30-6 20 6 30 6 25-5 30-6M0 284c5 1 20 6 30 6s20-6 30-6 20 6 30 6 20-6 30-6 20 6 30 6 20-6 30-6 20 6 30 6 20-6 30-6 20 6 30 6 20-6 30-6 20 6 30 6 25-5 30-6M0 313c5 1 20 6 30 6s20-6 30-6 20 6 30 6 20-6 30-6 20 6 30 6 20-6 30-6 20 6 30 6 20-6 30-6 20 6 30 6 20-6 30-6 20 6 30 6 25-5 30-6"/></g><defs><clipPath id="a"><path fill="#fff" d="M0 0h360v342H0z"/></clipPath></defs></svg>