<svg xmlns="http://www.w3.org/2000/svg" width="25" height="25" fill="none"><g stroke="#0F0F0F" stroke-linecap="round" stroke-linejoin="round"><path stroke-miterlimit="10" stroke-width="1.5" d="m9.907 13.342-3.05 3.05m.031-3.02 3.05 3.05"/><path stroke-miterlimit="10" stroke-width="2" d="M13.868 14.882h.01m3.93 0h.01m-1.98 1.98v-.02m0-3.92v-.02"/><path stroke-width="1.5" d="M9.338 22.882h6c5 0 7-2 7-7v-2c0-5-2-7-7-7h-6c-5 0-7 2-7 7v2c0 5 2 7 7 7Zm4.01-20-.01 1.01a1 1 0 0 1-1 .99h-.03c-.55 0-.99.45-.99 1s.45 1 1 1h1"/></g></svg>