<svg xmlns="http://www.w3.org/2000/svg" width="312" height="355" fill="none" viewBox="0 0 412 455"><path fill="#0F0F0F" d="M315.35 144.626c.501-1.984.983-3.987 1.503-5.971.259-1.038.575-2.058.909-3.059a2.853 2.853 0 0 1 2.893-2.151c1.596 0 3.172.241 4.749.352.843.111 1.693.148 2.542.111a2.78 2.78 0 0 0 1.688-.704c1.651-1.854 3.227-3.709 4.767-5.748a2.71 2.71 0 0 0 .315-2.522c-.556-1.854-1.187-3.708-1.725-5.562a7.16 7.16 0 0 1-.408-2.225 2.17 2.17 0 0 1 .612-1.502 34.673 34.673 0 0 1 8.997-5.062 2.315 2.315 0 0 1 2.745.723c1.336 1.539 2.727 3.041 4.026 4.617a3.815 3.815 0 0 0 3.84 1.539c2.059-.334 4.136-.538 6.195-.816a2.323 2.323 0 0 0 1.855-1.298c.649-1.15 1.243-2.336 1.855-3.504a67.253 67.253 0 0 1 1.651-2.986 2.396 2.396 0 0 1 2.783-1.224c2.949.742 5.917 1.502 8.848 2.355a2.524 2.524 0 0 1 1.855 2.633c0 1.613-.241 3.208-.352 4.821 0 .742-.112 1.502-.112 2.262a3.098 3.098 0 0 0 1.187 2.541c1.633 1.298 3.284 2.577 4.879 3.93a3.373 3.373 0 0 0 3.45.668c2.004-.63 4.007-1.298 6.011-1.854a2.725 2.725 0 0 1 3.58 1.335 204.665 204.665 0 0 1 4.025 7.101 2.946 2.946 0 0 1-.705 4.191c-.983.927-2.059 1.743-3.079 2.633a83.331 83.331 0 0 0-2.115 2.002 2.7 2.7 0 0 0-.76 2.207c.222 2.151.445 4.302.723 6.434a3.45 3.45 0 0 0 1.966 2.707c1.243.593 2.486 1.168 3.71 1.854.772.37 1.522.785 2.245 1.243a2.554 2.554 0 0 1 1.224 2.985c-.723 2.67-1.484 5.34-2.244 7.991-.137.408-.318.8-.538 1.169a2.32 2.32 0 0 1-2.3 1.335l-5.677-.464h-.426a4.004 4.004 0 0 0-4.137 1.854c-.946 1.335-2.04 2.559-3.061 3.838a4.05 4.05 0 0 0-.686 4.135c.612 1.855 1.206 3.542 1.744 5.322a2.716 2.716 0 0 1 .089 2.171 2.71 2.71 0 0 1-1.536 1.537 150.37 150.37 0 0 1-7.42 4.117 2.598 2.598 0 0 1-3.488-.594c-1.094-1.168-2.133-2.41-3.172-3.708-2.244-2.633-2.764-2.837-6.195-2.374l-4.007.575a3.715 3.715 0 0 0-3.005 2.114c-.705 1.428-1.373 2.874-2.115 4.283a12.816 12.816 0 0 1-1.391 2.04 1.854 1.854 0 0 1-2.078.742l-8.403-2.337a5.93 5.93 0 0 1-1.095-.519 2.283 2.283 0 0 1-1.354-2.299c.149-1.854.297-3.708.427-5.563v-1.706a2.903 2.903 0 0 0-1.15-2.41c-1.595-1.224-3.172-2.466-4.749-3.708a3.238 3.238 0 0 0-3.283-.52c-1.762.612-3.543 1.15-5.324 1.725h-.204c-2.337.63-3.135.389-4.359-1.706-1.225-2.095-2.616-4.71-3.822-7.12a2.43 2.43 0 0 1-.406-1.891 2.44 2.44 0 0 1 1.093-1.595 63.02 63.02 0 0 1 4.173-3.523 4.352 4.352 0 0 0 1.855-4.469c-.296-1.854-.5-3.856-.779-5.785a2.409 2.409 0 0 0-1.298-1.854c-1.707-.89-3.413-1.761-5.101-2.67a5.286 5.286 0 0 1-2.764-2.429l-.186-.76Zm62.458 5.562a18.414 18.414 0 0 0-20.071-16.799 18.7 18.7 0 0 0-12.259 6.661 18.687 18.687 0 0 0-4.232 13.29 18.39 18.39 0 0 0 6.456 12.406 18.409 18.409 0 0 0 13.318 4.282 18.204 18.204 0 0 0 12.55-6.432 18.196 18.196 0 0 0 4.182-13.463l.056.055Z"/><path fill="gray" d="M352.45 196.729a2.99 2.99 0 0 1-.798-.111l-1.966-.538-6.455-1.854a7.775 7.775 0 0 1-1.113-.501 3.301 3.301 0 0 1-2.004-3.282l.204-2.466.223-3.115c.028-.537.028-1.076 0-1.613a2.002 2.002 0 0 0-.779-1.706c-1.54-1.168-3.042-2.373-4.564-3.56l-.204-.167a2.33 2.33 0 0 0-2.411-.371c-1.224.427-2.467.816-3.71 1.224l-1.651.519h-.241c-2.783.76-3.988.278-5.398-2.132-1.41-2.411-2.857-5.173-3.859-7.157a3.339 3.339 0 0 1 .891-4.599 77.174 77.174 0 0 1 4.229-3.578 3.467 3.467 0 0 0 1.466-3.598 88.6 88.6 0 0 1-.501-3.708l-.278-2.169a1.526 1.526 0 0 0-.817-1.224l-2.04-1.057c-1.02-.538-2.059-1.057-3.079-1.613a6.093 6.093 0 0 1-3.173-2.874.78.78 0 0 1 0-.297v-.705a.818.818 0 0 1 0-.296l.371-1.539 1.113-4.45c.279-1.039.594-2.077.928-3.115a3.706 3.706 0 0 1 3.71-2.782c1.076 0 2.133.112 3.191.223l1.595.13h.668a9.204 9.204 0 0 0 1.725 0 2.15 2.15 0 0 0 1.094-.39 132.339 132.339 0 0 0 4.712-5.711 1.748 1.748 0 0 0 .167-1.687 74.661 74.661 0 0 0-.779-2.466 83.617 83.617 0 0 1-.946-3.097 7.938 7.938 0 0 1-.445-2.484 2.94 2.94 0 0 1 .983-2.225 34.06 34.06 0 0 1 9.275-5.211 3.234 3.234 0 0 1 3.71 1.002l1.41 1.594c.89 1.002 1.855 1.984 2.634 3.023a2.891 2.891 0 0 0 2.968 1.223 101.9 101.9 0 0 1 4.043-.556l2.189-.278a1.403 1.403 0 0 0 1.095-.816l1.113-2.114 1.039-1.854c.445-.834.89-1.687 1.391-2.484a3.302 3.302 0 0 1 3.71-1.669c3.58.908 6.307 1.632 8.867 2.373a3.453 3.453 0 0 1 2.467 3.542c0 1.094-.111 2.188-.223 3.245 0 .537-.092 1.075-.148 1.613a25.072 25.072 0 0 0-.093 2.206 2.162 2.162 0 0 0 .835 1.854l1.15.909c1.261 1.001 2.523 2.003 3.71 3.041a2.492 2.492 0 0 0 2.579.482l2.93-.927 3.08-.983a3.71 3.71 0 0 1 4.656 1.854 216.652 216.652 0 0 1 4.044 7.12 3.837 3.837 0 0 1-.891 5.303 30.25 30.25 0 0 1-1.855 1.595l-1.261 1.076c-.705.611-1.391 1.279-2.059 1.854a1.74 1.74 0 0 0-.52 1.465l.13 1.186c.186 1.743.39 3.486.612 5.211a2.487 2.487 0 0 0 1.447 2.002l1.596.76 2.133 1.02c.723.371 1.54.797 2.319 1.298a3.434 3.434 0 0 1 1.613 4.005c-.717 2.67-1.459 5.34-2.226 8.01a6.34 6.34 0 0 1-.575 1.243 3.3 3.3 0 0 1-3.246 1.854l-5.676-.464a2.587 2.587 0 0 1-.482 0 3.138 3.138 0 0 0-3.247 1.484c-.686.964-1.428 1.854-2.17 2.744l-.928 1.131a3.139 3.139 0 0 0-.538 3.245 135.502 135.502 0 0 1 1.763 5.377 3.602 3.602 0 0 1 .093 2.803 3.604 3.604 0 0 1-1.948 2.018 195.953 195.953 0 0 1-7.42 4.135 3.454 3.454 0 0 1-4.582-.779c-.909-.964-1.762-1.966-2.616-2.985l-.593-.686c-2.041-2.411-2.263-2.485-5.361-2.059l-4.026.575a2.802 2.802 0 0 0-2.3 1.613l-.668 1.391a62.384 62.384 0 0 1-1.446 2.893 12.474 12.474 0 0 1-1.484 2.206 2.837 2.837 0 0 1-2.078 1.428Zm-18.865-21.249a4.15 4.15 0 0 1 2.578.927l.204.167c1.503 1.186 3.024 2.392 4.545 3.56a3.808 3.808 0 0 1 1.502 3.115v1.854c0 1.038-.148 2.095-.241 3.134l-.185 2.466a1.39 1.39 0 0 0 .872 1.409h.167c.235.14.484.258.742.352l6.436 1.854 1.948.538a.982.982 0 0 0 1.113-.426 12.06 12.06 0 0 0 1.299-1.855c.482-.927.946-1.854 1.409-2.818l.687-1.428a4.632 4.632 0 0 1 3.71-2.614l4.007-.575c3.71-.519 4.581-.185 7.03 2.689l.594.704c.834.983 1.669 1.966 2.56 2.893a1.644 1.644 0 0 0 1.086.719c.22.039.446.034.665-.016a1.63 1.63 0 0 0 .604-.277 277.82 277.82 0 0 0 7.42-4.098c1.299-.76 1.466-1.205 1.021-2.707-.446-1.502-1.058-3.319-1.725-5.284a4.944 4.944 0 0 1 .834-5.025l.946-1.15c.724-.853 1.447-1.724 2.078-2.633a4.957 4.957 0 0 1 5.027-2.243h.39l5.565.445a1.334 1.334 0 0 0 1.428-.872c.193-.295.348-.612.464-.945.76-2.67 1.502-5.322 2.226-7.992a1.594 1.594 0 0 0-.817-1.965 21.026 21.026 0 0 0-2.151-1.187l-2.097-1.02-1.595-.76a4.282 4.282 0 0 1-2.486-3.43c-.241-1.743-.426-3.505-.612-5.266l-.13-1.168a3.543 3.543 0 0 1 1.039-2.967 37.36 37.36 0 0 1 2.152-2.04l1.299-1.112a26.828 26.828 0 0 0 1.743-1.521c1.169-1.094 1.28-1.687.538-3.059a278.498 278.498 0 0 0-4.007-7.083 1.846 1.846 0 0 0-1.055-.995 1.838 1.838 0 0 0-1.449.068l-3.061.982-2.968.946a4.344 4.344 0 0 1-4.322-.853 117.083 117.083 0 0 0-3.71-2.985l-1.15-.927a3.988 3.988 0 0 1-1.539-3.264c0-.778 0-1.557.111-2.336.111-.779.093-1.112.148-1.65 0-1.076.186-2.077.204-3.115a1.635 1.635 0 0 0-1.113-1.725c-2.541-.741-5.268-1.464-8.811-2.354a1.485 1.485 0 0 0-1.762.815 50.362 50.362 0 0 0-1.336 2.411l-1.02 1.854c-.371.723-.761 1.428-1.15 2.151a3.228 3.228 0 0 1-2.467 1.743l-2.208.278c-1.317.167-2.652.334-3.969.538a4.734 4.734 0 0 1-4.712-1.854 76.404 76.404 0 0 0-2.56-2.949c-.482-.537-.965-1.075-1.428-1.631a1.427 1.427 0 0 0-1.744-.464 33.524 33.524 0 0 0-8.7 5.007c-.154.23-.238.501-.241.778.028.664.153 1.32.371 1.947.297 1.014.612 2.034.946 3.06l.779 2.484a3.712 3.712 0 0 1-.482 3.375 211.562 211.562 0 0 1-4.786 5.785 3.716 3.716 0 0 1-2.3 1.02 11.3 11.3 0 0 1-2.097 0h-.612l-1.632-.149c-1.02 0-2.041-.185-3.061-.204a2.005 2.005 0 0 0-2.003 1.502c-.316 1.002-.631 2.003-.891 3.004-.389 1.484-.742 2.948-1.113 4.413l-.334 1.409v.39a4.756 4.756 0 0 0 2.263 1.854l3.08 1.613 2.04 1.057a3.358 3.358 0 0 1 1.855 2.614l.278 2.207c.167 1.187.316 2.373.501 3.56a5.314 5.314 0 0 1-2.17 5.34 67.254 67.254 0 0 0-4.118 3.505c-.946.852-1.039 1.279-.482 2.373 1.001 1.854 2.337 4.524 3.821 7.064.965 1.688 1.317 1.855 3.302 1.28l1.855-.594 3.71-1.186a4.77 4.77 0 0 1 1.465-.482h-.055Zm25.766-4.487a19.297 19.297 0 0 1-12.99-5.096 19.281 19.281 0 0 1-6.154-12.519 19.06 19.06 0 0 1 4.508-14.055 19.162 19.162 0 0 1 20.571-6.103 19.156 19.156 0 0 1 13.338 16.802 18.314 18.314 0 0 1-4.025 13.665 19.235 19.235 0 0 1-13.616 7.231c-.524.051-1.05.075-1.577.075h-.055Zm-.13-36.788H357.7a17.556 17.556 0 0 0-11.576 6.267 17.372 17.372 0 0 0 14.692 28.555 17.51 17.51 0 0 0 12.336-6.545 16.53 16.53 0 0 0 3.71-12.275 17.374 17.374 0 0 0-5.627-11.478 17.388 17.388 0 0 0-11.959-4.524h-.055ZM94.716 41.143s-45.892-2.28-55.167 27.98V129.7s35.672-28.073 55.167-18.709V41.143Z"/><path fill="#1C1C1C" d="M39.548 130.627a1.12 1.12 0 0 1-.408 0 .928.928 0 0 1-.519-.835V69.123a1.251 1.251 0 0 1 0-.26c9.386-30.594 55.65-28.684 56.114-28.647a.928.928 0 0 1 .89.927v69.848a.927.927 0 0 1-.445.797.892.892 0 0 1-.89 0c-18.755-9.048-53.796 18.32-54.204 18.542a.834.834 0 0 1-.538.297Zm.928-61.356v58.556c6.938-5.173 35.468-25.199 53.331-18.245V42.033c-6.344-.13-44.983.427-53.331 27.238Z"/><path fill="#0F0F0F" d="M142.112 362.365c-6.289 2.076-12.67 3.912-18.81 6.322-10.239 4.024-18.55 1.243-24.115-7.657-8.718-13.777-20.831-23.382-34.317-32.189-19.793-12.98-33.39-31.299-38.77-54.44-10.944-46.596 16.213-86.109 64.202-97.16 70.805-16.261 114.008 48.21 94.605 109.398-5.25 16.558-10.166 32.615-8.867 50.212.723 9.79-4.619 16.076-14.172 18.894-6.641 2.021-13.171 4.413-19.756 6.62Z"/><path fill="#1C1C1C" d="M114.62 371.432c-6.548 0-12.057-3.338-16.194-9.902-9.275-14.555-22.371-24.29-34.058-31.911a89.277 89.277 0 0 1-39.159-54.995c-5.175-22.084-2.114-43.055 8.849-60.651 11.593-18.542 31.535-31.985 56.058-37.622 31.052-7.138 58.84.501 78.244 21.528 20.98 22.714 27.658 56.868 17.455 89.112-4.99 15.761-10.147 32.06-8.83 49.86.724 9.92-4.396 16.688-14.84 19.858-4.544 1.335-9.126 2.911-13.56 4.432l-6.195 2.095-5.751 1.854c-4.303 1.372-8.755 2.8-12.985 4.469a24.929 24.929 0 0 1-9.034 1.873Zm-2.43-195.841a97.031 97.031 0 0 0-21.666 2.559c-24.115 5.563-43.556 18.542-54.89 36.806-10.703 17.17-13.69 37.659-8.625 59.241 5.305 22.585 18.216 40.793 38.38 53.865 11.853 7.732 25.228 17.633 34.595 32.486 5.473 8.659 13.189 11.125 22.965 7.287 4.322-1.688 8.793-3.116 13.134-4.506l5.732-1.854 6.177-2.096c4.433-1.52 9.034-3.115 13.634-4.45 9.498-2.8 14.154-8.993 13.504-17.93-1.354-18.171 3.877-34.636 8.904-50.564 10.017-31.521 3.488-65.064-17.028-87.296a72.615 72.615 0 0 0-54.816-23.548Z"/><path fill="#0F0F0F" d="m167.333 354.055-50.728 16.926a8.659 8.659 0 0 0-5.474 10.956l.881 2.638c1.515 4.536 6.422 6.986 10.96 5.472L173.7 373.12a8.658 8.658 0 0 0 5.474-10.955l-.881-2.639a8.663 8.663 0 0 0-10.96-5.471Z"/><path fill="#1C1C1C" d="M120.259 391.401a9.535 9.535 0 0 1-9.089-6.545l-.891-2.652a9.606 9.606 0 0 1 6.066-12.126l50.716-16.929a9.63 9.63 0 0 1 12.15 6.063l.872 2.633a9.603 9.603 0 0 1-6.066 12.145l-50.715 16.892a9.608 9.608 0 0 1-3.043.519Zm49.844-36.88a7.92 7.92 0 0 0-2.448.39l-50.79 16.928a7.748 7.748 0 0 0-4.823 9.772l.89 2.633a7.634 7.634 0 0 0 3.877 4.469 7.73 7.73 0 0 0 5.917.426l50.716-16.929a7.721 7.721 0 0 0 4.469-3.885 7.738 7.738 0 0 0 .41-5.905l-.872-2.633a7.754 7.754 0 0 0-7.346-5.266Z"/><path fill="#0F0F0F" d="m173.715 373.137-50.727 16.926a8.659 8.659 0 0 0-5.474 10.956l.881 2.638c1.515 4.536 6.422 6.986 10.96 5.472l50.728-16.927a8.658 8.658 0 0 0 5.474-10.955l-.881-2.639c-1.515-4.536-6.422-6.986-10.961-5.471Z"/><path fill="#1C1C1C" d="M126.622 410.481a9.651 9.651 0 0 1-5.597-1.826 9.633 9.633 0 0 1-3.492-4.738l-.872-2.633a9.495 9.495 0 0 1 .519-7.417 9.274 9.274 0 0 1 5.565-4.802l50.716-16.929a9.57 9.57 0 0 1 12.039 6.138l.872 2.651a9.553 9.553 0 0 1-6.048 12.126l-50.715 16.929a9.726 9.726 0 0 1-2.987.501Zm49.862-36.899a7.611 7.611 0 0 0-2.467.408l-50.715 16.892a7.771 7.771 0 0 0-4.471 3.894 7.584 7.584 0 0 0-.408 5.896l.872 2.633a7.703 7.703 0 0 0 3.878 4.485 7.711 7.711 0 0 0 5.916.41l50.716-16.929a7.712 7.712 0 0 0 4.879-9.79l-.872-2.633a7.687 7.687 0 0 0-3.877-4.468 7.802 7.802 0 0 0-3.451-.798Z"/><path fill="#1C1C1C" d="M180.789 391.939c2.393 7.194-7.42 16.91-21.704 21.713-14.283 4.802-27.992 2.855-30.385-4.321l52.089-17.392Z"/><path fill="#1C1C1C" d="M143.929 417.212a31.539 31.539 0 0 1-4.656-.316c-6.103-.871-10.184-3.448-11.464-7.268a.966.966 0 0 1 .594-1.187l52.088-17.374a.93.93 0 0 1 1.169.575c1.28 3.838-.408 8.344-4.767 12.701a45.28 45.28 0 0 1-17.512 10.18 49.332 49.332 0 0 1-15.452 2.689Zm-13.986-7.324c1.354 2.67 4.711 4.487 9.59 5.173a48.12 48.12 0 0 0 36.043-12.015c3.468-3.486 5.064-6.954 4.544-9.902l-50.177 16.744Z"/><path fill="gray" d="M127.141 357.618a.966.966 0 0 1-.908-.705l-.464-1.854c-3.71-15.631-7.68-31.688-14.58-46.355a60.692 60.692 0 0 1-29.977-1.854 32.631 32.631 0 0 1-14.84-8.919 17.504 17.504 0 0 1-4.137-16.577 16.544 16.544 0 0 1 22.52-8.714c6.678 3.856 13.82 11.644 21.258 23.14a101.986 101.986 0 0 1 6.14 10.921 61.654 61.654 0 0 0 22.854-9.753c-.149-.667-.297-1.316-.427-1.984l-.334-1.631c-2.671-12.646-5.973-28.388-.501-40.793.872-2.002 4.156-8.585 9.405-9.679a7.617 7.617 0 0 1 6.938 2.262 25.495 25.495 0 0 1 7.327 22.065 41.503 41.503 0 0 1-10.202 21.175 58.812 58.812 0 0 1-10.129 9.271 210.992 210.992 0 0 0 18.272 48.896.937.937 0 0 1 .061.716.931.931 0 0 1-.469.544.946.946 0 0 1-1.243-.408 212.799 212.799 0 0 1-18.253-48.598 63.682 63.682 0 0 1-22.297 9.53c6.845 14.667 10.74 30.65 14.506 46.226l.482 1.854a.93.93 0 0 1-.113.698.93.93 0 0 1-.573.414l-.316.112Zm-49.231-84.96a15.458 15.458 0 0 0-5.565 1.076 13.652 13.652 0 0 0-8.31 8.084 15.867 15.867 0 0 0 3.71 14.834 30.82 30.82 0 0 0 13.93 8.381 58.823 58.823 0 0 0 28.567 1.965 101.894 101.894 0 0 0-5.806-10.272c-7.271-11.237-14.209-18.82-20.627-22.547a11.952 11.952 0 0 0-5.9-1.521Zm66.78-28.128a6.458 6.458 0 0 0-1.02.093c-3.469.741-6.456 4.932-8.088 8.622-5.213 11.811-1.985 27.219.612 39.624l.352 1.613c0 .408.167.797.242 1.205a56.459 56.459 0 0 0 9.163-8.566 39.632 39.632 0 0 0 9.776-20.211 23.654 23.654 0 0 0-6.734-20.396 6.455 6.455 0 0 0-4.303-1.984Z"/><path fill="#0F0F0F" d="M304.85 87.702c-.556 0-25.97 71.943-25.97 71.943h68.932l14.432-75.207-57.394 3.264Z"/><path fill="#1C1C1C" d="M347.813 160.572h-68.858a.915.915 0 0 1-.742-.39.918.918 0 0 1-.13-.852c25.247-71.702 25.84-72.537 26.731-72.537l57.393-3.263a.924.924 0 0 1 .936.681c.038.134.048.275.029.413l-14.432 75.188a.912.912 0 0 1-.927.76Zm-67.541-1.854h66.78l14.061-73.278-55.65 3.152c-1.948 4.487-15.749 43.332-25.191 70.126Z"/><path fill="gray" d="M292.682 136.709a.928.928 0 0 1-.742-.353.956.956 0 0 1-.149-.871l8.385-25.143a.884.884 0 0 1 .761-.63l10.684-1.298a.885.885 0 0 1 .817.315.927.927 0 0 1 .185.871l-7.772 25.718a.906.906 0 0 1-.835.649l-11.279.742h-.055Zm9.071-25.236-7.773 23.289 9.275-.594 7.179-23.733-8.681 1.038Zm39.029 41.126h-35.931a.885.885 0 0 1-.742-.371.866.866 0 0 1-.149-.816l17.567-58.815a.946.946 0 0 1 .835-.649l33.39-2.41a.905.905 0 0 1 .76.334.89.89 0 0 1 .204.815l-14.988 61.189a.947.947 0 0 1-.946.723Zm-34.689-1.854h33.965l14.507-59.335-31.443 2.263-17.029 57.072Z"/><path fill="#D9D9D9" d="M262.798 141.066a.931.931 0 0 1-.887-1.246.925.925 0 0 1 .367-.46c.13 0 12.707-8.696 16.491-12.497a54.752 54.752 0 0 1 9.09-6.342 28.64 28.64 0 0 0 6.084-4.246 6.88 6.88 0 0 0-1.261-5.155 3.285 3.285 0 0 0-2.875-1.854c-2.634.186-10.871 5.841-15.768 9.587a.932.932 0 0 1-1.187 0 .915.915 0 0 1-.167-1.169c2.245-3.708 3.896-7.806 3.45-8.548-1.558 0-3.71 2.986-5.565 5.563a29.584 29.584 0 0 1-4.544 5.563c-3.71 3.041-11.65 9.734-11.65 9.734l-1.206-1.409s7.995-6.712 11.668-9.753a28.103 28.103 0 0 0 4.211-5.173c2.3-3.282 4.489-6.379 6.956-6.379a1.853 1.853 0 0 1 1.67.927c.742 1.373-.26 4.172-1.465 6.676 4.062-2.912 10.536-7.25 13.374-7.417a5.126 5.126 0 0 1 4.545 2.577 8.43 8.43 0 0 1 1.41 6.99c-.575 1.187-2.839 2.615-6.79 5.025a53.858 53.858 0 0 0-8.644 6.119c-3.914 3.912-16.231 12.368-16.695 12.72a.875.875 0 0 1-.612.167Zm-3.859-64.007a.907.907 0 0 1-.556-.185c-3.71-2.782-8.218-6.453-8.385-8.01a1.192 1.192 0 0 1 .278-.928c.167-.185 17.678-19.506 20.925-21.156 3.246-1.65 11.927-1.39 15.099.927.353.26 1.28.946 1.095 1.854-.186.909-1.521 1.484-3.525 2.021-1.554.36-3.061.902-4.489 1.614-2.504 1.353-6.752 6.99-9.275 10.568 4.322-.964 10.759-2.02 12.113 0a1.857 1.857 0 0 1 .26 1.725c-.556 1.557-3.061 2.355-7.42 3.708a99.822 99.822 0 0 0-3.357 1.001 64.112 64.112 0 0 0-12.243 6.713.967.967 0 0 1-.52.148Zm-6.975-8.214A45.904 45.904 0 0 0 258.976 75a60.656 60.656 0 0 1 12.169-6.583 92.882 92.882 0 0 1 3.432-1.02c2.207-.648 5.917-1.724 6.177-2.465-.723-.89-6.548-.26-12.503 1.279a.93.93 0 0 1-.983-.352.947.947 0 0 1 0-1.057c.297-.445 7.179-10.959 11.279-13.165a23.011 23.011 0 0 1 4.878-1.854c.631-.167 1.447-.39 1.855-.575l-.093-.093c-2.559-1.854-10.573-2.095-13.152-.779-2.578 1.317-17.529 17.653-20.071 20.508Z"/><path fill="#FDFC00" d="M172.905 91.485s43.908 6.248 50.548 4.58l25.97-29.111 15.23 9.92s-8.014 23.919-18.995 37.733c-10.982 13.813-82.826 16.799-82.826 16.799l10.073-39.921Z"/><path fill="#1C1C1C" d="M268.066 345.028s-5.064 10.94-3.914 15.297c1.15 4.357 20.757 33.283 23.595 30.019 2.839-3.263-1.446-31.521-1.446-31.521l-18.235-13.795Z"/><path fill="#1C1C1C" d="M287.154 391.531h-.519c-5.435-1.279-22.446-27.386-23.373-30.909-1.188-4.562 3.431-14.834 3.969-15.928a.948.948 0 0 1 .25-.319.95.95 0 0 1 .769-.197.92.92 0 0 1 .373.164l18.234 13.721a.882.882 0 0 1 .353.593c.723 4.803 4.192 28.944 1.224 32.356a1.631 1.631 0 0 1-1.28.519Zm-18.717-45.15c-1.539 3.56-4.174 10.662-3.394 13.647 1.298 4.914 18.976 29.575 22.074 29.575 1.632-1.854 0-18.839-1.707-30.428l-16.973-12.794Z"/><path fill="#0F0F0F" d="m278.398 322.314-10.332 22.714 18.235 13.721 13.671-26.571-21.574-9.864Z"/><path fill="#D9D9D9" d="M286.301 359.676a1.003 1.003 0 0 1-.557-.185L267.51 345.77a.944.944 0 0 1-.297-1.131l10.332-22.714a.982.982 0 0 1 .538-.482.926.926 0 0 1 .705 0l21.574 9.864a.953.953 0 0 1 .5.538.981.981 0 0 1 0 .723l-13.671 26.57a.878.878 0 0 1-.631.483l-.259.055Zm-17.085-14.945 16.695 12.609 12.744-24.735-19.849-9.067-9.59 21.193Z"/><path fill="#1C1C1C" d="M224.269 194.022s76.259 19.339 91.229 31.521c14.97 12.182 3.469 99.793-14.673 115.925l-28.53-15.001s15.211-67.122 9.627-72.647c-5.583-5.526-68.505-13.628-68.505-13.628l-41.144-46.003 51.996-.167Z"/><path fill="#1C1C1C" d="M300.825 342.395a.86.86 0 0 1-.427-.111l-28.53-15.001a.928.928 0 0 1-.482-1.02c5.843-25.755 13.69-68.03 9.887-71.794-4.415-4.358-50.567-11.125-67.967-13.369a.872.872 0 0 1-.575-.297l-41.144-46.002a.905.905 0 0 1 .178-1.386.948.948 0 0 1 .508-.153l51.94-.167h.241c3.117.797 76.63 19.543 91.6 31.707 5.565 4.505 6.975 17.559 7.198 27.72.686 31.187-8.904 78.099-21.852 89.613a.854.854 0 0 1-.575.26Zm-27.473-16.41 27.324 14.389c12.355-11.923 21.426-57.369 20.758-87.759-.297-13.814-2.616-23.178-6.511-26.349-14.377-11.7-87.426-30.446-90.765-31.317l-49.826.185 39.549 44.204c7.902 1.02 63.07 8.344 68.635 13.851 1.632 1.613 3.172 7.417-2.467 39.198-2.653 15.297-5.955 30.242-6.697 33.598Z"/><path fill="#0F0F0F" d="m216.905 382.372-2.393 20.933 20.22 9.679 4.6-28.888-22.427-1.724Z"/><path fill="#D9D9D9" d="M234.732 413.911a1.077 1.077 0 0 1-.408 0l-20.22-9.679a.94.94 0 0 1-.519-.945l2.393-20.934a.884.884 0 0 1 .643-.789.904.904 0 0 1 .358-.027l22.427 1.724a.886.886 0 0 1 .65.353.858.858 0 0 1 .185.723l-4.656 28.796a.888.888 0 0 1-.482.667.856.856 0 0 1-.371.111Zm-19.237-11.125 18.55 8.863 4.248-26.682-20.534-1.576-2.264 19.395Z"/><path fill="#1C1C1C" d="M149.661 213.621s69.247 50.657 70.175 74.335c.927 23.678-8.218 98.495-8.218 98.495l34.8 8.325s25.135-99.422 16.695-124.769c-8.44-25.347-57.208-78.229-57.208-78.229l-56.244 21.843Z"/><path fill="#1C1C1C" d="M246.418 395.703h-.223l-34.725-8.362a.909.909 0 0 1-.705-1.002c0-.741 9.126-75.039 8.199-98.365-.891-22.955-69.118-73.111-69.804-73.612a.979.979 0 0 1-.371-.871.966.966 0 0 1 .594-.742l56.225-21.824a.908.908 0 0 1 1.02.223c1.985 2.169 48.879 53.326 57.338 78.562 8.459 25.236-15.563 121.228-16.695 125.288a.928.928 0 0 1-.853.705Zm-33.78-9.957 33.093 7.917c2.468-9.92 24.338-99.811 16.436-123.36-7.903-23.548-51.718-72.165-56.541-77.431l-54.073 20.99c9.98 7.416 68.338 51.769 69.21 74.056.872 22.288-7.142 89.595-8.125 97.828Z"/><path fill="#D9D9D9" d="M152.425 68.845a26.45 26.45 0 0 1-3.487-.223 17.363 17.363 0 0 1-7.958-3.115c-4.36-3.189-6.623-8.4-8.57-13.461a28.098 28.098 0 0 1-2.56-10.699c.148-6.712 4.563-12.33 8.885-16.947 3.432-3.709 6.455-7.621 5.157-11.367a11.98 11.98 0 0 0-.352-.852 6.607 6.607 0 0 1-.687-2.355 3.822 3.822 0 0 1 1.744-3.3 5.674 5.674 0 0 1 5.194-.668 10.717 10.717 0 0 1 4.841 4.746 6.468 6.468 0 0 0 .798-4.71l-.111-.407a3.911 3.911 0 0 1 .093-3.06 3.58 3.58 0 0 1 2.3-1.464 13.232 13.232 0 0 1 10.165 1.668 13.688 13.688 0 0 1 5.343 5.841 7.42 7.42 0 0 0-.186-4.08.921.921 0 0 1 .229-.953.928.928 0 0 1 .958-.214 26.509 26.509 0 0 1 15.694 15.074 26.11 26.11 0 0 1 1.521 13.721A51.903 51.903 0 0 1 188.189 45a11.39 11.39 0 0 1-3.209 3.56l-.222.185a75.144 75.144 0 0 0-7.198 7.176c-4.73 5.192-9.275 10.105-17.418 11.978a35.855 35.855 0 0 1-7.717.946ZM147.917 7.36a3.97 3.97 0 0 0-2.207.667 2.024 2.024 0 0 0-.965 1.725 4.95 4.95 0 0 0 .538 1.687c.13.334.278.649.39.982 1.855 5.322-2.968 10.477-5.565 13.24-4.081 4.357-8.255 9.641-8.385 15.723.139 3.456.952 6.85 2.393 9.994 1.855 5.007 3.988 9.753 7.94 12.646a15.617 15.617 0 0 0 7.123 2.763c3.531.404 7.106.172 10.555-.686 7.661-1.743 11.946-6.434 16.472-11.422a76.673 76.673 0 0 1 7.42-7.417l.223-.185a10.02 10.02 0 0 0 2.727-2.93 53.432 53.432 0 0 0 3.06-12.46c.677-4.302.19-8.707-1.41-12.757a24.737 24.737 0 0 0-12.985-13.388 9.264 9.264 0 0 1-1.261 5.99.929.929 0 0 1-1.688-.279 11.923 11.923 0 0 0-14.079-8.547 1.854 1.854 0 0 0-1.169.611c-.223.371 0 .983.111 1.65l.112.446a8.185 8.185 0 0 1-2.022 7.417.837.837 0 0 1-.78.278.91.91 0 0 1-.704-.445 10.646 10.646 0 0 0-4.619-5.137 3.346 3.346 0 0 0-1.225-.166Zm42.962 57.906a13.321 13.321 0 0 1-4.341-.89.929.929 0 0 1-.501-1.205.909.909 0 0 1 1.188-.52c1.131.446 4.6 1.428 5.676 0 .723-.926-1.521-7.045-4.823-13.109a.905.905 0 0 1 .371-1.26.947.947 0 0 1 1.261.37c2.022 3.709 6.567 12.72 4.638 15.15a4.232 4.232 0 0 1-3.469 1.464Z"/><path fill="#0F0F0F" d="M188.58 34.134c4.415 4.283 2.337 12.35 1.855 17.67a485.318 485.318 0 0 1-2.634 22.4c-.668 4.728-12.985 3.708-15.026 2.169l-.26 15.797s-3.71 8.419-13.17 2.986c-9.461-5.433-11.26-12.071-11.26-12.071l2.69-21.583s8.106.76 13.745-8.51c5.639-9.272 6.734-24.105 6.734-24.105s13.022 1.057 17.326 5.247Z"/><path fill="#D9D9D9" d="M165.336 97.919a13.156 13.156 0 0 1-6.418-1.966c-9.739-5.562-11.649-12.275-11.723-12.553a.75.75 0 0 1 0-.352l2.689-21.601a.946.946 0 0 1 1.002-.798c.315 0 7.643.557 12.985-8.066 5.454-8.955 6.567-23.585 6.585-23.733a.925.925 0 0 1 .641-.812.928.928 0 0 1 .361-.041c.538 0 13.393 1.094 17.901 5.562 4.006 3.876 3.135 10.347 2.448 15.557-.13 1.001-.259 1.984-.352 2.874a486.49 486.49 0 0 1-2.616 22.436 4.357 4.357 0 0 1-3.079 3.356 21.045 21.045 0 0 1-11.965.111l-.185 14.389c.017.117.017.235 0 .352a9.737 9.737 0 0 1-5.38 4.95 8.775 8.775 0 0 1-2.894.335Zm-16.305-14.834c.352 1.001 2.578 6.583 10.815 11.274a9.381 9.381 0 0 0 7.568 1.39 7.884 7.884 0 0 0 4.211-3.708l.204-15.594a.945.945 0 0 1 .538-.816.909.909 0 0 1 .964 0c1.113.89 7.903 1.854 11.613.334 1.168-.464 1.855-1.112 1.855-1.854 1.039-7.417 1.855-14.834 2.615-22.362 0-.908.223-1.854.353-2.93.63-4.802 1.428-10.754-1.855-13.999-3.284-3.244-12.855-4.524-15.842-4.858-.334 3.468-1.855 15.52-6.771 23.623-4.915 8.103-11.352 8.881-13.727 8.956l-2.541 20.544Z"/><path fill="#D9D9D9" d="M184.758 70.291a6.588 6.588 0 0 1-2.319-.408 6.994 6.994 0 0 1-3.914-4.116.946.946 0 0 1 .519-1.224.936.936 0 0 1 .711.01.925.925 0 0 1 .495.51 5.16 5.16 0 0 0 2.838 3.077 6.459 6.459 0 0 0 4.582-.37.932.932 0 0 1 1.023.137.93.93 0 0 1 .265.992.945.945 0 0 1-.453.54 9.278 9.278 0 0 1-3.747.852Z"/><path fill="#0F0F0F" d="M174.11 52.732a10.21 10.21 0 0 0-1.67-5.322 14.938 14.938 0 0 0-2.411-3.708 5.011 5.011 0 0 0-3.933-1.576 4.57 4.57 0 0 0-3.153 2.077 8.41 8.41 0 0 0-1.243 3.708 16.067 16.067 0 0 0 6.177 14.834l-.371-.482"/><path fill="#D9D9D9" d="M167.877 63.727a.836.836 0 0 1-.538-.185 17.151 17.151 0 0 1-6.566-15.76 9.633 9.633 0 0 1 1.409-4.024 5.58 5.58 0 0 1 3.71-2.485 5.735 5.735 0 0 1 4.693 1.854 14.828 14.828 0 0 1 2.579 3.857 10.938 10.938 0 0 1 1.762 5.822.965.965 0 0 1-.983.853.903.903 0 0 1-.634-.312.924.924 0 0 1-.178-.313.922.922 0 0 1-.041-.358 9.274 9.274 0 0 0-1.558-4.82 13.662 13.662 0 0 0-2.264-3.412 3.907 3.907 0 0 0-3.153-1.317 3.71 3.71 0 0 0-2.486 1.669 7.685 7.685 0 0 0-1.113 3.245 15.31 15.31 0 0 0 5.565 13.795h.093l.389.482a.922.922 0 0 1 .104.986.92.92 0 0 1-.845.516l.055-.093Z"/><path fill="#1C1C1C" d="M172.756 76.373s-6.196-2.54-8.793-7.157c0 0-.556 11.44 8.941 15.575l-.148-8.418Z"/><path fill="#1C1C1C" d="M172.905 85.718a.967.967 0 0 1-.39 0c-9.961-4.339-9.479-16.354-9.479-16.484a.923.923 0 0 1 .723-.853.947.947 0 0 1 1.021.445c2.393 4.283 8.273 6.73 8.329 6.75a.925.925 0 0 1 .575.852l.148 8.437a.92.92 0 0 1-.427.779.833.833 0 0 1-.5.074Zm-7.81-13.48a14.826 14.826 0 0 0 6.864 11.125l-.093-6.304a23.352 23.352 0 0 1-6.771-4.821Z"/><path fill="gray" d="M185.989 43.114c.372-1.44.214-2.726-.353-2.872-.566-.146-1.327.904-1.698 2.344s-.213 2.726.353 2.872c.567.146 1.327-.903 1.698-2.344Z"/><path fill="#FDFC00" d="M139.978 77.522s27.436 1.28 38.454 16.02c11.019 14.742 19.886 71.128 25.284 74.836 5.398 3.709 20.739 24.587 20.553 25.644-.185 1.057-78.559 25.959-78.559 25.959s-4.6-18.079-13.244-41.497c-8.645-23.419-15.341-99.367 7.512-100.962Z"/><path fill="#1C1C1C" d="M211.099 176.759a.958.958 0 0 1-.723-.352 97.81 97.81 0 0 1-17.845-40.181c-4.044-22.769-11.613-36.602-11.687-36.731a.928.928 0 0 1 .353-1.261.925.925 0 0 1 1.261.37c0 .13 7.791 14.204 11.891 37.289a95.964 95.964 0 0 0 17.474 39.346.926.926 0 0 1-.13 1.298.942.942 0 0 1-.594.222Z"/><path fill="#FDFC00" d="M162.349 100.459c.631.778 31.647 50.23 31.647 50.23l61.678-29.667 15.063 17.355s-51.977 39.272-72.252 45.929c-20.276 6.656-66.78-65.732-66.261-73.686.519-7.955 21.221-21.194 30.125-10.161Z"/><path fill="#1C1C1C" d="M193.995 151.691a.954.954 0 0 1-.797-.427s-27.677-44.074-28.103-44.705a.927.927 0 0 1 1.558-1.001c.352.538 24.022 38.197 27.602 43.907l32.685-17.077a.93.93 0 0 1 1.138 1.422.953.953 0 0 1-.284.229l-33.39 17.466a.914.914 0 0 1-.409.186Zm3.117 32.652c-12.985 0-26.935-10.958-41.664-32.671a.903.903 0 0 1-.149-.69.897.897 0 0 1 .391-.589.946.946 0 0 1 1.298.241c16.064 23.696 31.034 34.265 44.52 31.41 13.486-2.856 40.439-24.105 40.699-24.253a.916.916 0 0 1 1.025-.089c.106.06.199.141.273.237a.89.89 0 0 1 .201.681.9.9 0 0 1-.349.617c-1.113.89-27.454 21.639-41.478 24.605a22.27 22.27 0 0 1-4.767.501Z"/><path fill="#1C1C1C" d="m173.461 89.797-1.466 4.413 3.618 4.71s-7.198 36.713-61.902 7.417l-17.585 6.415 10.444 14.222s65.815 25.31 70.935-27.553l.927-5.897-4.971-3.727Z"/><path fill="#1C1C1C" d="M138.902 133.89a85.266 85.266 0 0 1-12.484-.983 108.652 108.652 0 0 1-20.182-5.117.758.758 0 0 1-.408-.315l-10.444-14.222a.908.908 0 0 1 .427-1.409l17.604-6.323a.863.863 0 0 1 .742 0c20.646 11.125 36.803 13.944 47.988 8.659a23.875 23.875 0 0 0 12.466-15.112l-3.339-4.376a.931.931 0 0 1-.148-.852l1.465-4.395a.95.95 0 0 1 .594-.593.906.906 0 0 1 .834.148l4.953 3.708a.905.905 0 0 1 .371.872l-.927 5.896c-1.28 13.332-6.567 22.974-15.656 28.611-7.124 4.431-15.786 5.803-23.856 5.803Zm-31.757-7.732c3.153 1.15 35.245 12.386 54.629.39 8.589-5.303 13.579-14.482 14.84-27.257l.854-5.396-3.488-2.596-.909 2.726 3.302 4.32a.89.89 0 0 1 .167.742 25.168 25.168 0 0 1-13.541 16.799c-11.687 5.563-28.27 2.67-49.325-8.492l-16.046 5.766 9.517 12.998Zm107.367 277.147s-4.934 18.542-4.266 20.155c.668 1.613 31.09 40.088 33.946 28.184 2.857-11.904-9.46-38.66-9.46-38.66l-20.22-9.679Z"/><path fill="#1C1C1C" d="M241.725 454.852c-8.774 0-31.646-29.407-32.333-31.039-.686-1.632 2.356-13.721 4.23-20.749a.845.845 0 0 1 .501-.593.948.948 0 0 1 .779 0l20.219 9.679a.867.867 0 0 1 .445.445c.52 1.094 12.41 27.183 9.517 39.253a3.338 3.338 0 0 1-3.061 2.986l-.297.018Zm-26.545-50.23c-2.189 8.362-4.229 17.337-3.988 18.542 1.354 2.577 24.115 30.65 30.83 29.834.464 0 1.039-.297 1.335-1.576 2.597-10.791-7.92-34.785-9.275-37.752l-18.902-9.048Z"/><path fill="gray" d="M247.234 243.27a.87.87 0 0 1-.723-.371L220.17 209.43a.917.917 0 0 1-.114-1.059.943.943 0 0 1 .583-.45.93.93 0 0 1 .996.378l26.323 33.469a.927.927 0 0 1-.724 1.502Z"/><path fill="#0F0F0F" d="m347.812 159.645.742-44.389 15.174-71.016-1.484 40.199-14.432 75.206Z"/><path fill="#1C1C1C" d="M347.812 160.572h-.092a.946.946 0 0 1-.835-.946l.742-44.389 15.192-71.201a.946.946 0 0 1 1.021-.724.926.926 0 0 1 .816.965l-1.484 40.199-14.432 75.336a.91.91 0 0 1-.928.76Zm14.599-105.69-12.985 60.633-.538 33.524 12.41-64.712 1.113-29.444Z"/><path fill="#0F0F0F" d="M1.632 173.57c.297-.871.593-1.854.909-2.651.167-.445.334-.909.538-1.354a1.28 1.28 0 0 1 1.391-.853c.723 0 1.428.223 2.133.352a8.4 8.4 0 0 0 1.15.149 1.41 1.41 0 0 0 .798-.26 49.105 49.105 0 0 0 2.393-2.429 1.275 1.275 0 0 0 .241-1.131c-.185-.853-.39-1.724-.575-2.577a3.251 3.251 0 0 1 0-1.039.922.922 0 0 1 .334-.649 15.736 15.736 0 0 1 4.285-1.854 1.078 1.078 0 0 1 1.224.445c.538.742 1.113 1.465 1.633 2.244a1.856 1.856 0 0 0 1.688.853c.946 0 1.855 0 2.838-.13a1.058 1.058 0 0 0 .853-.519c.353-.501.668-1.02 1.002-1.521.334-.5.556-.871.853-1.279a1.076 1.076 0 0 1 1.317-.464l3.914 1.41a1.148 1.148 0 0 1 .705 1.279c0 .723-.222 1.446-.352 2.169 0 .334 0 .668-.13 1.02a1.406 1.406 0 0 0 .445 1.205c.686.649 1.391 1.298 2.06 1.966a1.56 1.56 0 0 0 1.52.445l2.82-.649a1.244 1.244 0 0 1 1.558.76 111.486 111.486 0 0 1 1.558 3.375 1.35 1.35 0 0 1-.482 1.854c-.482.371-1.002.705-1.503 1.075-.5.371-.705.538-1.038.835a1.13 1.13 0 0 0-.427.964v2.948a1.555 1.555 0 0 0 .798 1.298c.519.315 1.075.631 1.595.964.338.193.667.404.983.631a1.166 1.166 0 0 1 .427 1.409 198.55 198.55 0 0 1-1.317 3.541c-.077.18-.177.348-.297.501a1.038 1.038 0 0 1-1.094.519l-2.56-.426h-.186a1.859 1.859 0 0 0-1.855.667c-.482.575-1.039 1.094-1.54 1.632a1.854 1.854 0 0 0-.482 1.854c.204.835.408 1.65.575 2.485.167.834 0 1.261-.798 1.65a102.75 102.75 0 0 1-3.505 1.595 1.189 1.189 0 0 1-1.54-.408c-.464-.575-.872-1.187-1.299-1.854-.927-1.28-1.15-1.41-2.727-1.317h-1.855a1.708 1.708 0 0 0-1.446.853c-.371.612-.742 1.242-1.132 1.854a6.297 6.297 0 0 1-.705.872.867.867 0 0 1-.965.259l-3.71-1.39c-.166 0-.315-.186-.482-.279a1.037 1.037 0 0 1-.52-1.094c.13-.852.28-1.687.409-2.521.018-.259.018-.52 0-.779a1.242 1.242 0 0 0-.427-1.131l-2.003-1.854a1.477 1.477 0 0 0-1.466-.371l-2.597.612h-.092c-1.095.185-1.447 0-1.855-.946-.408-.945-1.002-2.243-1.466-3.374a1.12 1.12 0 0 1-.114-.875 1.108 1.108 0 0 1 .56-.683c.667-.501 1.335-1.001 2.04-1.446a1.95 1.95 0 0 0 .983-1.947c0-.89 0-1.854-.111-2.652a1.15 1.15 0 0 0-.52-.927c-.742-.482-1.484-.927-2.207-1.409a2.467 2.467 0 0 1-1.169-1.205l.019-.297Zm28.047 4.932a8.397 8.397 0 0 0-8.458-8.399 8.515 8.515 0 0 0-8.237 8.418 8.362 8.362 0 0 0 11.678 8.228 8.36 8.36 0 0 0 5.017-8.228v-.019Z"/><path fill="gray" d="M16.584 199.177a1.61 1.61 0 0 1-.65-.13l-3.71-1.391a2.906 2.906 0 0 1-.593-.315 2.021 2.021 0 0 1-.983-2.058l.408-2.522a4.135 4.135 0 0 0 0-.686c0-.241 0-.334-.112-.389l-1.725-1.595-.297-.297a.552.552 0 0 0-.612-.129l-1.855.426-.686.148c-1.651.297-2.412 0-3.042-1.427-.631-1.428-1.02-2.281-1.484-3.431a2 2 0 0 1 .742-2.633 33.147 33.147 0 0 1 2.096-1.483 1.093 1.093 0 0 0 .575-1.112v-2.67a.244.244 0 0 0 0-.186l-2.226-1.409a3.245 3.245 0 0 1-1.521-1.706.74.74 0 0 1 0-.278v-.334a.83.83 0 0 1 0-.296l.222-.668c.223-.667.446-1.335.687-1.984.24-.649.352-.946.556-1.409a2.207 2.207 0 0 1 2.356-1.428c.482 0 .965.148 1.466.241l1.001.167h.687c.08.017.161.017.24 0a68.71 68.71 0 0 0 2.282-2.336v-.315l-.26-1.113c-.11-.501-.203-.983-.315-1.465a4.986 4.986 0 0 1-.11-1.298 1.859 1.859 0 0 1 .778-1.353 16.423 16.423 0 0 1 4.34-2.021 1.984 1.984 0 0 1 2.208.778l.575.761c.371.5.742 1.001 1.076 1.52a.852.852 0 0 0 .854.445h2.856c.252-.321.488-.655.705-1.001l.575-.89c.241-.353.464-.705.724-1.057a1.987 1.987 0 0 1 2.355-.779c1.318.464 2.653.927 3.952 1.428a2.057 2.057 0 0 1 1.298 2.206c0 .52-.148 1.02-.241 1.521l-.111.723a8.226 8.226 0 0 0-.13.946.442.442 0 0 0 .148.445l.52.5c.52.482 1.057.983 1.558 1.502a.652.652 0 0 0 .686.186l1.354-.316 1.447-.333a2.205 2.205 0 0 1 2.616 1.26 80.301 80.301 0 0 1 1.54 3.412 2.225 2.225 0 0 1-.743 2.967c-.296.241-.612.445-.927.667l-.594.427-.983.779a.242.242 0 0 0-.111.259v2.911a.63.63 0 0 0 .334.557l.705.407.927.557c.353.222.705.445 1.039.704a2.079 2.079 0 0 1 .742 2.466 167.851 167.851 0 0 1-1.336 3.542 2.82 2.82 0 0 1-.352.63 1.949 1.949 0 0 1-2.06.965l-2.54-.408h-.26a.923.923 0 0 0-1.02.389c-.353.408-.742.797-1.132 1.187l-.445.463a.967.967 0 0 0-.26.983c.223.834.427 1.687.594 2.522a2.112 2.112 0 0 1-1.299 2.688 84.114 84.114 0 0 1-3.543 1.576 2.098 2.098 0 0 1-2.652-.667c-.371-.501-.742-1.001-1.095-1.521l-.223-.296c-.704-1.002-.704-1.002-1.855-.927H20.46a.726.726 0 0 0-.686.408l-.39.611c-.24.427-.5.853-.76 1.261a6.52 6.52 0 0 1-.816 1.02c-.333.312-.769.49-1.224.501ZM8.57 187.773a2.336 2.336 0 0 1 1.65.668l.316.297 1.688 1.576a2.166 2.166 0 0 1 .724 1.854v.853l-.408 2.54.111.167.297.185 3.71 1.391c.204-.26.408-.501.575-.76.167-.26.5-.798.723-1.206l.39-.63a2.64 2.64 0 0 1 2.189-1.298h1.855a3.116 3.116 0 0 1 3.524 1.706l.223.315c.352.482.686.964 1.057 1.409.371.445.223.241.464.13a64.16 64.16 0 0 0 3.469-1.557c.12-.053.232-.121.334-.204a1.324 1.324 0 0 0 0-.427 51.645 51.645 0 0 0-.557-2.429 2.742 2.742 0 0 1 .705-2.725l.464-.483c.359-.346.7-.711 1.02-1.093a2.745 2.745 0 0 1 2.875-.983l2.69.445.186-.13c.073-.098.135-.204.185-.315.445-1.168.89-2.337 1.317-3.523 0-.111 0-.186-.13-.353a7.526 7.526 0 0 0-.89-.593l-.89-.519-.705-.426a2.486 2.486 0 0 1-1.243-2.059v-2.966a2.073 2.073 0 0 1 .76-1.688c.342-.31.701-.601 1.076-.871l.65-.464.834-.593c.39-.334.39-.371.204-.779-.5-1.131-1.002-2.243-1.54-3.356-.13-.26-.185-.315-.537-.241l-1.429.334-1.372.296a2.463 2.463 0 0 1-2.393-.686c-.501-.5-1.002-.982-1.521-1.446l-.52-.501a2.325 2.325 0 0 1-.723-1.854c0-.371 0-.741.148-1.094l.13-.76c.094-.447.162-.899.204-1.353 0-.26 0-.297-.111-.316-1.28-.5-2.579-.945-3.877-1.409-.093 0-.149 0-.26.13-.111.13-.445.649-.668.983l-.575.871-.593.927a2.049 2.049 0 0 1-1.577.927h-2.875a2.647 2.647 0 0 1-2.523-1.261 35.721 35.721 0 0 0-1.058-1.446l-.575-.779c0-.111-.11-.129-.24 0a14.828 14.828 0 0 0-4.008 1.855c.075.236.13.478.167.723.093.463.204.945.316 1.428l.26 1.149a2.151 2.151 0 0 1-.483 1.854 50.23 50.23 0 0 1-2.411 2.466 2.319 2.319 0 0 1-1.429.52 7.995 7.995 0 0 1-1.057-.13l-1.002-.167c-.445 0-.89-.167-1.335-.204-.446-.037-.316 0-.446.297-.13.296-.37.853-.519 1.298l-.668 1.965-.185.519c.193.25.44.453.723.594l2.115 1.427a2.023 2.023 0 0 1 .927 1.65v2.633a2.873 2.873 0 0 1-1.41 2.8 29.79 29.79 0 0 0-1.984 1.409c-.082.06-.157.128-.223.204v.26c.464 1.113.928 2.225 1.447 3.319.186.408.278.482.297.482.202.037.41.037.612 0l.742-.167 1.855-.408c.237-.102.486-.171.742-.204Zm12.8 0a9.275 9.275 0 0 1-8.535-5.734 9.266 9.266 0 0 1 2.005-10.082 9.405 9.405 0 0 1 6.418-2.781 9.278 9.278 0 0 1 8.67 5.697 9.27 9.27 0 0 1 .716 3.574 8.875 8.875 0 0 1-2.504 6.397 9.282 9.282 0 0 1-6.77 2.948v-.019Zm-.112-16.687a7.532 7.532 0 0 0-5.101 2.243 7.414 7.414 0 0 0-2.189 5.248 7.414 7.414 0 0 0 7.42 7.416 7.418 7.418 0 0 0 5.454-2.317 7.176 7.176 0 0 0 2.003-5.062 7.418 7.418 0 0 0-7.531-7.417l-.056-.111Z"/><path fill="#0F0F0F" d="M311.788 372.859c.408-1.613.798-3.245 1.224-4.858.204-.853.464-1.669.724-2.503a2.334 2.334 0 0 1 2.374-1.743c1.299 0 2.579.185 3.877.278.691.065 1.387.065 2.078 0a2.295 2.295 0 0 0 1.372-.575c1.355-1.52 2.616-3.096 3.877-4.691a2.14 2.14 0 0 0 .26-2.058c-.464-1.52-.964-3.022-1.41-4.524a6.255 6.255 0 0 1-.315-1.854 1.715 1.715 0 0 1 .482-1.224 28.145 28.145 0 0 1 7.42-4.135 1.857 1.857 0 0 1 2.245.593c1.094 1.261 2.226 2.466 3.283 3.709a3.087 3.087 0 0 0 3.135 1.242c1.67-.26 3.376-.426 5.046-.667a1.858 1.858 0 0 0 1.465-1.039 97.978 97.978 0 0 0 1.521-2.874c.52-1.02.872-1.631 1.354-2.429a1.857 1.857 0 0 1 2.264-1.001c2.411.612 4.823 1.242 7.197 1.854a2.037 2.037 0 0 1 1.465 2.151c0 1.298-.204 2.614-.296 3.912v1.855a2.512 2.512 0 0 0 .964 2.076c1.336 1.057 2.69 2.096 3.97 3.208a2.779 2.779 0 0 0 2.82.538c1.632-.501 3.264-1.057 4.915-1.558a2.228 2.228 0 0 1 2.913 1.094 149.02 149.02 0 0 1 3.283 5.785 2.386 2.386 0 0 1 .096 2.725 2.387 2.387 0 0 1-.671.687c-.816.76-1.688 1.428-2.504 2.169-.817.742-1.169 1.057-1.726 1.632a2.128 2.128 0 0 0-.63 1.854c.185 1.743.371 3.505.593 5.248a2.743 2.743 0 0 0 1.614 2.188l3.024 1.465c.638.302 1.258.642 1.855 1.019a2.062 2.062 0 0 1 1.002 2.429 264.173 264.173 0 0 1-1.855 6.527c-.114.33-.264.647-.446.946a1.859 1.859 0 0 1-1.855 1.094l-4.619-.371h-.352a3.301 3.301 0 0 0-3.376 1.52c-.761 1.094-1.651 2.096-2.486 3.134a3.278 3.278 0 0 0-.575 3.375c.501 1.427 1.002 2.874 1.428 4.338a2.214 2.214 0 0 1 .106 1.801 2.207 2.207 0 0 1-1.274 1.277 145.13 145.13 0 0 1-6.029 3.356 2.079 2.079 0 0 1-2.82-.5c-.908-.946-1.743-1.966-2.596-2.967-1.855-2.151-2.264-2.318-5.065-1.854l-3.264.463a3.01 3.01 0 0 0-2.449 1.725c-.575 1.168-1.113 2.336-1.725 3.486-.321.592-.7 1.151-1.132 1.669a1.524 1.524 0 0 1-1.688.593l-6.863-1.854a4.326 4.326 0 0 1-.891-.408 1.858 1.858 0 0 1-1.094-1.854l.334-4.562c.028-.463.028-.927 0-1.39a2.392 2.392 0 0 0-.928-1.966c-1.317-1.001-2.597-2.021-3.895-3.041a2.636 2.636 0 0 0-2.653-.426c-1.447.5-2.912.945-4.359 1.409a.584.584 0 0 1-.167 0c-1.855.519-2.56.334-3.543-1.372a137.332 137.332 0 0 1-3.135-5.822 2.007 2.007 0 0 1-.327-1.537 2.008 2.008 0 0 1 .883-1.3 61.5 61.5 0 0 1 3.414-2.874 3.582 3.582 0 0 0 1.465-3.709c-.241-1.557-.408-3.133-.631-4.709a1.976 1.976 0 0 0-1.057-1.576l-4.174-2.17a4.302 4.302 0 0 1-2.244-1.965l-.223-.464Zm50.938 4.487a14.99 14.99 0 0 0-5.331-10.261 15.02 15.02 0 0 0-11.048-3.423 15.272 15.272 0 0 0-9.996 5.44 15.255 15.255 0 0 0-3.453 10.84 15.039 15.039 0 0 0 16.139 13.629 14.825 14.825 0 0 0 5.659-1.58 14.837 14.837 0 0 0 8.03-14.645Z"/><path fill="gray" d="M342.117 415.543a3.062 3.062 0 0 1-.686-.093l-1.855-.519-4.99-1.39a4.217 4.217 0 0 1-.964-.445 2.827 2.827 0 0 1-1.298-1.138 2.823 2.823 0 0 1-.39-1.681l.148-1.984c0-.853.13-1.724.185-2.577a10.04 10.04 0 0 0 0-1.298 1.455 1.455 0 0 0-.575-1.261 85.889 85.889 0 0 1-3.561-2.781l-.334-.26a1.708 1.708 0 0 0-1.855-.259l-3.098 1.001-1.28.408h-.185a3.37 3.37 0 0 1-2.721.097 3.367 3.367 0 0 1-1.898-1.951c-1.225-2.114-2.319-4.228-3.154-5.86a2.907 2.907 0 0 1 .779-3.949c1.299-1.168 2.393-2.114 3.451-2.93a2.654 2.654 0 0 0 1.131-2.763c-.148-.982-.278-1.946-.408-2.929l-.223-1.854a1.057 1.057 0 0 0-.593-.872l-1.67-.89-2.485-1.279a5.156 5.156 0 0 1-2.672-2.448.811.811 0 0 1 0-.278v-.575a1.84 1.84 0 0 1 0-.315l.371-1.483c.279-1.131.557-2.262.854-3.394a34.44 34.44 0 0 1 .76-2.54 3.304 3.304 0 0 1 3.265-2.392c.872 0 1.744 0 2.597.167l1.317.111h.538c.463.046.929.046 1.391 0 .278-.02.545-.109.779-.259 1.41-1.613 2.727-3.264 3.84-4.654a1.301 1.301 0 0 0 .093-1.224c-.186-.649-.408-1.316-.612-1.965-.204-.649-.538-1.706-.798-2.559a7.205 7.205 0 0 1-.352-2.095 2.581 2.581 0 0 1 .853-1.947 29.011 29.011 0 0 1 7.587-4.265 2.824 2.824 0 0 1 3.265.853c.371.445.779.89 1.168 1.316a86.74 86.74 0 0 1 2.115 2.466 2.171 2.171 0 0 0 2.282.928 71.339 71.339 0 0 1 3.283-.445l1.855-.223a1.032 1.032 0 0 0 .761-.575l.89-1.669.89-1.668c.353-.668.724-1.335 1.113-1.984a2.837 2.837 0 0 1 3.284-1.428c2.857.705 5.157 1.316 7.234 1.854a2.948 2.948 0 0 1 2.134 3.041 25.898 25.898 0 0 1-.186 2.67l-.111 1.317v1.854c-.013.258.036.515.143.75.106.236.267.442.469.603l.872.686c1.057.835 2.114 1.669 3.135 2.541a1.856 1.856 0 0 0 1.855.352l2.393-.76 2.522-.798a3.194 3.194 0 0 1 3.989 1.502 161.613 161.613 0 0 1 3.283 5.841 3.296 3.296 0 0 1-.742 4.524c-.482.445-.983.872-1.503 1.298l-1.02.872a33.95 33.95 0 0 0-1.669 1.594 1.184 1.184 0 0 0-.371 1.039l.111 1.131c.148 1.353.297 2.725.482 4.098a1.85 1.85 0 0 0 1.095 1.501l1.243.594 1.855.853c.637.324 1.257.683 1.855 1.075a2.986 2.986 0 0 1 1.391 3.449 291.53 291.53 0 0 1-1.855 6.545c-.12.364-.282.713-.482 1.039a2.824 2.824 0 0 1-2.82 1.65l-4.619-.352h-.408a2.335 2.335 0 0 0-2.486 1.131c-.556.797-1.168 1.52-1.855 2.262l-.742.908a2.337 2.337 0 0 0-.408 2.485c.501 1.465.983 2.911 1.428 4.394a3.073 3.073 0 0 1-.58 3.442 3.062 3.062 0 0 1-1.015.693 160.257 160.257 0 0 1-6.047 3.375 3.042 3.042 0 0 1-3.951-.668 53.44 53.44 0 0 1-2.134-2.447l-.482-.556c-1.632-1.855-1.744-1.966-4.229-1.632l-3.265.482c-.371.03-.728.157-1.034.368a2.124 2.124 0 0 0-.71.837l-.575 1.15a46.88 46.88 0 0 1-1.168 2.355 10.533 10.533 0 0 1-1.225 1.854 2.532 2.532 0 0 1-1.985 1.205Zm-15.377-17.689a3.47 3.47 0 0 1 2.207.816l.334.259 3.543 2.763a3.32 3.32 0 0 1 1.298 2.67c.028.494.028.99 0 1.484 0 .871-.129 1.724-.185 2.596l-.167 1.965a.962.962 0 0 0 .631 1.001c.22.141.457.253.705.334 1.65.482 3.301.927 4.971 1.391l1.855.519c.204 0 .427.093.723-.278a8.975 8.975 0 0 0 1.039-1.539c.39-.742.761-1.521 1.132-2.281l.575-1.168a3.926 3.926 0 0 1 3.153-2.225l3.265-.482c3.135-.427 3.858-.149 5.899 2.262l.482.556c.687.816 1.354 1.613 2.078 2.373a1.185 1.185 0 0 0 1.725.297 133.537 133.537 0 0 0 5.973-3.319c1.002-.593 1.095-.853.761-2.021a89.994 89.994 0 0 0-1.41-4.302 4.228 4.228 0 0 1 .723-4.264l.761-.927c.594-.705 1.169-1.391 1.706-2.151a4.196 4.196 0 0 1 4.267-1.854h.278l4.619.37a.96.96 0 0 0 1.002-.612c.143-.243.267-.497.371-.76.612-2.169 1.224-4.339 1.855-6.508a1.132 1.132 0 0 0-.594-1.409c-.56-.358-1.143-.68-1.743-.964l-1.726-.853-1.279-.612a3.713 3.713 0 0 1-2.115-2.911 145.971 145.971 0 0 1-.482-4.154l-.13-1.112a3.038 3.038 0 0 1 .89-2.54 18.075 18.075 0 0 1 1.855-1.688l1.057-.908c.483-.39.965-.798 1.41-1.224.891-.834.965-1.242.408-2.299-1.057-1.855-2.152-3.857-3.265-5.767a1.354 1.354 0 0 0-1.855-.667c-.834.241-1.65.519-2.485.778l-2.412.779a3.712 3.712 0 0 1-3.71-.723 99.11 99.11 0 0 0-3.079-2.485l-.872-.704a3.459 3.459 0 0 1-1.317-2.8v-1.854c0-.575 0-.909.13-1.372 0-.835.167-1.669.167-2.504a1.151 1.151 0 0 0-.779-1.242 129.605 129.605 0 0 0-7.179-1.854 1 1 0 0 0-1.243.575c-.389.63-.723 1.261-1.076 1.854l-.89 1.669c-.297.556-.594 1.131-.909 1.687a2.834 2.834 0 0 1-2.133 1.52l-1.855.223c-1.076.148-2.152.278-3.21.445a4.01 4.01 0 0 1-4.006-1.595c-.668-.815-1.373-1.594-2.078-2.392l-1.187-1.335a.964.964 0 0 0-1.224-.333 26.766 26.766 0 0 0-7.105 4.005 1.505 1.505 0 0 0-.111.482 4.87 4.87 0 0 0 .278 1.539l.779 2.54c.223.649.427 1.317.631 1.984a3.09 3.09 0 0 1-.427 2.911c-1.113 1.409-2.449 3.078-3.896 4.728a3.314 3.314 0 0 1-1.984.89 8.915 8.915 0 0 1-1.744 0h-.501l-1.354-.111c-.816 0-1.651-.148-2.467-.167a1.451 1.451 0 0 0-1.466 1.094c-.259.816-.519 1.632-.723 2.448a219.17 219.17 0 0 0-.853 3.374l-.334 1.335v.26a3.71 3.71 0 0 0 1.743 1.391l2.505 1.316 1.688.872a2.924 2.924 0 0 1 1.558 2.262c0 .612.148 1.205.241 1.854.111.964.241 1.854.39 2.874a4.529 4.529 0 0 1-1.855 4.524 64.47 64.47 0 0 0-3.358 2.837c-.723.649-.779.927-.352 1.743.797 1.595 1.855 3.709 3.097 5.767.761 1.298.947 1.372 2.505.945l1.391-.445c1.02-.333 2.059-.649 3.061-1.001a4.42 4.42 0 0 1 1.41-.445Zm21.035-3.263a15.948 15.948 0 0 1-15.756-18.547 15.952 15.952 0 0 1 20.889-12.492 15.944 15.944 0 0 1 10.746 13.739 15.07 15.07 0 0 1-3.32 11.273 15.907 15.907 0 0 1-11.223 6.027h-1.336Zm-.111-30.02h-1.243a14.1 14.1 0 0 0-11.046 7.457 14.081 14.081 0 0 0 .106 13.323 14.092 14.092 0 0 0 11.164 7.28 14.097 14.097 0 0 0 12.242-5.272 13.286 13.286 0 0 0 2.931-9.883 14.02 14.02 0 0 0-14.154-12.942v.037Z"/><path fill="#0F0F0F" d="M410.177 185.567c-10.759 11.848-38.268 34.544-94.735 35.359l-1.558 100.554s53.981 8.288 96.293-29.241V185.567Z"/><path fill="#1C1C1C" d="M326.832 323.13a99.687 99.687 0 0 1-13.096-.742.907.907 0 0 1-.779-.927l1.558-100.553a.926.926 0 0 1 .909-.909c54.815-.797 82.473-22.25 94.067-35.044a.933.933 0 0 1 1.02-.26.942.942 0 0 1 .594.872v106.672a.899.899 0 0 1-.315.686c-29.569 26.237-65.166 30.205-83.958 30.205Zm-12.02-2.466c6.826.797 55.78 5.191 94.438-28.852V187.977c-12.577 12.98-40.346 32.931-92.898 33.914l-1.54 98.773Z"/><path fill="gray" d="M327.815 309.65a.93.93 0 0 1-.927-.89.948.948 0 0 1 .89-.964 122.493 122.493 0 0 0 52.794-13.072 75.982 75.982 0 0 0 16.936-11.626v-68.81a.926.926 0 1 1 1.855 0v69.199a.905.905 0 0 1-.26.631c-.241.241-23.503 23.919-71.251 25.532h-.037Zm5.918-64.508a.927.927 0 0 1 0-1.854c.13 0 14.08-.964 21.574-6.119a.905.905 0 0 1 1.28.241.924.924 0 0 1-.223 1.28c-7.921 5.451-21.926 6.415-22.52 6.452h-.111Zm0-8.659a.947.947 0 0 1-.928-.909.9.9 0 0 1 .253-.666.901.901 0 0 1 .656-.279c.13 0 13.189-.445 21.537-6.138a.929.929 0 0 1 1.039 1.539c-8.793 6.008-21.982 6.434-22.538 6.453h-.019Z"/><path fill="gray" d="M330.301 297.579a.876.876 0 0 1-.612-.26.897.897 0 0 1-.208-1.002.907.907 0 0 1 .208-.296c.167-.204 17.92-19.487 25.358-31.521a.926.926 0 0 1 .686-.445.989.989 0 0 1 .761.278l14.395 14.834c2.708-5.341 14.005-27.999 16.305-41.368l-6.659 4.005a.924.924 0 0 1-1.035-.046.94.94 0 0 1-.353-.974.939.939 0 0 1 .423-.574l8.329-5.007a.987.987 0 0 1 .983 0 .967.967 0 0 1 .427.89c-1.67 14.982-16.695 43.834-17.381 45.058a.898.898 0 0 1-.687.482.97.97 0 0 1-.797-.26l-14.451-14.982c-7.865 12.219-24.764 30.594-24.95 30.798a.966.966 0 0 1-.742.39Z"/><path fill="gray" d="M391.108 245.142a.927.927 0 0 1-.89-.63l-2.764-8.14a.921.921 0 0 1 .204-1.079.944.944 0 0 1 .333-.2.94.94 0 0 1 .757.072.947.947 0 0 1 .291.258.95.95 0 0 1 .159.355l2.782 8.14a.945.945 0 0 1-.575 1.187l-.297.037Z"/><path fill="#0F0F0F" d="M39.549 69.123s3.153 24.716 18.55 30.02v53.771s-11.594-5.21-18.55-23.159V69.123Z"/><path fill="#1C1C1C" d="M58.099 153.786a.982.982 0 0 1-.39 0c-.482-.223-12.02-5.563-19.014-23.679a.72.72 0 0 1 0-.333V69.123a.908.908 0 0 1 .872-.909.892.892 0 0 1 .983.798c0 .24 3.247 24.215 17.92 29.259a.946.946 0 0 1 .63.871v53.772a.929.929 0 0 1-.426.779.836.836 0 0 1-.575.093Zm-17.623-24.253c5.361 13.702 13.523 19.821 16.695 21.749v-51.51c-9.609-3.708-14.413-14.462-16.695-22.25v52.011Z"/></svg>