<svg xmlns="http://www.w3.org/2000/svg" width="297" height="243" fill="none"><g clip-path="url(#a)"><path fill="#1C1C1C" d="M236.723 55.892h13.603c3.345 0 6.155-2.233 6.155-5 0-2.556-2.353-4.654-5.397-4.956.08-.333.121-.673.123-1.015 0-2.902-2.899-5.246-6.467-5.246a7.8 7.8 0 0 0-2.788.514v-.179c0-2.89-2.899-5.245-6.467-5.245a6.682 6.682 0 0 0-5.92 3.147 13.364 13.364 0 0 0-2.13-.179c-5.709 0-10.369 3.605-10.715 8.17-3.345 0-6.077 2.232-6.077 4.989 0 2.756 2.754 5 6.155 5"/><path fill="#D9D9D9" d="M250.326 56.45h-13.614a.555.555 0 0 1-.391-.95.569.569 0 0 1 .391-.167h13.614c3.088 0 5.575-1.986 5.575-4.464 0-2.232-2.107-4.118-4.895-4.397a.571.571 0 0 1-.491-.692c.07-.289.107-.585.112-.882 0-2.589-2.654-4.687-5.91-4.687a7.04 7.04 0 0 0-2.519.502.56.56 0 0 1-.704-.278.567.567 0 0 1-.055-.269l.491-.134h-.479c0-2.578-2.654-4.687-5.91-4.687a6.083 6.083 0 0 0-5.43 2.857.558.558 0 0 1-.58.279 12.472 12.472 0 0 0-2.04-.168c-5.363 0-9.835 3.349-10.169 7.657a.565.565 0 0 1-.546.513c-3.044 0-5.575 2.02-5.575 4.464 0 2.444 2.508 4.464 5.575 4.464a.559.559 0 0 1 0 1.117c-3.702 0-6.69-2.49-6.69-5.58 0-2.88 2.709-5.28 6.132-5.581.658-4.632 5.475-8.192 11.217-8.192.615.002 1.23.043 1.84.123a7.371 7.371 0 0 1 6.233-3.092c3.634 0 6.634 2.232 6.991 5.212a8.425 8.425 0 0 1 2.23-.3c3.869 0 7.024 2.6 7.024 5.803.011.182.011.364 0 .546 3.066.536 5.308 2.79 5.308 5.425-.023 3.069-3.033 5.557-6.735 5.557Z"/><path fill="#1C1C1C" d="M287.032 159.239c8.92-1.295 5.307-10.648.446-10.659-.379-4.866-5.352-8.705-11.429-8.705a13.764 13.764 0 0 0-2.23.179 7.11 7.11 0 0 0-6.322-3.349c-3.802 0-6.891 2.512-6.891 5.581v.189a8.35 8.35 0 0 0-2.977-.558c-3.802 0-6.891 2.512-6.891 5.581-.003.376.042.751.134 1.116-3.256.323-5.764 2.567-5.764 5.29 0 2.946 2.932 5.335 6.567 5.335"/><path fill="#D9D9D9" d="M287.032 159.797a.568.568 0 0 1-.558-.48.556.556 0 0 1 .469-.625c3.345-.491 5.162-2.232 4.984-4.755-.179-2.522-2.297-4.799-4.46-4.799a.567.567 0 0 1-.558-.513c-.357-4.598-5.129-8.192-10.871-8.192a14.227 14.227 0 0 0-2.23.167.536.536 0 0 1-.58-.279 6.572 6.572 0 0 0-5.831-3.069c-3.49 0-6.334 2.232-6.334 5.045v.156a.528.528 0 0 1-.234.48.542.542 0 0 1-.252.105.548.548 0 0 1-.272-.027 7.577 7.577 0 0 0-2.776-.524c-3.49 0-6.333 2.232-6.333 5.044-.002.32.036.638.111.949a.509.509 0 0 1-.089.457.525.525 0 0 1-.401.235c-2.989.301-5.252 2.332-5.252 4.732 0 2.634 2.687 4.777 6.01 4.777a.555.555 0 0 1 .557.558.556.556 0 0 1-.557.558c-3.936 0-7.125-2.645-7.125-5.893 0-2.813 2.397-5.201 5.664-5.759a5.716 5.716 0 0 1 0-.614c0-3.348 3.345-6.16 7.448-6.16a8.888 8.888 0 0 1 2.442.346c.357-3.125 3.546-5.581 7.415-5.581a7.813 7.813 0 0 1 6.612 3.348 14.808 14.808 0 0 1 1.985-.134c6.121 0 11.25 3.795 11.93 8.728a6.36 6.36 0 0 1 5.062 5.815c.212 3.147-1.996 5.357-5.932 5.926l-.044-.022Z"/><path fill="#1C1C1C" d="m128.479 188.513-38.713-22.377 38.713-22.366 38.724 22.366-38.724 22.377Z"/><path fill="#D9D9D9" d="M128.468 189.071a.64.64 0 0 1-.279-.067l-38.746-22.377a.556.556 0 0 1-.207-.766.556.556 0 0 1 .207-.205l38.712-22.321a.558.558 0 0 1 .558 0l38.78 22.377a.552.552 0 0 1 .282.485.554.554 0 0 1-.282.486l-38.724 22.377a.58.58 0 0 1-.301.011ZM90.87 166.147l37.598 21.73 37.609-21.73-37.609-21.741-37.598 21.741Z"/><path fill="#1C1C1C" d="m167.203 219.283-38.724 22.377v-53.147l38.724-22.377v53.147Z"/><path fill="#D9D9D9" d="M128.468 242.218a.564.564 0 0 1-.558-.558v-53.147a.56.56 0 0 1 .279-.48l38.735-22.321a.558.558 0 0 1 .558 0 .581.581 0 0 1 .278.491v53.08a.551.551 0 0 1-.278.479l-38.724 22.378a.584.584 0 0 1-.29.078Zm.557-53.382v51.853l37.609-21.73v-51.852l-37.609 21.729Z"/><path fill="#1C1C1C" d="m128.479 241.66-38.713-22.377v-53.147l38.713 22.377v53.147Z"/><path fill="#D9D9D9" d="M128.468 242.218a.65.65 0 0 1-.279-.079l-38.746-22.377a.533.533 0 0 1-.279-.479v-53.136a.559.559 0 0 1 .836-.491l38.758 22.377a.537.537 0 0 1 .278.48v53.147a.532.532 0 0 1-.278.479.585.585 0 0 1-.29.079Zm-38.156-23.259 37.598 21.73v-51.853l-37.598-21.729v51.852Z"/><path fill="#1C1C1C" d="m237.058 203.658-33.506-19.364 33.506-19.363 33.516 19.363-33.516 19.364Z"/><path fill="#D9D9D9" d="M237.057 204.216a.636.636 0 0 1-.278-.067l-33.45-19.375a.548.548 0 0 1 0-.96l33.45-19.363a.552.552 0 0 1 .557 0l33.517 19.363a.55.55 0 0 1 .208.759.543.543 0 0 1-.208.201l-33.517 19.375a.567.567 0 0 1-.279.067Zm-32.335-19.922 32.335 18.728 32.402-18.728-32.402-18.716-32.335 18.716Z"/><path fill="#1C1C1C" d="m270.574 215.108-33.517 19.375v-30.825l33.517-19.364v30.814Z"/><path fill="#D9D9D9" d="M237.057 235.041a.648.648 0 0 1-.278-.078.558.558 0 0 1-.279-.48v-30.825a.558.558 0 0 1 .279-.48l33.517-19.364a.557.557 0 0 1 .836.48v30.826a.58.58 0 0 1-.279.48l-33.517 19.363a.572.572 0 0 1-.279.078Zm.558-31.06v29.531l32.458-18.694v-29.553l-32.458 18.716Z"/><path fill="#1C1C1C" d="m237.058 234.483-33.506-19.375v-30.814l33.506 19.364v30.825Z"/><path fill="#D9D9D9" d="M237.058 235.041a.649.649 0 0 1-.279-.078l-33.45-19.363a.557.557 0 0 1-.279-.48v-30.826a.536.536 0 0 1 .279-.48.557.557 0 0 1 .557 0l33.45 19.364a.54.54 0 0 1 .279.48v30.825a.533.533 0 0 1-.279.48.568.568 0 0 1-.278.078Zm-32.949-20.223 32.335 18.717v-29.554l-32.335-18.716v29.553Z"/><path fill="#1C1C1C" d="m45.1 135.958-28.222-16.306L45.1 103.335l28.22 16.317-28.22 16.306Z"/><path fill="#D9D9D9" d="M45.1 136.516a.482.482 0 0 1-.28-.078L16.6 120.132a.534.534 0 0 1-.279-.48.557.557 0 0 1 .279-.491l28.243-16.306a.556.556 0 0 1 .557 0l28.22 16.306a.576.576 0 0 1 .28.491.559.559 0 0 1-.28.48L45.4 136.438a.524.524 0 0 1-.3.078Zm-27.107-16.864L45.1 135.277l27.106-15.625L45.1 104.027l-27.105 15.625Z"/><path fill="#1C1C1C" d="m73.32 145.377-28.221 16.306v-25.725l28.22-16.306v25.725Z"/><path fill="#D9D9D9" d="M45.1 162.241a.483.483 0 0 1-.28-.078.54.54 0 0 1-.278-.48v-25.67a.533.533 0 0 1 .278-.479l28.22-16.317a.614.614 0 0 1 .558 0 .576.576 0 0 1 .28.491v25.725a.559.559 0 0 1-.28.48l-28.22 16.306a.529.529 0 0 1-.279.022Zm.557-25.96v24.431l27.105-15.625v-24.442l-27.105 15.636Z"/><path fill="#1C1C1C" d="m45.1 161.683-28.222-16.306v-25.725L45.1 135.958v25.725Z"/><path fill="#D9D9D9" d="M45.1 162.241a.482.482 0 0 1-.28-.078L16.6 145.857a.534.534 0 0 1-.279-.48v-25.725a.557.557 0 0 1 .279-.491.614.614 0 0 1 .557 0l28.22 16.317a.556.556 0 0 1 .279.48v25.669a.559.559 0 0 1-.278.48.525.525 0 0 1-.279.134Zm-27.664-17.187 27.106 15.624v-24.397l-27.106-15.625v24.398Z"/><path fill="#1C1C1C" d="M47.965 180.555H70.61c5.665 0 10.258-3.727 10.258-8.325 0-4.253-3.935-7.746-8.998-8.259a7.043 7.043 0 0 0 .201-1.686c0-4.832-4.817-8.738-10.76-8.738a12.794 12.794 0 0 0-4.638.859 2.378 2.378 0 0 0 0-.29c0-4.821-4.817-8.739-10.76-8.739-4.46 0-8.195 2.154-9.856 5.235a23.026 23.026 0 0 0-3.557-.279c-9.478 0-17.238 5.993-17.84 13.582-5.575.056-10.113 3.761-10.113 8.315 0 4.553 4.594 8.325 10.247 8.325"/><path fill="#D9D9D9" d="M70.61 181.113H47.965a.555.555 0 0 1-.558-.558.556.556 0 0 1 .558-.558H70.61c5.352 0 9.7-3.482 9.7-7.812 0-3.906-3.656-7.221-8.496-7.701a.53.53 0 0 1-.401-.234.574.574 0 0 1-.09-.447 6.292 6.292 0 0 0 .19-1.562c0-4.464-4.571-8.181-10.202-8.181a12.257 12.257 0 0 0-4.46.826.557.557 0 0 1-.7-.278.583.583 0 0 1-.058-.269v-.268c0-4.464-4.571-8.18-10.202-8.18-4.07 0-7.738 1.941-9.366 4.944a.562.562 0 0 1-.244.238.557.557 0 0 1-.336.052 20.98 20.98 0 0 0-3.468-.279c-9.11 0-16.725 5.736-17.271 13.069a.558.558 0 0 1-.557.513c-5.263.056-9.556 3.538-9.556 7.813 0 4.274 4.348 7.812 9.69 7.812a.557.557 0 0 1 .557.558.56.56 0 0 1-.558.558c-5.954 0-10.804-3.984-10.804-8.928 0-4.688 4.46-8.583 10.158-8.862.914-7.667 8.853-13.593 18.341-13.593a22.604 22.604 0 0 1 3.267.234 11.77 11.77 0 0 1 10.147-5.19c6.032 0 10.983 3.906 11.295 8.806a13.27 13.27 0 0 1 4.08-.636c6.245 0 11.318 4.174 11.318 9.297 0 .403-.034.807-.1 1.205 5.117.759 8.92 4.464 8.92 8.739.022 4.888-4.828 8.872-10.794 8.872Z"/><path fill="#fff" d="m50.897 56.427 16.368-9.453-16.357-9.453-16.368 9.453 16.357 9.453Z"/><path fill="#2F2F2F" d="M50.897 56.985a.657.657 0 0 1-.279-.078L34.261 47.41a.56.56 0 0 1 0-.971l16.357-9.453a.557.557 0 0 1 .558 0l16.368 9.453a.558.558 0 0 1 0 .97l-16.368 9.453a.58.58 0 0 1-.279.123ZM35.655 46.941l15.242 8.805 15.253-8.805-15.253-8.817-15.242 8.817Z"/><path fill="#fff" d="m34.54 65.88 16.368 9.453V56.427L34.54 46.974V65.88Z"/><path fill="#2F2F2F" d="M50.897 75.891a.524.524 0 0 1-.279-.078l-16.357-9.43a.558.558 0 0 1-.278-.48V46.974a.581.581 0 0 1 .278-.49.557.557 0 0 1 .558 0l16.357 9.452a.557.557 0 0 1 .279.491v18.884a.536.536 0 0 1-.28.48.479.479 0 0 1-.278.1Zm-15.8-10.334 15.243 8.805V56.74l-15.242-8.806v17.623Z"/><path fill="#fff" d="m50.908 75.333 16.358-9.453V46.974l-16.358 9.453v18.906Z"/><path fill="#2F2F2F" d="M50.897 75.891a.524.524 0 0 1-.279-.078.558.558 0 0 1-.278-.48V56.427a.58.58 0 0 1 .278-.49l16.369-9.454a.557.557 0 0 1 .557 0 .58.58 0 0 1 .279.491V65.88a.557.557 0 0 1-.279.48l-16.368 9.453a.479.479 0 0 1-.279.078Zm.558-19.151v17.622l15.253-8.805V47.934L51.455 56.74Z"/><path fill="#FDFC00" d="M16.878 16.45c16.915 11.495 25.043-8.147 33.818 4.464V2.88C35.02-5.257 36.882 12.812 16.88 16.45Z"/><path fill="#2F2F2F" d="M50.696 47.543a.568.568 0 0 1-.568-.569V.535a.58.58 0 0 1 1.115 0v46.44a.57.57 0 0 1-.547.568Z"/><path fill="#1C1C1C" d="M122.135 27.532 109.446 20.2l12.689-7.333 12.688 7.333-12.688 7.332Z"/><path fill="#D9D9D9" d="M122.135 28.09a.524.524 0 0 1-.279-.078l-12.689-7.332a.56.56 0 0 1 0-.971l12.689-7.333a.56.56 0 0 1 .557 0l12.745 7.333a.56.56 0 0 1 0 .97l-12.689 7.333a.5.5 0 0 1-.334.078Zm-11.574-7.89 11.574 6.696 11.573-6.696-11.573-6.696-11.574 6.696Z"/><path fill="#1C1C1C" d="m134.823 32.71-12.689 7.333v-12.51l12.689-7.333v12.51Z"/><path fill="#D9D9D9" d="M122.134 40.602a.52.52 0 0 1-.278-.079.555.555 0 0 1-.279-.48v-12.51a.58.58 0 0 1 .279-.491l12.688-7.333a.56.56 0 0 1 .765.21.555.555 0 0 1 .071.281v12.511a.535.535 0 0 1-.278.48l-12.689 7.332a.5.5 0 0 1-.279.078Zm.558-12.746v11.16l11.573-6.696V21.16l-11.573 6.696Z"/><path fill="#1C1C1C" d="m122.135 40.043-12.689-7.332V20.2l12.689 7.332v12.511Z"/><path fill="#D9D9D9" d="M122.135 40.602a.524.524 0 0 1-.279-.079l-12.689-7.332a.56.56 0 0 1-.279-.48V20.2a.58.58 0 0 1 .279-.491.558.558 0 0 1 .558 0l12.688 7.332a.557.557 0 0 1 .279.491v12.512a.535.535 0 0 1-.279.48.5.5 0 0 1-.278.078Zm-12.132-8.215 11.574 6.697v-11.16l-11.574-6.697v11.16Zm46.853 4.587h-.112a3.263 3.263 0 0 1-2.297-1.038 3.35 3.35 0 0 1-.892-2.366 3.261 3.261 0 0 1 1.048-2.299 3.344 3.344 0 0 1 2.364-.893 3.272 3.272 0 0 1 2.297 1.05 3.345 3.345 0 0 1 .578 3.56 3.346 3.346 0 0 1-2.986 2.02v-.034Zm0-5.49a2.23 2.23 0 0 0-1.495.59 2.237 2.237 0 0 0-.691 1.519 2.23 2.23 0 0 0 .558 1.54 2.091 2.091 0 0 0 1.516.692 2.227 2.227 0 0 0 2.519-1.133 2.244 2.244 0 0 0 .068-1.92 2.222 2.222 0 0 0-1.448-1.263 2.229 2.229 0 0 0-.983-.048l-.044.022Z"/><path fill="#1C1C1C" d="M176.123 46.226c1.237 0 2.475-.19 3.913-.256 1.439-.067 3.055-.502 3.134-1.842.055-1.116-1.283-2.132-.937-3.225.114-.289.28-.554.491-.781a12.284 12.284 0 0 0-1.539-17.02c.368.145.78-.212.836-.603a1.595 1.595 0 0 0-.39-1.116 7.706 7.706 0 0 0-3.624-2.377 23.393 23.393 0 0 0-13.826-.469c-3.49.893-7.727 3.504-7.415 7.69a3.353 3.353 0 0 0 2.743 3.136c.613 4.464 2.855 7.622 5.687 10.97a18.03 18.03 0 0 0 7.08 5.19 9.95 9.95 0 0 0 3.847.703Z"/><path fill="#D9D9D9" d="M176.011 46.784a10.32 10.32 0 0 1-3.936-.725 18.392 18.392 0 0 1-7.303-5.346c-2.509-2.946-5.006-6.216-5.753-10.837a3.992 3.992 0 0 1-2.81-3.582c-.312-4.253 3.713-7.221 7.805-8.282a24.094 24.094 0 0 1 14.149.491 8.282 8.282 0 0 1 3.88 2.567 2.032 2.032 0 0 1 .491 1.496c-.035.278-.16.537-.357.736a12.872 12.872 0 0 1 .948 17.166 2.222 2.222 0 0 0-.401.602c-.112.368.122.793.39 1.284.36.535.561 1.162.58 1.808-.078 1.361-1.45 2.232-3.669 2.366l-1.694.123a31.5 31.5 0 0 1-2.23.133h-.123.033Zm-5.463-28.46a25.262 25.262 0 0 0-6.2.793c-2.754.703-7.314 2.991-7.002 7.12a2.78 2.78 0 0 0 2.23 2.612.583.583 0 0 1 .513.48c.558 4.118 2.464 7.043 5.575 10.681a17.368 17.368 0 0 0 6.869 5.033 9.234 9.234 0 0 0 3.523.648h.111c.692 0 1.405-.067 2.152-.134l1.729-.123c.423 0 2.542-.19 2.609-1.317a2.528 2.528 0 0 0-.435-1.205 2.662 2.662 0 0 1-.48-2.143c.121-.341.306-.656.547-.926a11.778 11.778 0 0 0 2.59-8.446 11.779 11.779 0 0 0-4.006-7.871.544.544 0 0 1-.158-.729.547.547 0 0 1 .715-.209s.067-.089.078-.167a1.026 1.026 0 0 0-.278-.68 7.073 7.073 0 0 0-3.345-2.233 21.173 21.173 0 0 0-7.359-1.205l.022.022Z"/><path fill="#1C1C1C" d="M158.093 35.847s-3.345 5.145-2.665 6.205c.681 1.06 3.033.346 3.033.346"/><path fill="#D9D9D9" d="M156.922 43.19a2.225 2.225 0 0 1-1.951-.836c-.792-1.183 1.327-4.777 2.654-6.82a.557.557 0 0 1 .775-.161.56.56 0 0 1 .161.776c-1.616 2.466-2.854 5.089-2.653 5.58.2.49 1.784.29 2.397.111a.556.556 0 0 1 .65.795.57.57 0 0 1-.327.277 6.371 6.371 0 0 1-1.706.279Z"/><path fill="#1C1C1C" d="M158.784 29.061c-2.152 1.775-1.505 5.491-1.472 7.913 0 3.415.119 6.823.357 10.223.123 2.154 5.709 2.232 6.69 1.53l-.836 8.537 11.774-4.565-.512-7.053a7.109 7.109 0 0 1-5.999-4.341c-2.23-4.398-1.929-13.962-1.929-13.962s-5.977-.023-8.073 1.718Z"/><path fill="#D9D9D9" d="M163.523 57.822a.569.569 0 0 1-.334-.111.565.565 0 0 1-.223-.502l.758-7.701a9.803 9.803 0 0 1-5.285-.536 2.07 2.07 0 0 1-1.327-1.752c-.201-3.349-.323-6.83-.357-10.234 0-.402 0-.849-.055-1.306-.123-2.411-.268-5.402 1.739-7.054 2.23-1.841 8.139-1.853 8.362-1.841a.57.57 0 0 1 .558.58c0 .09-.245 9.475 1.873 13.683 2.007 4.018 5.397 4.073 5.497 4.04a.567.567 0 0 1 .558.525l.512 7.053a.558.558 0 0 1-.356.558l-11.719 4.554a.433.433 0 0 1-.201.044Zm.837-9.654a.555.555 0 0 1 .557.614l-.769 7.634 10.481-4.085-.446-6.16a7.804 7.804 0 0 1-5.988-4.62c-1.94-3.885-2.018-11.463-1.996-13.64-1.906 0-5.664.403-7.091 1.586-1.572 1.294-1.438 3.984-1.327 6.138 0 .48 0 .926.056 1.35 0 3.349.156 6.808.345 10.19 0 .301.268.57.725.804a8.132 8.132 0 0 0 5.118.29.593.593 0 0 1 .335-.1Z"/><path fill="#1C1C1C" d="M157.736 44.653a2.77 2.77 0 0 0 2.274.367 2.762 2.762 0 0 0 1.763-1.483"/><path fill="#D9D9D9" d="M159.442 45.68a4.332 4.332 0 0 1-1.984-.503.563.563 0 0 1-.265-.564.56.56 0 0 1 .075-.206.571.571 0 0 1 .77-.19 2.807 2.807 0 0 0 1.951.324 2.239 2.239 0 0 0 1.304-1.216.551.551 0 0 1 .538-.307.545.545 0 0 1 .209.061.556.556 0 0 1 .246.748 3.267 3.267 0 0 1-2.007 1.786c-.275.06-.556.083-.837.066Zm12.611-7.277a.556.556 0 0 1-.546-.424 7.703 7.703 0 0 0-.38-1.116c-1.85-.28-15.465-2.444-17.092-2.701a.566.566 0 0 1-.469-.647.56.56 0 0 1 .636-.458l17.249 2.723c.245 0 .669.067 1.115 1.964a.571.571 0 0 1-.06.424.547.547 0 0 1-.342.257l-.111-.022Z"/><path fill="#1C1C1C" d="M164.627 38.001a4.68 4.68 0 0 1 .948-2.344 6.705 6.705 0 0 1 1.226-1.551 2.236 2.236 0 0 1 1.829-.57 2.09 2.09 0 0 1 1.338 1.05 3.86 3.86 0 0 1 .435 1.696 7.307 7.307 0 0 1-3.345 6.496l.189-.201"/><path fill="#D9D9D9" d="M167.058 43.336a.547.547 0 0 1-.424-.201.56.56 0 0 1 0-.737l.178-.2a.65.65 0 0 1 .346-.18 6.794 6.794 0 0 0 2.665-5.702c-.011-.504-.132-1-.357-1.451a1.533 1.533 0 0 0-.97-.781 1.669 1.669 0 0 0-1.36.446 6.435 6.435 0 0 0-1.115 1.429 4.15 4.15 0 0 0-.859 2.053.55.55 0 0 1-.164.391.544.544 0 0 1-.393.156.554.554 0 0 1-.519-.352.574.574 0 0 1-.039-.217 5.109 5.109 0 0 1 1.037-2.634 6.908 6.908 0 0 1 1.338-1.674 2.759 2.759 0 0 1 2.297-.692 2.603 2.603 0 0 1 1.717 1.328c.311.598.482 1.258.502 1.93a7.907 7.907 0 0 1-3.602 6.999.476.476 0 0 1-.278.089Z"/><path fill="#2F2F2F" d="M159.574 33.216c.033-.671-.154-1.226-.418-1.24-.265-.013-.506.52-.54 1.192-.034.67.153 1.225.418 1.239.264.013.506-.52.54-1.191Z"/><path fill="#fff" d="m177.617 54.798-1.015-3.761-15.008.937-1.606 5.58c6.02.92 12.177-.042 17.629-2.756Z"/><path fill="#2F2F2F" d="M164.226 58.48a23.481 23.481 0 0 1-4.36-.367.562.562 0 0 1-.357-.268.544.544 0 0 1-.056-.435l1.606-5.58a.557.557 0 0 1 .502-.403l15.008-.937a.557.557 0 0 1 .579.413l1.015 3.76a.569.569 0 0 1-.301.648 31.196 31.196 0 0 1-13.636 3.17Zm-3.535-1.36a29.85 29.85 0 0 0 16.268-2.624l-.77-2.868-14.171.882-1.327 4.61Z"/><path fill="#1C1C1C" d="M123.149 77.04s-4.627-5.937-5.006-7.164c-.379-1.228-.413-3.74-1.383-5.48-.97-1.741-3.445-3.237-4.516-.781 0 0-.713-3.996-3.345-1.708a7.27 7.27 0 0 0-2.341 7.969c.78 3.035 12.376 18.225 12.376 18.225"/><path fill="#D9D9D9" d="M118.946 88.704a.556.556 0 0 1-.447-.212c-.479-.625-11.662-15.324-12.465-18.427a7.819 7.819 0 0 1 2.509-8.537 2.449 2.449 0 0 1 2.43-.748 2.727 2.727 0 0 1 1.461 1.607c.37-.349.852-.555 1.36-.58a4.224 4.224 0 0 1 3.457 2.355 12.717 12.717 0 0 1 1.115 4.073c.068.511.165 1.018.29 1.518a58.184 58.184 0 0 0 4.906 6.987.562.562 0 0 1-.508.902.558.558 0 0 1-.373-.21c-.781-1.005-4.706-6.083-5.085-7.355a14.933 14.933 0 0 1-.334-1.663 11.644 11.644 0 0 0-1.004-3.706 3.173 3.173 0 0 0-2.43-1.785c-.469 0-.825.335-1.115.96a.561.561 0 0 1-.575.33.556.556 0 0 1-.485-.453c-.078-.435-.446-1.697-1.115-1.92-.412-.156-.947.201-1.315.525a6.694 6.694 0 0 0-2.163 7.422c.613 2.399 9.065 13.828 12.265 18.024a.572.572 0 0 1-.112.781c-.077.06-.17.1-.267.112Z"/><path fill="#1C1C1C" d="M223.165 91.527s1.349 2.924 2.073 5.112c.513 2.057.805 4.164.87 6.283.558-.636 1.427-.781 2.018-1.339.044.913.244 1.811.591 2.656a2.75 2.75 0 0 0 2.041 1.63c.484.027.969-.041 1.427-.201 1.672-.514 4.46-1.451 4.828-3.449a3.97 3.97 0 0 0-.402-2.232c-1.204-2.98-6.69-10.781-7.637-12.042"/><path fill="#D9D9D9" d="M231.047 106.449h-.301a3.354 3.354 0 0 1-1.482-.666 3.363 3.363 0 0 1-.993-1.287 6.256 6.256 0 0 1-.535-1.92l-.245.123a3.015 3.015 0 0 0-.904.614.557.557 0 0 1-.602.156.565.565 0 0 1-.267-.192.57.57 0 0 1-.112-.31 29.935 29.935 0 0 0-.836-6.127c-.714-2.132-2.04-5.023-2.052-5.056a.547.547 0 0 1 .268-.737.557.557 0 0 1 .747.268c.056.123 1.371 2.98 2.085 5.168.48 1.76.765 3.568.847 5.39l.324-.167c.289-.131.559-.3.803-.502a.58.58 0 0 1 .579-.123.553.553 0 0 1 .357.469c.047.846.232 1.679.547 2.466a2.223 2.223 0 0 0 1.594 1.328c.41.018.82-.046 1.204-.19 1.907-.58 4.137-1.45 4.46-3.024a3.547 3.547 0 0 0-.368-1.953c-1.115-2.679-5.954-9.688-7.571-11.92a.559.559 0 0 1 .904-.658c.066.09 6.355 8.85 7.704 12.165.391.799.538 1.696.424 2.578-.468 2.433-3.791 3.449-5.218 3.884a4.912 4.912 0 0 1-1.361.223Z"/><path fill="#fff" d="M150.009 162.899s1.862 8.449-1.572 9.956c-3.434 1.506-22.612-11.607-21.597-14.855 1.014-3.248 7.102-4.855 12.967-.971a83.843 83.843 0 0 0 10.202 5.87Z"/><path fill="#2F2F2F" d="M147.757 173.524c-3.891 0-13.469-6.372-17.84-10.234s-3.802-5.056-3.668-5.48a5.09 5.09 0 0 1 3.345-3.158c3.111-1.116 7.024-.413 10.47 1.875a84.353 84.353 0 0 0 10.124 5.826.564.564 0 0 1 .323.401c.201.915 1.862 8.929-1.895 10.614a2.496 2.496 0 0 1-.859.156Zm-15.019-18.225a8.037 8.037 0 0 0-2.698.435 4.045 4.045 0 0 0-2.654 2.411c-.123.379.446 1.719 3.345 4.286 5.921 5.279 15.61 10.725 17.483 9.877 2.364-1.038 1.784-6.63 1.305-9.029a89.996 89.996 0 0 1-10.035-5.792 12.34 12.34 0 0 0-6.746-2.166v-.022Z"/><path fill="#2F2F2F" d="M183.604 121.549s-21.185 7.411-37.508 5.659l4.114 35.647s-5.943 2.667-13.235-5.447c0 0-9.7-43.448-5.687-45.87 4.014-2.422 42.37-2.757 42.37-2.757l9.946 12.768Z"/><path fill="#2F2F2F" d="M147.657 163.837c-2.542 0-6.567-1.027-11.15-6.049a.573.573 0 0 1-.134-.257c-1.628-7.321-9.567-43.961-5.43-46.461 4.137-2.5 41.043-2.835 42.615-2.846a.485.485 0 0 1 .446.212l10.035 12.779a.538.538 0 0 1 .1.493.55.55 0 0 1-.345.366c-.212.078-20.873 7.221-37.063 5.748l4.037 34.966a.581.581 0 0 1-.324.569 7.347 7.347 0 0 1-2.787.48Zm-10.169-6.696c5.921 6.506 10.76 5.725 12.12 5.323l-4.058-35.2a.52.52 0 0 1 .156-.458.533.533 0 0 1 .457-.167c14.327 1.54 32.647-4.107 36.527-5.38l-9.332-11.93c-10.827.1-38.635.781-41.791 2.678-2.519 1.529 1.941 27.265 5.921 45.145v-.011Z"/><path fill="#2F2F2F" d="M195.078 114.429s-.87 33.482.278 33.939c1.149.458 33.562 24.04 33.562 24.04l1.193 10.915s-45.325-19.475-47.722-25.513c-2.397-6.038-11.485-41.562-11.485-41.562l24.174-1.819Z"/><path fill="#2F2F2F" d="M230.111 183.848a.494.494 0 0 1-.223 0c-1.862-.793-45.559-19.632-48.012-25.815-2.386-6.004-11.15-40.178-11.507-41.618a.54.54 0 0 1 .085-.466.535.535 0 0 1 .417-.226l24.173-1.808a.56.56 0 0 1 .591.57c-.312 12.042-.558 31.573.111 33.481 2.676 1.608 30.273 21.641 33.45 23.985a.519.519 0 0 1 .223.39l1.193 10.915a.563.563 0 0 1-.223.514.555.555 0 0 1-.278.078Zm-58.504-67.12c1.249 4.844 9.109 35.357 11.295 40.848 1.862 4.676 33.45 19.151 46.551 24.832l-1.059-9.721c-12.879-9.352-32.224-23.314-33.261-23.805-.39-.168-1.472-.614-.624-33.85l-22.902 1.696Z"/><path fill="#FDFC00" d="M147.958 65.568s1.26-7.355 22.601-11.261a31.536 31.536 0 0 1 15.465.86c.803 3.347 7.638 51.115 10.704 62.342 0 0-25.734 9.442-38.646-6.194 0 0-8.195-42.265-10.124-45.747Z"/><path fill="#1C1C1C" d="m230.004 142.208 35.523-15.764a3.974 3.974 0 0 0 2.02-5.242l-9.083-20.508a3.969 3.969 0 0 0-5.238-2.022l-35.523 15.764a3.976 3.976 0 0 0-2.02 5.243l9.084 20.508a3.966 3.966 0 0 0 5.237 2.021Z"/><path fill="#D9D9D9" d="M228.394 143.1a4.53 4.53 0 0 1-4.137-2.689l-9.087-20.458a4.475 4.475 0 0 1-.106-3.473 4.455 4.455 0 0 1 2.414-2.498l35.524-15.77a4.533 4.533 0 0 1 5.976 2.3l9.076 20.513a4.455 4.455 0 0 1 .09 3.471 4.468 4.468 0 0 1-2.386 2.5l-35.535 15.77a4.462 4.462 0 0 1-1.829.334Zm26.437-44.218a3.345 3.345 0 0 0-1.372.29l-35.535 15.77a3.348 3.348 0 0 0-1.795 1.886 3.35 3.35 0 0 0 .067 2.612l9.076 20.513a3.431 3.431 0 0 0 4.46 1.741l35.524-15.77a3.338 3.338 0 0 0 1.809-1.865 3.352 3.352 0 0 0-.07-2.599l-9.087-20.513a3.398 3.398 0 0 0-3.077-2.065Z"/><path fill="gray" d="M221.871 122.107a.57.57 0 1 1-.234-1.116l33.84-15.011a.557.557 0 0 1 .736.29.562.562 0 0 1-.29.737l-33.795 15.056a.54.54 0 0 1-.257.044Z"/><path fill="#D9D9D9" d="M227.558 110.612a.616.616 0 0 1-.201 0 .537.537 0 0 1-.301-.301l-1.349-3.025a3.574 3.574 0 0 1 .68-3.9c.323-.338.709-.61 1.137-.799l10.325-4.575a3.542 3.542 0 0 1 4.683 1.808l1.349 3.024a.546.546 0 0 1-.29.737l-15.799 7.02a.596.596 0 0 1-.234.011Zm11.73-11.864a2.598 2.598 0 0 0-.993.212l-10.325 4.587a2.454 2.454 0 0 0-1.282 1.351 2.406 2.406 0 0 0 0 1.864l1.115 2.522 14.785-6.563-1.115-2.522a2.457 2.457 0 0 0-2.185-1.45Z"/><path fill="#FDFC00" d="M180.583 53.871s21.553 4.866 26.76 8.114c5.207 3.248 25.935 25.435 25.935 25.435l-13.659 7.723s-12.867-15.524-16.658-17.756c-3.791-2.232-20.672-.413-20.672-.413l-1.706-23.103Zm-32.625 11.697s-12.265 22.41-14.328 21.205c-2.063-1.205-10.849-14.509-10.849-14.509l-9.778 11.06s8.005 25.089 19.791 22.255c11.785-2.835 29.759-23.706 29.759-23.706l-14.595-16.305Z"/><path fill="#2F2F2F" d="M145.427 98.916a.583.583 0 0 1-.48-.268.568.568 0 0 1 .179-.77c9.778-6.127 16.903-16.306 16.97-16.406a.556.556 0 0 1 .914.636c-.067.1-7.314 10.457-17.293 16.74a.558.558 0 0 1-.29.068Zm49.115 8.861a.555.555 0 0 1-.546-.446c-1.305-6.607-6.244-39.676-6.289-40.011a.541.541 0 0 1 .103-.411.55.55 0 0 1 .366-.214.555.555 0 0 1 .635.469c0 .335 4.973 33.359 6.278 39.943a.557.557 0 0 1-.077.423.554.554 0 0 1-.358.236l-.112.011Z"/><path fill="#fff" d="M223.164 178.714c-2.43-7.935.19-11.618 3.044-11.775 2.855-.156 4.672-.602 6.924 7.177 2.253 7.779 2.453 20.089-1.995 20.758-4.449.67-5.542-8.214-7.973-16.16Z"/><path fill="#2F2F2F" d="M230.657 195.488c-3.601 0-5.006-5.357-6.623-11.517-.446-1.675-.903-3.404-1.416-5.09-1.394-4.564-1.304-8.325.279-10.591a4.292 4.292 0 0 1 3.278-1.931h.335c3.121-.19 4.995.067 7.169 7.601 1.907 6.573 2.33 16.093-.067 19.81a3.457 3.457 0 0 1-2.397 1.696l-.558.022Zm-3.111-28.035h-1.304a3.159 3.159 0 0 0-2.397 1.44c-.803 1.116-1.874 3.906-.123 9.598.524 1.707.981 3.448 1.416 5.134 1.561 5.937 2.91 11.071 5.91 10.624a2.234 2.234 0 0 0 1.594-1.171c2.23-3.349 1.728-12.668-.067-18.862-1.795-6.194-3.1-6.763-5.029-6.763Z"/></g><defs><clipPath id="a"><path fill="#fff" d="M.5.114h296v242.104H.5z"/></clipPath></defs></svg>