<svg xmlns="http://www.w3.org/2000/svg" width="167" height="176" fill="none"><path fill="#D1D3D4" d="M1.183 161.63a.312.312 0 0 1 0-.624l159.984-16.326a.309.309 0 0 1 .229.07.303.303 0 0 1 .077.094.301.301 0 0 1 .024.238.311.311 0 0 1-.268.222L1.22 161.63h-.037Z"/><path fill="#0F0F0F" d="m48.466 145.011-.839 14.73 19.955 15.447 56.055-7.1 1.231-11.545-18.538-16.457-57.864 4.925Z"/><path fill="#D9D9D9" d="M67.583 175.5a.297.297 0 0 1-.187-.069L47.441 159.99a.32.32 0 0 1-.125-.268l.84-14.73a.306.306 0 0 1 .28-.293l57.87-4.925a.321.321 0 0 1 .23.075l18.538 16.463a.322.322 0 0 1 .105.269l-1.243 11.538a.312.312 0 0 1-.267.281l-56.05 7.094-.036.006ZM47.95 159.598l19.725 15.266 55.676-7.056 1.193-11.134-18.32-16.27-57.466 4.893-.808 14.301Z"/><path fill="#0F0F0F" d="m106.331 140.086-57.864 4.925 19.47 17.747 56.931-6.215-18.537-16.457Z"/><path fill="#D9D9D9" d="M67.937 163.07a.317.317 0 0 1-.212-.081l-19.47-17.748a.308.308 0 0 1 .017-.474.32.32 0 0 1 .163-.068l57.871-4.925a.321.321 0 0 1 .23.075l18.537 16.463a.312.312 0 0 1 .094.331.311.311 0 0 1-.261.212l-56.938 6.234-.031-.019ZM49.2 145.26l18.843 17.174 56.092-6.122-17.91-15.908L49.2 145.26Z"/><path fill="#fff" d="M89.707 25.204C81.626 30.13 75 23.552 74.931 23.484l-.56-.568 3.519-4.207 1.343 1.134-2.431 2.936c1.622 1.316 6.34 4.364 12.01.917l.895 1.508Z"/><path fill="#1C1C1C" d="M83.54 27.349c-5.166 0-8.777-3.591-8.827-3.64l-.56-.574a.306.306 0 0 1 0-.418l3.513-4.208c.054-.061.13-.1.211-.106a.335.335 0 0 1 .23.069l1.324 1.122a.279.279 0 0 1 .112.212.325.325 0 0 1-.068.224l-2.25 2.68c1.864 1.428 6.216 3.872 11.413.705a.31.31 0 0 1 .423.1l.914 1.508a.313.313 0 0 1-.106.43 12.048 12.048 0 0 1-6.329 1.896Zm-8.746-4.451.36.367c.062.07 6.39 6.31 14.124 1.833l-.59-.972c-5.664 3.266-10.338.33-12.104-1.104a.325.325 0 0 1-.112-.211.331.331 0 0 1 .069-.231l2.256-2.7-.87-.729-3.133 3.747Z"/><path fill="#fff" d="m97.758 15.58-1.641-.624c2.4-6.196-1.418-10.33-2.997-11.7L90.665 6.19l-1.35-1.134 3.52-4.202.658.455c.094.031 7.69 5.417 4.265 14.27Z"/><path fill="#1C1C1C" d="M97.758 15.891a.24.24 0 0 1-.112 0l-1.641-.623a.305.305 0 0 1-.168-.405c2.194-5.686-.958-9.557-2.68-11.14l-2.25 2.686a.305.305 0 0 1-.435.038l-1.355-1.19a.356.356 0 0 1-.112-.213.312.312 0 0 1 .074-.23L92.592.612a.31.31 0 0 1 .416-.056l.66.449c.08.056 7.894 5.61 4.35 14.662a.3.3 0 0 1-.26.224Zm-1.244-1.128 1.064.411c3.046-8.422-4.19-13.577-4.265-13.627l-.423-.293-3.108 3.74.87.73 2.25-2.693a.31.31 0 0 1 .442-.038c1.69 1.503 5.396 5.605 3.17 11.77Z"/><path fill="#fff" d="m88.309 3.673-12.067 14.17s6.005 5.267 11.19 6.956c4.308 1.415 6.888.91 8.523 0a4.97 4.97 0 0 1 1.815 1.06c.851.879 1.54 1.903 2.033 3.023l3.307-3.965a7.543 7.543 0 0 1-3.313-1.433 9.187 9.187 0 0 1-1.405-1.602c.535-2.12.267-5.555-1.548-8.79-2.437-4.364-8.535-9.42-8.535-9.42Z"/><path fill="#1C1C1C" d="M99.803 29.194a.304.304 0 0 1-.242-.18 10.113 10.113 0 0 0-1.977-2.918 4.533 4.533 0 0 0-1.58-.942c-2.163 1.135-5.072 1.116-8.647-.05-5.184-1.695-11.046-6.8-11.295-7.019a.312.312 0 0 1-.031-.436L88.097 3.473a.317.317 0 0 1 .435-.037c.249.212 6.173 5.15 8.623 9.506a13.06 13.06 0 0 1 1.61 8.877 9.19 9.19 0 0 0 1.28 1.434c.93.7 2.012 1.169 3.158 1.365a.304.304 0 0 1 .243.2.311.311 0 0 1-.05.311l-3.313 3.959a.323.323 0 0 1-.28.106Zm-3.867-4.7a.248.248 0 0 1 .093 0c.72.225 1.38.609 1.934 1.122a9.797 9.797 0 0 1 1.927 2.705l2.667-3.192a7.226 7.226 0 0 1-2.947-1.402 9.344 9.344 0 0 1-1.454-1.64.295.295 0 0 1-.05-.255c.472-1.87.36-5.224-1.517-8.565-2.126-3.778-7.106-8.16-8.243-9.133L76.683 17.848c1.15.973 6.348 5.224 10.842 6.695 3.469 1.135 6.254 1.148 8.28 0a.31.31 0 0 1 .15-.05h-.019Z"/><path fill="#fff" d="m97.468 31.428 7.759-9.282a1.032 1.032 0 0 1 1.454-.129l3.635 3.056-9.085 10.868-3.635-3.055a1.036 1.036 0 0 1-.128-1.458Z"/><path fill="#1C1C1C" d="M101.233 36.257a.352.352 0 0 1-.205-.069l-3.63-3.055a1.354 1.354 0 0 1-.169-1.87l7.765-9.288a1.335 1.335 0 0 1 1.89-.162l3.63 3.055a.29.29 0 0 1 .112.205.302.302 0 0 1-.074.231l-9.083 10.84a.306.306 0 0 1-.236.113Zm4.787-14.17a.73.73 0 0 0-.554.256l-7.758 9.288a.725.725 0 0 0 .087 1.016l3.394 2.855 8.704-10.391-3.395-2.855a.736.736 0 0 0-.478-.169Z"/><path fill="#fff" d="m110.936 24.124-10.527 12.593a.987.987 0 0 0 .122 1.388l1.434 1.205a.98.98 0 0 0 1.384-.122l10.526-12.593a.987.987 0 0 0-.121-1.388l-1.435-1.205a.98.98 0 0 0-1.383.122Z"/><path fill="#1C1C1C" d="M102.6 39.866a1.24 1.24 0 0 1-.826-.306l-1.436-1.209a1.283 1.283 0 0 1-.458-.876 1.296 1.296 0 0 1 .296-.944l10.531-12.573a1.288 1.288 0 0 1 1.375-.4c.161.051.311.134.44.244l1.436 1.209a1.297 1.297 0 0 1 .458.877 1.29 1.29 0 0 1-.296.943l-10.531 12.592a1.29 1.29 0 0 1-.989.443Zm-1.945-2.936a.634.634 0 0 0-.156.492.67.67 0 0 0 .236.455l1.436 1.21a.684.684 0 0 0 .945-.088l10.525-12.592a.62.62 0 0 0 .155-.492.669.669 0 0 0-.236-.455l-1.436-1.21a.67.67 0 0 0-.945.088L100.655 36.93Z"/><path fill="#D1D3D4" d="M89.154 19.157a.327.327 0 0 1-.236-.112l-1.181-1.396-1.81.187a.31.31 0 0 1-.298-.474l.958-1.558-.734-1.67a.306.306 0 0 1 .044-.325.31.31 0 0 1 .317-.106l1.765.436 1.362-1.246a.323.323 0 0 1 .323-.057.304.304 0 0 1 .192.268l.137 1.82 1.58.93a.305.305 0 0 1 .149.293.3.3 0 0 1-.193.261l-1.672.692-.386 1.783a.311.311 0 0 1-.23.237l-.087.037Zm-1.287-2.144a.311.311 0 0 1 .243.112l.876 1.035.286-1.328a.311.311 0 0 1 .187-.224l1.243-.518-1.175-.685a.305.305 0 0 1-.15-.243l-.105-1.36-1.013.91a.305.305 0 0 1-.28.07l-1.318-.325.547 1.247a.294.294 0 0 1 0 .287l-.715 1.16 1.35-.138h.024Z"/><path fill="#0F0F0F" d="M74.365 33.003a14.926 14.926 0 0 0 6.086-4.788 1.21 1.21 0 0 0 .286-.704c0-.667-.802-1.072-.522-1.814.186-.493 1.41-.805 1.162-1.428-.249-.623-2.487-3.073-3.525-2.281-1.038.791-2.68 1.296-2.816 2.375-.137 1.078-.13 1.832-.578 2.281-.448.45-2.63 2.089-2.63 2.107 0 .019 2.3 3.846 2.537 4.252Z"/><path fill="#D9D9D9" d="M74.365 33.308a.298.298 0 0 1-.261-.156l-.41-.654c-2.338-3.784-2.338-3.784-2.058-3.996 1.013-.773 2.294-1.77 2.598-2.076a2.717 2.717 0 0 0 .435-1.57c0-.17.038-.35.062-.53.112-.917 1.032-1.447 1.928-1.958a9.909 9.909 0 0 0 1.007-.623 1.242 1.242 0 0 1 1.137-.15c1.194.343 2.624 1.976 2.86 2.568.236.592-.305.979-.703 1.247-.186.13-.416.287-.453.399-.1.268 0 .461.205.785.194.268.31.586.335.917a1.5 1.5 0 0 1-.341.879 15.243 15.243 0 0 1-6.217 4.9.28.28 0 0 1-.124.018Zm-2.157-4.47c.341.624 1.485 2.494 2.014 3.33l.267.43a14.53 14.53 0 0 0 5.707-4.564c.125-.149.204-.33.23-.523a1.168 1.168 0 0 0-.249-.624 1.423 1.423 0 0 1-.255-1.327c.158-.292.395-.532.684-.692.367-.25.529-.393.485-.512a5.526 5.526 0 0 0-2.487-2.2.664.664 0 0 0-.621.05 10.9 10.9 0 0 1-1.063.667c-.796.461-1.548.891-1.623 1.496 0 .18-.043.355-.062.523-.087.836-.162 1.49-.622 1.94-.46.448-1.74 1.49-2.406 2.013v-.006Z"/><path fill="#FDFC00" d="M87.674 54.222S65.108 47.297 65.47 43.906c.36-3.392 12.023-10.804 12.023-10.804l-5.713-6.09S54.515 36.138 53.8 45.09c-.714 8.952 19.943 18.8 19.943 18.8l13.931-9.668Z"/><path fill="#0F0F0F" d="M75.521 147.535s-.41 2.662.205 3.684a11.001 11.001 0 0 1 1.43 4.713 5.293 5.293 0 0 1-3.88 1.771c-2.448 0-4.904-1.839-5.171-2.731-.268-.891 1.97-10.304 1.97-10.304l5.446 2.867Z"/><path fill="#D9D9D9" d="M73.277 158.014c-2.642 0-5.16-1.938-5.47-2.948-.311-1.01 1.59-8.883 1.964-10.467a.322.322 0 0 1 .31-.244c.048 0 .095.011.137.032l5.446 2.868a.302.302 0 0 1 .162.324c-.106.711-.286 2.718.168 3.478a11.127 11.127 0 0 1 1.467 4.832.301.301 0 0 1-.062.23 5.59 5.59 0 0 1-4.122 1.895Zm-2.99-12.885c-1.038 4.395-2.033 9.207-1.865 9.756.217.723 2.542 2.493 4.874 2.493a5.02 5.02 0 0 0 3.55-1.564 10.47 10.47 0 0 0-1.368-4.445c-.566-.947-.367-2.967-.274-3.672l-4.917-2.568Z"/><path fill="#fff" d="m95.681 88.639-12.041 2.2.342-34.285s9.946-1.434 12.184-.131c2.238 1.303-.485 32.216-.485 32.216Z"/><path fill="#1C1C1C" d="M83.64 91.151a.31.31 0 0 1-.287-.18.288.288 0 0 1-.024-.132l.342-34.285a.311.311 0 0 1 .267-.306c.41-.056 10.065-1.427 12.384-.087 2.318 1.34.13 27.335-.336 32.534a.306.306 0 0 1-.249.274l-12.047 2.2-.05-.018Zm.653-34.348-.342 33.662 11.438-2.088c1.306-14.836 1.965-30.926.622-31.705-1.716-.991-8.797-.299-11.718.131Z"/><path fill="#0F0F0F" d="M92.4 141.987v8.004l3.81 1.091-.093-1.633 1.728 1.727s10.239 1.87 10.183.48c-.056-1.39-1.088-2.12-2.381-2.799-1.387-.736-5.036-2.799-5.036-2.799l-.547-5.872"/><path fill="#D9D9D9" d="M106.119 152.46a58.897 58.897 0 0 1-8.33-.979.329.329 0 0 1-.168-.087l-1.15-1.153.05.829a.296.296 0 0 1-.118.255.284.284 0 0 1-.28.057l-3.78-1.091a.312.312 0 0 1-.224-.3v-8.004a.311.311 0 0 1 .622 0v7.768l3.164.91-.068-1.203a.313.313 0 0 1 .37-.32.317.317 0 0 1 .165.083l1.653 1.658c4.352.785 9.325 1.284 9.735.748-.056-1.122-.932-1.814-2.225-2.494-1.293-.679-5.011-2.78-5.048-2.805a.304.304 0 0 1-.156-.237l-.547-5.872a.313.313 0 0 1 .588-.173c.019.036.03.076.034.117l.529 5.704c.683.386 3.673 2.076 4.886 2.718 1.212.642 2.486 1.515 2.549 3.061a.575.575 0 0 1-.212.461 3.625 3.625 0 0 1-2.039.349Z"/><path fill="#1C1C1C" d="m74.097 91.026-7.08 55.961s.298 2.225 5.11 2.493c4.812.268 4.352-.86 4.352-.86l11.438-39.765 3.108 35.389 10.382.623-2.064-58.21-25.246 4.37Z"/><path fill="#1C1C1C" d="M73.52 149.842c-.43 0-.896 0-1.412-.044-4.973-.287-5.39-2.668-5.402-2.768v-.081l7.087-55.96a.305.305 0 0 1 .255-.268l25.196-4.364a.311.311 0 0 1 .248.063.328.328 0 0 1 .112.23l2.064 58.242a.316.316 0 0 1-.093.231.311.311 0 0 1-.236.087l-10.382-.623a.312.312 0 0 1-.292-.281l-2.934-33.737-10.93 38.063a.683.683 0 0 1-.124.456c-.379.504-1.405.754-3.158.754Zm-6.217-2.868c.068.25.671 1.964 4.818 2.201 3.76.212 4.01-.455 4.01-.468a.182.182 0 0 1 0-.168l11.438-39.765a.312.312 0 0 1 .33-.225.304.304 0 0 1 .273.281l3.065 35.127 9.772.624-2.039-57.513-24.593 4.214-7.074 55.692Z"/><path fill="#FDFC00" d="M86.562 52.452s.161 39.534-1.865 41.729c-2.027 2.194-10.382 4.582-13.739 1.359-3.357-3.223 1.312-33.663 3.17-36.075 4.85-3.385 12.434-7.013 12.434-7.013Zm16.915 3.204s2.449 38.394 1.243 39.379c-1.206.985-8.877 2.624-10.406 1.39-1.53-1.234-1.418-42.072-1.418-42.072s6.59.536 10.581 1.303Z"/><path fill="gray" d="m90.497 60.263-1.088 1.533 3.506 23.14-2.5 3.104-3.089-2.774 1.014-23.239-1.182-1.696 1.536-1.072 1.803 1.004Z"/><path fill="#0F0F0F" d="m92.343 51.386 1.001 4.918s-.18 2.375-3.618 2.282c-3.438-.093-4.395-2.25-4.395-2.25l-1.542-9.233s1.76-1.832-.074-6.963c0 0 5.377.48 10.108-1.178 0 0 1.336 5.96 1.486 8.578.149 2.618-2.966 3.846-2.966 3.846Z"/><path fill="#D9D9D9" d="M89.95 58.898h-.206c-3.593-.1-4.63-2.338-4.674-2.431a.346.346 0 0 1 0-.075l-1.536-9.239a.332.332 0 0 1 .08-.268s1.592-1.801-.142-6.639a.294.294 0 0 1 .05-.293.286.286 0 0 1 .273-.118c.05 0 5.365.449 9.947-1.166a.33.33 0 0 1 .255 0 .31.31 0 0 1 .155.2c.056.249 1.343 6.009 1.486 8.633.137 2.394-2.151 3.684-2.916 4.046l.951 4.67a.354.354 0 0 1 0 .08s-.23 2.6-3.723 2.6Zm-4.296-2.656c.137.262 1.113 1.951 4.11 2.032 2.996.081 3.25-1.664 3.288-1.957l-.989-4.869a.306.306 0 0 1 .193-.349s2.897-1.178 2.766-3.54a72.734 72.734 0 0 0-1.405-8.185 27.723 27.723 0 0 1-9.43 1.11c1.405 4.25.323 6.233-.044 6.707l1.511 9.051Z"/><path fill="#0F0F0F" d="M85.306 46.511a2.186 2.186 0 0 0-.964-.991 3.856 3.856 0 0 0-1.243-.33 1.531 1.531 0 0 0-.715 0c-.16.057-.307.149-.429.268-.321.245-.542.6-.621.997-.023.322.03.644.155.941.111.336.268.655.466.948a2.659 2.659 0 0 0 1.735 1.094 2.649 2.649 0 0 0 1.995-.47"/><path fill="#D9D9D9" d="M84.094 49.803c-.16 0-.32-.013-.479-.038a2.965 2.965 0 0 1-1.933-1.246 4.17 4.17 0 0 1-.504-1.017 2.319 2.319 0 0 1-.168-1.09c.088-.47.341-.894.715-1.191a1.61 1.61 0 0 1 .529-.33c.28-.078.572-.09.858-.038.473.043.936.168 1.367.368.49.258.879.673 1.107 1.178a.313.313 0 0 1-.26.449.312.312 0 0 1-.3-.175 1.869 1.869 0 0 0-.826-.897 3.48 3.48 0 0 0-1.17-.3 1.24 1.24 0 0 0-.571 0 1.063 1.063 0 0 0-.33.206c-.257.203-.435.49-.503.81-.018.272.029.543.137.792.102.31.246.603.428.873a2.338 2.338 0 0 0 2.442.93c.3-.07.584-.2.835-.382a.312.312 0 0 1 .435.07.318.318 0 0 1-.069.435 2.96 2.96 0 0 1-1.74.593Z"/><path fill="#0F0F0F" d="M90.416 43.326s2.331 2.113 2.04 2.655c-.293.543-1.5.536-1.5.536"/><path fill="#D9D9D9" d="M90.97 46.83a.31.31 0 0 1-.22-.533.31.31 0 0 1 .22-.091c.41 0 1.075-.119 1.243-.374 0-.237-.92-1.322-1.977-2.276a.311.311 0 0 1 0-.442.305.305 0 0 1 .435 0c1.15 1.04 2.443 2.412 2.107 3.036-.335.623-1.616.68-1.809.68Z"/><path fill="#0F0F0F" d="M92.343 51.386s-2.555.467-3.873 0c0 0 1.517 2.75 4.426 2.986l-.553-2.986Z"/><path fill="#D9D9D9" d="M92.921 54.665c-3.04-.25-4.606-3.03-4.668-3.148a.313.313 0 0 1 .03-.35.312.312 0 0 1 .343-.093c1.243.45 3.686 0 3.73 0a.317.317 0 0 1 .36.25l.553 2.967a.287.287 0 0 1-.074.262.299.299 0 0 1-.274.112Zm-3.73-2.818a5.65 5.65 0 0 0 3.339 2.145l-.423-2.25c-.95.15-1.914.186-2.872.105h-.044Z"/><path fill="#1C1C1C" d="M99.803 93.021a.284.284 0 0 1-.218-.087l-4.102-4.07a.318.318 0 0 1 .1-.511.309.309 0 0 1 .34.068l4.098 4.07a.306.306 0 0 1 .094.219.304.304 0 0 1-.094.218.3.3 0 0 1-.218.093Zm-24.966-2.256a.31.31 0 0 1-.286-.437.312.312 0 0 1 .137-.15c2.86-1.533 5.968-3.328 6.217-3.683a.305.305 0 0 1 .404-.15.33.33 0 0 1 .155.424c-.236.542-4.171 2.718-6.496 3.958a.286.286 0 0 1-.13.038Zm19.116-19.699a.304.304 0 0 1-.199-.075.318.318 0 0 1-.037-.442l4.737-5.555-2.804-2.175a.306.306 0 0 1-.124-.268.33.33 0 0 1 .162-.25l2.542-1.39-2.717-3.26a.312.312 0 0 1 .044-.443.303.303 0 0 1 .435.044l2.96 3.553a.299.299 0 0 1 .068.256.32.32 0 0 1-.156.218l-2.486 1.34 2.685 2.088a.286.286 0 0 1 .118.213.307.307 0 0 1-.074.236l-4.974 5.798a.305.305 0 0 1-.18.112Z"/><path fill="#2F2F2F" d="M87.992 110.719h-.05a.311.311 0 0 1-.261-.356c0-.124 2.033-12.685 1.902-14.96a.312.312 0 0 1 .292-.325.316.316 0 0 1 .33.287c.136 2.332-1.828 14.562-1.909 15.086a.319.319 0 0 1-.304.268Z"/><path fill="#D9D9D9" d="M80.351 44.89a.311.311 0 0 1-.286-.193 6.25 6.25 0 0 1 1.244-6.464l.074-.081c.127-.116.236-.25.324-.4.049-.12.089-.245.118-.373v-.119a5.459 5.459 0 0 1 2.89-3.328 12.047 12.047 0 0 1 4.24-1.104 9.2 9.2 0 0 1 3.45.112 3.96 3.96 0 0 1 2.717 2.245 2.676 2.676 0 0 1-1.1 3.303.305.305 0 0 1-.436-.193.312.312 0 0 1 .137-.418 2.044 2.044 0 0 0 .802-2.524 3.352 3.352 0 0 0-2.3-1.87 8.617 8.617 0 0 0-3.22-.1 11.51 11.51 0 0 0-4.022 1.041 4.814 4.814 0 0 0-2.562 2.955v.112a2.14 2.14 0 0 1-.167.511 2.305 2.305 0 0 1-.43.555l-.068.069a5.66 5.66 0 0 0-1.106 5.81.313.313 0 0 1-.174.398.267.267 0 0 1-.125.056Z"/><path fill="#1C1C1C" d="M84.374 71.74a.304.304 0 0 1-.25-.125l-4.836-6.59a.312.312 0 0 1 0-.405l2.934-3.036-3.667-.96a.299.299 0 0 1-.218-.212.312.312 0 0 1 .069-.299l4.426-4.75a.31.31 0 1 1 .435.443L79.2 60.169l3.674.96a.317.317 0 0 1 .224.218.314.314 0 0 1-.075.3l-3.108 3.229 4.675 6.377a.307.307 0 0 1-.068.436.28.28 0 0 1-.15.05Z"/><path fill="#0F0F0F" d="M86.78 43.002s.714-1.434 2.02-.244l-2.02.244Z"/><path fill="#D9D9D9" d="M86.78 43.313c-.05 0-.1-.013-.144-.037a.311.311 0 0 1-.136-.418 1.72 1.72 0 0 1 1.075-.86 1.668 1.668 0 0 1 1.436.53.312.312 0 0 1 0 .442.298.298 0 0 1-.435 0 1.113 1.113 0 0 0-.901-.38 1.055 1.055 0 0 0-.622.53.312.312 0 0 1-.274.193Z"/><path fill="#0F0F0F" d="M91.541 42.82s.355-1.788 1.784-.654l-1.784.655Z"/><path fill="#D9D9D9" d="M91.541 43.133h-.062a.317.317 0 0 1-.243-.368 1.705 1.705 0 0 1 .883-1.247 1.452 1.452 0 0 1 1.399.38.313.313 0 0 1-.386.493c-.223-.181-.547-.38-.795-.287-.249.093-.46.623-.491.76a.312.312 0 0 1-.305.269Z"/><path fill="#0F0F0F" d="M93.922 46.524s-3.3 5.367-5.98.355l5.98-.355Z"/><path fill="#D9D9D9" d="M90.559 49.329h-.08c-1.076 0-2.028-.804-2.823-2.3a.314.314 0 0 1 .03-.346.311.311 0 0 1 .094-.078.316.316 0 0 1 .423.124c.684 1.285 1.454 1.952 2.294 1.976 1.64.044 3.108-2.325 3.145-2.35a.317.317 0 0 1 .52-.017.306.306 0 0 1 .009.348c-.05.106-1.635 2.643-3.612 2.643Z"/><path fill="#0F0F0F" d="M108.985 40.789s-1.909-1.87-1.965-3.223c-.055-1.353.473-2.026.889-3.74.417-1.715-.621-2.494.063-3.523.683-1.028 1.964-2.88 3.021-2.605a1.694 1.694 0 0 1 1.243 1.247l.833-1.316s.622 1.615-.416 4.002c-1.038 2.388.298 6.084.298 6.084l-3.966 3.074Z"/><path fill="#D9D9D9" d="M108.985 41.1a.285.285 0 0 1-.218-.087c-.08-.075-1.995-1.951-2.057-3.435a5.61 5.61 0 0 1 .435-2.313c.183-.502.339-1.014.466-1.533a3.636 3.636 0 0 0-.068-1.826 1.95 1.95 0 0 1-.133-.923 1.95 1.95 0 0 1 .307-.879l.081-.112c.814-1.166 2.051-2.918 3.288-2.575.494.125.925.427 1.212.848l.529-.835a.31.31 0 0 1 .553.062c0 .069.622 1.758-.423 4.226-.951 2.25.293 5.83.305 5.866a.31.31 0 0 1-.099.35l-3.991 3.117a.307.307 0 0 1-.187.05Zm1.778-13.09c-.808 0-1.865 1.514-2.487 2.356l-.074.112c-.292.411-.212.767-.081 1.297a4.24 4.24 0 0 1 .068 2.12 14.951 14.951 0 0 1-.485 1.589 5.042 5.042 0 0 0-.397 2.082c.037.916 1.094 2.206 1.678 2.824l3.593-2.8c-.267-.847-1.131-3.939-.217-6.102a6.4 6.4 0 0 0 .547-3.042l-.417.623a.305.305 0 0 1-.317.137.31.31 0 0 1-.249-.243 1.38 1.38 0 0 0-1.025-.954.483.483 0 0 0-.137-.012v.012Z"/><path fill="#FDFC00" d="M103.477 55.656s10.643.586 11.569-1.926c.926-2.512-8.175-12.76-8.175-12.76l6.963-5.168s15.218 17.504 11.811 23.993c-3.406 6.49-24.02 9.133-24.02 9.133l1.852-13.272Z"/><path fill="#D9D9D9" d="M67.582 175.5a.317.317 0 0 1-.305-.324l.355-12.424a.322.322 0 0 1 .317-.306.317.317 0 0 1 .305.318l-.354 12.43a.312.312 0 0 1-.318.306Z"/><path fill="#1C1C1C" d="M69.963 83.876a.303.303 0 0 1-.298-.318c.354-12.685 4.7-26.462 4.743-26.593a.313.313 0 0 1 .404-.23.308.308 0 0 1 .187.174.314.314 0 0 1-.006.256c-.044.124-4.352 13.814-4.706 26.412a.312.312 0 0 1-.324.3Zm35.192 3.51a.31.31 0 0 1-.304-.312c.174-9.519-2.592-25.558-2.617-25.745a.31.31 0 0 1 .248-.361.315.315 0 0 1 .232.054c.068.047.114.12.129.2.031.163 2.804 16.29 2.63 25.858a.31.31 0 0 1-.197.286.305.305 0 0 1-.121.02Z"/><path fill="#D1D3D4" d="M137.538 95.022h-.069a.31.31 0 0 1-.298-.324c.001-.04.01-.08.026-.118a.293.293 0 0 1 .07-.098.297.297 0 0 1 .221-.083 1.965 1.965 0 0 0 1.908-2.038 4.23 4.23 0 0 0-.198-.823 5.106 5.106 0 0 1-.218-.904c-.187-1.67 1.113-3.117 3.86-4.277a.312.312 0 0 1 .243.574c-2.487 1.047-3.637 2.269-3.488 3.634.042.269.107.534.193.792.11.304.185.62.224.941a2.465 2.465 0 0 1-.69 1.908 2.49 2.49 0 0 1-1.784.816ZM41.1 26.607a.31.31 0 0 1-.22-.532.31.31 0 0 1 .22-.091.62.62 0 0 0 .491-.325 1.492 1.492 0 0 0 .087-1.246 4.817 4.817 0 0 0-.69-1.098 6.903 6.903 0 0 1-.671-1.022 2.311 2.311 0 0 1-.094-1.87 1.309 1.309 0 0 1 .809-.773.324.324 0 0 1 .407.215.327.327 0 0 1-.215.408.69.69 0 0 0-.429.418 1.725 1.725 0 0 0 .075 1.322c.178.328.386.639.622.928.311.38.57.799.77 1.247a2.113 2.113 0 0 1-.136 1.827 1.246 1.246 0 0 1-.976.623l-.05-.031Zm13.384 68.777a1.284 1.284 0 0 1-.665-.194.31.31 0 0 1-.1-.43.305.305 0 0 1 .423-.1.714.714 0 0 0 .79-.055 1.688 1.688 0 0 0 .708-1.522 5.093 5.093 0 0 0-.82-1.87 9.803 9.803 0 0 1-.622-1.128 3.124 3.124 0 0 1-.043-2.425 1.62 1.62 0 0 1 1.025-.904.321.321 0 0 1 .395.228.323.323 0 0 1-.227.396.98.98 0 0 0-.621.567 2.5 2.5 0 0 0 .05 1.907c.172.363.368.715.584 1.054.437.628.744 1.338.901 2.088a2.337 2.337 0 0 1-.982 2.132c-.235.162-.511.25-.796.256Zm76.75-67.512a.931.931 0 0 0-.932.935.936.936 0 0 0 .932.935.93.93 0 0 0 .932-.935.936.936 0 0 0-.932-.935Zm-17.524 68.64-2.325-.467.739-3.71 2.325.462-.739 3.715Zm-1.592-.96 1.107.224.491-2.493-1.107-.218-.491 2.487ZM45.246 54.054l-.932-2.75 2.082-.71.926 2.756-2.076.704Zm-.149-2.363.528 1.571.908-.305-.528-1.571-.908.305Zm-22.38-7.785a.62.62 0 0 0-.621.623.624.624 0 0 0 .621.623.62.62 0 0 0 .622-.623.624.624 0 0 0-.622-.623Zm12.602 51.596c-1.598 0-1.604 2.494 0 2.494 1.603 0 1.603-2.494 0-2.494ZM15.88 148.751a.31.31 0 0 1-.312-.268 12.114 12.114 0 0 1 .582-5.471 12.088 12.088 0 0 1 2.94-4.645 12.017 12.017 0 0 1 10.155-3.33 13.616 13.616 0 0 1 .15-7.334 13.585 13.585 0 0 1 3.933-6.185 13.526 13.526 0 0 1 6.567-3.23 13.499 13.499 0 0 1 7.285.666c.566-3.055 1.274-6.234 2.89-9.021 1.865-3.216 4.812-5.342 7.864-5.679 3.992-.436 7.187 2.357 7.666 5.255a.313.313 0 0 1-.255.356.316.316 0 0 1-.36-.256c-.473-2.88-3.73-5.093-6.982-4.737-2.854.317-5.595 2.325-7.398 5.379-1.629 2.799-2.319 6.072-2.884 9.189a.298.298 0 0 1-.156.218.31.31 0 0 1-.267 0 12.891 12.891 0 0 0-13.596 2.347 12.956 12.956 0 0 0-3.786 6.118c-.66 2.357-.64 4.854.056 7.2a.313.313 0 0 1-.199.384.293.293 0 0 1-.155.009 11.415 11.415 0 0 0-9.946 2.903 11.481 11.481 0 0 0-3.519 9.77.306.306 0 0 1-.268.349l-.006.013Zm109.057-44.709a.933.933 0 0 0-.933.936.936.936 0 0 0 .933.935.933.933 0 0 0 .932-.935.933.933 0 0 0-.932-.936Zm9.101-35.825a.932.932 0 0 0-.933.935.936.936 0 0 0 .933.935.931.931 0 0 0 .932-.935.936.936 0 0 0-.932-.935ZM20.884 85.347h-.032a.304.304 0 0 1-.255-.355 5.481 5.481 0 0 0-1.61-4.744l-.205-.187a2.49 2.49 0 0 1-1.038-1.602 2.355 2.355 0 0 1 .802-1.664 3.25 3.25 0 0 0 .622-.898c.373-.972-.485-2.007-1.244-2.924l-.174-.212a3.682 3.682 0 0 1-.864-2.798 1.53 1.53 0 0 1 .858-1.091.311.311 0 1 1 .274.554.902.902 0 0 0-.492.661 3.061 3.061 0 0 0 .734 2.282l.174.212c.82.99 1.865 2.225 1.343 3.534a3.74 3.74 0 0 1-.74 1.091c-.36.418-.671.78-.621 1.247.05.467.41.804.82 1.178l.211.2a6.086 6.086 0 0 1 1.772 5.286.318.318 0 0 1-.335.23Zm126.42-40.407a.304.304 0 0 1-.199-.075.317.317 0 0 1-.037-.442 2.979 2.979 0 0 0 .124-3.578l-.143-.187c-.485-.624-1.15-1.515-.528-2.238.289-.28.673-.44 1.075-.449a1.96 1.96 0 0 0 .584-.143.733.733 0 0 0 .361-.462c.1-.465.027-.95-.205-1.365a8.82 8.82 0 0 0-.423-.667 4.14 4.14 0 0 1-.783-1.652 1.752 1.752 0 0 1 .764-1.62 1.045 1.045 0 0 1 1.169-.032.31.31 0 0 1 .14.317.31.31 0 0 1-.047.113.312.312 0 0 1-.429.093.432.432 0 0 0-.497 0 1.145 1.145 0 0 0-.485 1.036c.123.51.356.987.684 1.396.162.237.317.474.454.717.324.567.413 1.238.248 1.87a1.31 1.31 0 0 1-.665.823 2.47 2.47 0 0 1-.783.212 1.06 1.06 0 0 0-.69.237c-.274.318.075.823.553 1.452l.143.193a3.615 3.615 0 0 1-.149 4.364.304.304 0 0 1-.236.087Zm17.891 19.088a.93.93 0 0 0-.932.935.936.936 0 0 0 .932.935.934.934 0 0 0 .66-1.596.933.933 0 0 0-.66-.274Zm-19.445 75.94a.318.318 0 0 1-.28-.181c-1.194-2.525-2.586-4.146-4.258-4.95-1.865-.897-4.588-.586-5.676 1.303a.309.309 0 0 1-.311.156.31.31 0 0 1-.255-.231c-.858-3.266-2.984-5.878-5.688-6.982-2.947-1.209-6.577-.299-8.268 2.07a.31.31 0 0 1-.348.112.315.315 0 0 1-.211-.299c.043-3.547-1.592-7.911-5.334-9.668a7.274 7.274 0 0 0-3.061-.599 7.27 7.27 0 0 0-3.032.736 5.614 5.614 0 0 0-3.164 3.684.31.31 0 0 1-.373.23.284.284 0 0 1-.111-.049.308.308 0 0 1-.119-.325 6.217 6.217 0 0 1 3.5-4.101 7.872 7.872 0 0 1 6.621-.138c3.699 1.733 5.47 5.823 5.676 9.395a7.784 7.784 0 0 1 8.46-1.627 10.658 10.658 0 0 1 5.869 6.77c1.43-1.69 4.171-1.92 6.092-.998 1.809.873 3.301 2.587 4.551 5.243a.323.323 0 0 1 .015.238.332.332 0 0 1-.062.106.326.326 0 0 1-.096.073.366.366 0 0 1-.137.032Z"/></svg>