<?xml version="1.0" standalone="no"?>
<!DOCTYPE svg PUBLIC "-//W3C//DTD SVG 20010904//EN"
 "http://www.w3.org/TR/2001/REC-SVG-20010904/DTD/svg10.dtd">
<svg version="1.0" xmlns="http://www.w3.org/2000/svg"
 width="1184.000000pt" height="1184.000000pt" viewBox="0 0 1184.000000 1184.000000"
 preserveAspectRatio="xMidYMid meet">
<metadata>
Created by potrace 1.14, written by Peter Selinger 2001-2017
</metadata>
<g transform="translate(0.000000,1184.000000) scale(0.100000,-0.100000)"
fill="#000000" stroke="none">
<path d="M8879 8297 c-1069 -1068 -2011 -2005 -2093 -2082 -81 -77 -181 -171
-222 -209 -41 -38 -74 -73 -74 -77 0 -9 340 -346 1266 -1254 196 -192 364
-359 373 -369 9 -10 27 -28 39 -40 31 -27 80 -76 115 -113 l27 -29 -592 1
c-525 2 -598 4 -637 19 -42 15 -92 48 -123 79 -22 23 -856 871 -947 962 -46
47 -87 85 -91 85 -5 0 -217 -207 -472 -459 -997 -990 -1328 -1319 -1328 -1324
0 -3 60 -5 132 -6 147 0 302 -7 315 -13 13 -6 274 -1 308 6 141 30 233 101
465 356 47 51 114 123 150 160 58 59 270 283 349 368 17 19 35 32 41 30 10 -3
362 -352 707 -701 146 -147 192 -180 276 -196 58 -11 2986 -8 3009 3 9 4 19
15 23 24 4 12 -206 228 -829 847 -460 456 -1011 1005 -1226 1219 l-391 389
2138 2133 2138 2134 -451 0 -451 0 -1944 -1943z"/>
<path d="M7028 8435 c-2 -2 -28 -6 -58 -10 -30 -4 -80 -15 -110 -26 -30 -11
-59 -21 -65 -22 -23 -6 -115 -61 -115 -69 0 -4 -6 -8 -12 -8 -14 0 -104 -84
-128 -120 -8 -12 -24 -32 -35 -44 -11 -12 -51 -58 -90 -101 -38 -44 -173 -183
-298 -310 l-228 -230 -423 426 c-390 394 -460 460 -490 465 -6 1 -27 9 -46 17
-30 13 -235 15 -1535 14 -825 0 -1508 -3 -1518 -6 -13 -5 258 -281 1218 -1239
l1235 -1233 -2110 -2109 c-1161 -1160 -2110 -2112 -2110 -2117 0 -4 198 -8
441 -8 l441 0 2052 2050 c1129 1128 2077 2067 2107 2088 30 21 65 43 79 50 21
11 25 19 23 53 -3 37 -20 57 -422 454 -231 228 -634 626 -895 885 -303 299
-472 473 -466 479 6 6 236 10 597 10 583 -1 588 -1 637 -22 40 -18 152 -125
594 -566 l544 -543 432 428 c237 236 431 429 431 429 0 0 208 207 462 459 334
332 458 461 447 465 -9 3 -20 4 -25 1 -20 -13 -397 -6 -531 9 -15 2 -29 2 -30
1z"/>
</g>
</svg>
