<svg xmlns="http://www.w3.org/2000/svg" width="25" height="8" fill="none"><g fill="#FDFC00"><path d="M10.86 2.905c.314-.014.631-.05.946-.042 1.192.033 2.383.08 3.575.12.062.002.123-.031.184-.05l-.006-.003c.722.025 1.44.064 2.161.072 1.668.02 3.336.058 4.993.298.259.036.702.05.677.68-.026.654-.329 1.03-.783.996-1.097-.083-2.194-.261-3.288-.172-1.602.13-3.194.002-4.79.002-1.434-.002-2.865-.07-4.3-.064-1.344.003-2.695.115-4.04.078-1.16-.03-2.316-.22-3.478-.306-.272-.02-.562-.061-.827.173l.006.008c-.309-.295-.69.234-.986-.198-.106-.014-.214-.058-.32-.039-.479.098-.601-.133-.423-.849.039-.159.003-.365.12-.47l.008.01-.003-.01c.334-.48.727-.237 1.089-.24 1.774-.008 3.547.025 5.324.045 1.089.01 2.178.064 3.266.002.298-.016.599-.103.9-.041h-.006Z"/><path d="M23.933 3.036c.217.189.384.39.448.657l.028.161c.028.26-.02.518-.117.727a1.72 1.72 0 0 1-.457.59c-.211.187-.5.335-.763.493l-.523.307c-.028.016-.04.064-.059.097l.006.003c-.348.2-.704.387-1.044.601-.785.496-1.582.975-2.479 1.281-.139.048-.353.173-.673-.37-.335-.565-.39-.978-.162-1.086.554-.265 1.159-.451 1.62-.863a7.26 7.26 0 0 1 1.09-.78l.57-.343.284-.172.142-.09.037-.022.01-.008.012-.011a.668.668 0 0 1 .103-.078c.033-.022.072-.058.061-.106-.02-.058-.092-.075-.145-.094a.158.158 0 0 0-.05-.009c-.008 0-.014 0-.028-.003l-.128-.058-.518-.228a9.433 9.433 0 0 1-1.01-.496c-.56-.326-1.042-.788-1.574-1.158-.125-.087-.25-.198-.492-.062l-.003.009c-.011-.337-.454.027-.393-.426-.044-.04-.078-.106-.14-.115-.283-.039-.23-.27.201-.852.095-.128.178-.32.287-.381.398-.334.476-.022.654.07.883.445 1.744.93 2.615 1.4l.794.443c.133.072.267.145.404.209l.601.292c.279.128.66.24.79.468v.003Z"/></g></svg>