<svg xmlns="http://www.w3.org/2000/svg" width="290" height="54" fill="none"><path fill="#fff" d="m19.434 16.332-.648 3.014A1.777 1.777 0 0 1 18 20.605a3.297 3.297 0 0 1-1.696.363H8.407L5.73 33.043H.838l3.319-14.848a2.91 2.91 0 0 1 .728-1.455 2.016 2.016 0 0 1 1.36-.386l13.189-.022Zm-1.267 6.55-.648 2.744a1.73 1.73 0 0 1-.654 1.143 1.936 1.936 0 0 1-1.18.291H8l.647-2.773c.075-.452.316-.86.677-1.142a1.95 1.95 0 0 1 1.18-.284l7.663.022Zm15.416-1.775h4.89l-2.387 10.262a2.721 2.721 0 0 1-.582 1.245 1.66 1.66 0 0 1-1.274.429H20.911a2.568 2.568 0 0 1-1.099-.167.771.771 0 0 1-.378-.765 1.86 1.86 0 0 1 .073-.48l.524-2.314 1.623-6.755a1.644 1.644 0 0 1 .727-1.135 2.7 2.7 0 0 1 1.354-.298h3.1l-1.928 8.166h6.82l1.856-8.188Zm21.121 11.936H43.467a3.639 3.639 0 0 1-2.366-.619 2.263 2.263 0 0 1-.728-1.82 7.73 7.73 0 0 1 .233-1.622l2.846-12.65h4.84l-2.693 12.25h10.073l-.968 4.461Zm-7.278-7.213 1.07-4.723h6.325l1.455 4.723h-8.85Zm24.913-4.723h4.898L74.85 31.369c-.09.458-.292.885-.59 1.245a1.66 1.66 0 0 1-1.273.429h-13.32a2.59 2.59 0 0 1-1.098-.19.771.771 0 0 1-.379-.763 1.89 1.89 0 0 1 .073-.48l.524-2.315 1.623-6.754a1.624 1.624 0 0 1 .728-1.136 2.68 2.68 0 0 1 1.346-.298h3.1l-1.906 8.159h6.827l1.834-8.16Zm8.261 2.365a2.853 2.853 0 0 1 1.12-1.841 4.432 4.432 0 0 1 2.388-.524h7.926a2.43 2.43 0 0 1 1.091.204.8.8 0 0 1 .386.778c.006.152-.011.305-.05.452l-.568 2.7-4.44.044h-1.456c-.405-.012-.81.02-1.208.094-.258.055-.49.193-.662.393a2.38 2.38 0 0 0-.4.968l-1.456 6.303H78.38l2.22-9.57Zm31.856-2.365c.376-.018.751.046 1.099.189a.774.774 0 0 1 .386.764 2.23 2.23 0 0 1-.073.48l-.48 2.104-.597 2.65a1.665 1.665 0 0 1-.728 1.142 2.488 2.488 0 0 1-1.339.284h-8.399l.313-1.223a1.744 1.744 0 0 1 .728-1.143c.404-.222.865-.32 1.324-.284h4.244l.334-1.455h-7.707l-1.238 5.298h11.857l-.379 1.667a1.68 1.68 0 0 1-.728 1.143 2.45 2.45 0 0 1-1.339.29H98.256c-.727 0-1.266 0-1.608-.057a1.353 1.353 0 0 1-.728-.277.851.851 0 0 1-.24-.67c.021-.46.094-.916.218-1.36l1.354-6.012.502-2.125a1.674 1.674 0 0 1 .728-1.136c.415-.215.88-.317 1.347-.298l12.627.029Zm63.604 1.725a15.43 15.43 0 0 1 1.791.072c.321.017.63.128.888.32a.986.986 0 0 1 .284.78 6.104 6.104 0 0 1-.19 1.193l-1.39 5.94a1.648 1.648 0 0 1-.728 1.142 2.423 2.423 0 0 1-1.339.29h-10.138l.618-2.75a1.681 1.681 0 0 1 .728-1.143c.409-.217.87-.316 1.332-.284h5.823l.502-2.052h-7.562l.473-2.023a1.638 1.638 0 0 1 .728-1.157 2.473 2.473 0 0 1 1.332-.277h4.367l.727-3.1-7.212.043-2.839 12.795h-4.891l3.749-16.74h14.927c.299-.027.598.059.837.24a1.095 1.095 0 0 1 .262.837 5.578 5.578 0 0 1-.167 1.267 6.117 6.117 0 0 1-2.948 4.017 4.306 4.306 0 0 1-1.849.611h1.885v-.021Zm24.659-2.948a1.174 1.174 0 0 1 .451.99 5.324 5.324 0 0 1-.146 1.004l-.116.502-2.242 10.19h-15.662a2.038 2.038 0 0 1-1.085-.204.846.846 0 0 1-.393-.8 3.44 3.44 0 0 1 .051-.43l.954-4.774c.088-.566.26-1.115.509-1.63a1.253 1.253 0 0 1 .852-.598 9.964 9.964 0 0 1 1.957-.13h6.922a2.47 2.47 0 0 1 1.121.189.763.763 0 0 1 .356.727 1.927 1.927 0 0 1-.072.495l-.415 1.856h-7.089l-.473 2.337h8.231l.386-1.718 1.172-5.095h-12.286l.473-1.841c.083-.462.345-.873.728-1.143a2.374 2.374 0 0 1 1.325-.29h12.89a2.73 2.73 0 0 1 1.601.363Zm2.118 12.686 3.748-16.74h4.847l-3.697 16.74h-4.898Zm17.548-11.936c.374-.02.747.048 1.091.196a.726.726 0 0 1 .386.728 1.861 1.861 0 0 1-.073.48l-.524 2.315-.982 3.988-.641 2.766a1.68 1.68 0 0 1-.728 1.143 2.45 2.45 0 0 1-1.339.29h-3.1l.953-4.177.954-3.988h-5.779l.859-3.749 8.923.008Zm4.84 2.366a2.908 2.908 0 0 1 1.121-1.842 4.446 4.446 0 0 1 2.387-.524h7.926a2.46 2.46 0 0 1 1.099.203.799.799 0 0 1 .378.78c.004.15-.01.302-.043.45l-.575 2.7-4.44.044h-1.456a6.12 6.12 0 0 0-1.201.095 1.2 1.2 0 0 0-.669.393c-.204.288-.338.62-.393.968l-1.456 6.303h-4.891l2.213-9.57Zm34.251-3.116a1.173 1.173 0 0 1 .451.99 5.405 5.405 0 0 1-.145 1.004l-.117.503-2.242 10.189h-15.626a2.047 2.047 0 0 1-1.092-.204.844.844 0 0 1-.393-.8c.008-.144.025-.288.051-.43l.954-4.774a5.8 5.8 0 0 1 .509-1.63 1.253 1.253 0 0 1 .852-.598 9.969 9.969 0 0 1 1.958-.13h6.921c.383-.026.767.038 1.121.189a.73.73 0 0 1 .357.728 1.972 1.972 0 0 1-.073.495l-.408 1.84h-7.089l-.473 2.337h8.232l.386-1.718 1.171-5.094h-12.322l.473-1.842c.083-.461.345-.872.728-1.142a2.374 2.374 0 0 1 1.325-.291h12.89c.56-.042 1.119.09 1.601.378Zm9.738.75-2.751 11.936h-4.862l2.766-11.936h4.847Zm1.092-4.775-.852 3.872h-4.869l.91-3.872h4.811Zm19.141 4.971a.725.725 0 0 1 .386.728 2.23 2.23 0 0 1-.073.48l-.524 2.315-.982 3.988-.641 2.766a1.68 1.68 0 0 1-.728 1.143 2.406 2.406 0 0 1-1.331.29h-3.108l.96-4.177.954-3.988h-6.827l-1.863 8.188h-4.891l2.387-10.263c.086-.457.286-.885.582-1.244a1.685 1.685 0 0 1 1.281-.43h13.348c.368-.013.734.057 1.07.204ZM165.376 42.57v-5.095h.728v5.095h-.728Zm7.693-5.073v5.095h-.793l-2.235-3.29-.102-.145a1.525 1.525 0 0 0-.094-.153 1.912 1.912 0 0 1-.248-.422v4.01h-.691v-5.095h.728l2.299 3.363c.039.066.083.13.131.189.061.084.117.172.168.262.051.087.087.16.124.233v-4.047h.713Zm7.016 0v5.095h-.8l-2.227-3.29-.102-.145s-.044-.073-.102-.153a3.301 3.301 0 0 1-.247-.422v4.01h-.685v-5.095h.728l2.293 3.363.131.189c.065.083.123.17.174.262.044.087.088.16.117.233v-4.047h.72Zm3.632 4.84a2.08 2.08 0 0 1-.808-.924 3.435 3.435 0 0 1-.269-1.39 2.97 2.97 0 0 1 .335-1.456c.199-.368.503-.67.873-.866.376-.192.793-.29 1.215-.284a2.43 2.43 0 0 1 1.289.335c.356.218.635.541.8.924.189.439.281.913.27 1.39a2.979 2.979 0 0 1-.328 1.456c-.198.37-.502.672-.873.866-.376.192-.794.29-1.216.284-.453.015-.9-.101-1.288-.335Zm2.22-.531c.255-.18.448-.434.553-.728a2.72 2.72 0 0 0 .182-1.04 2.999 2.999 0 0 0-.175-1.07 1.458 1.458 0 0 0-1.455-.976 1.631 1.631 0 0 0-.932.255 1.555 1.555 0 0 0-.553.728c-.128.331-.19.685-.182 1.04-.007.365.052.727.175 1.07.103.291.29.545.538.728.264.177.578.266.895.255.338.011.672-.083.954-.27v.008Zm7.235-4.309h.727v.051l-1.87 5.022h-.888l-1.863-5.022v-.05h.728l1.572 4.366 1.594-4.367Zm4.868 0 1.907 5.03v.043h-.727l-.532-1.456h-2.183l-.524 1.456h-.728v-.044l1.907-5.029h.88Zm-1.317 3.028h1.725l-.859-2.344-.866 2.344Zm8.545-3.028v.626h-1.747v4.447h-.728v-4.447h-1.754v-.626h4.229Zm2.321 5.073v-5.095h.728v5.095h-.728Zm4.368-.233a2.07 2.07 0 0 1-.801-.924 3.303 3.303 0 0 1-.269-1.39 2.978 2.978 0 0 1 .327-1.456c.2-.368.504-.67.874-.866.376-.192.793-.29 1.215-.284a2.4 2.4 0 0 1 1.288.335c.356.22.638.542.808.924.186.44.278.913.27 1.39a2.979 2.979 0 0 1-.328 1.456 2.13 2.13 0 0 1-.881.866c-.376.192-.793.29-1.215.284a2.35 2.35 0 0 1-1.288-.335Zm2.22-.531a1.52 1.52 0 0 0 .553-.728 2.72 2.72 0 0 0 .182-1.04 2.999 2.999 0 0 0-.175-1.07 1.46 1.46 0 0 0-.531-.728 1.509 1.509 0 0 0-.903-.262 1.65 1.65 0 0 0-.931.254 1.563 1.563 0 0 0-.554.728c-.128.332-.19.685-.182 1.041a3 3 0 0 0 .175 1.07c.103.29.291.544.539.728.264.176.577.265.895.254a1.63 1.63 0 0 0 .946-.254l-.014.007Zm8.224-4.309v5.095h-.793l-2.235-3.29-.102-.145a1.525 1.525 0 0 0-.094-.153 1.278 1.278 0 0 1-.139-.218 1.117 1.117 0 0 1-.109-.204v4.01h-.691v-5.095h.764l2.293 3.363.131.189.174.262c.044.087.088.16.117.233v-4.047h.684Zm9.796.604a2.437 2.437 0 0 1 .684 1.936 2.73 2.73 0 0 1-.342 1.456 2.11 2.11 0 0 1-.975.837 3.564 3.564 0 0 1-1.456.277h-1.412v-5.095h1.529c.707-.05 1.408.16 1.972.59Zm-1.041 3.698a1.37 1.37 0 0 0 .728-.59c.187-.361.274-.765.255-1.172a2.024 2.024 0 0 0-.459-1.455 1.94 1.94 0 0 0-1.455-.466h-.801v3.85h.59a3.47 3.47 0 0 0 1.142-.167Zm4.287.771v-5.095h.728v5.095h-.728Zm7.511-2.81v2.475a4.545 4.545 0 0 1-.866.32 3.636 3.636 0 0 1-.946.11 2.53 2.53 0 0 1-1.375-.335 1.965 1.965 0 0 1-.794-.924 3.445 3.445 0 0 1-.247-1.361 3.07 3.07 0 0 1 .327-1.5 2.05 2.05 0 0 1 .874-.866 2.686 2.686 0 0 1 1.215-.276c.307 0 .613.038.91.116.275.079.537.196.779.35l-.313.545a2.637 2.637 0 0 0-.597-.276 2.281 2.281 0 0 0-.728-.11 1.536 1.536 0 0 0-1.288.532c-.3.424-.446.937-.415 1.456a2.468 2.468 0 0 0 .393 1.499 1.46 1.46 0 0 0 1.274.531c.37 0 .737-.067 1.084-.196v-1.456h-1.303l.08-.611 1.936-.022Zm2.657 2.81v-5.095h.728v5.095h-.728Zm7.3-5.073v.626h-1.754v4.447h-.728v-4.447h-1.762v-.626h4.244Zm3.872 0 1.907 5.03v.043h-.728l-.532-1.456h-2.183l-.524 1.456h-.728v-.044l1.907-5.029h.881Zm-1.318 3.028h1.725l-.837-2.344-.888 2.344Zm6.289 1.419h2.482v.626h-3.203v-5.095h.728l-.007 4.47Zm8.996 0h2.489v.626h-3.21v-5.095h.728l-.007 4.47Zm7.111-4.447 1.907 5.03v.043h-.728l-.531-1.456h-2.184l-.524 1.456h-.728v-.044l1.907-5.029h.881Zm-1.318 3.028h1.725l-.858-2.344-.867 2.344Zm8.974-.145c.171.22.263.492.262.77.004.26-.07.513-.211.729-.15.228-.366.405-.619.51a2.48 2.48 0 0 1-1.011.181h-1.827v-5.095h1.768c.312-.006.621.051.91.168.236.097.441.258.59.466.138.198.209.435.204.676a1.1 1.1 0 0 1-.204.656 1.218 1.218 0 0 1-.655.436c.315.068.597.246.793.502Zm-2.686-2.286v1.594h.947c.27.012.539-.056.771-.197a.808.808 0 0 0 .189-1.033.728.728 0 0 0-.327-.27 1.218 1.218 0 0 0-.517-.094h-1.063Zm1.936 3.64a.781.781 0 0 0 .255-.605.822.822 0 0 0-.269-.633 1.174 1.174 0 0 0-.794-.233h-1.128v1.703h1.121c.281.024.561-.057.786-.226l.029-.007Z"/><path fill="#FDFC00" d="M132.624 27.78a6.34 6.34 0 0 1 1.106-.727l-.109-.488-11.186-11.062c.12-.043.244-.073.371-.088h6.972c.363.045.699.212.954.473.917.86 1.783 1.769 2.671 2.657 1.39 1.39 2.787 2.773 3.952 3.93l11.208-11.128c-.988.065-1.98.065-2.969 0a4.136 4.136 0 0 0-3.989 1.666c-1.2 1.456-2.576 2.715-3.959 4.149-1.798-1.827-3.443-3.457-5.044-5.095a2.087 2.087 0 0 0-1.659-.677h-17.468c-.291 0-.589 0-1.048.044l15.474 15.444-26.457 26.45h5.612c8.515-8.526 17.038-17.041 25.568-25.547ZM168.476 0a35163.32 35163.32 0 0 1-22.846 22.854c-1.303 1.302-2.664 2.554-4.279 4.097l11.455 11.281c-2.343 0-4.599-.036-6.848 0a2.112 2.112 0 0 1-1.725-.727c-2.184-2.228-4.367-4.418-6.398-6.493l-11.31 11.223h1.419c1.318 0 2.78.357 3.909-.109 1.128-.466 1.994-1.754 2.947-2.707.954-.954 1.812-1.893 2.766-2.912 1.761 1.762 3.384 3.363 4.978 5a2.183 2.183 0 0 0 1.725.728h17.468a8.83 8.83 0 0 0 .859-.072l.123-.248-15.328-15.24L174.11 0h-5.634Z"/></svg>