<svg xmlns="http://www.w3.org/2000/svg" width="187" height="176" fill="none"><path fill="#D1D3D4" d="M186.183 142.02H.817a.37.37 0 0 1-.37-.372.372.372 0 0 1 .37-.372h185.366a.37.37 0 0 1 .37.372.37.37 0 0 1-.37.372Zm0-43.37H.817a.37.37 0 0 1-.37-.37V.88a.372.372 0 0 1 .37-.372h185.366a.371.371 0 0 1 .37.371v97.4a.371.371 0 0 1-.37.372Zm-185.01-.743h184.624V1.251H1.173v96.656Z"/><path fill="#D1D3D4" d="M93.5 97.721a.37.37 0 0 1-.37-.371V.872A.372.372 0 0 1 93.5.5a.37.37 0 0 1 .37.372V97.35a.372.372 0 0 1-.37.371Zm-47.202 0a.37.37 0 0 1-.37-.371V.872a.372.372 0 0 1 .37-.372.37.37 0 0 1 .371.372V97.35a.38.38 0 0 1-.37.371Zm92.483 0a.37.37 0 0 1-.371-.371V.872a.37.37 0 1 1 .742 0V97.35a.37.37 0 0 1-.371.371Z"/><path fill="#D1D3D4" d="M186.183 34.01H.817a.37.37 0 0 1-.37-.372.372.372 0 0 1 .37-.371h185.366a.371.371 0 0 1 0 .743Zm0 31.874H.817a.37.37 0 0 1-.37-.371.372.372 0 0 1 .37-.372h185.366a.371.371 0 0 1 0 .743Zm-64.062-45.659a.356.356 0 0 1-.223-.081l-4.575-3.487a.371.371 0 0 1-.066-.52.376.376 0 0 1 .519-.075l4.567 3.531a.371.371 0 0 1-.222.67v-.038Zm44.836-4.885a.36.36 0 0 1-.237-.089l-3.76-3.212a.368.368 0 0 1-.128-.253.37.37 0 0 1 .61-.312l3.759 3.205a.379.379 0 0 1 .038.528.362.362 0 0 1-.282.134Zm6.332 65.92a.377.377 0 0 1-.252-.104l-3.233-3.026a.374.374 0 0 1-.137-.263.382.382 0 0 1 .099-.28.379.379 0 0 1 .271-.118.374.374 0 0 1 .271.118l3.233 3.026a.369.369 0 0 1 .081.407.386.386 0 0 1-.081.121.356.356 0 0 1-.252.12Zm-3.233 1.837a.363.363 0 0 1-.252-.104l-1.987-1.83a.372.372 0 0 1-.022-.528.369.369 0 0 1 .526-.022l1.987 1.837a.382.382 0 0 1-.252.647ZM25.382 16.21a.356.356 0 0 1-.297-.148l-1.78-2.417a.376.376 0 0 1 .356-.593.373.373 0 0 1 .245.147l1.773 2.41a.374.374 0 0 1-.082.52.333.333 0 0 1-.215.081Zm-1.78 5.026a.378.378 0 0 1-.319-.185l-1.772-3.034a.38.38 0 0 1 .27-.561.365.365 0 0 1 .368.182l1.78 3.033a.38.38 0 0 1-.134.514.437.437 0 0 1-.193.052Z"/><path fill="#1C1C1C" d="M25.752 91.074s-1.78 18.105 1.773 23.391l7.785-2.342s-2.514-15.168 0-23.54l-9.558 2.491Z"/><path fill="#D9D9D9" d="M27.51 114.837a.364.364 0 0 1-.304-.164c-3.589-5.331-1.913-22.885-1.84-23.628a.373.373 0 0 1 .275-.327l9.565-2.491a.355.355 0 0 1 .356.096.38.38 0 0 1 .089.372c-2.462 8.179 0 23.22 0 23.369a.359.359 0 0 1-.252.416l-7.785 2.342-.104.015Zm-1.431-23.465c-.193 2.186-1.431 17.621 1.594 22.655l7.251-2.164c-.348-2.231-2.18-14.87-.118-22.759l-8.727 2.268Z"/><path fill="#0F0F0F" d="M144.683 93.164h-5.902v54.031h5.902V93.164Z"/><path fill="#D9D9D9" d="M144.661 147.566h-5.932a.37.37 0 0 1-.371-.371V93.201a.37.37 0 0 1 .371-.372h5.932a.371.371 0 0 1 .371.372v54.031a.368.368 0 0 1-.371.334Zm-5.531-.743h5.19V93.535h-5.19v53.288Z"/><path fill="#0F0F0F" d="m91.609 68.74-9.891 24.297h80.804L137.298 68.74h-45.69Z"/><path fill="#D9D9D9" d="M162.523 93.41h-80.82a.378.378 0 0 1-.311-.164.365.365 0 0 1 0-.35l9.883-24.298a.364.364 0 0 1 .341-.23h45.689c.095 0 .185.038.253.104l25.209 24.298a.373.373 0 0 1-.051.576.37.37 0 0 1-.208.063h.015Zm-80.256-.745h79.336l-24.468-23.554H91.854l-9.587 23.554Z"/><path fill="#0F0F0F" d="M81.066 67.773s3.188 5.056 3.455 4.691c.267-.364 17.587-7.123 19.456-6.32 1.868.803 7.37 4.952 7.103 5.547-.267.595-5.776 1.933-7.726 1.398-1.95-.535-7.192.587-8.898 2.074C92.751 76.65 77.1 86.085 76.32 85.283c-.778-.803-6.443-11.042-6.443-11.042"/><path fill="#D9D9D9" d="M76.446 85.706a.437.437 0 0 1-.385-.163c-.794-.81-5.932-10.067-6.503-11.116a.372.372 0 0 1 .422-.555.37.37 0 0 1 .223.19c2.225 3.979 5.635 10.038 6.332 10.9 1.669-.051 16.016-8.61 17.677-10.081 1.846-1.614 7.229-2.7 9.224-2.156 1.779.49 6.376-.64 7.214-1.153-.601-.907-5.02-4.312-6.836-5.085-1.572-.677-17.98 5.568-19.056 6.252a.46.46 0 0 1-.304.12c-.2 0-.652 0-3.707-4.885a.373.373 0 0 1 .391-.55.37.37 0 0 1 .232.148 41.19 41.19 0 0 0 3.129 4.461c1.312-.699 6.754-2.736 9.023-3.546 9.254-3.294 10.262-2.863 10.588-2.714 1.654.706 6.851 4.46 7.296 5.613a.517.517 0 0 1 0 .431c-.43.952-6.295 2.105-8.156 1.599-1.861-.506-6.918.573-8.541 2a107.14 107.14 0 0 1-9.469 5.948c-6.236 3.658-8.111 4.342-8.794 4.342Zm7.912-13.569a.318.318 0 0 0-.141.104.555.555 0 0 1 .156-.104h-.015Z"/><path fill="#FDFC00" d="m73.192 53.453 9.831 14.327s-10.921 7.948-11.122 6.692c-.2-1.257-9.238-14.618-7.993-18.164 1.246-3.547 9.284-2.855 9.284-2.855Z"/><path fill="#0F0F0F" d="M20.71 56.769s25.64-4.863 26.826-2.008c1.187 2.855.6 23.518-1.238 27.428C44.46 86.1 18.775 99.15 16.973 94.011 15.172 88.874 20.71 56.77 20.71 56.77Z"/><path fill="#D9D9D9" d="M19.48 95.573h-.349c-1.357-.075-2.224-.558-2.506-1.435-1.816-5.205 3.492-36.12 3.707-37.436a.364.364 0 0 1 .297-.297c4.33-.826 25.996-4.766 27.234-1.792 1.238 2.974.638 23.725-1.246 27.733-1.727 3.702-20.294 13.227-27.137 13.227Zm1.55-38.492c-.512 3.034-5.376 32.03-3.708 36.804.198.565.813.877 1.846.937 6.674.371 25.299-9.621 26.79-12.796 1.779-3.777 2.41-24.305 1.23-27.13-.66-1.6-13.747-.15-26.159 2.185Z"/><path fill="#1C1C1C" d="M49.086 123.893H43.51v28.618h5.576v-28.618Z"/><path fill="#1C1C1C" d="M49.079 152.882H43.51a.373.373 0 0 1-.37-.371v-28.618a.372.372 0 0 1 .37-.372h5.569a.369.369 0 0 1 .37.372v28.618a.376.376 0 0 1-.108.263.372.372 0 0 1-.262.108Zm-5.19-.743h4.826v-27.874h-4.827v27.874Z"/><path fill="#0F0F0F" d="M38.98 128.681c6.426.496 12.884.689 19.375.58 3.299-.052 6.725-.223 9.639-1.777a16.077 16.077 0 0 0 4.448-3.762 30.506 30.506 0 0 0 5.74-9.747 6.353 6.353 0 0 0 .474-3.629c-.386-1.546-1.743-2.632-3.077-3.502-11.122-7.279-47.587-.669-50.746 2.632-3.159 3.301-3.5 5.562-3.114 9.829.408 4.409 1.55 6.001 5.783 7.436 3.715 1.241 7.622 1.643 11.478 1.94Z"/><path fill="#D9D9D9" d="M54.944 129.633c-5.331 0-10.692-.208-15.986-.61-3.76-.29-7.748-.676-11.544-1.963-4.308-1.487-5.606-3.122-6.029-7.755-.4-4.349-.044-6.691 3.21-10.119 1.729-1.806 12.094-4.275 22.623-5.39 7.867-.833 22.044-1.591 28.598 2.706 1.364.892 2.81 2.03 3.233 3.718a6.71 6.71 0 0 1-.49 3.844 30.804 30.804 0 0 1-5.82 9.903 16.501 16.501 0 0 1-4.582 3.852c-2.966 1.576-6.325 1.754-9.802 1.814h-3.411Zm3.492-25.733c-3.715.017-7.428.228-11.122.632-11.292 1.197-20.76 3.717-22.162 5.167-3.01 3.153-3.41 5.242-3.018 9.54.393 4.297 1.483 5.747 5.532 7.115 3.707 1.256 7.651 1.643 11.359 1.926 6.413.49 12.916.684 19.345.58 3.388-.06 6.673-.231 9.468-1.733a15.5 15.5 0 0 0 4.367-3.68 30.128 30.128 0 0 0 5.672-9.629 6.04 6.04 0 0 0 .46-3.412c-.356-1.443-1.668-2.469-2.914-3.287-3.255-2.089-9.209-3.189-16.994-3.189l.007-.03Z"/><path fill="#0F0F0F" d="M28.051 107.714a7.205 7.205 0 0 0-3.196 1.762c-2.224 2.372-.504 5.354 1.92 6.692a15.668 15.668 0 0 0 4.857 1.405 182.644 182.644 0 0 0 31.572 2.64c2.068 0 4.24-.075 6.043-1.093a12.474 12.474 0 0 0 3.15-2.878c1.061-1.219 2.225-2.691 1.899-4.282-.326-1.785-2.224-2.744-3.937-3.361a64.344 64.344 0 0 0-32.958-2.855 77.645 77.645 0 0 0-9.35 1.97Z"/><path fill="#D9D9D9" d="M62.574 120.555a183.535 183.535 0 0 1-31.001-2.647 15.917 15.917 0 0 1-4.968-1.443 5.828 5.828 0 0 1-3.107-3.955 3.798 3.798 0 0 1 1.09-3.294 7.667 7.667 0 0 1 3.352-1.859 70.08 70.08 0 0 1 8.63-1.873l.742-.142a64.891 64.891 0 0 1 11.122-.966h.133a64.148 64.148 0 0 1 21.948 3.844c1.616.58 3.803 1.598 4.174 3.643.311 1.68-.741 3.205-1.98 4.595a13.119 13.119 0 0 1-3.247 2.974c-1.847 1.033-3.997 1.123-6.229 1.137l-.66-.014Zm-34.412-12.484a6.94 6.94 0 0 0-3.032 1.658 3.022 3.022 0 0 0-.897 2.662 5.16 5.16 0 0 0 2.72 3.42c1.5.706 3.102 1.168 4.746 1.368a181.872 181.872 0 0 0 31.505 2.632c2.128 0 4.174-.097 5.865-1.048a12.332 12.332 0 0 0 3.047-2.788c1.016-1.175 2.076-2.536 1.817-3.978-.312-1.673-2.262-2.558-3.708-3.078a63.436 63.436 0 0 0-21.591-3.822 64.9 64.9 0 0 0-11.166.959l-.742.134a70.476 70.476 0 0 0-8.534 1.859l-.03.022Z"/><path fill="#1C1C1C" d="m98 71.989-1.972 6.803h28.695l-5.68-6.082-21.042-.721Z"/><path fill="#1C1C1C" d="M124.723 79.163H96.028a.376.376 0 0 1-.296-.148.395.395 0 0 1-.06-.327l1.973-6.803a.357.357 0 0 1 .37-.268l21.036.743c.097.002.19.042.259.112l5.68 6.082a.362.362 0 0 1 .074.401.382.382 0 0 1-.341.208Zm-28.176-.743H123.9l-4.998-5.338-20.59-.744-1.765 6.082Zm8.994 70.589a3.383 3.383 0 0 0-1.297 2.498c.084 1.398.29 2.786.615 4.149a39.709 39.709 0 0 0 17.143 3.918c9.468-.119 16.215-1.896 13.613-4.275-2.603-2.379-17.884-5.517-20.02-8.424-2.135-2.907-10.054 2.134-10.054 2.134Z"/><path fill="#1C1C1C" d="M121.594 159.953a40.685 40.685 0 0 1-16.913-3.963.389.389 0 0 1-.185-.245 24.647 24.647 0 0 1-.623-4.238 3.718 3.718 0 0 1 1.483-2.796c.334-.215 8.252-5.204 10.558-2.044 1.09 1.487 6.288 3.189 10.87 4.684 4.034 1.316 7.845 2.557 9.091 3.717a1.537 1.537 0 0 1 .6 1.725c-.845 2.231-8.319 3.123-14.466 3.197l-.415-.037Zm-16.416-4.55a39.701 39.701 0 0 0 16.816 3.799c8.409-.104 13.295-1.442 13.777-2.714.037-.104.155-.401-.408-.914-1.12-1.019-5.035-2.298-8.816-3.532-4.916-1.606-10.002-3.264-11.241-4.952-1.571-2.148-7.414.87-9.55 2.231a3.017 3.017 0 0 0-1.141 2.193c.074 1.311.262 2.612.563 3.889Z"/><path fill="#0F0F0F" d="m102.583 140.585 2.514 9.613s4.352 1.658 9.09-1.903l-2.15-13.056-9.454 5.346Z"/><path fill="#D9D9D9" d="M107.707 150.964a8.462 8.462 0 0 1-2.744-.416.39.39 0 0 1-.23-.253l-2.506-9.621a.364.364 0 0 1 .178-.416l9.469-5.346a.385.385 0 0 1 .341 0 .378.378 0 0 1 .207.275l2.128 13.034a.363.363 0 0 1-.141.356 11.013 11.013 0 0 1-6.702 2.387Zm-2.306-1.056a9.814 9.814 0 0 0 8.386-1.777l-2.01-12.305-8.764 4.96 2.388 9.122Z"/><path fill="#1C1C1C" d="M66.066 93.037s39.008 5.495 39.957 7.227c.949 1.733 8.645 39.131 8.645 39.131s-7.459 11.636-16.809.476c-9.35-11.16-5.805-31.971-5.805-31.971l-35.05-4.29 9.062-10.573Z"/><path fill="#1C1C1C" d="M106.157 145.083c-2.966 0-5.828-1.673-8.594-4.974-8.653-10.32-6.362-28.945-5.932-31.852l-34.663-4.275a.398.398 0 0 1-.304-.238.39.39 0 0 1 .067-.379l9.053-10.573a.38.38 0 0 1 .334-.127c9.194 1.302 39.297 5.659 40.231 7.436.935 1.777 8.357 37.71 8.653 39.198a.392.392 0 0 1-.052.275c-.133.208-3.358 5.152-8.319 5.472l-.474.037Zm-48.418-41.756 34.352 4.238a.374.374 0 0 1 .319.432c0 .208-3.41 20.736 5.724 31.636 2.758 3.294 5.613 4.863 8.468 4.692 4.174-.268 7.14-4.283 7.659-5.026-2.165-10.499-7.823-37.496-8.579-38.871-1.127-1.205-24.728-4.93-39.483-7.011l-8.46 9.91Zm37.244 52.091a3.377 3.377 0 0 0-1.298 2.498 24.22 24.22 0 0 0 .615 4.156 39.75 39.75 0 0 0 17.143 3.911c9.469-.119 16.216-1.896 13.613-4.268-2.602-2.371-17.884-5.524-20.019-8.431-2.136-2.907-10.054 2.134-10.054 2.134Z"/><path fill="#1C1C1C" d="M111.058 166.362a40.682 40.682 0 0 1-16.913-3.963.388.388 0 0 1-.185-.245 24.55 24.55 0 0 1-.623-4.238 3.724 3.724 0 0 1 1.483-2.796c.334-.215 8.252-5.204 10.558-2.044 1.09 1.487 6.288 3.189 10.87 4.684 4.034 1.316 7.845 2.565 9.083 3.717a1.487 1.487 0 0 1 .608 1.718c-.845 2.23-8.319 3.123-14.466 3.197l-.415-.03Zm-16.416-4.55a39.64 39.64 0 0 0 16.816 3.799c8.408-.104 13.295-1.442 13.777-2.713 0-.105.155-.402-.408-.908-1.12-1.026-5.035-2.304-8.816-3.539-4.923-1.606-10.002-3.264-11.241-4.944-1.572-2.156-7.414.862-9.55 2.231a2.97 2.97 0 0 0-1.142 2.185 22.47 22.47 0 0 0 .564 3.889Z"/><path fill="#0F0F0F" d="m92.017 146.994 2.514 9.613s4.352 1.666 9.09-1.896l-2.135-13.063-9.469 5.346Z"/><path fill="#D9D9D9" d="M97.207 157.373a8.434 8.434 0 0 1-2.743-.416.39.39 0 0 1-.23-.253l-2.506-9.621a.365.365 0 0 1 .178-.416l9.468-5.339a.375.375 0 0 1 .341 0 .375.375 0 0 1 .208.275l2.128 13.064a.372.372 0 0 1-.141.357 11.052 11.052 0 0 1-6.703 2.349Zm-2.306-1.056a9.773 9.773 0 0 0 8.386-1.777l-2.046-12.267-8.764 4.936 2.424 9.108Z"/><path fill="#1C1C1C" d="M30.016 106.956s.941 5.725 16.809 9.048c15.867 3.324 38.311 2.38 38.311 2.38l5.51 32.171s8.74.744 12.767-3.799c0 0-2.128-43.005-5.45-46.492-3.322-3.487-31.883-7.227-31.883-7.227s-31.571 11.317-36.064 13.919Z"/><path fill="#1C1C1C" d="M92.017 150.972c-.816 0-1.342 0-1.424-.045a.375.375 0 0 1-.34-.312l-5.45-31.852c-2.833.104-23.386.684-38.075-2.394-15.934-3.339-17.053-9.108-17.105-9.354a.372.372 0 0 1 .178-.379c4.449-2.632 34.849-13.487 36.109-13.948a.347.347 0 0 1 .17 0c1.18.156 28.77 3.8 32.136 7.346 3.366 3.546 5.457 44.96 5.546 46.722a.39.39 0 0 1-.021.144.377.377 0 0 1-.076.124c-3.129 3.509-8.934 3.948-11.648 3.948Zm-1.083-.744c1.483.067 8.587.179 12.079-3.576-.601-12.038-2.706-43.332-5.339-46.098-2.632-2.766-21.702-5.866-31.608-7.138-1.78.64-30.534 10.952-35.642 13.718.422 1.101 2.965 5.681 16.445 8.513 15.638 3.272 38 2.372 38.223 2.365a.363.363 0 0 1 .378.305l5.464 31.911Z"/><path fill="#0F0F0F" d="M66.503 77.543s5.012 11.397 7.882 12.64c2.87 1.24 20.56-10.15 24.764-15.615 1.86.706 3.864.94 5.836.684 0 0 4.79 3.651 5.502 2.759.711-.892-1.691-3.264-1.691-3.264s4.797 3.442 5.035 1.955c.237-1.487-2.966-3.264-2.966-3.264s5.442 3.919 4.678 2.082c-.763-1.836-1.898-4.097-6.517-5.204-4.619-1.108-7.926-1.926-9.41-1.45-1.163.371-19.181 7.063-19.181 7.063l-1.55-2.974-12.382 4.588Z"/><path fill="#D9D9D9" d="M74.89 90.643a1.657 1.657 0 0 1-.653-.111c-2.966-1.294-7.86-12.365-8.067-12.84a.357.357 0 0 1 0-.29.393.393 0 0 1 .215-.209l12.382-4.595a.37.37 0 0 1 .46.179l1.401 2.699c2.455-.907 17.796-6.603 18.893-6.952 1.594-.513 4.953.312 9.639 1.487 4.686 1.175 5.932 3.398 6.769 5.435.208.498.06.743-.103.885-.163.14-.401.32-1.706-.328.113.263.152.55.111.833a.739.739 0 0 1-.459.61c-.66.275-1.995-.342-3.174-1.034.401.692.616 1.406.215 1.904-.8 1.004-3.981-1.153-5.931-2.603a12.661 12.661 0 0 1-5.613-.624c-4.234 5.153-19.983 15.554-24.38 15.554Zm-7.882-12.885c1.483 3.368 5.36 11.153 7.526 12.09C77.12 90.97 94.627 79.84 98.86 74.375a.37.37 0 0 1 .437-.111c1.799.67 3.732.894 5.636.654a.367.367 0 0 1 .274.074c2.224 1.71 4.59 3.026 5.005 2.81.282-.356-.653-1.739-1.676-2.758a.365.365 0 0 1 0-.498.379.379 0 0 1 .504-.067c1.98 1.428 4.101 2.499 4.449 2.23.089-.542-.475-1.226-1.186-1.828a53.956 53.956 0 0 1-1.609-1.115.371.371 0 0 1 .393-.625c.564.314 1.1.677 1.601 1.085.793.553 1.64 1.021 2.529 1.398-.645-1.539-1.654-3.829-6.229-4.944-4.367-1.07-7.815-1.91-9.216-1.487-1.142.372-18.981 6.996-19.167 7.063a.37.37 0 0 1-.452-.156l-1.401-2.706-11.745 4.364Z"/><path fill="#0F0F0F" d="M70.552 47.349a3.398 3.398 0 0 1-.638-2.432 39.792 39.792 0 0 1 2.425-9.955 12.6 12.6 0 0 1 1.712-3.57c1.127-1.427 1.869-1.412 3.3-.52-1.127-.743 2.662-2.617 2.862-2.691 2.647-.93 5.405-.744 8.156-.275 2.032.35 5.672 1.836 7.637.743a1.432 1.432 0 0 0 .812-1.412 1.436 1.436 0 0 0-.16-.55c2.596 3.717 3.56 8.379 1.09 12.424-1.356 2.23-4.263 4.87-7.073 4.111-1.424-.38-2.424-1.115-3.96-.602a7.167 7.167 0 0 0-3.01 2.387 13.757 13.757 0 0 1-2.669 2.743c-2.15 1.487-5.138 1.115-7.6.922a3.876 3.876 0 0 1-2.884-1.323Z"/><path fill="#D9D9D9" d="M76.602 49.237c-.92 0-1.84-.074-2.721-.149h-.505a4.225 4.225 0 0 1-3.114-1.487 3.725 3.725 0 0 1-.741-2.691 40.805 40.805 0 0 1 2.476-10.075 13.06 13.06 0 0 1 1.772-3.673c1.113-1.412 1.987-1.531 3.107-.988.534-1.093 3.188-2.335 3.218-2.343 2.966-1.033 5.991-.698 8.312-.297.526.097 1.15.253 1.802.431 1.898.491 4.248 1.108 5.598.372a1.323 1.323 0 0 0 .623-.825.746.746 0 0 0-.097-.61.373.373 0 0 1 .371-.564.37.37 0 0 1 .237.14c2.966 4.26 3.411 9.064 1.105 12.833-1.594 2.602-4.62 5.056-7.489 4.283a11.39 11.39 0 0 1-1.075-.357 3.698 3.698 0 0 0-2.67-.26 6.847 6.847 0 0 0-2.84 2.275l-.236.29a12.825 12.825 0 0 1-2.514 2.52 7.894 7.894 0 0 1-4.62 1.175Zm-5.761-2.134a3.538 3.538 0 0 0 2.595 1.19h.504c2.328.193 4.96.409 6.858-.892.89-.68 1.681-1.481 2.35-2.38l.246-.297a7.47 7.47 0 0 1 3.173-2.506 4.438 4.438 0 0 1 3.159.268c.319.119.652.238 1.016.335 2.676.743 5.45-1.97 6.673-3.956 1.95-3.19 1.794-7.19-.371-10.907a2.05 2.05 0 0 1-.882.974c-1.602.885-4.116.223-6.14-.305-.637-.164-1.245-.327-1.742-.409-2.225-.394-5.19-.744-7.941.26-.616.253-2.773 1.54-2.818 2h.037a.38.38 0 0 1 .02.621.361.361 0 0 1-.413.011c-1.283-.803-1.809-.84-2.81.439a12.179 12.179 0 0 0-1.66 3.457 40.044 40.044 0 0 0-2.403 9.867 2.98 2.98 0 0 0 .556 2.17l-.007.06Z"/><path fill="#0F0F0F" d="M88.821 46.36s.341 5.584-.697 6.104c-1.038.52-2.543-1.093-2.543-1.093"/><path fill="#D9D9D9" d="M87.672 52.947c-1.09 0-2.224-1.16-2.365-1.316a.371.371 0 1 1 .541-.505c.341.364 1.483 1.338 2.113 1.018.438-.223.66-2.907.49-5.755a.363.363 0 0 1 .348-.394.369.369 0 0 1 .393.35c.104 1.747.23 5.896-.897 6.46a1.317 1.317 0 0 1-.623.142Z"/><path fill="#0F0F0F" d="M93.115 36.977c.904 2.371-3.07 8.736-4.182 10.64a212.486 212.486 0 0 1-4.887 7.918c-1.067 1.65-5.494-.863-5.976-1.822l-5.627 6.49-2.603-3.717a32.558 32.558 0 0 1-3.781-7.033l6.391-5.13s2.9 1.702 6.614-.744c3.715-2.446 6.71-7.859 6.71-7.859s6.466-1.063 7.34 1.257Z"/><path fill="#D9D9D9" d="M72.442 60.576a.362.362 0 0 1-.281-.157l-2.603-3.717a32.253 32.253 0 0 1-3.826-7.123.372.372 0 0 1 .119-.416l6.391-5.13a.37.37 0 0 1 .415 0c.119.066 2.759 1.546 6.221-.744 3.596-2.394 6.57-7.673 6.6-7.725a.38.38 0 0 1 .259-.186c.697-.111 6.792-1.026 7.748 1.487.786 2.075-1.535 6.446-3.907 10.41l-.305.512a206.764 206.764 0 0 1-4.893 7.934 1.765 1.765 0 0 1-1.72.743 8.635 8.635 0 0 1-4.583-2.156l-5.338 6.178a.384.384 0 0 1-.297.09Zm-5.931-10.982a33.164 33.164 0 0 0 3.64 6.692l2.328 3.308 5.317-6.126a.38.38 0 0 1 .615.074c.26.52 2.632 2.067 4.278 2.156a1.08 1.08 0 0 0 1.053-.379 182.873 182.873 0 0 0 4.879-7.904l.304-.512c1.26-2.127 4.62-7.785 3.856-9.807-.608-1.599-5.02-1.309-6.763-1.056-.54.93-3.306 5.539-6.74 7.829-3.306 2.23-5.983 1.264-6.776.9l-5.991 4.825Z"/><path fill="#0F0F0F" d="M85.136 53.49a5.127 5.127 0 0 1-2.19-1.868 5.148 5.148 0 0 1-.843-2.757"/><path fill="#D9D9D9" d="M85.136 53.862a.32.32 0 0 1-.14 0 5.535 5.535 0 0 1-2.352-2.008 5.557 5.557 0 0 1-.911-2.959.372.372 0 0 1 .37-.372.37.37 0 0 1 .371.372 4.73 4.73 0 0 0 .772 2.556 4.712 4.712 0 0 0 2.031 1.727.362.362 0 0 1 .2.483.373.373 0 0 1-.34.2Z"/><path fill="#0F0F0F" d="M82.69 45.11c.311-.714.42-1.502.31-2.274a6.012 6.012 0 0 0-.274-1.785 2.039 2.039 0 0 0-1.186-1.279 1.909 1.909 0 0 0-1.535.23 3.576 3.576 0 0 0-1.097 1.153 6.703 6.703 0 0 0-.29 6.692l-.059-.246"/><path fill="#D9D9D9" d="M78.619 48.166a.37.37 0 0 1-.326-.2 7.08 7.08 0 0 1 .304-7.026c.3-.517.72-.953 1.223-1.272a2.22 2.22 0 0 1 1.831-.26 2.35 2.35 0 0 1 1.424 1.487c.193.61.293 1.247.297 1.888a4.606 4.606 0 0 1-.356 2.484.371.371 0 0 1-.68-.082.38.38 0 0 1 .027-.283c.277-.656.37-1.376.267-2.081a5.709 5.709 0 0 0-.252-1.666 1.652 1.652 0 0 0-.956-1.048 1.48 1.48 0 0 0-1.224.193 3.15 3.15 0 0 0-.979 1.019 6.354 6.354 0 0 0-.467 5.888.356.356 0 0 1 .17.238l.06.246a.365.365 0 0 1-.237.423.245.245 0 0 1-.126.052Z"/><path fill="#0F0F0F" d="M78.07 53.713s-1.868-2.03-2.031-4.208c0 0-3.055 3.628-.245 6.833l2.276-2.625Z"/><path fill="#D9D9D9" d="M75.794 56.71a.355.355 0 0 1-.275-.127c-2.965-3.405.2-7.279.238-7.316a.364.364 0 0 1 .393-.12.386.386 0 0 1 .26.328c.148 2.022 1.912 3.97 1.934 3.985a.372.372 0 0 1 0 .498l-2.276 2.625a.362.362 0 0 1-.282.126h.008Zm0-6.254c-.645 1.093-1.535 3.257 0 5.302l1.772-2.045a9.138 9.138 0 0 1-1.743-3.257h-.03Zm12.905-6.554c.388-.472.552-.98.366-1.133-.186-.155-.652.102-1.04.574-.39.471-.554.979-.368 1.133.187.155.653-.103 1.042-.574Z"/><path fill="#FDFC00" d="M73.221 64.598c3.263-3.718-.586-18.149-8.579-20.818-7.993-2.67-39.245 8.922-34.626 63.198l36.05-13.94s-2.128-10.09.534-17.034c2.662-6.945 3.359-7.666 6.621-11.406Z"/><path fill="#FDFC00" d="m73.191 53.453 6.636 19.264-11.448 9.465s-7.103-10.246-8.342-14.045c-1.238-3.8 13.154-14.684 13.154-14.684Z"/><path fill="#1C1C1C" d="M68.38 82.554a.354.354 0 0 1-.305-.156c-.37-.536-9.06-13.123-11.418-19.503a.374.374 0 0 1 .362-.502.373.373 0 0 1 .335.242c2.32 6.29 11.24 19.205 11.33 19.331a.363.363 0 0 1-.097.513.347.347 0 0 1-.208.075Z"/><path fill="#2F2F2F" d="M103.651 144.652a.388.388 0 0 1-.371-.335c-1.246-12.952-4.115-38.164-6.088-40.893-1.972-2.729-21.784-6.119-29.228-7.153a.362.362 0 0 1-.311-.416.358.358 0 0 1 .415-.312c1.105.149 27.115 3.8 29.725 7.435 2.61 3.636 6.073 39.733 6.221 41.272a.363.363 0 0 1-.326.402h-.037Zm15.978 15.294a.26.26 0 0 1-.104 0c-3.707-1.123-14.169-6.104-14.614-6.313a.37.37 0 0 1-.151-.483.371.371 0 0 1 .47-.186c.104.052 10.833 5.168 14.51 6.275a.376.376 0 0 1-.111.744v-.037Z"/><path fill="#fff" d="M85.136 118.755a.386.386 0 0 1-.319-.178.38.38 0 0 1 .126-.513 10.04 10.04 0 0 0 3.456-3.755.366.366 0 0 1 .677.024.368.368 0 0 1-.01.281 10.505 10.505 0 0 1-3.707 4.082.365.365 0 0 1-.223.059Zm10.892-39.963.897 1.539h27.086l.712-1.54H96.028Z"/><path fill="#1C1C1C" d="M124.011 80.702H96.926a.37.37 0 0 1-.32-.178l-.881-1.546a.372.372 0 0 1 0-.372.356.356 0 0 1 .318-.186h28.695a.368.368 0 0 1 .31.173.374.374 0 0 1 .024.355l-.705 1.539a.376.376 0 0 1-.356.215Zm-26.87-.743h26.633l.371-.796H96.674l.467.796Z"/><path fill="#fff" d="m124.723 78.792 8.994-22.023-8.163-.431-6.511 16.372 5.68 6.082Z"/><path fill="#1C1C1C" d="M124.723 79.163a.381.381 0 0 1-.275-.118l-5.679-6.075a.377.377 0 0 1-.074-.394l6.51-16.357a.38.38 0 0 1 .363-.238l8.156.431a.371.371 0 0 1 .326.513l-9.001 22.023a.355.355 0 0 1-.274.223l-.052-.008Zm-5.272-6.535 5.123 5.487 8.579-21.004-7.377-.387-6.325 15.904Z"/><path fill="#0F0F0F" d="M15.172 88.844c.215 1.955.622 4.09 1.801 5.204 1.18 1.116 2.877.662 4.004-.594 1.127-1.257 1.795-3.145 2.277-5.049 1.156-4.602 1.416-9.54 1.557-14.416.11-3.882-1.387-24.008-7-14.87-1.883 3.07-2.165 10.185-2.565 14.06a74.4 74.4 0 0 0-.074 15.665Z"/><path fill="#D9D9D9" d="M18.553 95.008a2.665 2.665 0 0 1-1.831-.744c-1.305-1.19-1.713-3.51-1.92-5.398a73.868 73.868 0 0 1 .103-15.74c.06-.64.126-1.368.193-2.149.341-3.977.8-9.427 2.417-12.067 1.223-1.992 2.358-2.803 3.455-2.476 3.708 1.1 4.279 15.882 4.234 17.525-.133 4.52-.37 9.747-1.564 14.498-.623 2.454-1.372 4.112-2.366 5.205A3.83 3.83 0 0 1 18.71 95l-.156.008Zm1.935-37.92c-.837 0-1.735 1.16-2.365 2.187-1.483 2.49-1.98 7.836-2.313 11.747-.067.788-.126 1.487-.193 2.156a73.346 73.346 0 0 0-.074 15.614c.193 1.755.556 3.903 1.675 4.93a1.966 1.966 0 0 0 1.431.527 3.075 3.075 0 0 0 2.054-1.093c.905-1.01 1.602-2.565 2.225-4.9 1.179-4.676 1.416-9.85 1.542-14.334.111-3.867-1.023-15.986-3.707-16.789a.988.988 0 0 0-.275-.022v-.022Z"/><path fill="#1C1C1C" d="M43.51 152.511s-9.942 3.502-11.01 5.643a8.838 8.838 0 0 0-.83 4.387h2.72a4.432 4.432 0 0 1 1.187-4.03c1.772-1.785 7.11-3.718 10.721-3.762 3.611-.045 10.47 1.858 10.707 3.167.237 1.309.593 4.625.593 4.625l2.722-.707s.593-3.442-1.187-5.821c-1.78-2.38-10.054-3.502-10.054-3.502h-5.568Z"/><path fill="#1C1C1C" d="M34.39 162.912h-2.72a.37.37 0 0 1-.371-.327 9.292 9.292 0 0 1 .867-4.602c1.105-2.231 10.188-5.457 11.218-5.822a.381.381 0 0 1 .127 0h5.568c.4.052 8.504 1.182 10.38 3.651 1.876 2.468 1.283 5.948 1.253 6.104a.367.367 0 0 1-.267.297l-2.728.744a.367.367 0 0 1-.412-.168.368.368 0 0 1-.048-.152s-.356-3.331-.586-4.602c-.155-.863-6.458-2.877-10.343-2.863-3.418.038-8.697 1.881-10.462 3.651a4.03 4.03 0 0 0-1.083 3.68.383.383 0 0 1-.066.32.374.374 0 0 1-.326.089Zm-2.372-.743h1.935a4.749 4.749 0 0 1 1.364-3.926c1.906-1.911 7.34-3.822 10.974-3.866h.096c3.248 0 10.67 1.74 10.981 3.472.193 1.034.445 3.279.55 4.223l2.068-.535c.089-.796.252-3.428-1.15-5.301-1.4-1.874-7.548-3.049-9.802-3.354H43.57c-2.766.982-9.928 3.807-10.737 5.435a8.537 8.537 0 0 0-.815 3.852Z"/><path fill="#1C1C1C" d="M32.618 169.136a4.27 4.27 0 0 0 4.264-4.276 4.27 4.27 0 0 0-4.264-4.275 4.27 4.27 0 0 0-4.263 4.275 4.27 4.27 0 0 0 4.263 4.276Z"/><path fill="#1C1C1C" d="M32.618 169.507a4.64 4.64 0 0 1-4.281-2.868 4.66 4.66 0 0 1 1.005-5.064 4.628 4.628 0 0 1 7.13.704 4.654 4.654 0 0 1-.579 5.865 4.635 4.635 0 0 1-3.275 1.363Zm0-8.55a3.898 3.898 0 0 0-3.596 2.41 3.912 3.912 0 0 0 .844 4.254 3.891 3.891 0 0 0 6.645-2.761 3.918 3.918 0 0 0-1.142-2.758 3.897 3.897 0 0 0-2.75-1.145Zm27.338 8.179a4.27 4.27 0 0 0 4.264-4.276 4.27 4.27 0 0 0-4.264-4.275 4.27 4.27 0 0 0-4.263 4.275 4.27 4.27 0 0 0 4.263 4.276Z"/><path fill="#1C1C1C" d="M59.956 169.507a4.641 4.641 0 0 1-4.281-2.868 4.66 4.66 0 0 1 1.004-5.064 4.628 4.628 0 0 1 7.13.704 4.654 4.654 0 0 1-.578 5.865 4.635 4.635 0 0 1-3.275 1.363Zm0-8.55a3.898 3.898 0 0 0-3.596 2.41 3.912 3.912 0 0 0 .843 4.254 3.891 3.891 0 0 0 6.645-2.761c0-1.035-.41-2.028-1.14-2.76a3.887 3.887 0 0 0-2.752-1.143Z"/><path fill="#0F0F0F" d="M162.293 109.632h-5.902v64.344h5.902v-64.344Z"/><path fill="#D9D9D9" d="M162.293 174.348h-5.932a.374.374 0 0 1-.262-.109.376.376 0 0 1-.108-.263v-64.344a.378.378 0 0 1 .37-.371h5.932c.098 0 .193.039.262.109.07.069.109.164.109.262v64.344a.373.373 0 0 1-.371.372Zm-5.531-.744h5.19v-63.6h-5.19v63.6Z"/><path fill="#0F0F0F" d="M162.522 93.037H81.718v17.748h80.804V93.037Z"/><path fill="#D9D9D9" d="M162.523 111.157h-80.82a.373.373 0 0 1-.37-.372V93.037a.372.372 0 0 1 .37-.372h80.82a.371.371 0 0 1 .37.372v17.748a.376.376 0 0 1-.108.263.374.374 0 0 1-.262.109Zm-80.434-.744h80.078V93.409H82.089v17.004Z"/><path fill="#0F0F0F" d="M90.082 110.785H84.18v64.343h5.902v-64.343Z"/><path fill="#D9D9D9" d="M90.09 175.5h-5.933a.37.37 0 0 1-.37-.372v-64.343a.372.372 0 0 1 .37-.372h5.932a.369.369 0 0 1 .37.372v64.343a.372.372 0 0 1-.37.372Zm-5.54-.744h5.19v-63.599h-5.19v63.599Z"/><path fill="#1C1C1C" d="M79.828 73.082a.355.355 0 0 1-.349-.26c-.067-.209-6.525-21.22-9.387-24.224a.373.373 0 0 1 .26-.638.362.362 0 0 1 .26.11c2.965 3.13 9.29 23.65 9.557 24.536a.373.373 0 0 1-.245.46.29.29 0 0 1-.097.016Zm58.953 47.911 5.902 4.097v-14.305h-5.902v10.208Z"/><path fill="#D9D9D9" d="M144.661 125.462a.353.353 0 0 1-.208-.067l-5.931-4.097a.346.346 0 0 1-.12-.132.359.359 0 0 1-.044-.173v-10.208a.37.37 0 0 1 .371-.372h5.932a.37.37 0 0 1 .371.372v14.305a.367.367 0 0 1-.371.372Zm-5.531-4.662 5.19 3.584v-13.227h-5.19v9.643Z"/><path fill="#1C1C1C" d="M60.868 157.529c1.851 0 3.351-1.757 3.351-3.925 0-2.169-1.5-3.926-3.351-3.926-1.85 0-3.351 1.757-3.351 3.926 0 2.168 1.5 3.925 3.351 3.925Z"/><path fill="#1C1C1C" d="M60.875 157.886c-2.054 0-3.707-1.925-3.707-4.297s1.668-4.29 3.707-4.29c2.04 0 3.708 1.925 3.708 4.29 0 2.364-1.661 4.297-3.708 4.297Zm0-7.844c-1.646 0-2.966 1.591-2.966 3.547 0 1.955 1.335 3.554 2.966 3.554 1.632 0 2.966-1.591 2.966-3.554 0-1.963-1.327-3.532-2.966-3.532v-.015Z"/><path fill="#1C1C1C" d="M47.003 153.046s10.477-4.811 11.122-3.918a13.33 13.33 0 0 1 1.149 3.383l2.224-.952s-.993-4.803-2.854-4.684c-1.861.119-12.309 3.717-12.309 3.717l.668 2.454Z"/><path fill="#1C1C1C" d="M47.002 153.425a.371.371 0 0 1-.155 0 .39.39 0 0 1-.2-.238l-.742-2.453a.38.38 0 0 1 .237-.454c.43-.149 10.514-3.621 12.405-3.717 2.12-.127 3.137 4.461 3.248 4.981a.39.39 0 0 1-.215.416l-2.225.952a.367.367 0 0 1-.319 0 .415.415 0 0 1-.192-.253 13.054 13.054 0 0 0-1.053-3.204c-.838-.186-6.043 1.866-10.677 4a.36.36 0 0 1-.111-.03Zm-.252-2.587.49 1.695c6.888-3.145 10.647-4.357 11.166-3.614.514.971.889 2.01 1.112 3.086l1.483-.662c-.4-1.732-1.35-4.171-2.402-4.089-1.364.082-8.163 2.312-11.811 3.576l-.038.008Z"/></svg>