<svg xmlns="http://www.w3.org/2000/svg" width="83" height="61" fill="none"><path fill="#2F2F2F" d="M37.004 31.388a5.14 5.14 0 0 1 .898-.591l-.089-.396-9.083-8.982c.098-.035.199-.06.302-.071h5.661c.294.036.567.172.774.384.745.697 1.448 1.436 2.169 2.157 1.129 1.128 2.263 2.251 3.209 3.19l9.1-9.035c-.803.053-1.608.053-2.41 0a3.357 3.357 0 0 0-3.24 1.354c-.974 1.181-2.091 2.204-3.214 3.368-1.46-1.483-2.795-2.807-4.095-4.137a1.696 1.696 0 0 0-1.347-.55H21.456c-.237 0-.479 0-.851.036l12.563 12.54-21.48 21.475h4.556a14498.3 14498.3 0 0 1 20.76-20.742Zm29.11-22.556a27043.75 27043.75 0 0 1-18.55 18.555c-1.058 1.058-2.163 2.074-3.475 3.327l9.302 9.16c-1.903 0-3.735-.03-5.561 0a1.713 1.713 0 0 1-1.4-.591c-1.773-1.808-3.546-3.587-5.195-5.271l-9.183 9.112h1.152c1.07 0 2.258.29 3.173-.089.916-.378 1.62-1.424 2.394-2.198s1.471-1.536 2.245-2.364c1.43 1.43 2.748 2.73 4.043 4.06a1.775 1.775 0 0 0 1.4.591h14.183c.233-.008.466-.028.697-.059l.1-.2L48.995 30.49 70.688 8.832h-4.574Z"/></svg>