<svg xmlns="http://www.w3.org/2000/svg" width="762" height="652" fill="none" viewBox="0 0 763 652"><path fill="#1C1C1C" d="M22.54 346.508c-.329-.214-.246-.362 0 0Z" opacity=".2"/><path fill="#0F0F0F" d="M176.55 331.976a30.188 30.188 0 0 1-6.984 14.845 30.168 30.168 0 0 1-13.714 8.996l-4.084 1.335c-14.688 20.809-40.441 29.657-62.39 16.789l-6.423-3.773-17.98-21.419h-.215c-5.697 1.186-12.136.313-16.351-3.707a5.605 5.605 0 0 1-3.19 4.061 5.602 5.602 0 0 1-7.058-2.133 5.6 5.6 0 0 1 1.175-7.283c-3.623 3.196-9.221 1.73-12.712-1.763a109.97 109.97 0 0 1 3.293-28.488 114.95 114.95 0 0 1 5.566-16.806 119.033 119.033 0 0 1 5.911-12.093c.165-.33.363-.676.56-1.005a144.76 144.76 0 0 1 10.95-16.477l2.075-1.878c1.647-1.433 3.145-2.834 4.742-4.251l.297-.263a693.409 693.409 0 0 1 7.755-6.591c4.035-3.378 8.135-6.689 12.268-9.985l.412-.329c3.54-2.801 7.113-5.586 10.67-8.354l5.368-4.152c1.078.13 2.138.379 3.161.742 4.397 1.532 5.154 5.569 8.233 8.337 4.051 3.707 7.937-2.521 14.178-2.323 19.183.593 11.741 20.282 21.11 17.811 40.458-10.677 33.657 41.108 16.071 52.477 10.374 8.518 19.315 14.202 17.306 27.68Z" opacity=".2"/><path fill="#fff" stroke="#1C1C1C" stroke-miterlimit="10" d="M89.56 381.207c37.686 0 68.237-30.193 68.237-67.437 0-37.245-30.551-67.438-68.237-67.438-37.686 0-68.237 30.193-68.237 67.438 0 37.244 30.55 67.437 68.237 67.437Z"/><path fill="#1C1C1C" stroke="#fff" stroke-miterlimit="10" d="M89.56 372.524c34.357 0 62.21-27.53 62.21-61.489 0-33.96-27.853-61.49-62.21-61.49-34.358 0-62.21 27.53-62.21 61.49 0 33.959 27.852 61.489 62.21 61.489Z"/><path fill="#FDFC00" d="M22.705 335.271c-3.92 2.439-5.039 10.627-1.96 14.186 3.08 3.559 8.99.808 10.193-4.728a1.845 1.845 0 0 0 3.293.461 3.789 3.789 0 0 0 .23-3.46c-.296-.247-.18-.428 0 0 2.01 1.648 5.468-.148 5.945-3.559-1.465 9.062 6.768 16.971 12.827 12.357-1.794 3.856.56 8.914 3.689 9.886 3.128.972 6.488-.873 9.484-2.916 2.997-2.043 6.077-4.399 9.353-4.548 2.85-.131 5.5 1.483 8.234 2.439 8.66 3.015 18.804-.989 25.424-10.067 4.38 7.497 15.165 4.728 18.113-4.597.609 4.366 3.589 7.694 6.932 7.727 3.343.033 6.685-3.196 7.838-7.529 0 4.135 3.754 6.162 6.389 3.509a15.461 15.461 0 0 0 3.804-14.614c4.479-.182 8.826-5.388 9.501-11.419.675-6.03-2.355-12.093-6.685-13.279 7.442-3.082 13.173-13.182 13.535-23.545.362-10.364-5.039-19.92-12.333-22.326a7.74 7.74 0 0 0-8.365 1.747c-.873-5.882-3.541-11.138-7.476-13.774-6.257-4.235-14.968-1.335-19.628 6.59a15.51 15.51 0 0 0 .362-13.807c-2.075-3.839-6.191-5.388-9.682-3.575-.741-6.311-5.615-10.792-10.374-9.573-4.759 1.219-8.595 7.975-8.233 14.351-.445-5.141-6.587-6.409-8.694-2.093-.1.165.18.396 0 0-3.03-6.36-9.189-9.622-14.902-7.76-6.077 1.994-11.181 9.622-11.971 17.959a10.717 10.717 0 0 0-14.82.412c-4.495 4.053-7.097 11.764-6.307 18.651-4.726-4.662-12.679-2.109-15.923 5.108-3.244 7.217-1.02 17.432 4.463 20.464-3.771.576-7.097 5.585-7.097 10.66 0 5.074 3.293 9.424 7.13 9.292-3.82.33-7.427 4.844-7.987 9.969-.56 5.124 2.01 10.281 5.698 11.401Z"/><path fill="#fff" d="M85.425 311.644a7.116 7.116 0 0 0-6.586-1.648 7.929 7.929 0 0 0-4.94 6.13c-.527 2.982.856 6.277 3.129 6.837 2.782.692 5.631-2.422 8.463-2.076a18.31 18.31 0 0 1 2.915.956c4.067 1.137 8.233-2.521 11.625-5.948a16.161 16.161 0 0 0 3.293-4.103 6.69 6.69 0 0 0 .429-5.42c-.988-2.225-3.458-2.406-5.533-1.978a22.135 22.135 0 0 0-11.527 6.756c.116-.841.23-1.648.363-2.505l-1.63 2.999Zm59.475-8.123a9.369 9.369 0 0 0-3.524-2.175 3.39 3.39 0 0 0-3.721 1.648 5.405 5.405 0 0 0 .922 6.195 8.58 8.58 0 0 0 5.154 1.928c1.877.247 4.248.198 5.22-1.994a4.755 4.755 0 0 0-.791-4.745 8.11 8.11 0 0 0-3.655-2.092l.395 1.235ZM51.798 269.86a18.12 18.12 0 0 0-7.805 12.061c-.296 1.549-.296 3.493.758 4.251a2.754 2.754 0 0 0 2.552 0l10.934-3.955a16.475 16.475 0 0 0-4.94 3.609 8.234 8.234 0 0 0-1.976 6.458 4.745 4.745 0 0 0 4.94 4.021 10.607 10.607 0 0 0 6.043-3.427 11.126 11.126 0 0 0 3.919-7.332c0-2.966-2.8-5.553-4.627-3.543a40.304 40.304 0 0 0 11.757-7.562 14.161 14.161 0 0 0 3.441-4.251 7.139 7.139 0 0 0 .445-5.668c-3.557-8.387-8.48 4.531-10.786 5.799-4.33 2.406-9.106-3.723-14.655-.461Zm-17.586 37.813a5.228 5.228 0 0 0 .873 4.746 2.143 2.143 0 0 0 3.49-1.121 13.344 13.344 0 0 0-6.586 5.091c-1.646 2.702-1.268 7.233 1.137 8.09 1.498.544 3.112-.511 4.528-1.565a93.565 93.565 0 0 0 11.411-10.133 5.208 5.208 0 0 0 4.084 6.821c2.7.132 5.269-1.878 7.624-3.822 2.881-2.389 6.208-5.948 5.532-10.034a4.94 4.94 0 0 0-6.965-3.724c-2.8 1.236-4.94 4.218-6.932 7.085 1.646-2.933-.51-7.003-3.178-7.299-2.668-.297-5.204 1.878-6.867 4.415 3.063-2.306 3.837-7.859-.197-8.238-2.668-.263-7.262 6.904-7.954 9.688Zm83.222-17.465c-2.273-.955-5.171 1.121-5.829 4.169-.659 3.048 1.037 6.376 3.425 6.689a7.3 7.3 0 0 0-4.66 3.296 5.866 5.866 0 0 0-1.038 3.526 3.293 3.293 0 0 0 3.195 2.965 8.818 8.818 0 0 0 4.264-1.779 7.208 7.208 0 0 0-4.198 1.796 4.227 4.227 0 0 0-1.16 2.356 4.244 4.244 0 0 0 .451 2.587c.857 1.054 2.289.774 3.475.28a18.628 18.628 0 0 0 7.212-5.553 5.808 5.808 0 0 0 5.912 2.851 5.718 5.718 0 0 0 3.523-6.426 4.133 4.133 0 0 0-3.622-3.196 9.487 9.487 0 0 0-4.743 1.235 12.204 12.204 0 0 0 3.903-5.569c.609-2.372-.576-5.42-2.486-5.124-2.158.346-3.294 4.152-5.039 5.602-2.058-2.356 1.959-7.81-2.585-9.705Zm-38.547-9.045c-2.47 2.257-3.409 6.475-3.294 10.232.1 4.152 1.499 8.501 4.463 9.984 3.886 1.945 8.875-2.521 9.698-7.958a13.318 13.318 0 0 0-5.615-13.049 4.724 4.724 0 0 0-5.252.791Zm27.528-6.162.988 1.054a4.317 4.317 0 0 0-7.147-.28 7.833 7.833 0 0 0-.197 9.161 4.457 4.457 0 0 0 5.813.509 4.466 4.466 0 0 0 1.366-1.596 6.589 6.589 0 0 0 8.612-2.587c2.058-3.18 1.647-8.518-.972-10.314-2.618-1.796-6.882 1.4-6.586 5.354l-1.153-1.647-.724.346Zm30.186 4.382a22.602 22.602 0 0 0-4.824 8.683c-.774 3.411.312 7.613 2.947 8.239 2.635.626 5.138-2.225 6.702-5.19a13.295 13.295 0 0 0 1.762-8.898c-.725-2.916-4.035-4.465-5.747-2.076l-.84-.758ZM93.312 261.77a3.79 3.79 0 0 0-6.126-1.779 8.42 8.42 0 0 0-2.074 8.238 6.479 6.479 0 0 0 5.516 4.795 6.084 6.084 0 0 0 4.46-2.056 6.082 6.082 0 0 0 1.484-4.683 5.287 5.287 0 0 0 5.648 2.405 14.701 14.701 0 0 0 5.977-3.196c2.536-1.994 5.253-4.943 5.056-8.65a5.274 5.274 0 0 0-4.611-5.141 8.437 8.437 0 0 0-6.356 3.378c-1.4 1.565-2.569 3.493-4.084 4.943-1.514 1.45-3.54 2.224-5.104 1.236l.214.51Z" opacity=".2"/><path fill="#FDFC00" stroke="#1C1C1C" stroke-linecap="round" stroke-linejoin="round" d="M589.329 363.808h-379.83v160.068h379.83V363.808Z"/><path fill="#fff" stroke="#1C1C1C" stroke-miterlimit="10" d="M253.166 373.496h-35.732v19.788h35.732v-19.788Zm327.371 96.486h-56.282v19.788h56.282v-19.788Zm.002-71.771h-34.745v19.788h34.745v-19.788ZM253.166 445.58h-35.732v19.788h35.732V445.58Zm-6.801-23.841h-28.931v19.788h28.931v-19.788Zm-9.155-24.121h-19.776v19.788h19.776v-19.788Zm25.261 0h-19.776v19.788h19.776v-19.788Zm25.242 0h-19.776v19.788h19.776v-19.788Zm25.245 0h-19.776v19.788h19.776v-19.788Zm25.257 0h-19.777v19.788h19.777v-19.788Zm25.246 0h-19.776v19.788h19.776v-19.788Zm25.24 0h-19.776v19.788h19.776v-19.788Zm25.262 0h-19.776v19.788h19.776v-19.788Zm25.24 0h-19.776v19.788h19.776v-19.788Zm25.246 0h-19.776v19.788h19.776v-19.788Zm25.256 0h-19.776v19.788h19.776v-19.788Zm25.246 0h-19.776v19.788h19.776v-19.788Zm25.257 0h-19.776v19.788h19.776v-19.788ZM237.21 494.4h-19.776v19.788h19.776V494.4Zm25.261 0h-19.776v19.788h19.776V494.4Zm25.242 0h-19.776v19.788h19.776V494.4Zm29.608 0h-24.139v19.788h24.139V494.4Zm126.249 0H322.789v19.788H443.57V494.4Zm60.383 0h-19.776v19.788h19.776V494.4Zm25.241 0h-19.777v19.788h19.777V494.4Zm25.293 0h-19.776v19.788h19.776V494.4Zm-75.27 0h-30.71v19.788h30.71V494.4Zm101.319 0H560.76v19.788h19.776V494.4Zm-308.778-72.661h-19.777v19.788h19.777v-19.788Zm25.246 0h-19.776v19.788h19.776v-19.788Zm25.256 0h-19.777v19.788h19.777v-19.788Zm25.246 0h-19.777v19.788h19.777v-19.788Zm25.256 0h-19.776v19.788h19.776v-19.788Zm25.246 0h-19.777v19.788h19.777v-19.788Zm25.24 0h-19.776v19.788h19.776v-19.788Zm25.262 0h-19.776v19.788h19.776v-19.788Zm25.241 0h-19.776v19.788h19.776v-19.788Zm25.245 0H479.22v19.788h19.776v-19.788Zm25.257 0h-19.776v19.788h19.776v-19.788Zm25.246 0h-19.776v19.788h19.776v-19.788Zm31.036 0v43.926h-19.776v-24.121h-5.796v-19.805h25.572ZM277.554 445.86h-19.776v19.788h19.776V445.86Zm25.247 0h-19.777v19.788h19.777V445.86Zm25.24 0h-19.776v19.788h19.776V445.86Zm25.261 0h-19.776v19.788h19.776V445.86Zm25.241 0h-19.776v19.788h19.776V445.86Zm25.262 0h-19.776v19.788h19.776V445.86Zm25.24 0h-19.776v19.788h19.776V445.86Zm25.241 0H434.51v19.788h19.776V445.86Zm25.262 0h-19.777v19.788h19.777V445.86Zm25.245 0h-19.776v19.788h19.776V445.86Zm25.241 0h-19.776v19.788h19.776V445.86Zm25.262 0H535.52v19.788h19.776V445.86Zm-288.479 24.122h-19.776v19.788h19.776v-19.788Zm25.245 0h-19.776v19.788h19.776v-19.788Zm25.257 0h-19.776v19.788h19.776v-19.788Zm25.246 0h-19.776v19.788h19.776v-19.788Zm25.24 0h-19.776v19.788h19.776v-19.788Zm25.262 0h-19.776v19.788h19.776v-19.788Zm25.24 0h-19.776v19.788h19.776v-19.788Zm25.263 0h-19.777v19.788h19.777v-19.788Zm25.24 0h-19.776v19.788h19.776v-19.788Zm25.246 0H474.28v19.788h19.776v-19.788Zm25.256 0h-19.776v19.788h19.776v-19.788Zm-241.758-95.299h-19.776v19.788h19.776v-19.788Zm25.247 0h-19.777v19.788h19.777v-19.788Zm25.24 0h-19.776v19.788h19.776v-19.788Zm25.261 0h-19.776v19.788h19.776v-19.788Zm25.241 0h-19.776v19.788h19.776v-19.788Zm25.262 0h-19.776v19.788h19.776v-19.788Zm25.24 0h-19.776v19.788h19.776v-19.788Zm25.241 0H434.51v19.788h19.776v-19.788Zm25.262 0h-19.777v19.788h19.777v-19.788Zm25.245 0h-19.776v19.788h19.776v-19.788Zm25.241 0h-19.776v19.788h19.776v-19.788Zm25.262 0H535.52v19.788h19.776v-19.788Zm25.24 0H560.76v19.788h19.776v-19.788Zm-339.144 95.299h-23.958v19.788h23.958v-19.788Z"/><path fill="#1C1C1C" d="m209.499 364.83 7.937-2.636h366.739l5.22 2.603-379.896.033Z"/><path fill="#0F0F0F" d="m480.617 639.358-7.723-46.545a38.017 38.017 0 0 0-10.456-18.223c-15.363-14.829-35.666-30.053-36.539-49.429-1.334-29.657-5.961-28.817-5.467-36.149a89.19 89.19 0 0 0 5.286-10.874 63.34 63.34 0 0 0 2.239-8.799 6 6 0 0 1 6.587-4.696 10.194 10.194 0 0 1 5.582 2.62 15.483 15.483 0 0 1 4.183 10.71 45.833 45.833 0 0 1-1.647 11.632 76.096 76.096 0 0 1 4.94 20.447c1.762-5.437 3.095-10.924 4.857-16.344.363-.198.231-.626.577-.824-2.487-5.338-.379-5.042-5.302-16.79-8.234-19.771-17.521-38.834-24.124-63.681a14.139 14.139 0 0 1 .148-6.986c2.388-7.101 9.699-5.47 12.894-1.334a13.668 13.668 0 0 1 1.976 3.592 191.874 191.874 0 0 0 15.758 30.399l17.932 27.35s6.241-5.124 7.196-7.414c.938-2.307 1.399-20.876 1.399-20.876s-1.416 3.477-4.561 3.296c-2.272-.165-6.883 1.153-10.16-2.538a8.588 8.588 0 0 1-.296-10.775l8.118-10.973a12.31 12.31 0 0 1 12.745-1.533 60.624 60.624 0 0 1 14.342 10.051c4.286-.121 8.547.7 12.482 2.405 5.746 2.768 11.773 10.71 11.773 10.71s6.702.412 9.715 2.603c.758.544 10.983 16.477 7.295 28.883-2.19 7.398-3.54 18.124-4.528 21.024l-5.023 72.644 10.127 47.782-21.653 12.077a154.744 154.744 0 0 1-24.749 11.088l-15.923 5.47Z" opacity=".2"/><path fill="#0F0F0F" d="m542.103 554.472.198-72.841c.79-2.933 1.432-13.742 3.112-21.271 2.865-12.621-8.398-27.845-9.189-28.34-3.161-1.96-9.879-1.927-9.879-1.927s-6.587-7.53-12.465-9.886a29.42 29.42 0 0 0-12.614-1.648 60.264 60.264 0 0 0-14.984-9.078 12.33 12.33 0 0 0-12.613 2.372l-7.361 11.534a8.59 8.59 0 0 0 1.005 10.742c3.523 3.477 8.035 1.846 10.308 1.846 3.145 0 4.33-3.559 4.33-3.559s.774 18.552 0 20.908c-.807 2.356-6.702 7.876-6.702 7.876l-19.759-26.082a188.718 188.718 0 0 1-17.735-29.295 14.026 14.026 0 0 0-2.222-3.444c-3.458-3.921-10.852-5.058-12.778 2.175a14.34 14.34 0 0 0 .312 6.986c8.234 24.352 18.739 42.756 28.306 61.935 5.681 11.385 3.573 11.253 6.406 16.394-.33.23-.165.659-.527.873-1.384 5.536-2.355 11.089-3.755 16.625a75.812 75.812 0 0 0-6.306-20.069 45.328 45.328 0 0 0 .872-11.731 15.451 15.451 0 0 0-4.94-10.396 10.153 10.153 0 0 0-5.746-2.241 5.993 5.993 0 0 0-6.323 5.141 61.86 61.86 0 0 1-1.647 8.913 89.814 89.814 0 0 1-4.545 11.204c0 7.349 4.545 6.146 7.855 35.704 2.568 23.067 32.208 38.242 48.345 54.866l17.191 54.142a333.077 333.077 0 0 0 57.566-30.136l-13.716-48.292Z"/><mask id="a" width="134" height="234" x="422" y="399" maskUnits="userSpaceOnUse" style="mask-type:luminance"><path fill="#fff" d="m542.104 554.473.198-72.842c.79-2.933 1.432-13.742 3.112-21.271 2.865-12.621-8.398-27.845-9.189-28.34-3.161-1.96-9.879-1.927-9.879-1.927s-6.587-7.53-12.465-9.886a29.42 29.42 0 0 0-12.614-1.648 60.264 60.264 0 0 0-14.984-9.078 12.33 12.33 0 0 0-12.613 2.372l-7.361 11.534a8.59 8.59 0 0 0 1.005 10.742c3.523 3.477 8.035 1.846 10.308 1.846 3.145 0 4.33-3.559 4.33-3.559s.774 18.552 0 20.908c-.807 2.356-6.702 7.876-6.702 7.876l-19.759-26.082a188.718 188.718 0 0 1-17.735-29.295 13.977 13.977 0 0 0-2.223-3.443c-3.457-3.922-10.851-5.059-12.777 2.174a14.34 14.34 0 0 0 .312 6.986c8.234 24.352 18.739 42.756 28.306 61.935 5.681 11.385 3.573 11.253 6.406 16.394-.33.23-.165.659-.527.873-1.384 5.536-2.355 11.089-3.755 16.625a75.812 75.812 0 0 0-6.306-20.069 45.328 45.328 0 0 0 .872-11.731 15.453 15.453 0 0 0-4.94-10.396 10.153 10.153 0 0 0-5.746-2.241 5.992 5.992 0 0 0-6.323 5.141 61.86 61.86 0 0 1-1.647 8.913 89.814 89.814 0 0 1-4.545 11.204c0 7.349 4.545 6.146 7.855 35.704 2.568 23.067 32.208 38.242 48.345 54.867l17.191 54.141a333.003 333.003 0 0 0 57.566-30.135l-13.716-48.292Z"/></mask><g mask="url(#a)"><path fill="#FDFC00" d="M533.672 455.499a12.682 12.682 0 0 1 3.771-5.701 4.819 4.819 0 0 1 6.307.215 304.756 304.756 0 0 0-3.919-11.254 17.404 17.404 0 0 0-4.578-7.711c-2.338-1.911-6.191-2.306-8.233 0a89.123 89.123 0 0 1 .461 26.049c-.609 4.68-1.4 10.051 1.745 13.56.873.709 2.388-.56 1.828-1.532-.263-.461-1.185-.494-1.646-.461a83.76 83.76 0 0 1 4.264-13.165Z"/><path fill="#FDFC00" d="M533.672 455.499a12.682 12.682 0 0 1 3.771-5.701 4.819 4.819 0 0 1 6.307.215 304.756 304.756 0 0 0-3.919-11.254 17.404 17.404 0 0 0-4.578-7.711c-2.338-1.911-6.191-2.306-8.233 0a89.123 89.123 0 0 1 .461 26.049c-.609 4.68-1.4 10.051 1.745 13.56.873.709 2.388-.56 1.828-1.532-.263-.461-1.185-.494-1.646-.461a83.76 83.76 0 0 1 4.264-13.165Z"/><path fill="#0F0F0F" d="M533.672 455.499a12.682 12.682 0 0 1 3.771-5.701 4.819 4.819 0 0 1 6.307.215 304.756 304.756 0 0 0-3.919-11.254 17.404 17.404 0 0 0-4.578-7.711c-2.338-1.911-6.191-2.306-8.233 0a89.123 89.123 0 0 1 .461 26.049c-.609 4.68-1.4 10.051 1.745 13.56.873.709 2.388-.56 1.828-1.532-.263-.461-1.185-.494-1.646-.461a83.76 83.76 0 0 1 4.264-13.165Z" opacity=".5"/><path fill="#FDFC00" d="M507.389 447.689a46.552 46.552 0 0 0 .889 9.458 11.76 11.76 0 0 0 5.269 7.595c-1.646-6.129-.757-12.637.132-18.914l1.647-11.534a8.519 8.519 0 0 1 1.169-3.822 2.958 2.958 0 0 1 3.474-1.253c-1.646.956-3.738-.329-4.726-1.944a48.46 48.46 0 0 0-2.519-5.074c-2.206-2.834-6.916-3.46-10.176-2.703.971 9.474 4.462 18.47 4.841 28.191Z"/><path fill="#FDFC00" d="M507.389 447.689a46.552 46.552 0 0 0 .889 9.458 11.76 11.76 0 0 0 5.269 7.595c-1.646-6.129-.757-12.637.132-18.914l1.647-11.534a8.519 8.519 0 0 1 1.169-3.822 2.958 2.958 0 0 1 3.474-1.253c-1.646.956-3.738-.329-4.726-1.944a48.46 48.46 0 0 0-2.519-5.074c-2.206-2.834-6.916-3.46-10.176-2.703.971 9.474 4.462 18.47 4.841 28.191Z"/><path fill="#0F0F0F" d="M507.39 447.689a46.624 46.624 0 0 0 .89 9.458 11.774 11.774 0 0 0 5.269 7.595c-1.647-6.129-.758-12.637.132-18.914l1.646-11.534a8.519 8.519 0 0 1 1.169-3.822 2.96 2.96 0 0 1 3.475-1.253c-1.647.956-3.738-.329-4.726-1.944a48.46 48.46 0 0 0-2.519-5.074c-2.207-2.834-6.916-3.46-10.177-2.703.972 9.474 4.463 18.47 4.841 28.191Z" opacity=".5"/><path fill="#FDFC00" d="M480.515 422.283a5.787 5.787 0 0 1-1.746-3.46 4.947 4.947 0 0 0-1.926-3.295c-5.055 3.212-2.289 12.62-7.41 15.735-.988.609-2.256.955-2.799 1.977a2.597 2.597 0 0 0 .543 2.899 4.945 4.945 0 0 0 2.799 1.319 11.27 11.27 0 0 0 6.041-.828 11.27 11.27 0 0 0 4.728-3.852c2.009-2.768 3.392-7.216 2.404-10.495a2.537 2.537 0 0 1-2.634 0Zm-52.575 61.605c0 .346-.148.791.132 1.021.28.231 1.004-.197 1.334-.659a8.814 8.814 0 0 1 4.385-3.172 8.815 8.815 0 0 1 5.412-.008c1.334 0 1.795-2.059.922-3.064a4.739 4.739 0 0 0-3.688-1.186 7.184 7.184 0 0 1-3.886-.643 3.85 3.85 0 0 1-1.647-4.152c-.84 3.971-1.877 7.909-2.964 11.863Z"/><path fill="#0F0F0F" d="M480.516 422.283a5.787 5.787 0 0 1-1.746-3.46 4.947 4.947 0 0 0-1.926-3.295c-5.055 3.213-2.289 12.621-7.41 15.735-.988.609-2.256.955-2.799 1.977a2.597 2.597 0 0 0 .543 2.9 4.937 4.937 0 0 0 2.799 1.318 11.28 11.28 0 0 0 10.769-4.68c2.009-2.768 3.392-7.216 2.404-10.495a2.528 2.528 0 0 1-2.634 0Zm-52.575 61.605c0 .346-.148.791.132 1.022.28.23 1.004-.198 1.334-.66a8.806 8.806 0 0 1 9.797-3.179c1.334 0 1.795-2.06.922-3.065a4.753 4.753 0 0 0-3.688-1.186 7.175 7.175 0 0 1-3.886-.643 3.85 3.85 0 0 1-1.647-4.152c-.84 3.971-1.877 7.909-2.964 11.863Z" opacity=".5"/><path fill="#FDFC00" d="M494.992 421.031c-2.882-.379-5.928-.462-8.447-1.928-3.129-1.845-5.286-5.767-8.925-5.931-3.293-.149-5.648 2.817-7.476 5.486a10.007 10.007 0 0 1 6.488-9.276 16.095 16.095 0 0 1 11.773.461 44.16 44.16 0 0 1 10.209 6.377 13.664 13.664 0 0 1 3.458 3.295c4.068 6.475-4.544 1.862-7.08 1.516Z"/><path fill="#0F0F0F" d="M494.992 421.031c-2.882-.379-5.928-.462-8.447-1.928-3.129-1.845-5.286-5.767-8.925-5.931-3.293-.149-5.648 2.817-7.476 5.486a10.007 10.007 0 0 1 6.488-9.276 16.095 16.095 0 0 1 11.773.461 44.16 44.16 0 0 1 10.209 6.377 13.664 13.664 0 0 1 3.458 3.295c4.068 6.475-4.544 1.862-7.08 1.516Z" opacity=".5"/><path fill="#FDFC00" d="M443.486 514.6c.195-.358.371-.727.527-1.104a1.245 1.245 0 0 0-.527 1.104Zm4.891-25.522c-.329-4.053.247-8.139.083-12.209-.165-4.07-1.235-8.353-4.199-11.154-4.248-4.004-15.89-1.961-11.988 5.651a4.939 4.939 0 0 0 6.044 2.257 4.39 4.39 0 0 0 2.28-2.54 4.4 4.4 0 0 0-.222-3.408 21.118 21.118 0 0 1-1.005 23.99 19.148 19.148 0 0 1 4.644 21.831 2.403 2.403 0 0 1 2.717 0 8.243 8.243 0 0 1 2.091 3.724c.576 1.334 1.647 2.718 3.096 2.619 1.976-4.86 1.334-10.38 0-15.455-1.334-5.074-3.129-10.017-3.541-15.306Zm42.596-76.401a16.462 16.462 0 0 0-7.789-3.295l7.789 3.295Zm19.367 51.555c-.626-2.801-1.927-5.405-2.7-8.239-1.795-6.442-.659-13.329-1.482-19.969a34.476 34.476 0 0 0-12.235-22.16l-2.947-1.253a16.623 16.623 0 0 1 5.927 8.634c2.289 7.876 2.997 16.081 4.018 24.22a324.801 324.801 0 0 0 6.834 37.368c1.959-6.063 3.952-12.423 2.585-18.601Zm-31.355-29.295a10.367 10.367 0 0 0 3.475-6.772 28.094 28.094 0 0 0-.181-6.953 2.303 2.303 0 0 1-2.602 1.565 5.844 5.844 0 0 1-3.112-2.834l-.593 2.06-.247-1.12-.79 1.005c1.169 3.295 2.305 7.134.494 10.149a11.92 11.92 0 0 1-3.705 3.427 6.251 6.251 0 0 0 7.261-.527Z"/><path fill="#FDFC00" d="m482.179 420.388.099.824a1.315 1.315 0 0 0-.099-.824Zm-8.608 33.348c-5.763-11.352-11.526-22.704-17.899-33.743a109.17 109.17 0 0 0-12.58-18.404c-2.207-2.455-8.497-8.156-11.971-4.4-2.322 2.505.724 7.052-2.124 9.771.658 0 3.869-.313 4.215.115a50.122 50.122 0 0 1 11.049 31.948c2.322-1.829 5.516.708 7.327 3.048a537.83 537.83 0 0 1 31.287 44.651c-1.878-6.805-1.927-14.038-3.936-20.793a74.215 74.215 0 0 0-5.368-12.193Zm67.08 27.664a72.236 72.236 0 0 0 5.154-22.803 37.34 37.34 0 0 0-5.171-20.645c-.955-1.532-4.94-7.859-7.064-7.349-3.87.923 1.202 7.645 2.091 9.326 3.294 6.343 6.768 13.049 6.587 20.217-.165 5.519-2.487 10.709-4.347 15.899a34.26 34.26 0 0 0-2.322 11.303c-.28.428-.543.873-.856 1.269a16.912 16.912 0 0 1-10.341 6.837c1.646-4.943 3.178-9.886 4.775-14.828.576-1.763.774-4.169-.247-5.388.34-.662.516-1.397.511-2.142a10.904 10.904 0 0 0-1.4-3.79c-2.207-4.745-1.466-10.264-.922-15.471.658-6.426.905-13.033-.972-19.211-1.877-6.179-6.241-11.913-12.366-13.956l1.647 1.648-2.075-1.516 3.853 8.041-1.416 2.026c2.124-1.12 4.841.494 5.812 2.686.762 2.287.927 4.732.478 7.101a142.107 142.107 0 0 0 1.943 39.972 19.42 19.42 0 0 1-2.371 8.781 8.651 8.651 0 0 1-8.233 4.466 8.679 8.679 0 0 0-3.178-8.782c-3.294 4.613-1.351 11.78-.857 17.036a185.507 185.507 0 0 0 3.837 23.66 76.49 76.49 0 0 1 4.199-19.771c1.778 6.502 3.568 13.01 5.368 19.524a11.538 11.538 0 0 1 1.021-5.322 3.966 3.966 0 0 1 4.545-2.109 5.631 5.631 0 0 1 2.717 3.394 60.593 60.593 0 0 1 3.293 35.639c2.206 1.235 5.137-.247 6.372-2.455a14.84 14.84 0 0 0 1.17-7.415c-.451-21.935-.862-43.893-1.235-65.872Zm-55.819 6.97c-1.054 1.845 3.293 9.193 3.968 10.94a45793.59 45793.59 0 0 0 10.885 26.609 126.043 126.043 0 0 0-8.431-34.073c-.741-1.829-4.331-7.151-6.422-3.476Zm5.631-46.991c-.625.939-1.498 2.092-2.568 1.763-1.071-.33-1.186-1.648-1.17-2.686.11-6.162.214-12.33.313-18.503-4.94 3.576-4.347 8.239-4.693 13.577-.197 3.081.692 17.794-1.416 19.59a54.897 54.897 0 0 0 12.251-14.927c-.856-.709-2.107.247-2.717 1.186Z"/><g fill="#0F0F0F" opacity=".5"><path d="M443.487 514.6c.195-.358.371-.727.527-1.104a1.245 1.245 0 0 0-.527 1.104Zm4.891-25.522c-.329-4.053.247-8.139.083-12.209-.165-4.07-1.235-8.353-4.199-11.154-4.248-4.004-15.89-1.961-11.988 5.651a4.939 4.939 0 0 0 6.044 2.257 4.39 4.39 0 0 0 2.28-2.54 4.4 4.4 0 0 0-.222-3.408 21.118 21.118 0 0 1-1.005 23.99 19.148 19.148 0 0 1 4.644 21.831 2.403 2.403 0 0 1 2.717 0 8.243 8.243 0 0 1 2.091 3.724c.576 1.334 1.647 2.718 3.096 2.619 1.976-4.86 1.334-10.38 0-15.455-1.334-5.074-3.129-10.017-3.541-15.306Zm42.601-76.401a16.454 16.454 0 0 0-7.788-3.295l7.788 3.295Zm19.362 51.555c-.626-2.801-1.927-5.405-2.7-8.239-1.795-6.442-.659-13.329-1.482-19.969a34.476 34.476 0 0 0-12.235-22.16l-2.947-1.253a16.623 16.623 0 0 1 5.927 8.634c2.289 7.876 2.997 16.081 4.018 24.22a324.801 324.801 0 0 0 6.834 37.368c1.959-6.063 3.952-12.423 2.585-18.601Zm-31.349-29.295a10.372 10.372 0 0 0 3.474-6.772 27.998 27.998 0 0 0-.181-6.953 2.307 2.307 0 0 1-2.602 1.565 5.844 5.844 0 0 1-3.112-2.834l-.593 2.06-.247-1.121-.79 1.005c1.169 3.296 2.305 7.135.494 10.15a11.91 11.91 0 0 1-3.705 3.427 6.251 6.251 0 0 0 7.262-.527Z"/><path d="m482.186 420.388.098.824a1.321 1.321 0 0 0-.098-.824Zm-8.614 33.348c-5.763-11.352-11.526-22.704-17.899-33.743a109.17 109.17 0 0 0-12.58-18.404c-2.207-2.455-8.497-8.156-11.971-4.4-2.322 2.505.724 7.052-2.124 9.771.658 0 3.869-.313 4.215.115a50.122 50.122 0 0 1 11.049 31.948c2.322-1.829 5.516.708 7.327 3.048a537.83 537.83 0 0 1 31.287 44.651c-1.878-6.805-1.927-14.038-3.936-20.793a74.215 74.215 0 0 0-5.368-12.193Zm67.085 27.664a72.208 72.208 0 0 0 5.154-22.803 37.331 37.331 0 0 0-5.171-20.645c-.955-1.532-4.939-7.859-7.064-7.349-3.869.923 1.202 7.645 2.092 9.326 3.293 6.343 6.767 13.049 6.586 20.217-.164 5.519-2.486 10.709-4.347 15.899a34.286 34.286 0 0 0-2.322 11.303c-.28.428-.543.873-.856 1.269a16.91 16.91 0 0 1-10.341 6.837c1.647-4.943 3.178-9.886 4.775-14.828.577-1.763.774-4.169-.247-5.388a4.61 4.61 0 0 0 .511-2.142 10.884 10.884 0 0 0-1.4-3.79c-2.206-4.745-1.465-10.264-.922-15.471.659-6.426.906-13.033-.971-19.211-1.878-6.179-6.241-11.913-12.367-13.956l1.647 1.648-2.075-1.516 3.853 8.041-1.416 2.026c2.124-1.12 4.841.494 5.813 2.686.762 2.287.926 4.732.477 7.101a142.145 142.145 0 0 0 1.943 39.972 19.411 19.411 0 0 1-2.371 8.781 8.645 8.645 0 0 1-8.233 4.466 8.67 8.67 0 0 0-3.178-8.782c-3.293 4.613-1.35 11.78-.856 17.036a185.504 185.504 0 0 0 3.836 23.66 76.573 76.573 0 0 1 4.199-19.771c1.779 6.502 3.568 13.01 5.368 19.524a11.551 11.551 0 0 1 1.021-5.322 3.967 3.967 0 0 1 4.545-2.109 5.607 5.607 0 0 1 2.717 3.394 60.577 60.577 0 0 1 3.293 35.639c2.207 1.235 5.138-.248 6.373-2.455a14.84 14.84 0 0 0 1.169-7.415c-.45-21.935-.862-43.893-1.235-65.872Zm-55.824 6.969c-1.054 1.846 3.293 9.194 3.968 10.941 3.623 8.864 7.251 17.734 10.884 26.609a126.004 126.004 0 0 0-8.43-34.073c-.741-1.829-4.331-7.151-6.422-3.477Zm5.632-46.99c-.626.939-1.499 2.092-2.569 1.763-1.07-.33-1.186-1.648-1.169-2.686.11-6.162.214-12.329.313-18.503-4.94 3.576-4.347 8.239-4.693 13.577-.198 3.081.691 17.794-1.416 19.59a54.915 54.915 0 0 0 12.251-14.927c-.857-.709-2.108.247-2.717 1.186Z"/></g></g><path fill="#0F0F0F" d="M429.97 482.982a21.018 21.018 0 0 0-4.825 5.42l4.825-5.42Z"/><path stroke="#D9D9D9" stroke-miterlimit="10" stroke-width="1.5" d="m498.37 632.916-17.191-54.141c-16.137-16.625-45.776-31.832-48.345-54.866-3.293-29.559-7.855-28.356-7.855-35.704a89.785 89.785 0 0 0 4.545-11.204 61.849 61.849 0 0 0 1.647-8.914 5.995 5.995 0 0 1 6.323-5.141c2.101.133 4.109.916 5.747 2.241a15.464 15.464 0 0 1 4.94 10.397 45.38 45.38 0 0 1-.873 11.731 75.805 75.805 0 0 1 6.306 20.068c1.4-5.536 2.372-11.089 3.755-16.625.362-.214.197-.642.527-.873-2.832-5.14-.725-4.943-6.406-16.394-9.567-19.178-20.056-37.582-28.305-61.934a14.34 14.34 0 0 1-.313-6.986c1.926-7.233 9.32-6.096 12.778-2.175a14.053 14.053 0 0 1 2.223 3.443 188.588 188.588 0 0 0 17.734 29.295l19.76 26.082s5.895-5.519 6.701-7.875c.774-2.356 0-20.909 0-20.909s-1.185 3.559-4.33 3.559c-2.273 0-6.784 1.648-10.308-1.845a8.59 8.59 0 0 1-1.005-10.743l7.361-11.533a12.331 12.331 0 0 1 12.613-2.373 60.267 60.267 0 0 1 14.984 9.079 29.4 29.4 0 0 1 12.614 1.647c5.928 2.389 12.465 9.886 12.465 9.886s6.702 0 9.88 1.928c.79.494 12.053 15.718 9.188 28.339-1.647 7.53-2.322 18.338-3.112 21.271l-.198 72.842 13.601 48.275"/><path stroke="#D9D9D9" stroke-miterlimit="10" d="M503.127 421.195a129.798 129.798 0 0 1 4.479 32.953 17.794 17.794 0 0 0 .593 5.536 5.507 5.507 0 0 0 3.77 3.773m14.393-31.437c4.94 10.315-.115 33.365.247 34.98a5.83 5.83 0 0 0 .961 2.28 5.833 5.833 0 0 0 1.822 1.674m-45.48-51.159c-.576 3.295-1.053 7.068-1.646 10.347a19.022 19.022 0 0 1-6.587-13.181m-23.316 90.735-3.573 1.499m4.478 1.352a20.608 20.608 0 0 0 0 8.337m20.81-39.115c1.317 2.356 2.618 4.728 3.936 7.101m3.707-33.101 3.919-5.536m51.13 31.536-1.186 4.333"/><path stroke="#D9D9D9" stroke-miterlimit="10" d="M527.187 467.889a386.617 386.617 0 0 1 3.474-11.072m8.114-8.584a4.461 4.461 0 0 1 5.994 1.862m-29.655-20.76a8.506 8.506 0 0 1 7.921 1.812m-81.26 9.177a12.046 12.046 0 0 1 10.21-3.855m-25.08-27.219a11.036 11.036 0 0 1 8.233-1.944m-5.168 75.676a21.018 21.018 0 0 0-4.825 5.42m6.403-12.901c2.602-1.861 6.752 2.291 9.139.165a3.79 3.79 0 0 0 .807-3.559 12.335 12.335 0 0 1-.477-3.773m63.955-4.267a29.848 29.848 0 0 1 1.811 21.122m17.322-10.956a13.729 13.729 0 0 1-1.647 9.062"/><path fill="#0F0F0F" d="M364.892 498.964a10.02 10.02 0 0 1-.148 3.427c-1.071 4.943-4.166 19.409-5.303 27.318-1.35 9.655-16.944 39.543-16.944 39.543s-14.358 17.86-21.669 27.153c-3.59 4.564-9.271 23.067-14.096 40.63a396.524 396.524 0 0 1-18.113-5.964 540.316 540.316 0 0 1-14.819-5.553 241.962 241.962 0 0 1-25.721-12.522c2.734-9.885 4.561-17.58 4.528-18.025-.082-1.038 5.862-12.489 5.862-12.489l-5.186-68.344-3.063-10.396a78.177 78.177 0 0 1-3.014-16.477 79.695 79.695 0 0 1 2.125-25.258l8.941-13.28 4.182-.313 12.943-18.124s6.998-2.109 8.793 3.164c1.795 5.272-5.829 15.125-5.829 15.125l-2.618 16.262 6.224 15.224 3.293 1.187s1.087-26.807.346-32.162l6.751-24.369a116.025 116.025 0 0 0 5.368-12.291c1.252-4.103 8.612-8.238 12.844-.972a10.597 10.597 0 0 1 .659 8.683 654.207 654.207 0 0 1-3.162 8.98s-1.646 20.727-2.058 21.303c-.412.577 3.046 30.861 3.046 30.861l2.701 1.202.955-28.916 5.615-27.169s-.461-13.066 8.743-11.534a7.115 7.115 0 0 1 6.768 4.218c2.454 4.696.115 35.968.115 35.968l2.273 32.327 3.639 24.929 4.281-17.086s.247-24.484 15.693-26.577c0 0 4.594-.824 5.532 2.373.939 3.196-2.289 9.721-1.828 15.982.412 4.448 1.038 9.408 1.351 11.962Z" opacity=".2"/><path fill="#0F0F0F" d="M360.198 468.697c-.708-3.296-5.335-2.785-5.335-2.785-15.561.923-17.652 25.324-17.652 25.324l-5.582 16.707-1.647-25.143.165-32.409s4.709-31.008 2.618-35.869a7.103 7.103 0 0 0-6.439-4.712c-9.056-2.274-9.583 10.792-9.583 10.792l-7.64 26.659-3.146 28.751-2.601-1.384s-1.235-30.514-.708-31.025c.527-.511 3.655-21.073 3.655-21.073s1.729-3.839 3.837-8.716a10.596 10.596 0 0 0 0-8.716c-3.672-7.48-11.312-3.987-12.893 0a115.986 115.986 0 0 1-6.257 11.846l-8.728 23.875c.33 5.404-2.766 32.063-2.766 32.063l-3.145-1.434-5.055-15.652 3.853-16.032s8.348-9.227 6.949-14.631c-1.4-5.404-8.53-3.822-8.53-3.822l-14.342 17.036h-4.199l-9.88 12.539a79.568 79.568 0 0 0-2.272 41.668l2.272 10.595v68.475s-6.784 10.973-6.784 12.011c0 .478-2.799 9.128-6.702 19.92 17.076 10.051 31.78 17.828 42.203 21.93 4.94 1.945 9.88 3.79 14.82 5.553 6.257-17.58 13.569-36.38 17.603-40.779 8.002-8.699 23.678-25.439 23.678-25.439s17.801-28.62 19.892-38.127c1.647-7.809 5.895-21.996 7.344-26.856a9.53 9.53 0 0 0 .395-3.411c-.115-2.57-.362-7.562-.362-11.962-.066-6.244 3.655-12.522 2.964-15.767Z"/><mask id="b" width="130" height="232" x="231" y="400" maskUnits="userSpaceOnUse" style="mask-type:luminance"><path fill="#fff" d="M360.2 468.697c-.708-3.296-5.335-2.785-5.335-2.785-15.561.923-17.652 25.324-17.652 25.324l-5.582 16.707-1.647-25.143.165-32.409s4.709-31.008 2.618-35.869a7.103 7.103 0 0 0-6.439-4.712c-9.056-2.274-9.583 10.792-9.583 10.792l-7.64 26.659-3.146 28.751-2.601-1.384s-1.235-30.514-.708-31.025c.527-.511 3.655-21.073 3.655-21.073s1.729-3.839 3.837-8.716a10.596 10.596 0 0 0 0-8.716c-3.672-7.48-11.313-3.987-12.893 0a115.796 115.796 0 0 1-6.258 11.846l-8.727 23.875c.33 5.404-2.766 32.063-2.766 32.063l-3.145-1.434-5.055-15.652 3.853-16.032s8.348-9.227 6.949-14.631c-1.4-5.404-8.53-3.822-8.53-3.822l-14.342 17.036h-4.199l-9.88 12.539a79.568 79.568 0 0 0-2.272 41.668l2.272 10.595v68.475s-6.784 10.973-6.784 12.011c0 .478-2.799 9.128-6.702 19.92 17.076 10.051 31.78 17.828 42.203 21.93 4.94 1.945 9.88 3.79 14.82 5.553 6.257-17.58 13.569-36.38 17.603-40.779 8.002-8.699 23.678-25.439 23.678-25.439s17.801-28.62 19.892-38.127c1.646-7.809 5.895-21.996 7.344-26.856a9.53 9.53 0 0 0 .395-3.411c-.115-2.57-.362-7.562-.362-11.962-.066-6.244 3.655-12.522 2.964-15.767Z"/></mask><g mask="url(#b)"><path fill="#FDFC00" d="M253.332 461.81c2.668-3.296 8.135-4.597 11.23-1.648a11.819 11.819 0 0 1 2.816 6.59 14.063 14.063 0 0 0 2.486 6.789c1.647 1.862 4.759 2.587 6.422.807.231 3.608.445 7.217.675 10.825a42.933 42.933 0 0 0 5.665-22.111c0-3.74-.642-7.546.23-11.204.873-3.658 3.689-7.184 7.443-7.365 4.15-.181 7.427 3.855 8.233 7.942.807 4.086-.131 8.238-.378 12.423a37.817 37.817 0 0 0 3.556 18.47l2.619-5.306c.79 3.559 1.646 7.102 2.354 10.644l2.042-23.413a17.07 17.07 0 0 1 1.433-6.426 5.695 5.695 0 0 1 5.285-3.295c2.964.297 4.677 3.46 5.665 6.261 7.426 21.007 4.363 44.058 1.218 66.103 2.059.379 3.804-1.648 4.315-3.74a47.683 47.683 0 0 1 1.103-6.162c.774-1.961 3.145-3.559 4.94-2.439 2.601 1.648.79 6.69 3.507 8.09a37.615 37.615 0 0 1 7.459-18.008c1.828-2.373 4.562-4.729 7.46-3.971a5.854 5.854 0 0 1 2.67 1.903 5.857 5.857 0 0 1 1.232 3.04c.313 2.208 3.508-6.92 2.948-4.762 1.251-12.703-1.252-14.038 0-26.758.23-2.29 3.935-6.26 2.354-7.941-1.58-1.681-5.977-3.954-7.969-3.032-1.993.923-8.448 4.152-9.732 5.915-8.101 11.188-7.542 27.367-10.061 40.944-2.157-20.694-4.281-41.735-.494-62.182 2.091-11.286 5.944-23.067 2.305-33.924-1.646-4.943-6.076-9.886-11.23-8.997-4.149.758-6.586 4.943-8.348 8.832-5.665 13.016-8.233 27.153-10.67 41.191l9.254-42.262a28.611 28.611 0 0 0 .955-11.105c-.675-3.691-3.195-7.299-6.85-8.074-3.656-.774-7.245 1.384-9.979 3.889-9.88 8.963-13.436 22.638-16.631 35.523a25.594 25.594 0 0 0 1.91-10.397c-.346-3.526-2.585-7.118-6.043-7.892-4.495-.972-8.563 3.032-10.539 7.167-1.975 4.136-2.931 8.93-6.076 12.275-2.288-2.57-6.586-2.422-9.451-.511a18.276 18.276 0 0 0-6.011 8.238 76.69 76.69 0 0 0-6.372 37.039 13.553 13.553 0 0 1 13.519-7.711c-.329-2.801-.642-5.602-.972-8.419"/><path fill="#FDFC00" d="M264.185 488.617c-.148 2.076-.28 4.152-.428 6.228.185-.414.461-.78.807-1.072a3.004 3.004 0 0 1 2.535-.64c.443.091.86.282 1.219.558a6.828 6.828 0 0 1 1.037-3.855c.527-1.252.577-3.032-.642-3.625-1.218-.593-2.865.956-3.639 2.373 0-.511-.115-1.022-.181-1.549l-.708 1.582Zm23.612-3.724a14.569 14.569 0 0 0-3.293 6.887 7.096 7.096 0 0 1 2.42-1.779 2.437 2.437 0 0 1 2.734.626c.362.494.494 1.219 1.054 1.499a1.298 1.298 0 0 0 1.646-.593 3.75 3.75 0 0 0 .412-1.812 10.032 10.032 0 0 0-.198-3.576 3.479 3.479 0 0 0-2.371-2.488 2.144 2.144 0 0 0-2.585 1.813l.181-.577Zm22.874 5.668a18.713 18.713 0 0 0-3.458 8.238 7.217 7.217 0 0 0 3.211-1.73 6.356 6.356 0 0 1 3.293-1.648 2.291 2.291 0 0 1 2.552 2.01 15.524 15.524 0 0 1 .132-4.185 8.828 8.828 0 0 0-.296-4.152 3.511 3.511 0 0 0-3.178-2.339 2.2 2.2 0 0 0-1.718.993 2.22 2.22 0 0 0-.225 1.972l-.313.841Zm-62.921 8.271a16.486 16.486 0 0 0-1.927 7.744 2.7 2.7 0 0 1 2.421-2.406 5.404 5.404 0 0 1 3.507.939 9.533 9.533 0 0 0 .231-3.789 3.302 3.302 0 0 0-2.404-2.636c-1.268-.198-2.652 1.005-2.306 2.224l-.378-.939.856-1.137Z"/><path fill="#0F0F0F" d="M253.332 461.81c2.668-3.296 8.135-4.597 11.23-1.648a11.819 11.819 0 0 1 2.816 6.59 14.063 14.063 0 0 0 2.486 6.789c1.647 1.862 4.759 2.587 6.422.807.231 3.608.445 7.217.675 10.825a42.933 42.933 0 0 0 5.665-22.111c0-3.74-.642-7.546.23-11.204.873-3.658 3.689-7.184 7.443-7.365 4.15-.181 7.427 3.855 8.233 7.942.807 4.086-.131 8.238-.378 12.423a37.817 37.817 0 0 0 3.556 18.47l2.619-5.306c.79 3.559 1.646 7.102 2.354 10.644l2.042-23.413a17.07 17.07 0 0 1 1.433-6.426 5.695 5.695 0 0 1 5.285-3.295c2.964.297 4.677 3.46 5.665 6.261 7.426 21.007 4.363 44.058 1.218 66.103 2.059.379 3.804-1.648 4.315-3.74a47.683 47.683 0 0 1 1.103-6.162c.774-1.961 3.145-3.559 4.94-2.439 2.601 1.648.79 6.69 3.507 8.09a37.615 37.615 0 0 1 7.459-18.008c1.828-2.373 4.562-4.729 7.46-3.971a5.854 5.854 0 0 1 2.67 1.903 5.857 5.857 0 0 1 1.232 3.04c.313 2.208 3.508-6.92 2.948-4.762 1.251-12.703-1.252-14.038 0-26.758.23-2.29 3.935-6.26 2.354-7.941-1.58-1.681-5.977-3.954-7.969-3.032-1.993.923-8.448 4.152-9.732 5.915-8.101 11.188-7.542 27.367-10.061 40.944-2.157-20.694-4.281-41.735-.494-62.182 2.091-11.286 5.944-23.067 2.305-33.924-1.646-4.943-6.076-9.886-11.23-8.997-4.149.758-6.586 4.943-8.348 8.832-5.665 13.016-8.233 27.153-10.67 41.191l9.254-42.262a28.611 28.611 0 0 0 .955-11.105c-.675-3.691-3.195-7.299-6.85-8.074-3.656-.774-7.245 1.384-9.979 3.889-9.88 8.963-13.436 22.638-16.631 35.523a25.594 25.594 0 0 0 1.91-10.397c-.346-3.526-2.585-7.118-6.043-7.892-4.495-.972-8.563 3.032-10.539 7.167-1.975 4.136-2.931 8.93-6.076 12.275-2.288-2.57-6.586-2.422-9.451-.511a18.276 18.276 0 0 0-6.011 8.238 76.69 76.69 0 0 0-6.372 37.039 13.553 13.553 0 0 1 13.519-7.711c-.329-2.801-.642-5.602-.972-8.419" opacity=".5"/><path fill="#0F0F0F" d="M264.184 488.617c-.148 2.076-.28 4.152-.428 6.228.185-.414.461-.78.808-1.071a2.983 2.983 0 0 1 2.534-.641c.443.091.86.282 1.219.558a6.828 6.828 0 0 1 1.037-3.855c.527-1.252.577-3.032-.642-3.625-1.218-.593-2.865.956-3.639 2.373 0-.511-.115-1.022-.181-1.549l-.708 1.582Zm23.612-3.724a14.569 14.569 0 0 0-3.293 6.887 7.096 7.096 0 0 1 2.42-1.779 2.437 2.437 0 0 1 2.734.626c.362.494.494 1.219 1.054 1.499a1.298 1.298 0 0 0 1.646-.593 3.75 3.75 0 0 0 .412-1.812 10.032 10.032 0 0 0-.198-3.576 3.479 3.479 0 0 0-2.371-2.488 2.144 2.144 0 0 0-2.585 1.813l.181-.577Zm22.874 5.668a18.713 18.713 0 0 0-3.458 8.238 7.217 7.217 0 0 0 3.211-1.73 6.363 6.363 0 0 1 3.293-1.648 2.282 2.282 0 0 1 2.277 1.156c.147.264.241.554.275.855a15.522 15.522 0 0 1 .132-4.185 8.831 8.831 0 0 0-.296-4.153 3.509 3.509 0 0 0-3.178-2.339 2.2 2.2 0 0 0-1.718.994 2.211 2.211 0 0 0-.225 1.972l-.313.84Zm-62.92 8.271a16.49 16.49 0 0 0-1.927 7.744 2.7 2.7 0 0 1 2.421-2.406 5.404 5.404 0 0 1 3.507.939 9.532 9.532 0 0 0 .231-3.789 3.302 3.302 0 0 0-2.404-2.636c-1.268-.198-2.652 1.005-2.306 2.224l-.378-.939.856-1.137Z" opacity=".5"/></g><path stroke="#D9D9D9" stroke-miterlimit="10" stroke-width="1.5" d="M231.613 603.588c3.903-10.792 6.702-19.442 6.702-19.92 0-1.038 6.784-12.011 6.784-12.011v-68.475l-2.272-10.595a79.579 79.579 0 0 1 2.272-41.668l9.88-12.539h4.199l14.26-17.069s7.146-1.648 8.53 3.822c1.383 5.47-6.949 14.631-6.949 14.631l-3.853 16.032 5.055 15.652 3.145 1.434s3.095-26.659 2.766-32.063l8.727-23.875a115.796 115.796 0 0 0 6.258-11.846c1.646-3.987 9.221-7.48 12.893 0a10.596 10.596 0 0 1 0 8.716c-2.108 4.943-3.837 8.716-3.837 8.716s-3.129 20.546-3.655 21.073c-.527.527.708 31.025.708 31.025l2.601 1.384 3.145-28.751 7.641-26.659s.527-13.066 9.583-10.792a7.094 7.094 0 0 1 6.439 4.712c2.091 4.861-2.619 35.869-2.619 35.869l-.115 32.442 1.647 25.143 5.582-16.707s2.091-24.401 17.652-25.324c0 0 4.627-.478 5.335 2.785.708 3.262-3.03 9.523-3.03 15.8 0 4.4.247 9.392.362 11.962a9.486 9.486 0 0 1-.395 3.411c-1.449 4.943-5.631 19.046-7.344 26.856-2.091 9.507-19.891 38.126-19.891 38.126s-15.676 16.74-23.679 25.44c-4.034 4.399-11.345 23.199-17.602 40.779"/><path fill="#0F0F0F" d="M279.183 475.452a9.886 9.886 0 0 1-2.338 9.391"/><path stroke="#D9D9D9" stroke-miterlimit="10" d="M279.183 475.452a9.886 9.886 0 0 1-2.338 9.391"/><path fill="#0F0F0F" d="M252.572 498.486c2.256-3.493 4.463-8.321 3.853-12.44-1.185-8.09-4.94-17.399-3.293-25.406 1.054-5.108 2.108-10.232 3.178-15.34"/><path stroke="#D9D9D9" stroke-miterlimit="10" d="M252.572 498.486c2.256-3.493 4.463-8.321 3.853-12.44-1.185-8.09-4.94-17.399-3.293-25.406 1.054-5.108 2.108-10.232 3.178-15.34m61.917-23.231a16.134 16.134 0 0 1 8.233 0c0-.775 0-1.533.082-2.307m-29.935-7.975a5.263 5.263 0 0 0 7.494-1.664 5.283 5.283 0 0 0 .74-2.735m51.273 61.589a10.096 10.096 0 0 0-7.558 10.429l4.034 1.219"/><path fill="#0F0F0F" d="M303.126 470.987c.181 2.768-.165 9.375 0 12.143v-12.143Z"/><path stroke="#D9D9D9" stroke-miterlimit="10" d="M303.126 470.987c.181 2.768-.165 9.375 0 12.143"/><path fill="#0F0F0F" d="M306.159 474.826c-.33 4.514-.664 9.04-1.005 13.576v-1.73"/><path stroke="#D9D9D9" stroke-miterlimit="10" d="M306.159 474.826c-.33 4.514-.664 9.04-1.005 13.576v-1.73"/><path fill="#0F0F0F" d="M331.283 513.001a22.643 22.643 0 0 1-1.548 14.928l1.548-14.928Z"/><path stroke="#D9D9D9" stroke-miterlimit="10" d="M331.283 513.001a22.643 22.643 0 0 1-1.548 14.928m-40.193-38.67c-3.59 3.938-3.063 13.395-.527 18.585m27.056-12.077a18.506 18.506 0 0 1-4.396 12.077m-48.282-16.773a16.85 16.85 0 0 0 2.453 11.534m-17.733.84a14.065 14.065 0 0 0 2.536 8.799m18.411-84.755a5.219 5.219 0 0 1 5.763.923l2.025-2.686m9.102 13.857a6.845 6.845 0 0 1 8.711 1.466m17.673 6.772a11.03 11.03 0 0 1 9.369.198m-68.072 13.626a8.907 8.907 0 0 1 8.628-4.284m-19.68 20.035a4.683 4.683 0 0 1 3.903-4.383"/><path stroke="#1C1C1C" stroke-linecap="round" stroke-linejoin="round" d="M666.869 358.997c37.696 0 68.254-30.576 68.254-68.294 0-37.718-30.558-68.295-68.254-68.295-37.695 0-68.253 30.577-68.253 68.295s30.558 68.294 68.253 68.294Z"/><path fill="#0F0F0F" d="M744.129 292.499c-14.556 23.874-19.76 20.645-69.356 44.486-25.21 12.094-49.564-26.741-33.081-66.597.807-1.945 7.92-11.781 7.92-11.781a36.384 36.384 0 0 1 9.637-17.536 36.342 36.342 0 0 1 53.89 2.51 39.244 39.244 0 0 1 34.876-8.337c.576 1.647 1.12 3.295 1.647 4.942.197.627.411 1.236.593 1.862a147.372 147.372 0 0 1 1.761 5.8 244.893 244.893 0 0 1 3.03 11.138 22.3 22.3 0 0 0-16.203.972c-3.639 1.779-6.685 4.712-10.472 6.162-3.788 1.45-9.024.626-10.473-3.163 1.828 7.612 9.88 5.338 17.487 6.837 11.856 2.291 14.87 12.654 8.744 22.705Z" opacity=".2"/><path fill="#fff" stroke="#1C1C1C" stroke-linecap="round" stroke-linejoin="round" d="M721.717 280.718s12.218-1.648 18.014-.774a11.111 11.111 0 0 1 7.097 4.02c.498.627.791 1.392.84 2.191l.658 9.557a3.904 3.904 0 0 1-1.054 2.949c-2.387 2.488-9.583 7.019-30.891 8.65-30.018 2.29 5.336-26.593 5.336-26.593Z"/><path fill="#fff" stroke="#1C1C1C" stroke-linecap="round" stroke-linejoin="round" d="M712.777 256.02a45.644 45.644 0 0 1 10.012 29.097c0 11.386-13.174 50.27-46.913 55.015-35.716 4.943-64.433-25.571-58.308-62.38 4.249-25.505 66.541-57.387 95.209-21.732Z"/><path fill="#fff" d="M669.14 331.581c28.619 0 51.82-21.976 51.82-49.083 0-27.108-23.201-49.083-51.82-49.083s-51.82 21.975-51.82 49.083c0 27.107 23.201 49.083 51.82 49.083Z"/><path fill="#1C1C1C" d="M669.044 325.353c23.499 0 42.549-18.036 42.549-40.285 0-22.249-19.05-40.285-42.549-40.285s-42.549 18.036-42.549 40.285c0 22.249 19.05 40.285 42.549 40.285Z"/><path stroke="#1C1C1C" stroke-linecap="round" stroke-linejoin="round" d="M720.96 282.498c0-27.104-23.201-49.067-51.82-49.067s-51.82 22.029-51.82 49.067m89.991 33.216a47.452 47.452 0 0 0 13.667-33.216m-88.128 35.028a53.134 53.134 0 0 0 36.226 14.055 54.077 54.077 0 0 0 24.058-5.586m-67.761-17.218a48.41 48.41 0 0 0 2.14 2.966m-10.193-29.245a46.81 46.81 0 0 0 4.94 20.941"/><path fill="#fff" d="M745.186 295.942s-9.238-6.475-24.239-.609l24.239.609Z"/><path stroke="#1C1C1C" stroke-linecap="round" stroke-linejoin="round" d="M745.186 295.942s-9.238-6.475-24.239-.609"/><path fill="#fff" d="M737.247 300.424a93.953 93.953 0 0 1-19.166 3.015l19.166-3.015Z"/><path stroke="#1C1C1C" stroke-linecap="round" stroke-linejoin="round" d="M737.247 300.424a93.953 93.953 0 0 1-19.166 3.015"/><path fill="#fff" d="M742.036 298.381a8.964 8.964 0 0 1-2.305 1.203l2.305-1.203Z"/><path stroke="#1C1C1C" stroke-linecap="round" stroke-linejoin="round" d="M742.036 298.381a8.964 8.964 0 0 1-2.305 1.203"/><path fill="#fff" d="M750.254 241.999c-.181-.626-.395-1.236-.593-1.862-3.145-9.754-7.196-20.464-12.119-31.766-.906-2.093-1.861-4.218-2.816-6.36l-1.103.099c-4.726.477-9.699 1.071-13.585 3.756-3.886 2.686-6.208 8.354-3.689 12.39 2.52 4.037 8.942 6.228 7.921 10.792-10.555 5.948-23.432 5.256-35.172 8.239a57.22 57.22 0 0 0-19.661 9.276 60.371 60.371 0 0 0-5.335 4.481 21.015 21.015 0 0 0-2.174 2.34 8.06 8.06 0 0 0-1.861 4.185c-.411 4.399 3.59 7.398 7.855 9.309a.955.955 0 0 1 0 1.779 24.528 24.528 0 0 0-7.69 4.449 1.91 1.91 0 0 0 1.647 3.295h.658c1.67-.137 3.35.065 4.94.594a5.977 5.977 0 0 1 4.463 4.712c.263 3.295-3.541 6.36-8.481 6.739-1.202.115-.28 1.548 1.482 1.845 3.535.43 7.12.138 10.539-.857 4.133-.988 8.546-2.422 10.884-5.964a7.455 7.455 0 0 0 .988-5.24 5.303 5.303 0 0 0-4.38-4.811 143.88 143.88 0 0 0 22.592-4.531l2.322-.708a21.643 21.643 0 0 0 6.372-2.785 8.881 8.881 0 0 0 2.783-3.064c1.647-3.296-.708-8.552-4.364-7.86 10.621-4.168 21.851-6.59 32.587-10.446 1.565-.642 3.31-1.301 4.99-2.026Z"/><path fill="#0F0F0F" d="M668.841 99.479a209.007 209.007 0 0 1-32.768 23.066c-59.954 35.49-127.68 56.745-196.575 67.108-68.896 10.364-139.043 10.051-208.465 4.334-13.634-1.121-27.499-2.505-40.03-8.008-10.621-4.679-20.253-12.818-24.699-23.347 15.034-17.135 29.014-34.468 44.574-50.829a434.26 434.26 0 0 1 11.395-11.534c3.293-3.147 6.587-6.244 10.11-9.276 3.985-3.41 7.987-6.887 12.218-10.182a234.022 234.022 0 0 1 18.591-13.082c1.647-1.038 3.293-2.043 4.825-3.032 164.186-102.153 285.033-68.772 365.652 0a388.755 388.755 0 0 1 17.652 16.114 212.897 212.897 0 0 1 9.88 10.199c.362.362.692.741 1.037 1.137a325.688 325.688 0 0 1 6.603 7.332Z" opacity=".2"/><path fill="#fff" stroke="#1C1C1C" stroke-linecap="round" stroke-linejoin="round" d="m675.332 83.101-552.398 2.521 8.348-12.538a21.69 21.69 0 0 1 18.014-9.64H649.15a21.626 21.626 0 0 1 16.862 8.09l9.32 11.567Z"/><path fill="#2F2F2F" stroke="#1C1C1C" stroke-linecap="round" stroke-linejoin="round" d="M408.755 165.944H378.49c-31.057 0-56.233 25.192-56.233 56.267v30.283c0 31.075 25.176 56.267 56.233 56.267h30.265c31.056 0 56.232-25.192 56.232-56.267v-30.283c0-31.075-25.176-56.267-56.232-56.267Z"/><path fill="#2F2F2F" stroke="#1C1C1C" stroke-linecap="round" stroke-linejoin="round" d="M348.194 249.43v20.299a11.54 11.54 0 0 0 3.376 8.155 11.525 11.525 0 0 0 8.151 3.378h69.603a11.526 11.526 0 0 0 11.527-11.451c.082-9.144.576-20.381.576-20.381h-93.233Z"/><path fill="gray" stroke="#1C1C1C" stroke-linecap="round" stroke-linejoin="round" d="M602.946 256.201H195.881a10.42 10.42 0 0 1-9.715-6.59L123.379 88.324a6.429 6.429 0 0 1 5.961-8.765h540.098a6.42 6.42 0 0 1 6.393 5.697 6.425 6.425 0 0 1-.4 3.068l-62.786 161.237a10.425 10.425 0 0 1-9.699 6.64Z"/><path fill="#1C1C1C" d="M605.959 242.163h-414.08l-56.974-152.39h527.764l-56.71 152.39Zm-165.008 13.824h-92.31v6.327h92.31v-6.327Z"/><path fill="#FDFC00" d="M545.479 235.688h-292.41c-1.647 0-3.129-.725-3.425-1.647L208.05 101.752c-.461-1.483.84-2.685 2.914-2.685h376.62c2.074 0 3.293 1.202 2.898 2.685l-41.578 132.289c-.296.84-1.828 1.647-3.425 1.647Z"/><path fill="#1C1C1C" d="M544.391 232.607H254.154l-35.353-116.174h360.943l-35.353 116.174Z"/><path fill="#fff" d="M295.816 145.283h-54.948c-1.367 0-2.256.725-1.993 1.647.264.533.681.974 1.198 1.267a2.97 2.97 0 0 0 1.7.381h54.636c1.35 0 2.305-.725 2.157-1.648-.148-.922-1.4-1.647-2.75-1.647Zm1.824 10.034h-46.731c-1.334 0-2.223.708-1.976 1.647a2.915 2.915 0 0 0 2.816 1.566h46.468c1.333 0 2.272-.709 2.124-1.566-.148-.856-1.4-1.647-2.701-1.647Z"/><path fill="#fff" d="M299.421 165.005h-53.022c-1.317 0-2.173.692-1.943 1.516a2.904 2.904 0 0 0 2.8 1.516h52.692c1.301 0 2.24-.676 2.091-1.516-.148-.841-1.3-1.516-2.618-1.516Z" opacity=".5"/><path fill="#fff" d="M301.131 174.363h-31.138c-1.285 0-2.174.659-1.976 1.467.197.807 1.399 1.466 2.684 1.466h30.973c1.284 0 2.207-.659 2.058-1.466-.148-.808-1.317-1.467-2.601-1.467Zm1.663 9.03H251.55c-1.251 0-2.107.642-1.877 1.433.231.791 1.416 1.401 2.684 1.401h50.947c1.268 0 2.174-.627 2.042-1.401-.132-.774-1.284-1.433-2.552-1.433Zm1.599 8.748H263.03c-1.252 0-2.091.61-1.894 1.368.198.758 1.367 1.367 2.602 1.367h41.166c1.235 0 2.124-.609 1.992-1.367-.131-.758-1.251-1.368-2.503-1.368Zm1.548 8.453h-40.689c-1.235 0-2.058.593-1.86 1.318.197.725 1.333 1.334 2.552 1.334h40.491c1.218 0 2.091-.593 1.959-1.334-.132-.742-1.218-1.318-2.453-1.318Zm1.498 8.172H262.98c-1.202 0-2.025.577-1.828 1.285.198.709 1.318 1.285 2.52 1.285h44.179c1.202 0 2.075-.576 1.943-1.285-.132-.708-1.136-1.285-2.355-1.285Z"/><path fill="#fff" d="M308.904 216.691H280.22c-1.186 0-2.009.56-1.845 1.252.165.692 1.268 1.236 2.437 1.236h28.537c1.185 0 2.042-.56 1.926-1.236-.115-.675-1.185-1.252-2.371-1.252Zm-15-81.821h-40.952c-1.383 0-2.305.758-2.058 1.647a2.96 2.96 0 0 0 2.914 1.648h40.705c1.383 0 2.355-.741 2.19-1.648a2.736 2.736 0 0 0-2.799-1.647Z" opacity=".5"/><path fill="#fff" d="M291.913 124.078h-57.007c-1.399 0-2.321.791-2.041 1.763a3.154 3.154 0 0 0 3.029 1.746h56.661c1.4 0 2.404-.791 2.223-1.746a2.783 2.783 0 0 0-2.865-1.763Zm18.39 100.291h-47.242c-1.169 0-1.959.544-1.778 1.203.181.659 1.284 1.203 2.453 1.203h47.012c1.152 0 2.009-.528 1.893-1.203-.115-.676-1.169-1.203-2.338-1.203Z"/><path fill="#fff" d="M315.112 148.941h10.654l-.527-4.07h-10.736l.609 4.07Zm1.484 9.918h10.472l-.51-3.938h-10.555l.593 3.938Zm1.429 9.557h10.291l-.494-3.79h-10.357l.56 3.79Zm1.388 9.243h10.126l-.494-3.658h-10.176l.544 3.658Zm1.35 8.93h9.946l-.478-3.542h-9.995l.527 3.542Zm1.281 8.633h9.781l-.445-3.427h-9.847l.511 3.427Zm1.27 8.354h9.617l-.428-3.312h-9.683l.494 3.312Zm1.202 8.073h9.468l-.412-3.196h-9.534l.478 3.196Zm1.186 7.843h9.32l-.412-3.114h-9.385l.477 3.114Zm-12.137-80.816h10.852l-.544-4.218h-10.934l.626 4.218Zm-1.6-10.66h11.049l-.56-4.383h-11.147l.658 4.383Zm14.869 99.072h9.172l-.395-3.015h-9.238l.461 3.015Z" opacity=".5"/><path fill="#fff" d="M383.002 210.051c0-.708.922-1.285 2.124-1.285h157.781c1.202 0 2.009.577 1.811 1.285a2.663 2.663 0 0 1-2.535 1.285H385.208c-1.202 0-2.19-.576-2.206-1.285Zm161.502-6.805h-87.371c-1.218 0-2.14-.593-2.058-1.334.082-.742 1.136-1.318 2.371-1.318h87.815c1.219 0 2.042.593 1.828 1.318a2.679 2.679 0 0 1-2.585 1.334Z"/><path fill="#fff" d="M436.405 203.246h-27.137c-1.218 0-2.206-.593-2.19-1.334.017-.742 1.005-1.318 2.24-1.318h27.285c1.218 0 2.173.593 2.107 1.318-.066.725-1.087 1.334-2.305 1.334Z" opacity=".5"/><path fill="#fff" d="M493.116 194.876H369.882c-1.235 0-2.273-.609-2.322-1.367-.049-.758.922-1.368 2.173-1.368h123.894c1.235 0 2.14.61 1.992 1.368-.148.758-1.251 1.367-2.503 1.367Z"/><path fill="#fff" d="M344.111 192.141h8.793c1.235 0 2.305.61 2.371 1.368.066.758-.889 1.367-2.124 1.367h-8.744c-1.235 0-2.305-.609-2.387-1.367-.083-.758.856-1.368 2.091-1.368Z" opacity=".5"/><path fill="#fff" d="M510.949 184.826c-.165.774-1.318 1.401-2.586 1.401h-116.12c-1.268 0-2.289-.627-2.306-1.401-.016-.774 1.005-1.433 2.256-1.433h116.763c1.268 0 2.157.642 1.993 1.433Zm-167.76-1.433h32.932c1.268 0 2.322.642 2.355 1.433.033.791-.972 1.401-2.223 1.401h-32.768c-1.251 0-2.338-.627-2.437-1.401-.099-.774.873-1.433 2.141-1.433Zm-.975-9.03h126.692c1.285 0 2.24.659 2.124 1.467-.115.807-1.235 1.466-2.519 1.466H342.527c-1.268 0-2.388-.659-2.47-1.466-.083-.808.872-1.467 2.157-1.467Zm82.252-6.326c-1.3 0-2.321-.676-2.288-1.516.032-.841 1.119-1.516 2.437-1.516h66.837c1.317 0 2.256.692 2.107 1.516-.148.824-1.317 1.516-2.618 1.516h-66.475Zm-83.238-3.032h57.846c1.318 0 2.372.692 2.372 1.516 0 .824-1.071 1.516-2.372 1.516h-57.517c-1.317 0-2.437-.676-2.536-1.516-.098-.841.89-1.516 2.207-1.516Zm216.119-6.541H398.101c-1.317 0-2.404-.709-2.404-1.565 0-.857 1.07-1.648 2.404-1.648h160.135c1.334 0 2.207.708 1.96 1.648a2.979 2.979 0 0 1-2.849 1.565Zm2.836-9.919H420.071c-1.35 0-2.421-.725-2.388-1.648.033-.922 1.153-1.647 2.503-1.647h140.936c1.35 0 2.24.725 1.976 1.647a3.01 3.01 0 0 1-2.915 1.648Z"/><path fill="#fff" d="M563.145 138.247h-29.343c-1.383 0-2.322-.741-2.108-1.647a2.917 2.917 0 0 1 2.898-1.648h29.458c1.384 0 2.289.758 2.009 1.648a3.058 3.058 0 0 1-2.914 1.647Z" opacity=".5"/><path fill="#fff" d="M513.267 138.247h-107.74c-1.366 0-2.486-.741-2.47-1.647.017-.906 1.12-1.648 2.503-1.648h108.382c1.383 0 2.338.758 2.157 1.648a2.811 2.811 0 0 1-2.832 1.647Zm-166.57 78.444h99.506c1.186 0 2.092.56 2.009 1.252-.082.692-1.07 1.236-2.256 1.236H347.01c-1.186 0-2.207-.56-2.289-1.236-.082-.675.823-1.252 1.976-1.252Zm.855 7.678h152.874c1.152 0 1.992.544 1.844 1.203-.148.659-1.186 1.203-2.355 1.203h-152.1c-1.169 0-2.173-.528-2.239-1.203-.066-.676.807-1.203 1.976-1.203Zm160.366-96.782h-77.82c-1.399 0-2.486-.791-2.437-1.746.05-.956 1.219-1.763 2.635-1.763h78.281c1.416 0 2.404.791 2.223 1.763a2.865 2.865 0 0 1-2.882 1.746Z"/><path fill="#fff" d="M408.035 127.587h-70.806c-1.399 0-2.634-.791-2.733-1.746-.099-.956.938-1.763 2.354-1.763h71.218c1.399 0 2.535.791 2.519 1.763-.017.972-1.153 1.746-2.552 1.746Zm60.263 89.104c1.185 0 2.074.56 1.975 1.252-.098.692-1.136 1.236-2.321 1.236h-7.641c-1.169 0-2.058-.56-1.976-1.236.083-.675 1.104-1.252 2.289-1.252h7.674Zm-94.368-6.64c0 .709-.906 1.285-2.108 1.285h-10.473c-1.202 0-2.223-.576-2.272-1.285-.049-.708.873-1.285 2.075-1.285h10.522c1.202 0 2.223.56 2.256 1.285Zm126.381-34.221c-.148.807-1.317 1.466-2.585 1.466h-12.251c-1.284 0-2.207-.659-2.091-1.466.115-.808 1.284-1.467 2.569-1.467h12.316c1.285 0 2.207.659 2.042 1.467Zm38.22 7.562c1.268 0 2.124.643 1.91 1.434a2.742 2.742 0 0 1-2.651 1.4h-9.765c-1.268 0-2.124-.626-1.943-1.4a2.672 2.672 0 0 1 2.635-1.434h9.814Zm-159.71-24.928c-1.318 0-2.421-.709-2.47-1.565-.05-.857 1.021-1.648 2.354-1.648h10.391c1.334 0 2.42.708 2.437 1.648.016.939-1.054 1.565-2.371 1.565h-10.341Z" opacity=".5"/><path fill="#fff" d="M237.31 107.733a3.512 3.512 0 0 1-3.458 4.943 7.313 7.313 0 0 1-6.488-4.943 3.515 3.515 0 0 1 1.673-4.601 3.51 3.51 0 0 1 1.752-.342 7.277 7.277 0 0 1 6.521 4.943Zm13.404.083a3.632 3.632 0 0 1-1.847 4.615 3.621 3.621 0 0 1-1.776.327 7.027 7.027 0 0 1-6.323-4.942 3.646 3.646 0 0 1 .453-3.448 3.63 3.63 0 0 1 3.136-1.495 6.987 6.987 0 0 1 6.357 4.943Zm13.55-.083a3.738 3.738 0 0 1-3.77 4.943 6.729 6.729 0 0 1-6.175-4.943 3.765 3.765 0 0 1 .571-3.464 3.754 3.754 0 0 1 3.183-1.479 6.682 6.682 0 0 1 6.191 4.943Z"/><path fill="#fff" d="m134.905 89.774 44.377 118.679 53.532-118.68h-97.909Zm74.87 152.389 88.804-152.39h92.952l-130.693 152.39h-51.063ZM431.598 89.016 293.182 242.164h21.324l143.372-152.39-26.28-.758Zm27.333 153.147 152.117-152.39h21.472l-156.843 152.39h-16.746Z" opacity=".1"/><path fill="#fff" stroke="#1C1C1C" stroke-linecap="round" stroke-linejoin="round" d="M252.675 308.3h-34.728a8.234 8.234 0 0 0-8.233 8.238v16.904c0 2.185.867 4.281 2.411 5.826a8.23 8.23 0 0 0 5.822 2.413h9.073l6.883 15.603 9.699-15.603h9.073a8.23 8.23 0 0 0 5.821-2.413 8.243 8.243 0 0 0 2.412-5.826v-17.02a8.238 8.238 0 0 0-8.233-8.122Z"/><path fill="#1C1C1C" d="M230.477 317.971a1.647 1.647 0 0 1 2.772-1.206c.305.284.492.674.521 1.091a1.647 1.647 0 0 1-1.647 1.647 1.642 1.642 0 0 1-1.646-1.532Zm.362 3.444h2.651v11.302h-2.651v-11.302Zm9.023-.593v.675h3.096v2.126h-3.014v9.094h-2.651v-9.094h-1.86v-2.126h1.86v-.708a3.669 3.669 0 0 1 1.098-2.908 3.648 3.648 0 0 1 2.937-1.014 4.35 4.35 0 0 1 2.404.61l-.741 1.994a2.622 2.622 0 0 0-1.466-.462c-1.087 0-1.663.61-1.663 1.813Z"/><path fill="#fff" stroke="#1C1C1C" stroke-linecap="round" stroke-linejoin="round" d="M358.419 310.656h-34.777a8.239 8.239 0 0 0-8.233 8.238v16.921a8.24 8.24 0 0 0 8.233 8.238h9.09l6.866 15.603 9.699-15.603h9.089a8.24 8.24 0 0 0 8.234-8.238v-16.987a8.243 8.243 0 0 0-2.423-5.771 8.228 8.228 0 0 0-5.778-2.401Z"/><path fill="#1C1C1C" d="M330.99 330.279h-8.875a3.422 3.422 0 0 0 3.672 2.719 4.064 4.064 0 0 0 3.062-1.236l1.417 1.647a6.341 6.341 0 0 1-6.651 1.458 6.341 6.341 0 0 1-4.135-5.412 5.616 5.616 0 0 1 5.829-5.783 5.487 5.487 0 0 1 4.158 1.652 5.496 5.496 0 0 1 1.556 4.197c0 .198-.016.511-.033.758Zm-8.892-1.746h6.488a3.058 3.058 0 0 0-3.194-2.752 3.112 3.112 0 0 0-3.294 2.752Zm11.425-9.145h2.635v15.702h-2.635v-15.702Zm4.941 14.582 1.004-2.01a7.606 7.606 0 0 0 3.936 1.12c1.646 0 2.371-.461 2.371-1.252 0-2.159-6.982-.132-6.982-4.63 0-2.142 1.927-3.542 4.94-3.542a9.06 9.06 0 0 1 4.232.972l-1.021 2.01a6.207 6.207 0 0 0-3.293-.84c-1.647 0-2.371.527-2.371 1.268 0 2.29 6.981.247 6.981 4.679 0 2.109-1.943 3.493-5.121 3.493a8.879 8.879 0 0 1-4.676-1.268Zm22.676-3.691h-8.876a3.429 3.429 0 0 0 3.672 2.719 4.061 4.061 0 0 0 3.063-1.236l1.416 1.647a6.334 6.334 0 0 1-6.65 1.458 6.344 6.344 0 0 1-4.136-5.412 5.634 5.634 0 0 1 1.659-4.158 5.599 5.599 0 0 1 1.917-1.246 5.596 5.596 0 0 1 2.254-.379 5.48 5.48 0 0 1 2.254.384 5.494 5.494 0 0 1 3.459 5.465c0 .198-.016.511-.032.758Zm-8.892-1.746h6.405a3.058 3.058 0 0 0-3.194-2.752 3.11 3.11 0 0 0-3.211 2.752Z"/><path fill="#fff" stroke="#1C1C1C" stroke-linecap="round" stroke-linejoin="round" d="M460.944 309.667H426.2a8.234 8.234 0 0 0-8.233 8.156v16.921a8.24 8.24 0 0 0 2.411 5.825 8.23 8.23 0 0 0 5.822 2.413h9.089l6.867 15.603 9.699-15.603h9.089a8.23 8.23 0 0 0 5.822-2.413 8.24 8.24 0 0 0 2.411-5.825v-16.921a8.235 8.235 0 0 0-8.233-8.156Z"/><path fill="#1C1C1C" d="M434.165 322.189v.676h3.096v2.125h-3.03v9.095h-2.634v-9.095h-1.861v-2.125h1.861v-.709a3.662 3.662 0 0 1 1.092-2.901 3.651 3.651 0 0 1 2.925-1.02 4.181 4.181 0 0 1 2.388.61l-.741 1.993a2.537 2.537 0 0 0-1.449-.461c-1.07 0-1.647.609-1.647 1.812Zm3.792 6.245a6.03 6.03 0 0 1 7.061-6.171 6.026 6.026 0 0 1 4.856 4.686 6.036 6.036 0 0 1-2.531 6.258 6.023 6.023 0 0 1-3.376 1.026 5.709 5.709 0 0 1-4.269-1.588 5.72 5.72 0 0 1-1.741-4.211Zm9.369 0a3.298 3.298 0 0 0-2.194-2.863 3.291 3.291 0 0 0-4.335 2.553 3.287 3.287 0 0 0 1.435 3.309 3.288 3.288 0 0 0 4.222-.508 3.285 3.285 0 0 0 .872-2.491Zm11.72-5.784v2.521a4.42 4.42 0 0 0-.609 0 3.079 3.079 0 0 0-3.293 3.493v5.487h-2.651v-11.303h2.519v1.648a4.461 4.461 0 0 1 4.034-1.846Z"/><path fill="#fff" stroke="#1C1C1C" stroke-linecap="round" stroke-linejoin="round" d="M561.98 308.3h-34.744a8.235 8.235 0 0 0-8.233 8.238v16.904a8.232 8.232 0 0 0 8.233 8.239h9.09l6.866 15.603 9.699-15.603h9.089a8.23 8.23 0 0 0 5.822-2.413 8.242 8.242 0 0 0 2.411-5.826v-17.02a8.241 8.241 0 0 0-2.451-5.75 8.225 8.225 0 0 0-5.782-2.372Z"/><path fill="#1C1C1C" d="M540.095 320.854h9.748v2.159h-9.748v-2.159Zm0 5.125h9.748v2.125h-9.748v-2.125Z"/><path fill="#fff" stroke="#1C1C1C" stroke-linecap="round" stroke-linejoin="round" d="M305.632 288.726h-34.678a8.23 8.23 0 0 0-5.822 2.413 8.24 8.24 0 0 0-2.411 5.825v16.905c0 2.184.867 4.28 2.411 5.825a8.23 8.23 0 0 0 5.822 2.413h9.089l6.867 15.603 9.699-15.603h9.089a8.23 8.23 0 0 0 5.822-2.413 8.241 8.241 0 0 0 2.411-5.825v-16.971a8.23 8.23 0 0 0-2.458-5.806 8.224 8.224 0 0 0-5.841-2.366Z"/><path fill="#1C1C1C" d="M280.091 295.745h5.055v2.125h-2.421v15.57h2.421v2.126h-5.055v-19.821Zm11.609 19.821v-2.126h2.388v-15.57H291.7v-2.125h5.022v19.771l-5.022.05Z"/><path fill="#fff" stroke="#1C1C1C" stroke-linecap="round" stroke-linejoin="round" d="M408.91 286.996h-34.744a8.23 8.23 0 0 0-5.822 2.413 8.24 8.24 0 0 0-2.411 5.825v16.905c0 2.184.867 4.28 2.411 5.825a8.23 8.23 0 0 0 5.822 2.413h9.089l6.883 15.603 9.699-15.603h9.073a8.232 8.232 0 0 0 8.233-8.238v-16.971a8.238 8.238 0 0 0-8.233-8.172Z"/><path fill="#1C1C1C" d="M384.474 303.867c.84.264 1.251.841 1.251 2.159v4.02a1.412 1.412 0 0 0 1.647 1.648h.444v2.125h-1.07a3.14 3.14 0 0 1-2.646-.846 3.148 3.148 0 0 1-.944-2.614v-4.35c0-.708-.362-1.021-.955-1.021h-.691v-2.159h.691c.593 0 .955-.313.955-1.021v-4.35a3.156 3.156 0 0 1 2.169-3.345 3.14 3.14 0 0 1 1.421-.115h1.07v2.126h-.444a1.421 1.421 0 0 0-1.255.392 1.415 1.415 0 0 0-.392 1.255v4.02c0 1.22-.411 1.796-1.251 2.076Zm16.134-1.087v2.109h-.724c-.577 0-.939.313-.939 1.021v4.35a3.154 3.154 0 0 1-.949 2.622 3.145 3.145 0 0 1-2.657.838h-1.07v-2.076h.444a1.44 1.44 0 0 0 1.597-.975c.07-.217.087-.448.05-.672v-4.021c0-1.318.378-1.894 1.218-2.158-.84-.28-1.218-.857-1.218-2.175v-4.02a1.43 1.43 0 0 0-.401-1.247 1.44 1.44 0 0 0-1.246-.401h-.444v-2.125h1.07a3.147 3.147 0 0 1 3.606 3.46v4.35c0 .708.362 1.021.939 1.021l.724.099Z"/><path fill="#fff" stroke="#1C1C1C" stroke-linecap="round" stroke-linejoin="round" d="M511.1 283.569h-34.744a8.235 8.235 0 0 0-8.233 8.238v16.905a8.238 8.238 0 0 0 8.233 8.238h9.073l6.883 15.603 9.699-15.603h9.089a8.23 8.23 0 0 0 5.822-2.413 8.242 8.242 0 0 0 2.412-5.825v-17.004a8.24 8.24 0 0 0-8.234-8.139Z"/><path fill="#1C1C1C" d="M492.346 296.091a1.734 1.734 0 0 1 .444-1.343 1.745 1.745 0 0 1 3.03 1.343 1.748 1.748 0 0 1-1.737 1.916 1.74 1.74 0 0 1-1.293-.573 1.748 1.748 0 0 1-.444-1.343Zm3.474 8.057a4.95 4.95 0 0 1-.494 1.829l-1.087 2.982h-1.646l.856-3.296a1.654 1.654 0 0 1-1.005-1.565 1.725 1.725 0 0 1 1.721-1.722 1.72 1.72 0 0 1 1.721 1.722l-.066.05Z"/><path fill="#fff" stroke="#1C1C1C" stroke-linecap="round" stroke-linejoin="round" d="M375.283 579.22h34.727a8.23 8.23 0 0 0 5.822-2.413 8.24 8.24 0 0 0 2.411-5.825v-16.839a8.238 8.238 0 0 0-8.233-8.238h-9.073l-2.651-15.603-13.931 15.603h-9.072a8.239 8.239 0 0 0-8.234 8.238v16.905a8.242 8.242 0 0 0 2.435 5.782 8.23 8.23 0 0 0 5.799 2.39Z"/><path fill="#1C1C1C" d="m387.487 559.119-7.294 2.801 7.294 2.718v2.225l-9.748-3.79v-2.29l9.748-3.79v2.126Zm7.706-7.695h2.354l-6.981 19.953h-2.355l6.982-19.953Zm12.61 9.276v2.291l-9.748 3.789v-2.208l7.295-2.718-7.295-2.735v-2.142l9.748 3.723Z"/><path fill="#fff" stroke="#1C1C1C" stroke-linecap="round" stroke-linejoin="round" d="M154.436 456.059h34.728a8.233 8.233 0 0 0 8.233-8.155v-16.922a8.24 8.24 0 0 0-2.411-5.825 8.23 8.23 0 0 0-5.822-2.413h-9.073l1.976-15.603-18.558 15.603h-9.073a8.24 8.24 0 0 0-8.233 8.238v16.922a8.233 8.233 0 0 0 8.233 8.155Z"/><path fill="#1C1C1C" d="M164.727 445.35a1.647 1.647 0 1 1 3.294-.002 1.647 1.647 0 0 1-3.294.002Zm.148-13.33h3.128l-.527 9.886h-2.091l-.51-9.886Zm5.861 3.79h9.748v2.125h-9.748v-2.125Zm0 5.124h9.748v2.125h-9.748v-2.125Z"/><path fill="#fff" d="M710.601 436.897a118.368 118.368 0 0 1-1.647 19.541c-4.775 28.521-19.759 49.314-37.477 49.314a22.59 22.59 0 0 1-4.71-.494c-19.348-4.103-34.349-33.134-34.349-68.361 0-38.027 17.488-51.488 39.059-51.488 21.571 0 39.124 13.395 39.124 51.488Z"/><mask id="c" width="79" height="121" x="632" y="385" maskUnits="userSpaceOnUse" style="mask-type:luminance"><path fill="#fff" d="M710.603 436.897a118.367 118.367 0 0 1-1.646 19.541c-4.776 28.521-19.76 49.314-37.478 49.314a22.581 22.581 0 0 1-4.709-.494c-19.348-4.103-34.349-33.134-34.349-68.361 0-38.027 17.487-51.488 39.058-51.488s39.124 13.395 39.124 51.488Z"/></mask><g mask="url(#c)"><path fill="#FDFC00" d="M696.491 437.326c1.449 20.397-2.041 40.894-7.92 60.484 14.721-12.093 21.489-31.107 27.614-49.149 4.446-13.098 8.941-26.609 8.135-40.416-.807-13.807-8.234-28.191-21.143-32.953a28.197 28.197 0 0 0-19.974.313c-10.851 4.367-4.94 7.893-.346 15.702a106.48 106.48 0 0 1 13.634 46.019Z"/><path fill="#fff" d="M696.491 437.326c1.449 20.397-2.041 40.894-7.92 60.484 14.721-12.093 21.489-31.107 27.614-49.149 4.446-13.098 8.941-26.609 8.135-40.416-.807-13.807-8.234-28.191-21.143-32.953a28.197 28.197 0 0 0-19.974.313c-10.851 4.367-4.94 7.893-.346 15.702a106.48 106.48 0 0 1 13.634 46.019Z" opacity=".5"/></g><path stroke="#1C1C1C" stroke-miterlimit="10" d="M710.601 436.897a118.368 118.368 0 0 1-1.647 19.541c-4.775 28.521-19.759 49.314-37.477 49.314a22.59 22.59 0 0 1-4.71-.494c-19.348-4.103-34.349-33.134-34.349-68.361 0-38.027 17.488-51.488 39.059-51.488 21.571 0 39.124 13.395 39.124 51.488Z"/><path fill="#fff" d="M692.573 471.877a67.57 67.57 0 0 1-12.827 24.055l12.827-24.055Z"/><path stroke="#1C1C1C" stroke-miterlimit="10" d="M692.573 471.877a67.57 67.57 0 0 1-12.827 24.055m14.061-28.834a56.566 56.566 0 0 1-.675 2.768"/><path fill="#fff" d="M693.706 436.798a67.217 67.217 0 0 1 .774 26.824l-.774-26.824Z"/><path stroke="#1C1C1C" stroke-miterlimit="10" d="M693.706 436.798a67.217 67.217 0 0 1 .774 26.824"/><path stroke="#1C1C1C" stroke-miterlimit="10" d="M632.503 436.897s44.46-17.563 78.15 0"/><path fill="#fff" d="M671.577 385.409s4.446 16.476 4.94 43.283l-4.94-43.283Z"/><path stroke="#1C1C1C" stroke-miterlimit="10" d="M671.577 385.409s4.446 16.476 4.94 43.283"/><path fill="gray" stroke="#1C1C1C" stroke-linecap="round" stroke-linejoin="round" d="M677.783 405.395c.56 5.124-.329 9.473-1.992 9.737-1.663.264-3.475-3.674-4.034-8.782-.56-5.108.312-9.49 1.976-9.754 1.663-.263 3.474 3.74 4.05 8.799Z"/><path stroke="#1C1C1C" stroke-miterlimit="10" d="M654.057 518.933h-52.133a12.76 12.76 0 0 1-8.407-3.148 12.77 12.77 0 0 1-4.256-7.908 8.826 8.826 0 0 1-.148-1.763V383.217a9.31 9.31 0 0 1 .148-1.779 12.747 12.747 0 0 1 12.663-11.039H749.66c2.155.015 4.269.582 6.142 1.647"/></svg>