<svg xmlns="http://www.w3.org/2000/svg" width="304" height="230" fill="none"><path fill="#0F0F0F" d="M124.504 83.357a42.665 42.665 0 0 1 3.309-14.088c.278-.67.927-1.469 1.566-1.125-.371 2.063-.745 4.12-1.121 6.17a36.755 36.755 0 0 0 9.73-9.478c.223-.386.542-.706.927-.93a.851.851 0 0 1 1.149.307 1.237 1.237 0 0 1-.204 1.05 37.979 37.979 0 0 1-3.892 5.706c1.853-2.787 3.883-5.687 6.83-7.313a17.23 17.23 0 0 1-3.494 8.875l4.717-5.26c.426-.483 1.14-.995 1.64-.595.501.4.167 1.19-.176 1.71l-3.28 4.907a71.47 71.47 0 0 1 5.199-4.164c-.315 2.993-2.595 5.39-5.023 7.146-2.428 1.757-5.162 3.17-7.154 5.409a24.404 24.404 0 0 0-3.04 4.776"/><path fill="#D9D9D9" d="M132.178 86.888a.543.543 0 0 1-.204 0 .425.425 0 0 1-.167-.576 24.091 24.091 0 0 1 3.095-4.86 24.312 24.312 0 0 1 5.051-3.996c.732-.484 1.464-.93 2.168-1.478 2.54-1.858 4.106-3.791 4.634-5.817a78.622 78.622 0 0 0-4.3 3.494.418.418 0 1 1-.63-.548l3.28-4.907c.278-.427.482-.93.26-1.143-.223-.214-.695.14-1.057.539l-4.717 5.27a.433.433 0 0 1-.593 0 .42.42 0 0 1-.065-.586 16.919 16.919 0 0 0 3.309-7.797 15.164 15.164 0 0 0-3.188 2.983 39.242 39.242 0 0 1-2.78 3.773.438.438 0 0 1-.584.074.429.429 0 0 1-.093-.576 45.395 45.395 0 0 1 2.78-3.782c.399-.623.77-1.255 1.131-1.859.121-.232.26-.51.185-.678a.221.221 0 0 0-.057-.075.224.224 0 0 0-.082-.046.59.59 0 0 0-.435 0c-.31.195-.568.463-.751.78a37.269 37.269 0 0 1-9.851 9.6.432.432 0 0 1-.473 0 .414.414 0 0 1-.176-.427 720.12 720.12 0 0 0 1.029-5.688 1.924 1.924 0 0 0-.667.93 42.11 42.11 0 0 0-3.272 13.939.427.427 0 1 1-.852-.056 42.85 42.85 0 0 1 3.345-14.227 2.48 2.48 0 0 1 1.261-1.394 1.06 1.06 0 0 1 .926.065.408.408 0 0 1 .214.446c-.306 1.729-.621 3.448-.927 5.176a36.413 36.413 0 0 0 8.785-8.79 3 3 0 0 1 1.094-1.088 1.44 1.44 0 0 1 1.093 0 1.084 1.084 0 0 1 .621.576c.094.217.117.458.065.688a12.027 12.027 0 0 1 2.076-1.45.407.407 0 0 1 .586.168.43.43 0 0 1 .044.222 17.603 17.603 0 0 1-1.409 5.39l1.854-2.1c.778-.874 1.631-1.115 2.224-.632.593.483.538 1.32-.093 2.277l-1.621 2.416c.926-.78 1.946-1.533 2.937-2.258a.426.426 0 0 1 .454 0 .416.416 0 0 1 .214.409c-.278 2.639-2.021 5.148-5.199 7.434-.714.52-1.455 1.004-2.197 1.496a23.511 23.511 0 0 0-4.884 3.857 23.845 23.845 0 0 0-2.984 4.646.425.425 0 0 1-.407.186Z"/><path fill="#1C1C1C" d="M7.849 90.457c3.707-4.136 9.582-6.868 14.503-8.02 12.094-2.853 25.503-3.903 37.467.279 18.674 6.505 14.763 29.792 16.44 45.832.862 8.233.992 17.238 4.032 24.979 3.364 8.558 1.566 16.132-6.042 22.303-5.718 4.646-13.336 6.374-20.685 6.244-8.146-.148-21.185 3.123-28.089-1.765-9.842-6.97-11.658-22.387-14.318-33.231a268.548 268.548 0 0 1-6.913-43.314 21.274 21.274 0 0 1 .38-7.741 14.282 14.282 0 0 1 3.225-5.566Z"/><path fill="#1C1C1C" d="M36.966 183.431c-4.448 0-8.665-.604-11.732-2.788-8.424-5.966-10.99-17.712-13.252-28.083-.408-1.858-.806-3.717-1.214-5.38a268.765 268.765 0 0 1-6.932-43.388 21.6 21.6 0 0 1 .39-7.89 15.055 15.055 0 0 1 3.317-5.734c3.345-3.717 8.85-6.765 14.716-8.14 14.605-3.439 27.292-3.346 37.7.288 15.179 5.306 15.689 21.531 16.143 35.842.12 3.662.231 7.128.565 10.343.176 1.719.325 3.485.482 5.26.556 6.654 1.14 13.54 3.522 19.608 3.512 8.939 1.436 16.606-6.172 22.776-5.209 4.238-12.64 6.505-20.944 6.338-2.28-.046-4.949.186-7.766.428-2.818.241-5.894.52-8.823.52Zm5.19-103.085a86.088 86.088 0 0 0-19.711 2.49c-5.718 1.338-11.056 4.303-14.3 7.89a14.023 14.023 0 0 0-3.132 5.418 21.142 21.142 0 0 0-.37 7.592 270.425 270.425 0 0 0 6.913 43.258c.417 1.7.815 3.503 1.232 5.408 2.224 10.222 4.754 21.801 12.919 27.581 4.837 3.42 12.9 2.732 20.008 2.119 2.845-.241 5.56-.474 7.849-.427 8.137.158 15.365-2.045 20.388-6.152 7.293-5.929 9.267-13.28 5.922-21.848-2.42-6.179-3.012-13.121-3.578-19.84a223.81 223.81 0 0 0-.482-5.241c-.342-3.243-.444-6.719-.565-10.399-.445-14.05-.926-29.978-15.596-35.09a52.915 52.915 0 0 0-17.497-2.76Z"/><path fill="#0F0F0F" d="m44.222 69.538 2.632-10.575c2.845-11.44 6.765-23.232 19.248-26.8 3.707-1.05 7.414-.632 9.907 2.722 2.52-2.128 6.487-.985 9.082 1.032 3.614 2.788 5.996 6.904 7.571 11.151 2.78 7.546 3.271 15.705 6.487 23.232-15.92 11.784-38.663 13.447-56.122 4.108l1.195-4.87Z"/><path fill="#D9D9D9" d="M67.631 80.969a52.706 52.706 0 0 1-24.836-6.106.418.418 0 0 1-.213-.474l1.233-4.906 2.631-10.576c2.78-11.216 6.83-23.492 19.536-27.097 4.253-1.218 7.821-.316 10.101 2.527 2.725-1.914 6.663-.715 9.267 1.292 3.253 2.5 5.848 6.328 7.71 11.374a82.192 82.192 0 0 1 2.901 10.77 71.974 71.974 0 0 0 3.54 12.444.438.438 0 0 1-.139.51 53.53 53.53 0 0 1-31.73 10.242Zm-24.15-6.7a53.126 53.126 0 0 0 55.112-4.034 73.629 73.629 0 0 1-3.457-12.276 82.788 82.788 0 0 0-2.872-10.714c-1.798-4.888-4.3-8.587-7.414-10.993-2.456-1.86-6.19-3.03-8.554-1.041a.406.406 0 0 1-.324.093.407.407 0 0 1-.287-.168c-2.623-3.587-6.58-3.373-9.453-2.565-12.298 3.457-16.143 15.008-18.924 26.494l-3.827 15.203Z"/><path fill="#2F2F2F" d="M93.645 82.91c3.215 3.011 10.397 14.358 16.94 26.253l13.558-28.53 11.009 3.29s-9.962 52.682-19.785 54.828c-9.823 2.147-23.215-21.373-23.215-21.373L77.13 76.015s11.714 2.389 16.515 6.896Z"/><path fill="gray" d="M76.037 81.015s14.827 8.363 17.747 22.832c2.919 14.469-2.78 58.712-2.78 58.712l-36.792-1.533s5.996-52.727 2.4-64.204c-3.595-11.477-3.484-14.664 0-15.798 3.485-1.133 12.938-7.183 19.425-.01Z"/><path fill="#1C1C1C" d="m91.013 162.987-36.81-1.506a.44.44 0 0 1-.305-.139.422.422 0 0 1-.093-.325c.056-.53 5.94-52.774 2.419-64.028-3.633-11.57-3.577-15.082.268-16.337.547-.176 1.27-.492 2.104-.855 4.226-1.858 12.048-5.24 17.691.93 1.057.613 15.106 9.079 17.895 23.074 2.864 14.348-2.697 58.405-2.78 58.851a.42.42 0 0 1-.39.335Zm-36.29-2.37 35.947 1.506c.547-4.396 5.403-44.699 2.715-58.192-2.78-14.097-17.404-22.46-17.543-22.544a.25.25 0 0 1-.11-.084c-5.209-5.78-12.447-2.64-16.774-.762-.853.372-1.585.688-2.178.883-2.882.929-3.485 3.27.278 15.277 3.42 10.984-1.752 58.406-2.336 63.916Z"/><path fill="#2F2F2F" d="M85.174 170.226c-.982-23.437-3.234-42.412-3.707-49.048-.528-7.267-2.39-28.361-4.392-37.589-2.595-5.743-1.474-7.434-1.474-7.434s14.643-2.063 18.998 19.85c1.288 6.458 4.56 44.103 7.711 73.347l-17.136.874Z"/><path fill="#0F0F0F" d="m77.112 72.27.065 11.282s-1.14 6.375-7.98 4.423a14.176 14.176 0 0 1-5.453-3.02 14.226 14.226 0 0 1-3.638-5.074l.779-19.515a35.212 35.212 0 0 0 1.13-10.473c8.341-.14 14.828-6.43 14.828-6.43s2.854 4.312 4.096 5.668a17.282 17.282 0 0 1 2.577 3.401c1.149 2.175 1.102 4.88 1.047 7.286a47.467 47.467 0 0 1-.844 8.494c-1.075 5.306-6.607 3.958-6.607 3.958Z"/><path fill="#D9D9D9" d="M71.626 88.765a9.51 9.51 0 0 1-2.54-.38 14.463 14.463 0 0 1-5.64-3.11 14.515 14.515 0 0 1-3.738-5.254.327.327 0 0 1 0-.158s.77-19.413.77-19.515c.036-.316.104-.628.203-.93a32.61 32.61 0 0 0 .927-9.478.41.41 0 0 1 .12-.307.398.398 0 0 1 .297-.13c8.044-.13 14.503-6.245 14.568-6.31a.437.437 0 0 1 .649.075c0 .046 2.854 4.293 4.06 5.575a17.587 17.587 0 0 1 2.631 3.494c1.214 2.286 1.158 5.167 1.103 7.49a46.937 46.937 0 0 1-.853 8.568 5.4 5.4 0 0 1-2.298 3.615 6.703 6.703 0 0 1-4.328.809l.065 10.78a6.813 6.813 0 0 1-2.78 4.311 5.799 5.799 0 0 1-3.216.855Zm-11.12-8.949a13.938 13.938 0 0 0 3.54 4.847 13.89 13.89 0 0 0 5.245 2.903 6.1 6.1 0 0 0 5.013-.38 6.004 6.004 0 0 0 2.428-3.718l-.046-11.198a.428.428 0 0 1 .158-.334.454.454 0 0 1 .361-.084 6.15 6.15 0 0 0 4.207-.604 4.538 4.538 0 0 0 1.919-3.076c.536-2.756.818-5.555.843-8.363 0-2.333.111-4.981-1.01-7.081a16.725 16.725 0 0 0-2.493-3.318c-1.029-1.134-3.114-4.191-3.865-5.306-1.482 1.31-7.182 5.9-14.345 6.189a32.695 32.695 0 0 1-.927 9.293 4.31 4.31 0 0 0-.167.79s-.074.306-.834 19.44h-.028Z"/><path fill="#0F0F0F" d="M77.047 77.846s-4.569.204-7.497-2.844c-2.929-3.048-2.502-6.133-2.502-6.133s4.939 3.327 10.064 3.439l-.065 5.538Z"/><path fill="#D9D9D9" d="M76.843 78.264c-.982 0-4.902-.186-7.59-2.983-3.04-3.16-2.631-6.328-2.613-6.505a.41.41 0 0 1 .241-.316.389.389 0 0 1 .39 0s4.902 3.253 9.85 3.364a.407.407 0 0 1 .399.41l-.065 5.575a.41.41 0 0 1-.39.4l-.222.055Zm-9.406-8.66a8.094 8.094 0 0 0 2.4 5.11c2.29 2.38 5.672 2.686 6.803 2.723l.055-4.74a21.828 21.828 0 0 1-9.258-3.094Z"/><path fill="#0F0F0F" d="M73.127 56.1s3.623 5.419 2.78 6.366c-.843.948-3.271.316-3.271.316"/><path fill="#D9D9D9" d="M74.184 63.396a7.568 7.568 0 0 1-1.705-.214.417.417 0 0 1-.228-.648.408.408 0 0 1 .431-.151c.566.14 2.299.418 2.864-.195.306-.437-1-3.17-2.78-5.855a.42.42 0 0 1 .425-.604.412.412 0 0 1 .26.14c1.14 1.719 3.708 5.808 2.716 6.876a2.631 2.631 0 0 1-1.983.65Zm6.371-7.053c.342-.013.6-.548.574-1.194-.025-.646-.323-1.16-.666-1.146-.342.014-.6.548-.574 1.195.025.646.323 1.159.666 1.145Zm-10.193-.89c.343-.013.6-.548.575-1.194-.026-.646-.324-1.159-.667-1.145-.342.013-.6.548-.574 1.194.025.646.323 1.159.666 1.145Z"/><path fill="#0F0F0F" d="M75.592 65.645 72.71 64.9s-.584 4.22 1.038 4.59c1.622.373 1.844-3.846 1.844-3.846Z"/><path fill="#D9D9D9" d="M73.943 69.929a1.017 1.017 0 0 1-.287 0c-1.937-.447-1.418-4.61-1.326-5.093a.41.41 0 0 1 .186-.279.37.37 0 0 1 .324-.055l2.882.734a.408.408 0 0 1 .306.418c0 .325-.195 3.16-1.316 4.005a1.23 1.23 0 0 1-.77.27Zm-.88-4.508c-.121 1.348-.065 3.476.778 3.718a.38.38 0 0 0 .352-.084c.556-.418.871-1.97.927-3.048l-2.058-.586Z"/><path fill="#0F0F0F" d="M64.638 54.614c-.75-1.98-3.262-2.713-5.17-2.332a3.23 3.23 0 0 0-2.623 2.453 6.039 6.039 0 0 0 0 2.342 12.104 12.104 0 0 0 1.38 4.042 4.346 4.346 0 0 0 1.4 1.636 2.191 2.191 0 0 0 2.493-.168"/><path fill="#D9D9D9" d="M60.709 63.507a2.46 2.46 0 0 1-1.316-.39 4.772 4.772 0 0 1-1.538-1.784 12.485 12.485 0 0 1-1.446-4.238 6.448 6.448 0 0 1 0-2.509 3.626 3.626 0 0 1 1.054-1.83 3.61 3.61 0 0 1 1.893-.93c2.131-.427 4.828.428 5.653 2.593a.428.428 0 0 1-.241.548.425.425 0 0 1-.547-.25c-.667-1.739-2.91-2.417-4.698-2.064a2.777 2.777 0 0 0-2.299 2.138 5.646 5.646 0 0 0 0 2.174c.212 1.39.67 2.73 1.353 3.959.29.588.72 1.095 1.252 1.477a1.776 1.776 0 0 0 2.029-.158.427.427 0 1 1 .482.707 2.904 2.904 0 0 1-1.631.557Z"/><path fill="#2F2F2F" d="M37.819 170.226a138.993 138.993 0 0 0 3.002-17.108c1.187-13.363 0-58.852 2.836-67.903 1.372-4.32 15.875-7.49 15.875-7.49s13.9 73.748 13.9 93.672l-35.613-1.171Z"/><path fill="#0F0F0F" d="M62.405 131.967c3.41-.585 6.487-2.174 9.684-3.522a41.968 41.968 0 0 1 3.911-1.44c1.557-.483 3.05-1.412 4.717-1.459 1.038 0 .77 1.44.38 1.97a5.386 5.386 0 0 1-1.418 1.208c-.973.669-3.03 1.859-3.382 3.067 1.294.221 2.606.327 3.92.316 1.408.158 2.78.372 4.189.641 1.408.27 2.706.585 4.04.929a22.55 22.55 0 0 1 3.512.93c.27.139.556.343.575.641.065 1.059-2.308.929-2.9.873l-10.927-1.096a68.115 68.115 0 0 1 11.325 2.044c.36.057.69.242.926.521.927 1.403-2.983 1.477-3.42 1.486a59.422 59.422 0 0 1-6.041-.158l4.911.818c1.094.186 2.197.363 3.28.641a3.461 3.461 0 0 1 1.623.79.327.327 0 0 1 .11.214c0 .112-.12.186-.222.232a7.067 7.067 0 0 1-2.919.521 35.473 35.473 0 0 1-6.116-.409l6.06.65a2.287 2.287 0 0 1 1.484.539.84.84 0 0 1-.362.93 2.267 2.267 0 0 1-1.038.316 54.03 54.03 0 0 1-6.71 0 53.259 53.259 0 0 1-7.293-.465 43.2 43.2 0 0 1-13.752-4.126"/><path fill="#D9D9D9" d="M85.925 144.754c-.723 0-1.427 0-2.131-.055a14.497 14.497 0 0 0-2.206 0 55.735 55.735 0 0 1-7.349-.465 43.656 43.656 0 0 1-13.9-4.173.434.434 0 0 1-.195-.576.439.439 0 0 1 .574-.186 42.508 42.508 0 0 0 13.614 4.089 51.16 51.16 0 0 0 7.265.437c.751 0 1.502 0 2.243.056a26.85 26.85 0 0 0 4.411-.075c.298-.018.59-.101.853-.241a.476.476 0 0 0 .222-.381 2.124 2.124 0 0 0-1.14-.335l-2.845-.306a37.965 37.965 0 0 1-3.243-.344.438.438 0 0 1-.352-.483.425.425 0 0 1 .463-.363l3.197.344c.952.056 1.906.074 2.864.056.87.03 1.737-.102 2.558-.391a3.468 3.468 0 0 0-1.252-.529c-1.065-.27-2.168-.456-3.243-.632l-4.902-.818a.412.412 0 0 1-.282-.155.42.42 0 0 1 .211-.667.409.409 0 0 1 .163-.014c1.993.148 4.013.195 6.005.148 1.993-.046 3.012-.408 3.133-.641 0-.046 0-.139-.056-.186a1.217 1.217 0 0 0-.686-.343 66.954 66.954 0 0 0-11.26-2.063.43.43 0 0 1-.38-.419v-.046a.437.437 0 0 1 .464-.381l10.926 1.106a4.124 4.124 0 0 0 2.382-.288c.055-.056.065-.093.055-.14-.009-.046-.074-.158-.333-.279a9.474 9.474 0 0 0-2.169-.631c-.435-.093-.87-.177-1.279-.298a39.494 39.494 0 0 0-4.003-.929c-1.344-.232-2.78-.483-4.152-.632-.474-.046-.95-.067-1.427-.065a9.578 9.578 0 0 1-2.558-.27.409.409 0 0 1-.26-.204.438.438 0 0 1 0-.325c.353-1.171 1.956-2.231 3.124-3.011l.575-.39a4.42 4.42 0 0 0 1.167-.995 1.515 1.515 0 0 0 .204-1.208s-.074-.102-.232-.093a8.333 8.333 0 0 0-3.03.846c-.51.204-1.038.427-1.576.595a37.728 37.728 0 0 0-3.864 1.431c-.584.241-1.168.502-1.742.752a34.48 34.48 0 0 1-8.044 2.788.423.423 0 0 1-.436-.357.426.426 0 0 1 .297-.479 34.094 34.094 0 0 0 7.84-2.723l1.752-.771a42.003 42.003 0 0 1 3.947-1.459c.51-.164 1.011-.353 1.502-.567a9.662 9.662 0 0 1 3.336-.929 1.086 1.086 0 0 1 1 .557 2.264 2.264 0 0 1-.268 2.091 5.118 5.118 0 0 1-1.372 1.208l-.593.4a10.184 10.184 0 0 0-2.567 2.128 11.98 11.98 0 0 0 1.854.121 13.44 13.44 0 0 1 1.501.065c1.409.148 2.78.371 4.226.641 1.446.269 2.734.595 4.068.976.39.111.806.195 1.214.278a10.2 10.2 0 0 1 2.363.697 1.236 1.236 0 0 1 .825.995 1.001 1.001 0 0 1-.324.808c-.649.623-2.224.586-2.855.53l.362.102c.457.084.87.332 1.158.697a.984.984 0 0 1 .102 1.05c-.352.669-1.65 1.041-3.846 1.087.742.131 1.502.27 2.243.465a3.706 3.706 0 0 1 1.853.929.713.713 0 0 1 .223.521.696.696 0 0 1-.464.604 5.568 5.568 0 0 1-1.547.446c.07.057.134.119.194.186a.318.318 0 0 1 .075.121 1.257 1.257 0 0 1-.51 1.459 2.638 2.638 0 0 1-1.233.381c-.83.099-1.666.139-2.502.12Z"/><path fill="#2F2F2F" d="M43.602 85.197s-28.516 52.039-18.294 55.534c4.189 1.431 41.703 3.633 41.703 3.633l3.975-16.225-28.098-4.359.714-38.583Z"/><path fill="#D9D9D9" d="M80.513 61.779a6.614 6.614 0 0 1-3.677-1.13 6.64 6.64 0 0 1-2.432-2.987 6.661 6.661 0 0 1 1.452-7.236A6.61 6.61 0 0 1 83.078 49a6.631 6.631 0 0 1 2.969 2.452 6.658 6.658 0 0 1-.84 8.39 6.626 6.626 0 0 1-4.694 1.937Zm0-12.425a5.76 5.76 0 0 0-3.207.976 5.786 5.786 0 0 0-2.127 2.598 5.805 5.805 0 0 0 1.252 6.31 5.77 5.77 0 0 0 6.292 1.255 5.777 5.777 0 0 0 2.59-2.133 5.8 5.8 0 0 0 .974-3.216 5.807 5.807 0 0 0-1.694-4.091 5.775 5.775 0 0 0-4.08-1.699Z"/><path fill="#D9D9D9" d="M67.696 60.71a6.604 6.604 0 0 1-3.676-1.118 6.632 6.632 0 0 1-2.437-2.978 6.652 6.652 0 0 1 1.435-7.23 6.6 6.6 0 0 1 7.21-1.438 6.62 6.62 0 0 1 2.97 2.443 6.648 6.648 0 0 1 1.115 3.686 6.654 6.654 0 0 1-1.94 4.689 6.617 6.617 0 0 1-4.677 1.946Zm0-12.424a5.762 5.762 0 0 0-3.21.97 5.804 5.804 0 0 0-.885 8.909 5.768 5.768 0 0 0 6.293 1.26 5.777 5.777 0 0 0 2.593-2.133 5.801 5.801 0 0 0 .974-3.217 5.806 5.806 0 0 0-1.69-4.088 5.774 5.774 0 0 0-4.075-1.701Zm3.3 80.271h-.065l-28.098-4.358a.42.42 0 0 1-.288-.186.418.418 0 0 1-.065-.335l6.766-29.272a.43.43 0 1 1 .843.167l-6.663 28.808 27.653 4.284a.43.43 0 0 1 .352.492.421.421 0 0 1-.274.375.42.42 0 0 1-.161.025Zm27.884 7.62a.416.416 0 0 1-.417-.372l-4.42-36.743c-.862-7.193-.862-7.193-.473-7.277l.167.837-.083-.418h.426c.056.631 5.171 43.1 5.227 43.527a.43.43 0 0 1-.371.474l-.056-.028Zm6.321-16.792a.434.434 0 0 1-.358-.202.43.43 0 0 1-.022-.411l16.792-33.761a.43.43 0 0 1 .566-.195.438.438 0 0 1 .194.576l-16.792 33.761a.422.422 0 0 1-.38.232Z"/><path fill="#fff" d="M21.657 120.119h-.056a.465.465 0 0 1-.407-.511c0-.158 1.797-15.919 0-23.855-.927-4.228-2.299-5.79-3.262-6.356a1.739 1.739 0 0 0-1.326-.279.472.472 0 0 1-.583-.306.466.466 0 0 1 .296-.577 2.598 2.598 0 0 1 2.03.335c1.65.93 2.91 3.28 3.706 6.988 1.854 8.076.084 23.502 0 24.161a.459.459 0 0 1-.398.4Z"/><path fill="#D9D9D9" d="M61.515 113.345a.403.403 0 0 1-.306-.186l-8.572-9.851a.416.416 0 0 1 0-.576l5.56-5.696-5.56-5.214a.428.428 0 0 1-.065-.538c.927-1.367 5.412-8.197 5.792-8.578a.426.426 0 0 1 .727.298.418.418 0 0 1-.124.297c-.297.334-3.374 4.944-5.486 8.15l5.56 5.26a.417.417 0 0 1 .13.306.475.475 0 0 1-.12.307l-5.561 5.724 8.34 9.59a.44.44 0 0 1-.046.604.449.449 0 0 1-.269.103Zm21.009-2.379a.493.493 0 0 1-.25-.075.437.437 0 0 1-.102-.594l6.719-9.6-7.007-5.576a.436.436 0 0 1-.157-.306.39.39 0 0 1 .111-.316l4.245-4.46-7.414-6.7a.437.437 0 0 1 0-.605.426.426 0 0 1 .602 0l7.692 6.998a.409.409 0 0 1 .139.297.392.392 0 0 1-.12.307l-4.217 4.432 6.96 5.576a.419.419 0 0 1 .083.576l-6.95 9.934a.43.43 0 0 1-.334.112Z"/><path fill="#0F0F0F" d="M247.221 72.884c1.955-.084 3.902-.418 6.172-.614 2.113-.185 4.828-.929 4.865-3.094 0-1.859-2.14-3.308-1.659-5.065.167-.471.421-.907.751-1.282a19.647 19.647 0 0 0-3.364-26.95 1.09 1.09 0 0 0 1.156-.571c.072-.137.113-.287.123-.441a2.41 2.41 0 0 0-.677-1.71 12.04 12.04 0 0 0-5.866-3.587 37.128 37.128 0 0 0-21.926 0c-5.486 1.608-12.047 5.984-11.334 12.62.26 2.379 2.122 4.711 4.513 4.813 1.224 7.11 4.94 11.96 9.61 17.108a28.527 28.527 0 0 0 11.501 7.843 15.714 15.714 0 0 0 6.135.93Z"/><path fill="#D9D9D9" d="M246.359 73.367a15.714 15.714 0 0 1-5.421-.93 28.84 28.84 0 0 1-11.695-7.973c-4.319-4.748-8.295-9.636-9.657-16.978-2.558-.334-4.328-2.843-4.587-5.204-.704-6.504 5.347-11.262 11.667-13.112a37.7 37.7 0 0 1 22.195 0 12.716 12.716 0 0 1 6.089 3.717 2.852 2.852 0 0 1 .778 2.045 1.71 1.71 0 0 1-.732 1.226 20.103 20.103 0 0 1 2.725 26.95l-.065.083c-.261.31-.468.662-.612 1.041a3.214 3.214 0 0 0 .732 2.342c.549.765.87 1.67.927 2.611 0 1.942-2.011 3.262-5.291 3.54-.927.084-1.854.196-2.679.289-1.214.148-2.354.288-3.512.334l-.862.019Zm-8.257-44.93a39.585 39.585 0 0 0-11.176 1.635c-4.467 1.31-11.751 5.315-10.954 12.118.222 2.044 1.853 4.311 4.068 4.414a.451.451 0 0 1 .436.38c1.14 6.608 4.346 11.152 9.499 16.867a28.065 28.065 0 0 0 11.315 7.722 15.09 15.09 0 0 0 5.95.846c1.13 0 2.251-.186 3.447-.325a88.362 88.362 0 0 1 2.715-.288c.955-.084 4.402-.54 4.439-2.64a4.27 4.27 0 0 0-.815-2.118c-.556-.93-1.14-1.924-.825-3.058a4.12 4.12 0 0 1 .76-1.356l.065-.084a19.158 19.158 0 0 0 3.625-13.799 19.128 19.128 0 0 0-6.915-12.472.467.467 0 0 1-.111-.585.452.452 0 0 1 .546-.223.362.362 0 0 0 .334-.065.778.778 0 0 0 .343-.548 2.007 2.007 0 0 0-.575-1.376c-1.519-1.858-3.957-2.871-5.653-3.429a33.426 33.426 0 0 0-10.518-1.617Z"/><path fill="#0F0F0F" d="M218.085 57.402s-5.06 8.363-3.883 9.999c1.177 1.636 4.828.38 4.828.38"/><path fill="#D9D9D9" d="M216.389 68.693a3.01 3.01 0 0 1-2.567-1.069c-1.251-1.756 2.641-8.484 3.864-10.51a.462.462 0 0 1 .656-.188.467.467 0 0 1 .132.671c-2.354 3.894-4.513 8.624-3.892 9.479.797 1.124 3.364.539 4.29.223a.471.471 0 0 1 .594.288.466.466 0 0 1-.288.585 9.452 9.452 0 0 1-2.789.52Z"/><path fill="#0F0F0F" d="M218.817 46.585c-3.308 2.937-2.094 8.8-1.918 12.675a346.42 346.42 0 0 0 1.121 16.198c.315 3.42 9.175 3.15 10.695 2.063l-.862 13.595s4.29 1.004 11.306-2.583c7.015-3.587 7.015-5.288 7.015-5.288l-1.196-15.621s-5.838.25-9.545-6.598c-3.707-6.849-4.022-17.563-4.022-17.563s-9.369.27-12.594 3.122Z"/><path fill="#D9D9D9" d="M229.447 91.692a7.705 7.705 0 0 1-1.706-.148.448.448 0 0 1-.352-.484l.816-12.833c-1.983.623-6.265.706-8.684-.409a2.892 2.892 0 0 1-1.964-2.342 363.88 363.88 0 0 1-1.122-16.225c0-.641-.083-1.338-.148-2.081-.315-3.718-.704-8.364 2.224-10.929 3.318-2.936 12.502-3.262 12.891-3.27a.385.385 0 0 1 .324.12.44.44 0 0 1 .149.325c0 .112.315 10.715 3.938 17.387 3.531 6.505 8.924 6.347 9.147 6.338a.452.452 0 0 1 .482.427l1.186 15.612c0 .372-.343 2.193-7.266 5.734a22.045 22.045 0 0 1-9.915 2.778Zm-1.113-.994c1.187.13 5.023.25 10.611-2.611 6.395-3.271 6.765-4.898 6.765-4.916l-1.158-15.11c-1.492-.075-6.292-.818-9.554-6.812-3.262-5.994-3.93-15.147-4.032-17.331-1.899.102-9.174.66-11.843 3.02-2.576 2.277-2.206 6.645-1.909 10.157.065.753.12 1.46.148 2.119.25 5.38.63 10.817 1.121 16.17.056.65.538 1.18 1.428 1.588 2.585 1.2 7.543.856 8.535.15a.451.451 0 0 1 .491 0 .47.47 0 0 1 .241.436l-.844 13.14Z"/><path fill="#0F0F0F" d="M217.993 71.397s4.281 2.416 6.338-2.007l-6.338 2.007Z"/><path fill="#D9D9D9" d="M220.606 72.521a6.224 6.224 0 0 1-2.78-.725.45.45 0 0 1-.235-.46.458.458 0 0 1 .059-.172.462.462 0 0 1 .63-.176 4.872 4.872 0 0 0 3.429.437 3.888 3.888 0 0 0 2.261-2.23.457.457 0 0 1 .264-.242.463.463 0 0 1 .594.28.468.468 0 0 1-.015.352 4.742 4.742 0 0 1-2.826 2.723 4.469 4.469 0 0 1-1.381.213Z"/><path fill="#0F0F0F" d="M228.733 62.17a5.358 5.358 0 0 1 1.446-2.984 9.406 9.406 0 0 1 1.918-2.026 4.318 4.318 0 0 1 2.882-.845 3.12 3.12 0 0 1 2.141 1.198c.428.606.676 1.322.713 2.063.297 3.16-1.76 6.505-5.162 8.364l.288-.27"/><path fill="#D9D9D9" d="M232.653 68.377a.475.475 0 0 1-.38-.195.464.464 0 0 1 .065-.614l.297-.27a.44.44 0 0 1 .352-.12c2.891-1.803 4.634-4.777 4.374-7.555a3.493 3.493 0 0 0-.63-1.859 2.65 2.65 0 0 0-1.854-1.013 3.848 3.848 0 0 0-2.567.762 9.185 9.185 0 0 0-1.853 1.933 5.088 5.088 0 0 0-1.353 2.695.465.465 0 0 1-.463.465.464.464 0 0 1-.464-.465 5.753 5.753 0 0 1 1.548-3.27 9.731 9.731 0 0 1 2.011-2.11 4.725 4.725 0 0 1 3.206-.93 3.574 3.574 0 0 1 2.456 1.385c.483.675.763 1.475.806 2.305.306 3.317-1.853 6.848-5.402 8.781a.489.489 0 0 1-.149.075Z"/><path fill="#0F0F0F" d="M228.714 77.493s4.532-1.598 6.552-4.842c0 0 0 8.243-6.932 10.9l.38-6.058Z"/><path fill="#D9D9D9" d="M228.334 84.016a.438.438 0 0 1-.278-.092.456.456 0 0 1-.185-.4l.38-6.059a.472.472 0 0 1 .306-.409c.046 0 4.411-1.589 6.311-4.646a.462.462 0 0 1 .769-.042.467.467 0 0 1 .093.283c0 .084-.074 8.596-7.238 11.338a.435.435 0 0 1-.158.027Zm.825-6.189-.315 5.01c4.217-1.99 5.449-6.31 5.811-8.634a16.043 16.043 0 0 1-5.496 3.643v-.019Zm-7.753-22.411c.411-.086.567-1.003.349-2.048-.218-1.045-.727-1.822-1.138-1.736-.411.086-.567 1.003-.349 2.048.217 1.045.727 1.822 1.138 1.736Z"/><path fill="#0F0F0F" d="M196.039 139.179c-2.419 1.412-5.561.492-7.878-1.097a15.925 15.925 0 0 1-6.746-11.913 7.995 7.995 0 0 1 .862-4.591c6.274-10.529 23.64 11.839 13.762 17.601Z"/><path fill="#1C1C1C" d="M193.342 140.331a9.952 9.952 0 0 1-5.422-1.859 16.41 16.41 0 0 1-4.833-5.334 16.444 16.444 0 0 1-2.089-6.895 8.271 8.271 0 0 1 .926-4.832c1.4-2.351 3.429-3.346 5.904-2.89 4.837.929 10.407 7.434 11.454 13.381.602 3.467-.473 6.189-3.021 7.686a5.615 5.615 0 0 1-2.919.743Zm-6.654-21.095a4.645 4.645 0 0 0-4.041 2.593 7.367 7.367 0 0 0-.806 4.34 15.573 15.573 0 0 0 6.561 11.588c2.057 1.422 5.088 2.444 7.414 1.078 2.845-1.664 2.993-4.647 2.613-6.803-.982-5.575-6.311-11.876-10.778-12.703a5.982 5.982 0 0 0-.963-.093Z"/><path fill="#fff" d="m150.314 142.849 43.213-.529-20.018-51.083-43.213.52 20.018 51.092Z"/><path fill="#1C1C1C" d="M150.314 143.267a.399.399 0 0 1-.389-.269l-20.027-51.11a.427.427 0 0 1 0-.39.398.398 0 0 1 .343-.187l43.213-.53a.505.505 0 0 1 .399.27l20.026 51.111a.424.424 0 0 1-.195.524.439.439 0 0 1-.194.052l-43.213.52.037.009Zm-19.406-51.11 19.693 50.246 42.314-.52-19.692-50.237-42.315.511Z"/><path fill="#fff" d="m151.787 141.604 43.213-.52-20.017-51.083-43.213.52 20.017 51.083Z"/><path fill="#1C1C1C" d="M151.787 142.032a.407.407 0 0 1-.389-.27l-20.026-51.11a.44.44 0 0 1 0-.39.42.42 0 0 1 .342-.196l43.223-.52a.481.481 0 0 1 .398.27l20.017 51.11a.418.418 0 0 1-.046.39.428.428 0 0 1-.343.195l-43.213.521h.037Zm-19.396-51.11 19.683 50.236 42.315-.511-19.693-50.237-42.305.511Z"/><path fill="#D1D3D4" d="M147.774 116.458a.475.475 0 0 1-.463-.465.468.468 0 0 1 .463-.465l30.842-.371a.461.461 0 0 1 .328.787.47.47 0 0 1-.328.142l-30.842.372Zm2.039 5.204a.463.463 0 0 1-.327-.794.463.463 0 0 1 .327-.136l30.842-.371a.44.44 0 0 1 .472.455.457.457 0 0 1-.277.435.47.47 0 0 1-.177.039l-30.85.372h-.01Zm2.048 5.204a.462.462 0 0 1-.463-.465.464.464 0 0 1 .463-.465l30.851-.371a.464.464 0 0 1 0 .929l-30.851.372Zm13.326 5.074a.476.476 0 0 1-.463-.465.468.468 0 0 1 .463-.465l19.554-.241a.464.464 0 0 1 0 .929l-19.554.242Zm-19.044-19.664a.455.455 0 0 1-.435-.288l-6.654-17.025a.476.476 0 0 1 .426-.632l16.811-.204a.463.463 0 0 1 .436.288l6.663 17.025a.467.467 0 0 1-.21.579.443.443 0 0 1-.217.052l-16.81.205h-.01Zm-5.995-17.025 6.301 16.096 15.829-.195-6.311-16.096-15.819.195Zm31.805 4.545h-1.029l-.834-2.138h-.751l-.5 2.147h-1.242l.658-2.249a2.313 2.313 0 0 1-1.168-.437 2.014 2.014 0 0 1-.704-.929 1.202 1.202 0 0 1-.102-.706.75.75 0 0 1 .306-.446c.181-.123.387-.205.602-.242.257-.05.517-.074.779-.074h2.011l1.974 5.074Zm-2.169-2.89-.537-1.376h-1.326a1.234 1.234 0 0 0-.342.093.397.397 0 0 0-.195.214.446.446 0 0 0 0 .353.93.93 0 0 0 .259.39c.114.09.243.16.38.205.143.039.289.064.436.074h.454l.871.047Zm-2.928 2.954-3.976.047-.315-.808h2.947l-.537-1.366h-2.651l-.324-.809h2.66l-.491-1.236h-2.781l-.315-.808 3.828-.047 1.955 5.028Zm2.159 1.627a1.28 1.28 0 0 1 .621-.409c.273-.087.557-.131.843-.13.274-.007.548.018.816.074.272.062.537.156.788.279.245.119.47.276.667.465.199.189.355.421.454.678.111.222.137.476.074.716a.868.868 0 0 1-.334.437 1.987 1.987 0 0 1-.565.26 6.024 6.024 0 0 0-.584.204 1.23 1.23 0 0 0-.407.26.38.38 0 0 0 0 .428c.048.116.12.221.213.306.097.088.206.16.324.214.118.056.243.096.371.121.126.018.254.018.38 0 .206.004.41-.044.593-.139a.795.795 0 0 0 .343-.4l1.028.651a1.22 1.22 0 0 1-.648.539 3.191 3.191 0 0 1-.973.167 3.824 3.824 0 0 1-.853-.093 3.21 3.21 0 0 1-.788-.288 2.659 2.659 0 0 1-.658-.502 2.159 2.159 0 0 1-.454-.706 1.078 1.078 0 0 1-.074-.716.932.932 0 0 1 .334-.446 1.96 1.96 0 0 1 .565-.26c.213-.065.408-.139.584-.205a1.45 1.45 0 0 0 .417-.241.353.353 0 0 0 .046-.4.937.937 0 0 0-.194-.288 1.317 1.317 0 0 0-.297-.204 2.286 2.286 0 0 0-.352-.112h-.362a1.432 1.432 0 0 0-.537.102.534.534 0 0 0-.315.307l-1.066-.669Zm-5.866-.325h1.029l1.241 3.159c.053.14.125.271.214.391.103.139.225.264.361.371a1.839 1.839 0 0 0 1.177.381c.198.007.395-.034.574-.121a.657.657 0 0 0 .288-.288.708.708 0 0 0 .065-.371 1.347 1.347 0 0 0-.084-.391l-1.26-3.215h1.029l1.251 3.197c.111.261.162.543.148.827a1.049 1.049 0 0 1-.25.622c-.153.188-.356.33-.584.409a2.371 2.371 0 0 1-.862.149 3.14 3.14 0 0 1-.973-.13 3.183 3.183 0 0 1-.927-.381 3.713 3.713 0 0 1-.741-.623 2.738 2.738 0 0 1-.501-.817l-1.195-3.169Zm13.447 10.333h-.788l-1.325-3.373-.093 3.392h-.574l-2.734-3.355 1.316 3.374h-.788l-1.594-4.061h1.251l2.373 2.834.12-2.862h1.26l1.576 4.051Zm-6.033.075h-3.197l-.26-.651h2.373l-.427-1.096h-2.141l-.25-.651h2.132l-.389-.994h-2.252l-.26-.66h3.077l1.594 4.052Z"/><path fill="#fff" d="M146.412 107.137c-.927-1.097-.611-2.379-.676-3.624-.065-1.245-.556-2.453-.603-3.643a4.708 4.708 0 0 1 .693-2.253 4.684 4.684 0 0 1 1.698-1.631 2.405 2.405 0 0 1 2.827.102c.454-.716 1.584-.66 2.456-.288a7.947 7.947 0 0 1 3.03 2.462 9.54 9.54 0 0 1 2.02 4.182 5.18 5.18 0 0 1-.88 4.154 5.557 5.557 0 0 1-3.512 1.859 14.926 14.926 0 0 1-4.263-.075 4.562 4.562 0 0 1-2.484-.929 3.262 3.262 0 0 1-.306-.316Z"/><path fill="#D1D3D4" d="M151.834 109.014a20.165 20.165 0 0 1-2.688-.204 4.91 4.91 0 0 1-2.733-1.004 3.348 3.348 0 0 1-.362-.372 4.218 4.218 0 0 1-.769-3.048v-.845a11.346 11.346 0 0 0-.287-1.747 10.19 10.19 0 0 1-.315-1.859 5.138 5.138 0 0 1 2.622-4.312 2.86 2.86 0 0 1 2.984-.102 2.685 2.685 0 0 1 2.706-.112 8.34 8.34 0 0 1 3.216 2.602 9.994 9.994 0 0 1 2.122 4.387 5.642 5.642 0 0 1-.982 4.525 6.04 6.04 0 0 1-3.8 2.008c-.568.074-1.141.102-1.714.083Zm-5.069-2.174c.082.099.172.193.269.278a4.032 4.032 0 0 0 2.233.772c1.364.224 2.752.252 4.124.083a5.11 5.11 0 0 0 3.225-1.672 4.654 4.654 0 0 0 .788-3.773 9.192 9.192 0 0 0-1.928-3.978 7.568 7.568 0 0 0-2.845-2.323c-.695-.288-1.594-.353-1.853.112a.43.43 0 0 1-.306.204.454.454 0 0 1-.362-.083 1.93 1.93 0 0 0-2.317-.075 4.23 4.23 0 0 0-2.159 3.466 9.37 9.37 0 0 0 .287 1.738c.158.61.264 1.231.316 1.859v.929a3.334 3.334 0 0 0 .556 2.435l-.028.028Z"/><path fill="#D1D3D4" d="m154.707 108.113.064.074c.157.213.324.418.501.613.66.885 1.216 1.842 1.659 2.853h4.42a8.893 8.893 0 0 0-.352-.66c-1.511-2.574-3.114-3.614-4.374-4.005a4.282 4.282 0 0 0-2.048-.13 2.342 2.342 0 0 0-.389.102s-.093.316.519 1.153Z"/><path fill="#fff" d="m154.206 105.836 1.094 2.955s.306 1.719-1.65 1.645a4.535 4.535 0 0 1-3.123-1.561l-1.668-5.176a9.908 9.908 0 0 0-.704-2.788 5.665 5.665 0 0 0 3.234-2.602s1.158.93 1.603 1.236c.359.204.692.45.992.734.45.538.768 1.175.927 1.858.26.745.458 1.509.593 2.287.231 1.412-1.298 1.412-1.298 1.412Z"/><path fill="#D1D3D4" d="M153.78 110.901h-.148a5.046 5.046 0 0 1-3.457-1.738.766.766 0 0 1-.074-.149c-1.242-3.856-1.566-4.869-1.65-5.167a1.15 1.15 0 0 1-.055-.334 9.142 9.142 0 0 0-.649-2.463.439.439 0 0 1 .297-.613 5.204 5.204 0 0 0 2.937-2.37.49.49 0 0 1 .325-.241.44.44 0 0 1 .38.102c.315.26 1.204.93 1.556 1.199.385.22.743.486 1.066.79.516.58.887 1.274 1.084 2.025.276.767.481 1.557.612 2.361a1.628 1.628 0 0 1-.334 1.375c-.22.252-.51.433-.834.52l.927 2.426a1.998 1.998 0 0 1-.38 1.663 1.966 1.966 0 0 1-1.603.614Zm-2.845-2.259a4.124 4.124 0 0 0 2.78 1.329c.175.026.353.013.522-.037a1.21 1.21 0 0 0 .46-.251c.167-.238.236-.53.195-.818l-1.075-2.871a.497.497 0 0 1 .056-.427.48.48 0 0 1 .38-.196c.284.002.559-.104.769-.297a.76.76 0 0 0 .111-.632 13.057 13.057 0 0 0-.565-2.202 4.22 4.22 0 0 0-.862-1.654 4.713 4.713 0 0 0-.927-.67c-.296-.185-.862-.631-1.251-.929a6.1 6.1 0 0 1-2.78 2.203c.267.718.444 1.467.528 2.23v.158c0 .037 1.436 4.386 1.659 5.064Z"/><path fill="#fff" d="M148.377 101.078a1.018 1.018 0 0 0-1.131 0 1.12 1.12 0 0 0-.102 1.208c.189.488.448.945.769 1.357.172.261.4.48.668.641a.67.67 0 0 0 .815-.065"/><path fill="#D1D3D4" d="M148.988 104.851a1.354 1.354 0 0 1-.611-.149 2.49 2.49 0 0 1-.834-.78 5.92 5.92 0 0 1-.834-1.478 1.536 1.536 0 0 1 .231-1.719 1.464 1.464 0 0 1 1.668-.046.468.468 0 0 1 .172.636.467.467 0 0 1-.635.172.592.592 0 0 0-.593-.065c-.102.093-.083.39 0 .706.172.445.409.862.704 1.236.13.206.305.381.51.511.08.032.17.032.25 0a.452.452 0 0 1 .49-.152.472.472 0 0 1 .325.404.472.472 0 0 1-.101.343.933.933 0 0 1-.742.381Zm-2.232 5.065c.067.628.188 1.25.361 1.858h4.698c-.556-1.143-1.047-2.165-1.408-2.89-.074-.139-.139-.279-.195-.39l-.389-.79c-.462.158-.914.344-1.353.557-.834.381-1.742.985-1.714 1.655Z"/><path fill="#fff" d="M154.836 102.236c.551-.682.378-1.74-.389-2.365-.767-.624-1.836-.579-2.388.102-.551.681-.377 1.74.389 2.365.767.624 1.836.579 2.388-.102Z"/><path fill="#D1D3D4" d="M153.669 103.262a2.462 2.462 0 0 1-2.262-1.598 2.059 2.059 0 0 1 .102-1.673 1.852 1.852 0 0 1 1.242-.93 2.413 2.413 0 0 1 2.78 1.543 2.105 2.105 0 0 1-.092 1.673 1.863 1.863 0 0 1-1.251.929c-.17.041-.345.059-.519.056Zm-1.39-1.914a1.518 1.518 0 0 0 1.658.929 1.021 1.021 0 0 0 .649-.483 1.13 1.13 0 0 0 0-.93 1.492 1.492 0 0 0-1.659-.929.92.92 0 0 0-.639.483 1.13 1.13 0 0 0 0 .93h-.009Z"/><path fill="#fff" d="M151.795 101.934c.552-.685.374-1.745-.396-2.37-.771-.624-1.842-.574-2.394.11-.551.685-.374 1.745.397 2.369.77.624 1.842.575 2.393-.109Z"/><path fill="#D1D3D4" d="M150.249 103.773a2.459 2.459 0 0 1-2.261-1.598 2.06 2.06 0 0 1 .102-1.673 1.853 1.853 0 0 1 1.242-.93 2.413 2.413 0 0 1 2.78 1.543 2.104 2.104 0 0 1-.093 1.673 1.86 1.86 0 0 1-1.251.929c-.17.04-.344.059-.519.056Zm-1.39-1.914a1.515 1.515 0 0 0 1.659.929 1.017 1.017 0 0 0 .649-.483 1.13 1.13 0 0 0 0-.929 1.508 1.508 0 0 0-.664-.762 1.506 1.506 0 0 0-.995-.168.986.986 0 0 0-.64.483 1.13 1.13 0 0 0 0 .93h-.009Z"/><path fill="#fff" d="M151.63 101.831s1.455 1.199 1.325 1.496c-.13.297-.825.288-.825.288"/><path fill="#D1D3D4" d="M152.168 104.08h-.047a.462.462 0 0 1-.463-.465.468.468 0 0 1 .463-.465h.204a9.652 9.652 0 0 0-1.01-.929.47.47 0 0 1 .593-.725c1.724 1.431 1.548 1.859 1.446 2.054-.204.474-.908.53-1.186.53Z"/><path fill="#D1D3D4" d="M152.538 105.148a2.467 2.467 0 0 1-.834-.148.474.474 0 0 1-.272-.238.483.483 0 0 1-.019-.362.462.462 0 0 1 .425-.306.45.45 0 0 1 .181.032 1.768 1.768 0 0 0 1.696-.372.455.455 0 0 1 .329-.137.455.455 0 0 1 .329.137.453.453 0 0 1 0 .651 2.856 2.856 0 0 1-1.835.743Z"/><path fill="#1C1C1C" d="M139.054 100.66a2.6 2.6 0 0 1-2.308-1.505l-3.03-7.75a1.768 1.768 0 0 1 .121-1.673 1.98 1.98 0 0 1 1.668-.79 3.624 3.624 0 0 1 3.215 2.081l.927 2.454a.454.454 0 0 1-.005.355.473.473 0 0 1-.254.249.473.473 0 0 1-.603-.26l-.926-2.463a2.705 2.705 0 0 0-2.345-1.487 1.046 1.046 0 0 0-.927.381.933.933 0 0 0 0 .818l3.04 7.74a1.649 1.649 0 0 0 1.455.93.585.585 0 0 0 .491-.195.448.448 0 0 0 0-.418l-2.372-6.161a.561.561 0 0 0-.492-.298l2.169 5.576a.49.49 0 0 1 .045.184.477.477 0 0 1-.138.345.462.462 0 0 1-.769-.195l-2.196-5.575a.869.869 0 0 1 .074-.846.922.922 0 0 1 .806-.4 1.52 1.52 0 0 1 1.353.93l2.41 6.151a1.376 1.376 0 0 1-.102 1.274 1.463 1.463 0 0 1-1.251.604l-.056-.056Z"/><path fill="#0F0F0F" d="M197.882 128.864a18.448 18.448 0 0 0-6.885-8.829 13.794 13.794 0 0 0-5.07-2.434c-1.964-.335-2.363 1.607-.824 2.667l3.864 2.639c.278.195.612.372.871.595.445.399.38.186.287.697a9.897 9.897 0 0 0 .232 4.795 23.379 23.379 0 0 0 1.464 3.382"/><path fill="#D9D9D9" d="M191.877 132.804a.416.416 0 0 1-.38-.233 24.395 24.395 0 0 1-1.501-3.447 10.451 10.451 0 0 1-.241-5v-.148l-.176-.149a3.642 3.642 0 0 0-.528-.372l-.306-.195-3.874-2.667a2.155 2.155 0 0 1-1.019-2.49 1.855 1.855 0 0 1 2.15-.93 14.29 14.29 0 0 1 5.236 2.5 18.954 18.954 0 0 1 7.043 9.033.433.433 0 0 1-.012.326.426.426 0 0 1-.785-.029 18.016 18.016 0 0 0-6.728-8.633 13.52 13.52 0 0 0-4.903-2.36c-.611-.103-1.065.055-1.214.418-.148.362 0 .994.705 1.477l3.864 2.64.278.185c.224.129.435.278.63.446l.204.168a.606.606 0 0 1 .26.734v.186a9.564 9.564 0 0 0 .213 4.59 24.102 24.102 0 0 0 1.446 3.327.42.42 0 0 1 .029.324.405.405 0 0 1-.215.243.355.355 0 0 1-.176.056Z"/><path fill="#0F0F0F" d="M174.937 197.723h47.216v-38.862h-47.216v38.862Z"/><path fill="#D1D3D4" d="M222.153 198.188h-47.262a.464.464 0 0 1-.464-.465V158.87a.464.464 0 0 1 .464-.464h47.262a.464.464 0 0 1 .464.464v38.853a.465.465 0 0 1-.464.465Zm-46.753-.929h46.336v-37.924H175.4v37.924Z"/><path fill="#0F0F0F" d="M179.385 158.861h40.118v-5.297h-40.118v5.297Z"/><path fill="#D9D9D9" d="M219.503 159.288h-40.118a.423.423 0 0 1-.426-.418v-5.306a.423.423 0 0 1 .426-.418h40.118a.423.423 0 0 1 .426.418v5.306a.423.423 0 0 1-.426.418Zm-39.673-.845h39.265v-4.452H179.83v4.452Z"/><path fill="#0F0F0F" d="M121.715 153.35h103.636v-8.847H121.715v8.847Z"/><path fill="#D9D9D9" d="M225.351 153.778H121.715a.427.427 0 0 1-.388-.265.431.431 0 0 1-.029-.163v-8.837a.431.431 0 0 1 .119-.302.427.427 0 0 1 .298-.126h103.636a.425.425 0 0 1 .426.428v8.837a.426.426 0 0 1-.426.428Zm-103.209-.846h102.792v-8.001H122.142v8.001Z"/><path fill="#0F0F0F" d="M15.512 153.35h113.45v-8.847H15.512v8.847Z"/><path fill="#D9D9D9" d="M128.962 153.778H15.504a.41.41 0 0 1-.299-.126.42.42 0 0 1-.119-.302v-8.837a.42.42 0 0 1 .418-.428h113.458a.428.428 0 0 1 .427.428v8.837a.426.426 0 0 1-.427.428Zm-113.06-.846h112.634v-8.001H15.93l-.028 8.001Z"/><path fill="#fff" d="m222.014 93.662 2.113-8.79 30.341-5.316.788 10.603-33.242 3.503Z"/><path fill="#1C1C1C" d="M222.015 94.127a.466.466 0 0 1-.364-.18.485.485 0 0 1-.091-.396l2.113-8.791a.47.47 0 0 1 .371-.353l30.35-5.306a.47.47 0 0 1 .484.242.5.5 0 0 1 .054.185l.787 10.594a.472.472 0 0 1-.417.502l-33.241 3.494-.046.01Zm2.483-8.847-1.853 7.853 32.138-3.383-.713-9.636-29.572 5.166Z"/><path fill="#FDFC00" d="M278.563 96.432s-13.678-12.834-40.702-9.2c-27.023 3.633-24.484 16.727-26.43 29.597-1.946 12.871 0 59.521 0 59.521s-35.938-6.115-39.849 0c-3.911 6.115-.63 22.609-.63 22.609h41.591l57.948-4.748 8.072-97.78Z"/><path fill="#1C1C1C" d="M229.261 184.713s7.933-89.21 20.073-99.284c12.14-10.073 45.409-6.505 50.043 5.576 4.634 12.08-16.153 89.573-20.759 100.046-4.605 10.473-6.487 9.99-28.413 9.99-13.901 0-65.436 3.773-69.198-3.355-3.763-7.127 8.136-13.79 48.254-12.973Z"/><path fill="#1C1C1C" d="M210.291 202.472c-15.754 0-27.802-1.013-29.701-4.554a4.944 4.944 0 0 1 0-5.12c3.707-6.012 20.832-9.023 48.254-8.475.658-7.183 8.341-89.397 20.175-99.21 8.127-6.747 24.567-7.193 35.901-4.191 7.868 2.082 13.104 5.576 14.744 9.971 4.764 12.592-16.366 90.345-20.758 100.363-4.504 10.222-6.534 10.222-26.013 10.222h-2.781c-2.882 0-7.469.167-12.788.362-9.36.344-18.711.632-27.033.632Zm12.604-17.396c-23.345 0-38.358 2.918-41.573 8.15a4.11 4.11 0 0 0 0 4.311c2.863 5.409 37.439 4.164 56.02 3.495 5.32-.196 9.916-.363 12.817-.363h2.78c19.378 0 20.981 0 25.262-9.748 4.727-10.77 25.207-87.938 20.75-99.74-1.548-4.089-6.589-7.434-14.188-9.47-14.93-3.958-29.266-.873-35.216 4.034-11.853 9.832-19.832 98.141-19.906 99.024a.428.428 0 0 1-.408.381 376.511 376.511 0 0 0-6.338-.074Z"/><path fill="#1C1C1C" d="M206.371 162.411c-5.56.752-11.5 2.397-14.892 6.876-4.207 5.576-3.058 13.373-1.714 20.221 2.626.248 5.216.794 7.719 1.627a22.796 22.796 0 0 1-1.093-12.443 8.453 8.453 0 0 1 2.585-5.13 9.66 9.66 0 0 1 4.893-1.654c11.121-1.515 21.204.176 32.121 1.57 1.76-6.412-.64-9.971-6.719-10.844a82.856 82.856 0 0 0-22.9-.223Z"/><path fill="#1C1C1C" d="M197.484 191.497h-.13a34.093 34.093 0 0 0-7.626-1.608.408.408 0 0 1-.362-.325c-1.371-6.979-2.484-14.868 1.789-20.546 3.762-4.981 10.453-6.403 15.161-7.044a83.572 83.572 0 0 1 23.01.232c3.142.446 5.338 1.608 6.543 3.448 1.205 1.84 1.418 4.563.491 7.908a.425.425 0 0 1-.445.297l-3.456-.455c-9.61-1.264-18.683-2.463-28.553-1.115a9.252 9.252 0 0 0-4.689 1.561c-1.195.929-1.992 2.565-2.446 4.897a22.569 22.569 0 0 0 1.075 12.211.406.406 0 0 1-.084.428.415.415 0 0 1-.278.111Zm-7.414-2.407c2.275.234 4.522.688 6.71 1.357a23.496 23.496 0 0 1-.834-11.876c.491-2.528 1.39-4.284 2.734-5.371a10.169 10.169 0 0 1 5.097-1.747c9.971-1.357 19.099-.158 28.728 1.124l3.105.4c.75-2.918.583-5.242-.501-6.886-1.084-1.645-3.077-2.677-5.968-3.095a82.32 82.32 0 0 0-22.788-.223c-4.56.613-11.037 1.989-14.624 6.719-3.929 5.297-2.937 12.861-1.622 19.598h-.037Z"/><path fill="#1C1C1C" d="M225.499 182.855a.417.417 0 0 1-.186 0l-14.067-6.05a.463.463 0 0 1 .015-.847.46.46 0 0 1 .346-.008l14.068 6.059a.46.46 0 0 1 .287.427.45.45 0 0 1-.037.177.467.467 0 0 1-.426.242Z"/><path fill="#0F0F0F" d="M121.715 202.082h57.67V153.36h-57.67v48.722Z"/><path fill="#D9D9D9" d="M179.385 202.5h-57.67a.411.411 0 0 1-.388-.265.431.431 0 0 1-.029-.163V153.35a.418.418 0 0 1 .417-.418h57.67a.428.428 0 0 1 .427.418v48.722a.428.428 0 0 1-.427.428Zm-57.243-.846h56.817v-47.876h-56.817v47.876Z"/><path fill="#0F0F0F" d="M20.462 202.082h101.253V153.36H20.462v48.722Z"/><path fill="#D9D9D9" d="M121.715 202.5H20.434a.421.421 0 0 1-.305-.123.417.417 0 0 1-.122-.305V153.35a.417.417 0 0 1 .427-.418h101.281a.429.429 0 0 1 .427.418v48.722a.43.43 0 0 1-.427.428Zm-100.827-.846h100.41v-47.876H20.888v47.876Zm152.65-6.17h-45.076a.464.464 0 0 1-.463-.465v-34.588a.463.463 0 0 1 .463-.464h45.076a.474.474 0 0 1 .463.464v34.588a.466.466 0 0 1-.463.465Zm-44.613-.929h44.149v-33.659h-44.149v33.659Z"/><path fill="#D1D3D4" d="M150.814 172.215a3.547 3.547 0 0 1-3.286-2.191 3.566 3.566 0 0 1 .764-3.882 3.542 3.542 0 0 1 5.463.535 3.563 3.563 0 0 1-2.941 5.538Zm0-6.18a2.619 2.619 0 0 0-2.43 1.619 2.635 2.635 0 0 0 .566 2.87 2.621 2.621 0 0 0 4.477-1.869 2.63 2.63 0 0 0-2.613-2.62Z"/><path fill="#0F0F0F" d="M145.374 123.567a54.426 54.426 0 0 0 1.779 4.953 64.17 64.17 0 0 0-6.357-4.721 2.105 2.105 0 0 0-1.399-.483 1.94 1.94 0 0 0-1.27 1.18c-1.909 3.717-.991 8.438 1.316 11.951 3.707 5.575 10.055 10.426 16.922 10.045.446.009.886-.107 1.27-.334.279-.239.506-.534.667-.865a79.863 79.863 0 0 0 3.197-6.384c.211-.341.284-.75.204-1.143a1.653 1.653 0 0 0-.778-.771c-4.912-3.104-7.637-7.648-10.852-12.248-.649-.929-2.132-4.293-3.531-4.238-1.566.084-1.529 1.877-1.168 3.058Z"/><path fill="#D9D9D9" d="M155.615 146.938c-7.164 0-13.327-5.455-16.505-10.222-2.614-3.977-3.142-8.837-1.335-12.378a2.246 2.246 0 0 1 1.557-1.403 2.49 2.49 0 0 1 1.696.548 61.97 61.97 0 0 1 5.125 3.717 53.742 53.742 0 0 1-1.177-3.457 3.634 3.634 0 0 1 .167-2.908 1.713 1.713 0 0 1 1.399-.707c1.307 0 2.502 2.008 3.355 3.513.166.319.348.629.546.929l1.168 1.701c2.78 3.987 5.329 7.75 9.555 10.426a1.636 1.636 0 0 1 .967 1.046 1.624 1.624 0 0 1-.226 1.408c-.927 2.174-2.057 4.33-3.216 6.412a2.926 2.926 0 0 1-.797 1.003c-.447.278-.965.42-1.492.409-.259-.046-.528-.037-.787-.037Zm-16.051-23.232h-.102c-.334.047-.64.363-.927.929-1.668 3.271-1.158 7.797 1.297 11.514 3.161 4.805 9.397 10.222 16.533 9.86.367.012.729-.078 1.047-.26.233-.199.419-.447.547-.725a84.34 84.34 0 0 0 3.188-6.338c.15-.252.215-.545.185-.836-.074-.223-.361-.4-.611-.558-4.374-2.788-7.006-6.598-9.796-10.659l-1.167-1.7c-.158-.214-.352-.567-.584-.93-.621-1.087-1.724-3.113-2.586-3.085a.934.934 0 0 0-.741.353 2.786 2.786 0 0 0-.056 2.166 52.942 52.942 0 0 0 1.761 4.916.428.428 0 0 1-.148.501.405.405 0 0 1-.519 0 61.313 61.313 0 0 0-6.311-4.646 2.06 2.06 0 0 0-1.01-.474v-.028Z"/><path fill="#FDFC00" d="M235.433 97.575s-5.56 57.011-24.632 56.686c-19.072-.325-59.31-6.31-59.31-7.146 0-.837 4.958-15.798 4.958-15.798s42.768 4.47 46.947-2.24c4.18-6.709 10.658-27.822 10.658-27.822"/><path fill="#1C1C1C" d="M212.265 154.047c-15.949 0-44.622-3.717-46.206-3.921a.466.466 0 0 1-.222-.831.469.469 0 0 1 .342-.099c17.432 2.286 51.489 5.799 55.548 2.788 5.097-3.763 13.122-37.106 13.196-37.45a.484.484 0 0 1 .566-.344.482.482 0 0 1 .343.567c-.334 1.385-8.183 34.012-13.549 37.98-1.279.911-5.023 1.31-10.018 1.31Z"/><path fill="#fff" d="M240.141 186.061h-.074a.452.452 0 0 1-.352-.548c6.709-30.518 19.22-89.211 18.599-92.928-1.019-6.115-6.886-5.242-7.136-5.204a.468.468 0 0 1-.537-.39.47.47 0 0 1 .389-.54c.074 0 7.015-1.069 8.192 5.966.816 4.823-17.811 89.685-18.599 93.291a.479.479 0 0 1-.178.262.467.467 0 0 1-.304.091Z"/></svg>