<svg xmlns="http://www.w3.org/2000/svg" width="24" height="25" fill="none"><path stroke="#0F0F0F" stroke-linecap="round" stroke-linejoin="round" stroke-width="1.5" d="M17 21.882H7c-4 0-5-1-5-5v-8c0-4 1-5 5-5h10c4 0 5 1 5 5v8c0 4-1 5-5 5Zm-3-13h5m-4 4h4m-2 4h2"/><path stroke="#0F0F0F" stroke-linecap="round" stroke-linejoin="round" stroke-width="1.5" d="M8.5 12.172a1.81 1.81 0 1 0 0-3.62 1.81 1.81 0 0 0 0 3.62Zm3.5 5.04a3.02 3.02 0 0 0-2.74-2.72 7.72 7.72 0 0 0-1.52 0A3.03 3.03 0 0 0 5 17.212"/></svg>