<svg xmlns="http://www.w3.org/2000/svg" width="459" height="351" fill="none"><path fill="#1C1C1C" d="M76.083 102.568c15.995 0 28.961-12.945 28.961-28.915 0-15.97-12.966-28.915-28.96-28.915-15.995 0-28.962 12.946-28.962 28.915 0 15.97 12.967 28.915 28.961 28.915Z"/><path fill="#fff" d="M76.083 103.3a29.727 29.727 0 0 1-16.501-4.989A29.657 29.657 0 0 1 48.639 85.01a29.604 29.604 0 0 1-1.696-17.13 29.633 29.633 0 0 1 8.123-15.185 29.709 29.709 0 0 1 15.204-8.117A29.739 29.739 0 0 1 87.43 46.26a29.686 29.686 0 0 1 13.329 10.92 29.618 29.618 0 0 1 5.005 16.472 29.656 29.656 0 0 1-8.7 20.95 29.746 29.746 0 0 1-20.98 8.697Zm0-57.815a28.26 28.26 0 0 0-15.688 4.744 28.192 28.192 0 0 0-10.402 12.647 28.14 28.14 0 0 0-1.61 16.286 28.169 28.169 0 0 0 7.726 14.434 28.242 28.242 0 0 0 14.456 7.714 28.27 28.27 0 0 0 16.313-1.608 28.219 28.219 0 0 0 12.667-10.386 28.146 28.146 0 0 0 4.751-15.663 28.192 28.192 0 0 0-8.276-19.905 28.28 28.28 0 0 0-19.937-8.263Z"/><path fill="#1C1C1C" d="m278.898 133.504 95.965 33.559-50.396 12.904-59.037-29.134 13.468-17.329Z"/><path fill="#1C1C1C" d="M324.511 180.612a.598.598 0 0 1-.279 0l-59.037-29.135a.655.655 0 0 1-.353-.723.648.648 0 0 1 .119-.258l13.424-17.402a.677.677 0 0 1 .733-.219l95.965 33.558a.646.646 0 0 1 .282 1.018.627.627 0 0 1-.341.212l-50.396 12.92-.117.029Zm-58.083-29.94 58.083 28.607 48.092-12.319-93.47-32.694-12.705 16.406Z"/><path fill="#FDFC00" d="M166.473 245.151s-50.88 15.395-76.217 0c0 0 19.366 24.139 45.715 21.444 26.35-2.695 30.502-21.444 30.502-21.444Z"/><path fill="#FDFC00" d="M184.21 231.806s-38.776 37.514-82.804 27.641c-61.135-13.623-108.23-86.203-67.297-177.24 0 0-42.547 61.698-20.54 130.513 30.164 94.201 103.022 90.304 177.199 71.072M289.637 62.33s-11.076 50.345-10.739 71.175c0 1.025 3.301 3.588 3.374 4.394 1.6 18.588-58.45 2.929-58.45 2.929s-2.23-39.417 2.245-53.523c4.475-14.106 9.272-17.197 9.272-17.197s40.17-15.76 47.227-13.549c7.057 2.212 7.071 5.772 7.071 5.772Z"/><path fill="#FDFC00" d="m268.086 83.819 76.393-40.003-6.089-19.6-81.689 41.337 11.385 18.266Z"/><path fill="#1C1C1C" d="M159.211 245.722s-1.13 8.159 5.413 24.549c6.544 16.391 12.984 21.518 12.984 21.518l23.269-2.929-22.814-57.127-18.852 13.989Z"/><path fill="#1C1C1C" d="M177.608 292.434a.644.644 0 0 1-.396-.132c-.264-.219-6.661-5.434-13.204-21.796-6.543-16.361-5.502-24.535-5.458-24.901a.644.644 0 0 1 .264-.425l18.853-13.915a.626.626 0 0 1 .557-.103.623.623 0 0 1 .426.381l22.814 57.127a.657.657 0 0 1 0 .571.648.648 0 0 1-.47.308l-23.268 2.856-.118.029Zm-17.781-46.36c-.118 1.465-.367 9.55 5.399 23.949 5.765 14.399 11.473 20.082 12.588 21.093l22.153-2.71-22.168-55.589-17.972 13.257Z"/><path fill="#2F2F2F" d="M275.01 283.792s-6.484 18.647-27.229 36.136c-20.746 17.49-72.99 27.831-72.99 27.831l28.639-59.778 71.58-4.189Z"/><path fill="#fff" d="M174.865 348.418a.716.716 0 0 1-.573-.278.743.743 0 0 1-.088-.776L202.74 287.6a.73.73 0 0 1 .616-.41l71.581-4.131a.706.706 0 0 1 .631.293.742.742 0 0 1 .117.674c-.073.191-6.792 19.042-27.464 36.459-20.672 17.416-72.784 27.831-73.356 27.933Zm29.122-59.807-27.875 58.064c8.553-1.816 52.816-11.718 71.214-27.318 17.605-14.824 24.941-30.643 26.599-34.789l-69.938 4.043Z"/><path fill="#2F2F2F" d="M235.398 184.611s-17.517-6.21-44.63-4.643c-27.112 1.567-72.138 27.128-72.138 27.128l61.986 23.7 54.782-46.185Z"/><path fill="#fff" d="M180.616 231.528a.835.835 0 0 1-.264 0l-61.986-23.729a.762.762 0 0 1-.47-.63.74.74 0 0 1 .367-.689c.455-.263 45.481-25.677 72.461-27.23 26.981-1.553 44.748 4.614 44.909 4.673a.735.735 0 0 1 .489.56.727.727 0 0 1-.254.699l-54.783 46.185a.803.803 0 0 1-.469.161Zm-60.255-24.55 60.152 22.968 53.433-45.042c-4.401-1.333-20.54-5.522-43.09-4.204-24.06 1.392-62.763 22.03-70.495 26.278Z"/><path fill="#2F2F2F" d="M166.517 226.064c22.784-22.294 59.536-45.247 103.623-62.81 66.813-26.6 116.299-3.647 132.686 6.021a9.347 9.347 0 0 1 3.931 4.58 9.327 9.327 0 0 1 .309 6.025c-5.223 18.28-25.322 68.918-92.135 95.518-44.087 17.578-86.56 26.162-118.455 25.634 0 0-10.27-9.067-20.731-35.155-10.461-26.088-9.228-39.813-9.228-39.813Z"/><path fill="#fff" d="M199.219 301.794h-2.758a.736.736 0 0 1-.484-.176c-.426-.381-10.534-9.492-20.907-35.477-10.372-25.986-9.331-39.55-9.287-40.121a.749.749 0 0 1 .22-.454c23.65-23.143 61.502-46.097 103.873-62.986 66.328-26.366 115.33-4.555 133.332 6.064a10.083 10.083 0 0 1 4.229 4.938 10.06 10.06 0 0 1 .334 6.488c-5.737 20.082-26.233 69.607-92.561 96.017-41.197 16.405-83.26 25.707-115.991 25.707Zm-2.45-1.465c32.834.439 75.835-8.789 117.898-25.59 65.727-26.176 86.017-75.187 91.695-95.05a8.624 8.624 0 0 0-3.902-9.77c-17.811-10.503-66.329-32.138-132.042-5.962-42.062 16.743-79.65 39.549-103.182 62.444-.088 2.007-.264 15.498 9.199 39.183 9.462 23.686 18.881 33.324 20.334 34.73v.015Z"/><path fill="#2F2F2F" d="M407.066 179.88a140.1 140.1 0 0 1-36.208 59.617s-14.246-9.727-26.628-40.751c-12.383-31.024-8.803-47.854-8.803-47.854a140.28 140.28 0 0 1 67.356 18.383 9.332 9.332 0 0 1 4.283 10.605Z"/><path fill="#fff" d="M370.858 240.229a.754.754 0 0 1-.411-.132c-.587-.41-14.568-10.253-26.907-41.014-12.338-30.76-8.935-47.591-8.803-48.338a.752.752 0 0 1 .719-.586 140.493 140.493 0 0 1 67.723 18.486 10.077 10.077 0 0 1 4.562 11.425 140.102 140.102 0 0 1-36.282 59.954.74.74 0 0 1-.601.205Zm-34.771-88.59c-.469 3.237-2.054 19.613 8.803 46.873 10.857 27.26 23.312 38.084 25.895 40.047a138.697 138.697 0 0 0 35.563-58.855 8.617 8.617 0 0 0-3.903-9.77 138.848 138.848 0 0 0-66.358-18.295ZM176.713 222.93a.76.76 0 0 1-.557-.249.729.729 0 0 1-.141-.248.734.734 0 0 1 .048-.557.7.7 0 0 1 .181-.22 524.997 524.997 0 0 1 51.789-37.294.752.752 0 0 1 1.013.234.723.723 0 0 1-.027.805.715.715 0 0 1-.208.191 529.453 529.453 0 0 0-51.628 37.148.723.723 0 0 1-.47.19Z"/><path fill="#1C1C1C" d="M232.992 299.04a.732.732 0 0 1-.499-.19c-.205-.191-20.026-19.042-29.87-43.709-9.845-24.667-8.466-51.971-8.451-52.235a.713.713 0 0 1 .488-.667.745.745 0 0 1 .979.74c0 .264-1.364 27.289 8.348 51.62 9.712 24.33 29.342 42.991 29.518 43.182a.726.726 0 0 1 .161.801.748.748 0 0 1-.674.458Z"/><path fill="#fff" d="M400.802 167.458s28.198-7.324 29.871-3.134c1.672 4.189-23.826 18.251-23.826 18.251"/><path fill="#fff" d="M406.846 183.22a.645.645 0 0 1-.308-1.202c12.031-6.65 24.457-15.204 23.474-17.46-.983-2.256-15.815.073-29.108 3.53a.654.654 0 0 1-.792-.468.659.659 0 0 1 .071-.493.637.637 0 0 1 .399-.298c6.748-1.744 28.887-7.105 30.633-2.74 1.746 4.365-18.016 15.688-24.119 19.043a.819.819 0 0 1-.25.088Z"/><path fill="#2F2F2F" d="M403.311 185.226a33.897 33.897 0 0 1-6.896-17.255 3.947 3.947 0 0 1 3.463-4.072 3.18 3.18 0 0 1 2.465.446 3.187 3.187 0 0 1 1.379 2.088 29.38 29.38 0 0 0 5.883 14.882 3.166 3.166 0 0 1-.078 3.625 3.19 3.19 0 0 1-.949.858 3.931 3.931 0 0 1-5.267-.572Z"/><path fill="#fff" d="M406.23 187.292a4.402 4.402 0 0 1-3.507-1.641 34.88 34.88 0 0 1-7.042-17.577 4.647 4.647 0 0 1 4.108-4.878 4.392 4.392 0 0 1 3.33.835 3.415 3.415 0 0 1 1.336 2.358 28.766 28.766 0 0 0 5.795 14.516 3.388 3.388 0 0 1 .66 2.622 4.398 4.398 0 0 1-1.849 2.93 4.796 4.796 0 0 1-2.831.835Zm-5.766-22.719h-.484a3.206 3.206 0 0 0-2.832 3.281 33.576 33.576 0 0 0 6.734 16.889 3.221 3.221 0 0 0 4.314.425c.329-.219.61-.502.827-.831.216-.33.364-.7.434-1.088a1.954 1.954 0 0 0-.366-1.465 30.304 30.304 0 0 1-6.104-15.263 2.015 2.015 0 0 0-.762-1.362 2.838 2.838 0 0 0-1.761-.572v-.014Z"/><path fill="#D9D9D9" d="M238.816 286.619a.74.74 0 0 1-.777-.689.73.73 0 0 1 .689-.776c.661-.073 66.094-7.91 118.192-50.052a.736.736 0 0 1 1.027.102.762.762 0 0 1-.103 1.04c-52.435 42.479-118.279 50.287-118.94 50.36l-.088.015Z"/><path fill="#0F0F0F" d="M269.23 53.234a5.63 5.63 0 0 0 2.934-2.856 23.404 23.404 0 0 0 3.785-12.495 24.983 24.983 0 0 0-7.42-17.272 25.063 25.063 0 0 0-17.374-7.234l5.194 4.219a27.222 27.222 0 0 0-12.888 2.678 27.17 27.17 0 0 0-10.117 8.41 8.242 8.242 0 0 1 5.34.25 69.5 69.5 0 0 0-7.819 2.534c-.406.11-.765.346-1.027.673-.214.46-.245.983-.088 1.465 1.878 8.716 8.421 16.757 17.15 18.603 1.467.308 2.935.44 4.504.63 3.331.425 6.617 1.128 9.977 1.303 2.109.15 4.228-.003 6.294-.454.527-.119 1.046-.27 1.555-.454Z"/><path fill="#fff" d="M262.892 54.89h-1.643a63.87 63.87 0 0 1-6.544-.806 141.796 141.796 0 0 0-3.477-.498l-1.085-.132c-1.145-.147-2.318-.279-3.477-.528-8.495-1.787-15.581-9.462-17.606-19.042a2.512 2.512 0 0 1 .176-2.007 2.558 2.558 0 0 1 1.335-.922 68.037 68.037 0 0 1 5.267-1.831 7.492 7.492 0 0 0-2.347.307.675.675 0 0 1-.734-.249.706.706 0 0 1 0-.79 28.031 28.031 0 0 1 9.512-8.172 28.07 28.07 0 0 1 12.128-3.21l-3.711-3.018a.682.682 0 0 1-.206-.747.689.689 0 0 1 .646-.44 25.785 25.785 0 0 1 17.823 7.397 25.7 25.7 0 0 1 7.675 17.681 23.934 23.934 0 0 1-3.888 12.905 6.272 6.272 0 0 1-3.257 3.135c-.541.219-1.101.39-1.672.512a21.09 21.09 0 0 1-4.915.454Zm-27.259-27.26c1.12.003 2.23.217 3.272.63a.707.707 0 0 1 .425.673.685.685 0 0 1-.499.6 65.665 65.665 0 0 0-7.761 2.52.909.909 0 0 0-.689 1.465c1.966 9.14 8.641 16.406 16.622 18.09 1.1.235 2.245.366 3.345.498l1.115.132c1.159.147 2.333.337 3.507.513 2.122.374 4.262.638 6.411.79 2.046.154 4.103.001 6.103-.453.501-.111.992-.263 1.467-.455a4.91 4.91 0 0 0 2.612-2.563 22.87 22.87 0 0 0 3.726-12.187 24.32 24.32 0 0 0-6.536-16.08 24.396 24.396 0 0 0-15.603-7.65l3.595 2.93a.692.692 0 0 1 .205.762.615.615 0 0 1-.66.425 26.828 26.828 0 0 0-11.775 2.273 26.786 26.786 0 0 0-9.601 7.174l.719-.087Z"/><path fill="#1C1C1C" d="M251.346 66.388s.264 15.322 7.482 15.805c7.218.484 7.336-13.549 7.336-13.549"/><path fill="#1C1C1C" d="M259.18 82.852h-.396c-7.732-.513-8.084-15.79-8.098-16.435a.65.65 0 0 1 .152-.528.664.664 0 0 1 .776-.17.664.664 0 0 1 .359.417.665.665 0 0 1 .018.281c0 .147.338 14.721 6.881 15.16a3.927 3.927 0 0 0 3.11-1.113c3.433-3.164 3.595-11.718 3.595-11.806a.671.671 0 0 1 .645-.63.646.646 0 0 1 .646.645c0 .38-.161 9.199-4.005 12.743a5.317 5.317 0 0 1-3.683 1.436Z"/><path fill="#0F0F0F" d="m265.548 58.976.675 9.668s-.631 5.449-6.632 4.174a12.184 12.184 0 0 1-8.245-6.43s-1.467-23.144-2.01-29.296a31.005 31.005 0 0 0 12.192-4.145 7.995 7.995 0 0 1 1.804-1.04c1.203-.176 1.057.498 1.585 1.465a9.513 9.513 0 0 0 4.401 4.218c.242.08.456.228.616.425.091.161.142.342.147.527.616 5.523 1.746 11.015.954 16.567-.646 4.746-5.487 3.867-5.487 3.867Z"/><path fill="#fff" d="M261.307 73.683a8.292 8.292 0 0 1-1.848-.206 12.734 12.734 0 0 1-8.73-6.811.709.709 0 0 1 0-.234c0-.234-1.467-23.202-1.995-29.296a.704.704 0 0 1 .161-.498.62.62 0 0 1 .455-.22 30.3 30.3 0 0 0 11.913-4.072l.499-.322a3.925 3.925 0 0 1 1.467-.791 1.647 1.647 0 0 1 1.764.651c.128.183.216.39.261.609.071.212.159.417.264.615a8.651 8.651 0 0 0 4.079 3.91c.366.133.683.373.909.69a1.8 1.8 0 0 1 .235.805c.132 1.187.293 2.373.44 3.545.781 4.35.954 8.786.514 13.183a4.89 4.89 0 0 1-1.893 3.428 6.11 6.11 0 0 1-3.536.995l.616 8.877a6.144 6.144 0 0 1-2.318 4.13 5.45 5.45 0 0 1-3.257 1.012Zm-9.301-7.456a11.594 11.594 0 0 0 7.731 5.947 4.412 4.412 0 0 0 3.81-.394 4.386 4.386 0 0 0 2.059-3.224l-.675-9.521c-.008-.1.006-.2.041-.294a.686.686 0 0 1 .164-.248.698.698 0 0 1 .573-.176 4.98 4.98 0 0 0 3.345-.688 3.644 3.644 0 0 0 1.364-2.534 48.118 48.118 0 0 0-.513-12.817 136.92 136.92 0 0 1-.44-3.575v-.249l-.309-.16a10.058 10.058 0 0 1-4.797-4.527 7.58 7.58 0 0 1-.338-.747 2.711 2.711 0 0 0-.19-.44 1.732 1.732 0 0 0-.367 0 3.857 3.857 0 0 0-.968.572c-.235.146-.44.307-.617.395a32.203 32.203 0 0 1-11.736 4.16c.44 6.65 1.745 26.703 1.863 28.52Z"/><path fill="#0F0F0F" d="M264.066 41.824s3.403 4.394 2.714 5.302c-.69.908-2.788.454-2.788.454"/><path fill="#fff" d="M265.064 48.327a5.55 5.55 0 0 1-1.189-.117.644.644 0 0 1-.517-.502.652.652 0 0 1 .09-.487.645.645 0 0 1 .662-.285c.719.146 1.878.146 2.171-.22a17.357 17.357 0 0 0-2.729-4.438.642.642 0 0 1 .118-.908.647.647 0 0 1 .909.131c2.465 3.208 3.375 5.259 2.715 6.094a2.943 2.943 0 0 1-2.23.732ZM263.64 53.351h-.264c-3.242-.176-5.677-3.31-5.78-3.442a.65.65 0 0 1 1.027-.791s2.186 2.798 4.812 2.93a4.54 4.54 0 0 0 3.609-1.714.662.662 0 0 1 .91 0 .652.652 0 0 1 .144.712.663.663 0 0 1-.144.21 5.865 5.865 0 0 1-4.314 2.095ZM268.452 189.562l-10.724 43.563s53.417-17.856 55.339-23.686c1.922-5.83-27.626.879-27.626.879l2.098-12.451-19.087-8.305Z"/><path fill="#1C1C1C" d="M257.728 233.857a.734.734 0 0 1-.705-.908l10.71-43.563a.73.73 0 0 1 .39-.486.734.734 0 0 1 .623-.012l19.072 8.305a.76.76 0 0 1 .44.791l-1.892 11.382c5.868-1.289 24.09-4.98 27.039-1.729a1.894 1.894 0 0 1 .367 2.022c-1.981 6.02-50.293 22.323-55.751 24.154a.6.6 0 0 1-.293.044Zm11.223-43.27-10.182 41.41c20.54-6.929 52.303-18.881 53.609-22.792.103-.352 0-.484-.073-.586-2.01-2.212-17.444.307-26.702 2.417a.732.732 0 0 1-.66-.191.735.735 0 0 1-.22-.659l2.01-11.879-17.782-7.72Z"/><path fill="#1C1C1C" d="M223.822 140.843s-7.409 30.761 7.218 34.935c14.627 4.175 39.099-12.524 39.099-12.524l-7.922 28.578s-5.311 12.905 2.391 12.334c6.94-8.979 16.417-11.352 22.931-6.299 10.197-11.293 28.096-46.77 16.535-58.943-11.561-12.172-80.252 1.919-80.252 1.919Z"/><path fill="#1C1C1C" d="M264.124 204.869a3.953 3.953 0 0 1-3.403-1.538c-2.48-3.398.762-11.352.895-11.718l7.438-26.835c-5.531 3.53-25.337 15.321-38.145 11.718-15.053-4.292-7.982-34.437-7.673-35.712a.647.647 0 0 1 .498-.483c2.832-.586 69.19-14.033 80.854-1.728 11.663 12.304-5.869 48.059-16.52 59.807a.643.643 0 0 1-.881.088 11.743 11.743 0 0 0-8.802-2.373c-4.695.6-9.361 3.633-13.204 8.554a.62.62 0 0 1-.455.249l-.602-.029Zm6.015-42.215a.627.627 0 0 1 .382.132.632.632 0 0 1 .249.688l-7.878 28.534c-.88 2.183-2.773 8.174-1.056 10.532a2.74 2.74 0 0 0 2.494.996c3.99-5.053 8.89-8.173 13.849-8.789 3.285-.467 6.624.34 9.331 2.256 10.123-11.616 27.069-46.111 16.139-57.625-10.931-11.513-73.547.894-79.225 2.036-.792 3.589-6.133 30.058 6.851 33.69 14.143 4.029 38.322-12.274 38.556-12.436a.682.682 0 0 1 .308-.058v.044ZM257.728 233.125s5.868 5.742 22.593 0 37.852-21.137 32.746-23.686c-5.105-2.549-49.676 15.644-55.339 23.686Z"/><path fill="#1C1C1C" d="M267.014 236.332c-6.793 0-9.565-2.592-9.727-2.753a.645.645 0 0 1-.088-.835c5.575-7.896 50.191-26.879 56.162-23.891a1.935 1.935 0 0 1 1.129 1.919c-.352 5.068-19.38 17.943-33.949 22.968a42.128 42.128 0 0 1-13.527 2.592Zm-8.362-3.325c1.658 1.099 7.922 4.16 21.464-.498 14.671-5.053 32.805-17.694 33.083-21.825a.643.643 0 0 0-.425-.674c-4.402-2.212-47.154 14.838-54.122 22.997Z"/><path fill="#fff" d="M287.833 207.549a79.669 79.669 0 0 0-11.194 5.171l.601-6.738s8.671-4.204 10.593-3.955v5.522Z"/><path fill="#1C1C1C" d="M276.669 213.453a.688.688 0 0 1-.367-.103.71.71 0 0 1-.352-.703l.601-6.723a.707.707 0 0 1 .396-.586c1.467-.718 8.994-4.277 11.018-4.043a.723.723 0 0 1 .458.244c.116.136.178.31.173.488v5.523a.748.748 0 0 1-.469.688 79.41 79.41 0 0 0-11.048 5.098.8.8 0 0 1-.41.117Zm1.305-6.987-.44 4.877a92.929 92.929 0 0 1 9.595-4.291v-4.248a56.88 56.88 0 0 0-9.155 3.662Z"/><path fill="#FDFC00" d="M241.809 67.677s-52.977 21.474-57.467 27.509c-4.489 6.035-12.192 42.625-12.192 42.625l16.007-2.3s14.48-22.704 18.97-27.508c4.489-4.805 29.856-11.528 29.856-11.528l4.826-28.798Z"/><path fill="#fff" d="m196.872 125.155-10.769 18.398s9.155 7.324 6.925 8.525c-2.23 1.201-4.402 2.153-4.402 2.153s-.234 6.02-2.934 6.738c-2.699.718-17.767-.615-17.092-5.771 2.347-17.783 5.267-38.011 5.076-35.697l23.196 5.654Z"/><path fill="#1C1C1C" d="M183.58 161.877c-4.035 0-11.283-1.011-14.232-3.589a3.49 3.49 0 0 1-1.379-3.193c.983-7.544 2.201-16.391 3.316-24.257.983-6.87 1.467-9.916 1.746-11.249a.627.627 0 0 1 0-.162.224.224 0 0 0 0 .103c.249-.996.44-.981.792-.937a.71.71 0 0 1 .528.293l22.667 5.551a.762.762 0 0 1 .499.425.736.736 0 0 1 0 .659l-10.475 17.826c2.201 1.802 7.233 6.153 7.042 8.247a1.374 1.374 0 0 1-.733 1.099 83.43 83.43 0 0 1-3.976 1.992c-.118 1.567-.69 6.225-3.389 6.958-.791.171-1.598.25-2.406.234Zm-9.273-41.483c-.616 3.853-2.934 19.687-4.885 34.891a2.125 2.125 0 0 0 .895 1.905c3.257 2.841 13.204 3.618 15.273 3.061 1.745-.469 2.288-4.629 2.347-6.049a.729.729 0 0 1 .425-.63s2.113-.967 4.299-2.139c.088-.776-3.184-4.233-7.027-7.324a.71.71 0 0 1-.267-.435.722.722 0 0 1 .09-.502l10.27-17.578-21.42-5.2Z"/><path fill="#fff" d="M339.638 49.514c0-.733-7.233-25.297-7.233-25.297l15.654-5.478s-.235-5.772 3.125-7.94c3.36-2.167 7.952 0 7.952 0S372.853-.728 374.54 1.674c1.688 2.402-3.374 7.69-11.076 13.183 0 0 4.093 11.542-.485 15.146a17.53 17.53 0 0 1-9.345 3.764l-13.996 15.747Z"/><path fill="#1C1C1C" d="M339.638 50.246a.835.835 0 0 1-.264 0 .719.719 0 0 1-.47-.645c-.161-1.025-4.401-15.57-7.204-25.135a.762.762 0 0 1 .47-.908l15.155-5.303c0-1.567.396-6.05 3.463-8.027 3.066-1.977 6.925-.747 8.216-.234C361.63 7.81 370.931.238 374.056.663a1.542 1.542 0 0 1 1.086.63c2.435 3.471-5.516 10.078-10.813 13.915.763 2.388 3.507 11.982-.895 15.44a18.512 18.512 0 0 1-9.448 3.91L340.18 50.041a.72.72 0 0 1-.542.205ZM333.314 24.7c2.245 7.676 5.605 19.174 6.69 23.32l13.087-14.648a.778.778 0 0 1 .514-.25 16.933 16.933 0 0 0 8.92-3.603c3.418-2.695 1.335-11.25.249-14.325a.735.735 0 0 1 .264-.835c8.95-6.416 11.913-10.766 10.901-12.217-1.042-.63-7.717 3.72-14.334 9.287a.72.72 0 0 1-.777.088s-4.27-1.948-7.248 0c-2.978 1.948-2.788 7.236-2.788 7.324a.735.735 0 0 1-.498.718l-14.98 5.141ZM279.544 122.05h-.132a.67.67 0 0 1-.528-.791c4.298-21.122 8.377-59.104 8.172-60.95a.639.639 0 0 1 .239-.683.69.69 0 0 1 1.066.39c.367 1.362-3.858 40.37-8.157 61.521a.694.694 0 0 1-.66.513ZM211.895 104.531a.676.676 0 0 1-.647-.562.677.677 0 0 1 .427-.742l29.915-9.814a.676.676 0 0 1 .801.441.67.67 0 0 1-.376.834l-29.915 9.814a.529.529 0 0 1-.205.029Z"/><path fill="#1C1C1C" d="M359.414 26.165a1.733 1.733 0 0 1-.381 0 6.77 6.77 0 0 1-3.056-1.55 6.745 6.745 0 0 1-1.903-2.845 5.045 5.045 0 0 1-3.448 4.248.65.65 0 0 1-.712-.215.632.632 0 0 1-.129-.497.638.638 0 0 1 .276-.433.64.64 0 0 1 .242-.1c3.272-.85 2.7-6.547 2.685-6.606a.66.66 0 0 1 .572-.718.677.677 0 0 1 .719.557s.91 6.152 4.944 6.753a.738.738 0 0 0 .749-.235c1.467-1.611-.147-9.184-1.467-13.564a.644.644 0 0 1 .425-.805.648.648 0 0 1 .807.44c.367 1.23 3.521 12.098 1.188 14.779a1.943 1.943 0 0 1-1.511.79Z"/><path fill="#FDFC00" d="M28.563 225.947c-2.2-4.394-23.68-41.292-26.98-64.934 0 0-.382 46.068 18.808 69.783 19.19 23.715 8.172-4.849 8.172-4.849Z"/><path fill="#1C1C1C" d="m253.855 39.963-7.395 3.179v1.611l9.991-2.93-2.596-1.86Z"/><path fill="#fff" d="M246.46 45.398a.647.647 0 0 1-.582-.359.63.63 0 0 1-.063-.286v-1.611a.637.637 0 0 1 .381-.6l7.336-3.18a.643.643 0 0 1 .631.074l2.596 1.875a.647.647 0 0 1 .25.63.626.626 0 0 1-.455.512l-9.991 2.93-.103.015Zm.646-1.831v.322l7.893-2.314-1.218-.88-6.675 2.872Z"/><path fill="#0F0F0F" d="M251.434 46.1c-1.115-1.376-2.935-3.896-4.974-2.929a3.447 3.447 0 0 0-1.379 1.172 6.178 6.178 0 0 0 .117 6.972c1.101 1.875 4.402 4.6 6.309 2.036"/><path fill="#fff" d="M249.555 55.036h-.19a7.11 7.11 0 0 1-4.754-3.398 6.851 6.851 0 0 1 0-7.734 4.13 4.13 0 0 1 1.643-1.377c2.407-1.07 4.402 1.362 5.502 2.812l.264.337a.689.689 0 0 1-.088.952.677.677 0 0 1-.953-.103l-.279-.351c-1.291-1.626-2.568-3.018-3.903-2.432a2.934 2.934 0 0 0-1.115.967 5.543 5.543 0 0 0 .162 6.24 5.677 5.677 0 0 0 3.667 2.74 1.759 1.759 0 0 0 1.468-.777.677.677 0 0 1 1.112.079.66.66 0 0 1-.056.741 3.068 3.068 0 0 1-2.48 1.304Z"/><path fill="#0F0F0F" d="M258.686 42.928c2.466-.262 4.301-2.007 4.1-3.897-.202-1.89-2.364-3.21-4.829-2.95-2.466.263-4.301 2.007-4.1 3.898.202 1.89 2.364 3.21 4.829 2.949Z"/><path fill="#fff" d="M258.08 43.625a4.598 4.598 0 0 1-3.121-.874 4.584 4.584 0 0 1-1.765-2.714c-.249-2.256 1.863-4.395 4.695-4.644a5.992 5.992 0 0 1 3.682.762 3.701 3.701 0 0 1 1.878 2.783c.25 2.256-1.863 4.394-4.695 4.643-.223.03-.449.044-.674.044Zm.498-6.928h-.557c-2.083.22-3.653 1.64-3.492 3.164.162 1.523 1.981 2.578 4.093 2.358 2.113-.22 3.668-1.64 3.507-3.164a2.48 2.48 0 0 0-1.262-1.787 4.409 4.409 0 0 0-2.289-.571Z"/><path fill="#0F0F0F" d="M267.875 42.488c2.466-.262 4.301-2.006 4.1-3.897-.202-1.89-2.363-3.21-4.829-2.949-2.466.262-4.301 2.007-4.1 3.897.202 1.89 2.364 3.21 4.829 2.95Z"/><path fill="#fff" d="M267.293 43.186a4.596 4.596 0 0 1-4.885-3.589c-.235-2.255 1.878-4.394 4.695-4.643 2.816-.25 5.34 1.289 5.575 3.545.234 2.255-1.864 4.394-4.695 4.628l-.69.059Zm.514-6.928h-.558c-2.098.22-3.667 1.64-3.506 3.163.161 1.524 2.01 2.578 4.093 2.359 2.083-.22 3.668-1.64 3.507-3.164a3.257 3.257 0 0 0-3.565-2.358h.029Z"/><path fill="#1C1C1C" d="M83.492 198.512c3.736 0 6.764-3.024 6.764-6.753s-3.028-6.753-6.764-6.753c-3.735 0-6.763 3.024-6.763 6.753s3.028 6.753 6.763 6.753Z"/><path fill="#fff" d="M83.492 199.244a7.508 7.508 0 0 1-6.95-4.619 7.491 7.491 0 0 1 1.619-8.178 7.514 7.514 0 0 1 8.188-1.633 7.494 7.494 0 0 1 2.446 12.229 7.518 7.518 0 0 1-5.303 2.201Zm0-13.52a6.051 6.051 0 0 0-5.596 3.719 6.026 6.026 0 0 0 1.307 6.584 6.05 6.05 0 0 0 9.306-.924 6.03 6.03 0 0 0-.757-7.611 6.051 6.051 0 0 0-4.26-1.768Z"/><path fill="#1C1C1C" d="M338.376 112.046a3.387 3.387 0 0 0 3.389-3.384 3.387 3.387 0 0 0-3.389-3.384 3.386 3.386 0 0 0-3.389 3.384 3.386 3.386 0 0 0 3.389 3.384Z"/><path fill="#fff" d="M338.376 112.778a4.125 4.125 0 0 1-3.82-2.531 4.107 4.107 0 0 1 .885-4.491 4.123 4.123 0 0 1 4.494-.898 4.12 4.12 0 0 1 2.549 3.804 4.112 4.112 0 0 1-1.203 2.905 4.127 4.127 0 0 1-2.905 1.211Zm0-6.768a2.657 2.657 0 0 0-2.621 3.16 2.648 2.648 0 0 0 2.083 2.091 2.66 2.66 0 0 0 3.179-2.599 2.659 2.659 0 0 0-2.641-2.652Z"/><path fill="#1C1C1C" d="M386.336 100.811c3.735 0 6.763-3.024 6.763-6.753 0-3.73-3.028-6.753-6.763-6.753-3.736 0-6.764 3.023-6.764 6.753s3.028 6.753 6.764 6.753ZM397.545 344.888c21.043 0 38.101-17.031 38.101-38.041 0-21.009-17.058-38.04-38.101-38.04s-38.101 17.031-38.101 38.04c0 21.01 17.058 38.041 38.101 38.041Z"/><path fill="#fff" d="M397.56 345.62a38.883 38.883 0 0 1-20.479-5.829 38.8 38.8 0 0 1-14.32-15.734 38.717 38.717 0 0 1 3.907-40.705 38.824 38.824 0 0 1 17.054-12.732 38.895 38.895 0 0 1 21.215-1.84 38.866 38.866 0 0 1 18.996 9.606 38.767 38.767 0 0 1 11.068 18.164 38.727 38.727 0 0 1-6.556 33.787 38.832 38.832 0 0 1-13.652 11.249 38.9 38.9 0 0 1-17.233 4.034Zm0-76.095a37.414 37.414 0 0 0-21.803 6.998 37.324 37.324 0 0 0-13.624 18.38 37.27 37.27 0 0 0-.331 22.863 37.33 37.33 0 0 0 13.086 18.765 37.426 37.426 0 0 0 43.584 1.246 37.33 37.33 0 0 0 14.14-17.987 37.266 37.266 0 0 0 .98-22.845 37.377 37.377 0 0 0-13.396-19.773 37.474 37.474 0 0 0-22.651-7.647h.015Z"/><path fill="#fff" d="M351.668 327.662c-6.807 0-12.969-.981-13.908-4.394-1.511-5.61 12.734-12.934 21.405-16.83a.733.733 0 0 1 .968.38.733.733 0 0 1-.381.967c-16.256 7.222-21.288 12.524-20.54 15.088.748 2.563 7.761 4.57 25.411 2.46a274.676 274.676 0 0 0 70.73-19.393c16.241-7.193 21.273-12.51 20.539-15.088-.733-2.578-7.746-4.555-25.41-2.446a.74.74 0 0 1-.822-.644.739.739 0 0 1 .646-.821c9.419-1.128 25.44-2.153 26.995 3.516 1.555 5.668-12.72 12.978-21.376 16.801a275.004 275.004 0 0 1-71.2 19.569c-4.332.529-8.692.808-13.057.835Z"/><path fill="#D9D9D9" d="M320.11 296.843a.736.736 0 0 1-.734-.732v-8.628a.736.736 0 0 1 .734-.732c.194 0 .381.077.519.214a.735.735 0 0 1 .214.518v8.628c0 .194-.077.38-.214.518a.738.738 0 0 1-.519.214Z"/><path fill="#D9D9D9" d="M324.512 292.522h-8.642a.73.73 0 0 1-.514-1.246.748.748 0 0 1 .514-.219h8.642a.733.733 0 1 1 0 1.465ZM420.11 122.108a.736.736 0 0 1-.734-.732v-8.628a.736.736 0 0 1 .734-.732.733.733 0 0 1 .733.732v8.628a.732.732 0 0 1-.733.732Z"/><path fill="#D9D9D9" d="M424.437 117.802h-8.641a.733.733 0 1 1 0-1.465h8.641a.733.733 0 0 1 .734.733.744.744 0 0 1-.734.732ZM55.75 311.227a.732.732 0 0 1-.734-.732v-8.628a.732.732 0 0 1 .733-.732.735.735 0 0 1 .734.732v8.628a.732.732 0 0 1-.734.732Z"/><path fill="#D9D9D9" d="M60.062 306.921h-8.641a.748.748 0 0 1-.734-.733.732.732 0 0 1 .734-.732h8.641a.732.732 0 1 1 0 1.465ZM142.852 126.43a.733.733 0 0 1-.733-.733v-8.627a.732.732 0 0 1 1.252-.518.733.733 0 0 1 .215.518v8.7a.735.735 0 0 1-.734.66Z"/><path fill="#D9D9D9" d="M147.165 122.108h-8.641a.738.738 0 0 1-.519-.214.735.735 0 0 1 0-1.036.738.738 0 0 1 .519-.214h8.641a.734.734 0 0 1 .734.732.732.732 0 0 1-.734.732Z"/></svg>