<svg xmlns="http://www.w3.org/2000/svg" width="1440" height="1024" fill="none"><g clip-path="url(#a)" opacity=".7"><path fill="#0F0F0F" d="M0 0h1440v1024H0z" style="mix-blend-mode:screen"/><path fill="#fff" fill-opacity=".5" d="M992 181h1v1h-1z"/><path fill="#fff" fill-opacity=".4" d="M1166 0h1v1h-1z"/><path fill="#fff" fill-opacity=".6" d="M290 288h1v1h-1z"/><path fill="#fff" fill-opacity=".3" d="M1013 813h1v1h-1z"/><path fill="#fff" fill-opacity=".5" d="M1034 906h2v2h-2z"/><path fill="#fff" fill-opacity=".3" d="M37 401h1v1h-1z"/><path fill="#fff" fill-opacity=".5" d="M407 648h2v2h-2z"/><path fill="#fff" fill-opacity=".3" d="M1103 130h1v1h-1z"/><path fill="#fff" fill-opacity=".5" d="M1173 97h2v2h-2zM536 648h2v2h-2zm-28-505h2v2h-2zm109-78h2v2h-2z"/><path fill="#fff" fill-opacity=".6" d="M468 42h2v2h-2z"/><path fill="#fff" fill-opacity=".5" d="M969 579h2v2h-2z"/><path fill="#fff" fill-opacity=".4" d="M317 227h1v1h-1z"/><path fill="#fff" fill-opacity=".3" d="M844 69h1v1h-1z"/><path fill="#fff" fill-opacity=".6" d="M153 702h1v1h-1z"/><path fill="#fff" fill-opacity=".5" d="M1001 399h2v2h-2z"/><path fill="#fff" fill-opacity=".4" d="M1161 413h1v1h-1z"/><path fill="#fff" fill-opacity=".6" d="M518 471h1v1h-1z"/><path fill="#fff" fill-opacity=".3" d="M230 418h1v1h-1z"/><path fill="#fff" fill-opacity=".5" d="M186 633h1v1h-1zm545 17h2v2h-2zm361 140h2v2h-2zM444 67h2v2h-2zm756 774h1v1h-1z"/><path fill="#fff" fill-opacity=".4" d="M603 533h1v1h-1z"/><path fill="#fff" fill-opacity=".3" d="M570 565h2v2h-2z"/><path fill="#fff" fill-opacity=".5" d="M279 515h2v2h-2z"/><path fill="#fff" fill-opacity=".3" d="M1435 282h1v1h-1z"/><path fill="#fff" fill-opacity=".4" d="M288 439h2v2h-2zm615 332h2v2h-2zM609 621h1v1h-1zm705-317h1v1h-1z"/><path fill="#fff" fill-opacity=".3" d="M212 552h1v1h-1z"/><path fill="#fff" fill-opacity=".4" d="M235 931h1v1h-1z"/><path fill="#fff" fill-opacity=".5" d="M1326 692h1v1h-1zm14-167h1v1h-1z"/><path fill="#fff" fill-opacity=".3" d="M1198 220h2v2h-2z"/><path fill="#fff" fill-opacity=".5" d="M667 933h1v1h-1z"/><path fill="#fff" fill-opacity=".3" d="M699 586h1v1h-1z"/><path fill="#fff" fill-opacity=".5" d="M629 69h1v1h-1z"/><path fill="#fff" fill-opacity=".6" d="M626 168h2v2h-2zM502 30h2v2h-2zm110 121h1v1h-1zM339 4h1v1h-1z"/><path fill="#fff" fill-opacity=".5" d="M729 934h2v2h-2z"/><path fill="#fff" fill-opacity=".3" d="M725 402h1v1h-1z"/><path fill="#fff" fill-opacity=".4" d="M1332 329h1v1h-1zM509 225h1v1h-1zm423 146h2v2h-2zm167 455h2v2h-2zM157 151h1v1h-1zm34 348h2v2h-2zm173-71h2v2h-2zm185 297h2v2h-2z"/><path fill="#fff" fill-opacity=".6" d="M624 229h2v2h-2z"/><path fill="#fff" fill-opacity=".4" d="M14 245h1v1h-1zm640 715h1v1h-1zM298 152h1v1h-1z"/><path fill="#fff" fill-opacity=".5" d="M685 914h1v1h-1z"/><path fill="#fff" fill-opacity=".4" d="M929 398h2v2h-2z"/><path fill="#fff" fill-opacity=".3" d="M1084 570h1v1h-1z"/><path fill="#fff" fill-opacity=".4" d="M361 224h1v1h-1zm106 319h2v2h-2z"/><path fill="#fff" fill-opacity=".5" d="M518 300h2v2h-2z"/><path fill="#fff" fill-opacity=".6" d="M308 100h1v1h-1z"/><path fill="#fff" fill-opacity=".5" d="M781 322h2v2h-2z"/><path fill="#fff" fill-opacity=".4" d="M966 635h1v1h-1z"/><path fill="#fff" fill-opacity=".5" d="M813 651h1v1h-1z"/><path fill="#fff" fill-opacity=".6" d="M465 509h1v1h-1z"/><path fill="#fff" fill-opacity=".4" d="M1062 754h2v2h-2zM743 102h1v1h-1zm552 253h1v1h-1zM460 766h1v1h-1zm356 2h1v1h-1z"/><path fill="#fff" fill-opacity=".6" d="M1253 240h2v2h-2z"/><path fill="#fff" fill-opacity=".4" d="M1416 541h2v2h-2z"/><path fill="#fff" fill-opacity=".5" d="M1391 365h1v1h-1zM120 23h1v1h-1zm307 913h1v1h-1z"/><path fill="#fff" fill-opacity=".4" d="M1315 606h2v2h-2zM89 287h1v1h-1zm390 6h1v1h-1zm807 147h1v1h-1zM55 404h2v2h-2zm1097-108h2v2h-2z"/><path fill="#fff" fill-opacity=".6" d="M1182 1008h2v2h-2z"/><path fill="#fff" fill-opacity=".5" d="M436 44h1v1h-1z"/><path fill="#fff" fill-opacity=".3" d="M4 510h1v1H4z"/><path fill="#fff" fill-opacity=".4" d="M703 350h2v2h-2zm279-186h2v2h-2z"/><path fill="#fff" fill-opacity=".5" d="M1402 700h1v1h-1z"/><path fill="#fff" fill-opacity=".6" d="M266 145h2v2h-2z"/><path fill="#fff" fill-opacity=".5" d="M512 47h2v2h-2z"/><path fill="#fff" fill-opacity=".6" d="M470 755h1v1h-1z"/><path fill="#fff" fill-opacity=".5" d="M876 716h2v2h-2zM473 29h1v1h-1zm354 602h2v2h-2zm60-495h2v2h-2z"/><path fill="#fff" fill-opacity=".4" d="M511 321h1v1h-1z"/><path fill="#fff" fill-opacity=".3" d="M1112 119h1v1h-1z"/><path fill="#fff" fill-opacity=".5" d="M1351 541h1v1h-1zm-308-54h2v2h-2z"/><path fill="#fff" fill-opacity=".4" d="M291 383h1v1h-1z"/><path fill="#fff" fill-opacity=".5" d="M1140 191h2v2h-2z"/><path fill="#fff" fill-opacity=".6" d="M144 538h1v1h-1z"/><path fill="#fff" fill-opacity=".5" d="M719 880h1v1h-1zm-436 129h2v2h-2z"/><path fill="#fff" fill-opacity=".3" d="M1057 980h2v2h-2z"/><path fill="#fff" fill-opacity=".4" d="M97 600h1v1h-1zm1005 291h1v1h-1zm72-237h2v2h-2z"/><path fill="#fff" fill-opacity=".6" d="M1429 594h1v1h-1z"/><path fill="#fff" fill-opacity=".4" d="M419 3h2v2h-2zm42 432h1v1h-1zm94 131h2v2h-2z"/><path fill="#fff" fill-opacity=".5" d="M85 165h2v2h-2z"/><path fill="#fff" fill-opacity=".6" d="M501 534h1v1h-1z"/><path fill="#fff" fill-opacity=".3" d="M707 161h2v2h-2zm284 781h2v2h-2z"/><path fill="#fff" fill-opacity=".4" d="M897 745h1v1h-1zM695 3h2v2h-2zM590 472h2v2h-2zM323 163h2v2h-2zm507 501h1v1h-1z"/><path fill="#fff" fill-opacity=".5" d="M667 697h1v1h-1zM266 495h2v2h-2z"/><path fill="#fff" fill-opacity=".4" d="M263 862h1v1h-1z"/><path fill="#fff" fill-opacity=".5" d="M1370 326h2v2h-2z"/><path fill="#fff" fill-opacity=".4" d="M724 999h1v1h-1z"/><path fill="#fff" fill-opacity=".5" d="M368 896h2v2h-2zm159-761h1v1h-1z"/><path fill="#fff" fill-opacity=".4" d="M332 268h1v1h-1zM91 521h2v2h-2z"/><path fill="#fff" fill-opacity=".5" d="M1406 643h2v2h-2zm-56-391h1v1h-1z"/><path fill="#fff" fill-opacity=".4" d="M1 517h1v1H1zm120 414h2v2h-2zm174-438h2v2h-2z"/><path fill="#fff" fill-opacity=".5" d="M232 581h1v1h-1z"/><path fill="#fff" fill-opacity=".4" d="M164 626h1v1h-1z"/><path fill="#fff" fill-opacity=".3" d="M1128 1017h2v2h-2z"/><path fill="#fff" fill-opacity=".4" d="M945 127h1v1h-1zM844 519h1v1h-1z"/><path fill="#fff" fill-opacity=".5" d="M1128 147h2v2h-2z"/><path fill="#fff" fill-opacity=".4" d="M649 194h2v2h-2z"/><path fill="#fff" fill-opacity=".3" d="M1395 535h2v2h-2zm-113-109h1v1h-1z"/><path fill="#fff" fill-opacity=".6" d="M1212 935h2v2h-2z"/><path fill="#fff" fill-opacity=".5" d="M53 395h1v1h-1z"/><path fill="#fff" fill-opacity=".3" d="M1259 912h2v2h-2zm-148-405h1v1h-1zm86 11h1v1h-1zM52 916h2v2h-2z"/><path fill="#fff" fill-opacity=".5" d="M1032 621h2v2h-2z"/><path fill="#fff" fill-opacity=".4" d="M511 482h1v1h-1z"/><path fill="#fff" fill-opacity=".6" d="M527 356h1v1h-1z"/><path fill="#fff" fill-opacity=".4" d="M1194 457h2v2h-2z"/><path fill="#fff" fill-opacity=".6" d="M155 164h2v2h-2z"/><path fill="#fff" fill-opacity=".4" d="M238 627h1v1h-1z"/><path fill="#fff" fill-opacity=".5" d="M330 729h1v1h-1z"/><path fill="#fff" fill-opacity=".6" d="M548 344h2v2h-2z"/><path fill="#fff" fill-opacity=".5" d="M903 540h2v2h-2zM120 299h2v2h-2z"/><path fill="#fff" fill-opacity=".4" d="M606 896h1v1h-1z"/><path fill="#fff" fill-opacity=".3" d="M834 687h1v1h-1z"/><path fill="#fff" fill-opacity=".5" d="M207 2h2v2h-2zm956 545h1v1h-1z"/><path fill="#fff" fill-opacity=".6" d="M380 840h1v1h-1z"/><path fill="#fff" fill-opacity=".5" d="M1136 1018h1v1h-1z"/><path fill="#fff" fill-opacity=".4" d="M874 892h2v2h-2zM651 183h2v2h-2z"/><path fill="#fff" fill-opacity=".5" d="M187 436h2v2h-2z"/><path fill="#fff" fill-opacity=".4" d="M585 143h1v1h-1zm760 508h1v1h-1zM739 407h1v1h-1zm-698-4h2v2h-2zm1002 295h2v2h-2zM810 284h2v2h-2z"/><path fill="#fff" fill-opacity=".3" d="M964 269h1v1h-1z"/><path fill="#fff" fill-opacity=".5" d="M235 819h2v2h-2zM28 427h1v1h-1z"/><path fill="#fff" fill-opacity=".6" d="M328 230h1v1h-1z"/><path fill="#fff" fill-opacity=".5" d="M1288 772h1v1h-1z"/><path fill="#fff" fill-opacity=".3" d="M1433 183h1v1h-1z"/><path fill="#fff" fill-opacity=".4" d="M1 734h2v2H1z"/><path fill="#fff" fill-opacity=".5" d="M105 403h1v1h-1z"/><path fill="#fff" fill-opacity=".4" d="M792 852h2v2h-2z"/><path fill="#fff" fill-opacity=".6" d="M298 86h2v2h-2z"/><path fill="#fff" fill-opacity=".4" d="M1028 467h2v2h-2zm403-23h2v2h-2z"/><path fill="#fff" fill-opacity=".5" d="M191 687h2v2h-2zm167 12h2v2h-2zm829 315h2v2h-2z"/><path fill="#fff" fill-opacity=".3" d="M1193 21h2v2h-2z"/><path fill="#fff" fill-opacity=".6" d="M872 858h2v2h-2zM192 320h1v1h-1zM93 450h2v2h-2zm489-51h1v1h-1zm302 176h2v2h-2z"/><path fill="#fff" fill-opacity=".5" d="M713 152h2v2h-2z"/><path fill="#fff" fill-opacity=".6" d="M99 738h2v2h-2z"/><path fill="#fff" fill-opacity=".4" d="M1394 768h2v2h-2z"/><path fill="#fff" fill-opacity=".6" d="M1345 739h2v2h-2z"/><path fill="#fff" fill-opacity=".4" d="M782 417h2v2h-2z"/><path fill="#fff" fill-opacity=".5" d="M622 948h1v1h-1z"/><path fill="#fff" fill-opacity=".3" d="M584 593h2v2h-2zm465-288h1v1h-1z"/><path fill="#fff" fill-opacity=".5" d="M892 82h2v2h-2zm140-35h1v1h-1z"/><path fill="#fff" fill-opacity=".4" d="M1357 930h1v1h-1z"/><path fill="#fff" fill-opacity=".6" d="M445 860h1v1h-1z"/><path fill="#fff" fill-opacity=".3" d="M133 242h1v1h-1z"/><path fill="#fff" fill-opacity=".4" d="M150 726h1v1h-1z"/><path fill="#fff" fill-opacity=".3" d="M350 380h2v2h-2z"/><path fill="#fff" fill-opacity=".6" d="M1423 1011h1v1h-1z"/><path fill="#fff" fill-opacity=".4" d="M993 299h1v1h-1zm185 19h1v1h-1z"/><path fill="#fff" fill-opacity=".6" d="M448 645h1v1h-1z"/><path fill="#fff" fill-opacity=".4" d="M320 467h1v1h-1z"/><path fill="#fff" fill-opacity=".5" d="M544 112h1v1h-1z"/><path fill="#fff" fill-opacity=".4" d="M19 505h2v2h-2z"/><path fill="#fff" fill-opacity=".5" d="M450 1004h2v2h-2zm382-616h1v1h-1zM470 778h1v1h-1z"/><path fill="#fff" fill-opacity=".6" d="M48 93h1v1h-1z"/><path fill="#fff" fill-opacity=".4" d="M1041 246h1v1h-1z"/><path fill="#fff" fill-opacity=".6" d="M1339 342h1v1h-1zm91-124h1v1h-1z"/><path fill="#fff" fill-opacity=".4" d="M224 189h1v1h-1zm291 660h2v2h-2zm775-283h2v2h-2z"/><path fill="#fff" fill-opacity=".5" d="M167 526h1v1h-1zm1025-10h1v1h-1zm-16 192h1v1h-1z"/><path fill="#fff" fill-opacity=".3" d="M633 874h2v2h-2z"/><path fill="#fff" fill-opacity=".5" d="M855 697h1v1h-1zm8-372h2v2h-2z"/><path fill="#fff" fill-opacity=".3" d="M707 243h1v1h-1zm710 18h2v2h-2z"/><path fill="#fff" fill-opacity=".6" d="M1295 730h1v1h-1z"/><path fill="#fff" fill-opacity=".5" d="M1011 49h1v1h-1z"/><path fill="#fff" fill-opacity=".3" d="M955 699h1v1h-1z"/><path fill="#fff" fill-opacity=".6" d="M459 250h2v2h-2z"/><path fill="#fff" fill-opacity=".4" d="M254 870h2v2h-2zm243-355h2v2h-2z"/><path fill="#fff" fill-opacity=".5" d="M841 447h1v1h-1z"/><path fill="#fff" fill-opacity=".4" d="M606 350h1v1h-1z"/><path fill="#fff" fill-opacity=".3" d="M33 810h1v1h-1z"/><path fill="#fff" fill-opacity=".5" d="M1254 790h1v1h-1zM464 657h1v1h-1z"/><path fill="#fff" fill-opacity=".4" d="M23 489h2v2h-2zm742 277h1v1h-1zM158 429h1v1h-1z"/><path fill="#fff" fill-opacity=".3" d="M250 142h2v2h-2zm256 56h1v1h-1z"/><path fill="#fff" fill-opacity=".5" d="M703 282h1v1h-1z"/><path fill="#fff" fill-opacity=".4" d="M204 538h1v1h-1z"/><path fill="#fff" fill-opacity=".6" d="M1094 238h1v1h-1z"/><path fill="#fff" fill-opacity=".5" d="M658 877h1v1h-1z"/><path fill="#fff" fill-opacity=".3" d="M1343 791h2v2h-2z"/><path fill="#fff" fill-opacity=".5" d="M1184 621h2v2h-2z"/><path fill="#fff" fill-opacity=".6" d="M1019 58h2v2h-2z"/><path fill="#fff" fill-opacity=".4" d="M671 427h1v1h-1z"/><path fill="#fff" fill-opacity=".6" d="M657 405h1v1h-1z"/><path fill="#fff" fill-opacity=".5" d="M294 320h2v2h-2zm601 495h2v2h-2zm-174 45h1v1h-1zM236 452h2v2h-2zM3 1023h2v2H3z"/><path fill="#fff" fill-opacity=".3" d="M280 934h1v1h-1z"/><path fill="#fff" fill-opacity=".5" d="M288 82h2v2h-2z"/><path fill="#fff" fill-opacity=".3" d="M332 31h1v1h-1zm777 255h1v1h-1z"/><path fill="#fff" fill-opacity=".5" d="M851 536h2v2h-2z"/><path fill="#fff" fill-opacity=".3" d="M182 352h2v2h-2z"/><path fill="#fff" fill-opacity=".4" d="M604 602h2v2h-2z"/><path fill="#fff" fill-opacity=".6" d="M69 509h2v2h-2z"/><path fill="#fff" fill-opacity=".4" d="M1302 876h1v1h-1zM82 681h1v1h-1zM56 58h2v2h-2z"/><path fill="#fff" fill-opacity=".5" d="M424 956h2v2h-2z"/><path fill="#fff" fill-opacity=".6" d="M588 954h2v2h-2z"/><path fill="#fff" fill-opacity=".4" d="M651 255h2v2h-2z"/><path fill="#fff" fill-opacity=".6" d="M1009 848h2v2h-2z"/><path fill="#fff" fill-opacity=".3" d="M1116 728h1v1h-1zM994 617h2v2h-2z"/><path fill="#fff" fill-opacity=".4" d="M1137 56h2v2h-2z"/><path fill="#fff" fill-opacity=".5" d="M877 229h1v1h-1z"/><path fill="#fff" fill-opacity=".3" d="M460 604h1v1h-1z"/><path fill="#fff" fill-opacity=".5" d="M1323 716h1v1h-1zM363 17h2v2h-2z"/><path fill="#fff" fill-opacity=".4" d="M86 159h1v1h-1zm647 682h2v2h-2z"/><path fill="#fff" fill-opacity=".3" d="M1019 987h1v1h-1z"/><path fill="#fff" fill-opacity=".6" d="M1118 495h1v1h-1z"/><path fill="#fff" fill-opacity=".4" d="M53 946h1v1h-1z"/><path fill="#fff" fill-opacity=".3" d="M1039 139h1v1h-1z"/><path fill="#fff" fill-opacity=".5" d="M445 370h2v2h-2zm569 61h2v2h-2zM574 837h1v1h-1z"/><path fill="#fff" fill-opacity=".6" d="M1101 145h2v2h-2zM248 492h2v2h-2z"/><path fill="#fff" fill-opacity=".3" d="M436 377h1v1h-1z"/><path fill="#fff" fill-opacity=".6" d="M718 805h2v2h-2z"/><path fill="#fff" fill-opacity=".5" d="M753 891h2v2h-2z"/><path fill="#fff" fill-opacity=".4" d="M1035 485h2v2h-2zm280-463h2v2h-2z"/><path fill="#fff" fill-opacity=".5" d="M791 405h1v1h-1zm385 353h2v2h-2z"/><path fill="#fff" fill-opacity=".6" d="M494 436h2v2h-2z"/><path fill="#fff" fill-opacity=".5" d="M1035 739h1v1h-1zm145-127h1v1h-1z"/><path fill="#fff" fill-opacity=".6" d="M780 1003h1v1h-1z"/><path fill="#fff" fill-opacity=".3" d="M699 536h1v1h-1z"/><path fill="#fff" fill-opacity=".6" d="M715 809h1v1h-1z"/><path fill="#fff" fill-opacity=".4" d="M1360 848h2v2h-2z"/><path fill="#fff" fill-opacity=".5" d="M553 457h2v2h-2z"/><path fill="#fff" fill-opacity=".4" d="M913 342h1v1h-1zM564 176h2v2h-2zm90 92h1v1h-1zM359 715h2v2h-2z"/><path fill="#fff" fill-opacity=".6" d="M637 334h1v1h-1zM46 1009h1v1h-1z"/><path fill="#fff" fill-opacity=".5" d="M1207 787h2v2h-2z"/><path fill="#fff" fill-opacity=".4" d="M581 21h1v1h-1zm521 275h2v2h-2z"/><path fill="#fff" fill-opacity=".5" d="M553 967h1v1h-1z"/><path fill="#fff" fill-opacity=".4" d="M458 188h1v1h-1z"/><path fill="#fff" fill-opacity=".5" d="M1150 926h2v2h-2z"/><path fill="#fff" fill-opacity=".3" d="M727 445h1v1h-1z"/><path fill="#fff" fill-opacity=".4" d="M47 296h1v1h-1z"/><path fill="#fff" fill-opacity=".5" d="M1368 371h2v2h-2zM821 708h2v2h-2z"/><path fill="#fff" fill-opacity=".4" d="M237 726h1v1h-1z"/><path fill="#fff" fill-opacity=".3" d="M673 904h2v2h-2z"/><path fill="#fff" fill-opacity=".4" d="M541 908h2v2h-2zM333 519h1v1h-1zm-53-59h1v1h-1zM50 811h2v2h-2z"/><path fill="#fff" fill-opacity=".5" d="M1121 980h2v2h-2z"/><path fill="#fff" fill-opacity=".3" d="M387 727h2v2h-2z"/><path fill="#fff" fill-opacity=".4" d="M237 241h1v1h-1z"/><path fill="#fff" fill-opacity=".5" d="M549 304h1v1h-1z"/><path fill="#fff" fill-opacity=".4" d="M1178 875h1v1h-1z"/><path fill="#fff" fill-opacity=".3" d="M1123 658h1v1h-1z"/><path fill="#fff" fill-opacity=".4" d="M1032 154h1v1h-1z"/><path fill="#fff" fill-opacity=".5" d="M219 129h1v1h-1zm745 588h2v2h-2zm34 6h2v2h-2z"/><path fill="#fff" fill-opacity=".6" d="M511 137h1v1h-1z"/><path fill="#fff" fill-opacity=".3" d="M270 644h2v2h-2z"/><path fill="#fff" fill-opacity=".5" d="M371 303h2v2h-2zm483 175h1v1h-1z"/><path fill="#fff" fill-opacity=".4" d="M360 142h2v2h-2z"/><path fill="#fff" fill-opacity=".5" d="M1009 750h2v2h-2z"/><path fill="#fff" fill-opacity=".3" d="M289 598h2v2h-2z"/><path fill="#fff" fill-opacity=".5" d="M723 753h1v1h-1zm-451 259h2v2h-2zM1428 45h1v1h-1z"/><path fill="#fff" fill-opacity=".3" d="M715 465h2v2h-2z"/><path fill="#fff" fill-opacity=".4" d="M257 535h1v1h-1zm267 261h1v1h-1z"/><path fill="#fff" fill-opacity=".3" d="M44 303h1v1h-1z"/><path fill="#fff" fill-opacity=".4" d="M507 330h1v1h-1z"/><path fill="#fff" fill-opacity=".6" d="M1292 493h1v1h-1z"/><path fill="#fff" fill-opacity=".5" d="M1379 861h1v1h-1z"/><path fill="#fff" fill-opacity=".4" d="M94 887h2v2h-2zm651-30h1v1h-1zm693-426h1v1h-1zm-833 42h2v2h-2zm111 249h1v1h-1zM357 980h1v1h-1zm20-171h1v1h-1zm608-335h1v1h-1z"/><path fill="#fff" fill-opacity=".5" d="M375 654h1v1h-1z"/><path fill="#fff" fill-opacity=".6" d="M432 237h2v2h-2z"/><path fill="#fff" fill-opacity=".4" d="M1132 958h1v1h-1z"/><path fill="#fff" fill-opacity=".6" d="M513 805h2v2h-2z"/><path fill="#fff" fill-opacity=".3" d="M237 490h1v1h-1z"/><path fill="#fff" fill-opacity=".4" d="M896 1018h1v1h-1zm-448-33h1v1h-1z"/><path fill="#fff" fill-opacity=".6" d="M367 696h1v1h-1z"/><path fill="#fff" fill-opacity=".5" d="M11 1004h1v1h-1z"/><path fill="#fff" fill-opacity=".6" d="M808 288h1v1h-1zm430 579h2v2h-2z"/><path fill="#fff" fill-opacity=".4" d="M1133 287h2v2h-2zM193 550h2v2h-2z"/><path fill="#fff" fill-opacity=".5" d="M1245 299h2v2h-2z"/><path fill="#fff" fill-opacity=".6" d="M1406 45h1v1h-1z"/><path fill="#fff" fill-opacity=".3" d="M960 303h1v1h-1z"/><path fill="#fff" fill-opacity=".4" d="M811 801h1v1h-1z"/><path fill="#fff" fill-opacity=".5" d="M1418 656h2v2h-2zm-153-55h2v2h-2z"/><path fill="#fff" fill-opacity=".4" d="M1425 0h2v2h-2z"/><path fill="#fff" fill-opacity=".6" d="M707 702h1v1h-1z"/><path fill="#fff" fill-opacity=".5" d="M526 659h2v2h-2z"/><path fill="#fff" fill-opacity=".6" d="M1006 689h1v1h-1zm396 323h2v2h-2z"/><path fill="#fff" fill-opacity=".4" d="M788 798h1v1h-1z"/><path fill="#fff" fill-opacity=".5" d="M740 334h1v1h-1z"/><path fill="#fff" fill-opacity=".4" d="M1122 563h2v2h-2z"/><path fill="#fff" fill-opacity=".3" d="M458 925h1v1h-1z"/><path fill="#fff" fill-opacity=".6" d="M1258 495h1v1h-1z"/><path fill="#fff" fill-opacity=".4" d="M1215 518h2v2h-2z"/><path fill="#fff" fill-opacity=".5" d="M768 106h2v2h-2z"/><path fill="#fff" fill-opacity=".4" d="M1264 848h1v1h-1z"/><path fill="#fff" fill-opacity=".6" d="M896 63h2v2h-2z"/><path fill="#fff" fill-opacity=".4" d="M450 942h1v1h-1z"/><path fill="#fff" fill-opacity=".6" d="M407 32h2v2h-2z"/><path fill="#fff" fill-opacity=".4" d="M1043 112h2v2h-2zM5 21h2v2H5zM148 9h1v1h-1z"/><path fill="#fff" fill-opacity=".5" d="M1062 408h1v1h-1z"/><path fill="#fff" fill-opacity=".4" d="M116 210h2v2h-2z"/><path fill="#fff" fill-opacity=".3" d="M408 819h1v1h-1z"/><path fill="#fff" fill-opacity=".4" d="M1033 840h2v2h-2zM461 428h1v1h-1z"/><path fill="#fff" fill-opacity=".3" d="M86 80h1v1h-1zm503 313h1v1h-1z"/><path fill="#fff" fill-opacity=".5" d="M1422 307h1v1h-1z"/><path fill="#fff" fill-opacity=".4" d="M1212 234h1v1h-1zM841 579h2v2h-2zm-30 165h2v2h-2z"/><path fill="#fff" fill-opacity=".3" d="M1373 892h2v2h-2z"/><path fill="#fff" fill-opacity=".5" d="M1176 669h1v1h-1z"/><path fill="#fff" fill-opacity=".3" d="M912 280h2v2h-2z"/><path fill="#fff" fill-opacity=".4" d="M829 571h2v2h-2zm406 340h2v2h-2z"/><path fill="#fff" fill-opacity=".5" d="M1386 883h1v1h-1z"/><path fill="#fff" fill-opacity=".3" d="M1076 131h2v2h-2z"/><path fill="#fff" fill-opacity=".5" d="M1094 245h2v2h-2zm86 561h2v2h-2z"/><path fill="#fff" fill-opacity=".4" d="M1066 66h2v2h-2z"/><path fill="#fff" fill-opacity=".5" d="M1282 33h2v2h-2z"/><path fill="#fff" fill-opacity=".6" d="M218 714h2v2h-2z"/><path fill="#fff" fill-opacity=".5" d="M1248 118h1v1h-1z"/><path fill="#fff" fill-opacity=".4" d="M262 615h1v1h-1z"/><path fill="#fff" fill-opacity=".5" d="M311 376h1v1h-1z"/><path fill="#fff" fill-opacity=".3" d="M1140 658h2v2h-2z"/><path fill="#fff" fill-opacity=".4" d="M403 728h2v2h-2zm902 43h2v2h-2z"/><path fill="#fff" fill-opacity=".5" d="M194 443h2v2h-2z"/><path fill="#fff" fill-opacity=".4" d="M432 794h2v2h-2z"/><path fill="#fff" fill-opacity=".6" d="M278 321h2v2h-2zM1334 40h2v2h-2z"/><path fill="#fff" fill-opacity=".3" d="M102 571h1v1h-1z"/><path fill="#fff" fill-opacity=".4" d="M35 307h2v2h-2z"/><path fill="#fff" fill-opacity=".3" d="M640 791h2v2h-2z"/><path fill="#fff" fill-opacity=".6" d="M242 226h2v2h-2z"/><path fill="#fff" fill-opacity=".4" d="M436 383h1v1h-1z"/><path fill="#fff" fill-opacity=".5" d="M911 975h1v1h-1zm-164 36h1v1h-1z"/><path fill="#fff" fill-opacity=".4" d="M281 948h1v1h-1z"/><path fill="#fff" fill-opacity=".5" d="M980 723h2v2h-2zm-227 59h1v1h-1z"/><path fill="#fff" fill-opacity=".6" d="M70 55h1v1h-1z"/><path fill="#fff" fill-opacity=".4" d="M1220 610h2v2h-2zM489 363h2v2h-2zm163 455h2v2h-2z"/><path fill="#fff" fill-opacity=".5" d="M765 220h1v1h-1z"/><path fill="#fff" fill-opacity=".3" d="M1379 432h2v2h-2z"/><path fill="#fff" fill-opacity=".5" d="M1065 497h2v2h-2zm-371-90h1v1h-1z"/><path fill="#fff" fill-opacity=".4" d="M1225 204h1v1h-1z"/><path fill="#fff" fill-opacity=".5" d="M1200 826h1v1h-1zm38-712h2v2h-2z"/><path fill="#fff" fill-opacity=".4" d="M724 910h2v2h-2z"/><path fill="#fff" fill-opacity=".6" d="M1333 711h1v1h-1z"/><path fill="#fff" fill-opacity=".5" d="M907 897h2v2h-2z"/><path fill="#fff" fill-opacity=".6" d="M46 658h2v2h-2z"/><path fill="#fff" fill-opacity=".4" d="M1271 723h2v2h-2zM797 982h2v2h-2z"/><path fill="#fff" fill-opacity=".5" d="M341 446h2v2h-2z"/><path fill="#fff" fill-opacity=".4" d="M125 594h2v2h-2zm29-331h2v2h-2z"/><path fill="#fff" fill-opacity=".3" d="M249 69h1v1h-1zm-23 109h2v2h-2z"/><path fill="#fff" fill-opacity=".6" d="M326 558h2v2h-2z"/><path fill="#fff" fill-opacity=".3" d="M312 776h2v2h-2z"/><path fill="#fff" fill-opacity=".5" d="M1140 960h1v1h-1z"/><path fill="#fff" fill-opacity=".4" d="M37 1001h1v1h-1zm741-617h1v1h-1zM116 246h1v1h-1zm334 535h1v1h-1z"/><path fill="#fff" fill-opacity=".6" d="M97 736h2v2h-2zm1286-360h2v2h-2z"/><path fill="#fff" fill-opacity=".5" d="M265 427h2v2h-2z"/><path fill="#fff" fill-opacity=".4" d="M891 1016h2v2h-2z"/><path fill="#fff" fill-opacity=".5" d="M759 905h2v2h-2z"/><path fill="#fff" fill-opacity=".4" d="M626 231h1v1h-1zm314 195h1v1h-1zm247 85h1v1h-1z"/><path fill="#fff" fill-opacity=".6" d="M650 154h1v1h-1z"/><path fill="#fff" fill-opacity=".3" d="M832 861h1v1h-1z"/><path fill="#fff" fill-opacity=".5" d="M1325 22h1v1h-1z"/><path fill="#fff" fill-opacity=".3" d="M345 446h2v2h-2z"/><path fill="#fff" fill-opacity=".4" d="M1211 490h1v1h-1z"/><path fill="#fff" fill-opacity=".5" d="M1196 144h1v1h-1z"/></g><defs><clipPath id="a"><path fill="#fff" d="M0 0h1440v1024H0z"/></clipPath></defs></svg>