<svg xmlns="http://www.w3.org/2000/svg" width="32" height="32" fill="none"><path fill="#B9FF66" d="M2.667 30.333a1.013 1.013 0 0 1-.973-1.267l1.68-6.28a14.37 14.37 0 0 1-1.707-6.8C1.667 8.08 8.093 1.654 16 1.654S30.333 8.08 30.333 15.987c0 7.906-6.426 14.333-14.333 14.333-2.413 0-4.773-.6-6.88-1.747l-6.187 1.72a.923.923 0 0 1-.266.04Zm6.586-3.826c.174 0 .347.053.507.133A12.313 12.313 0 0 0 16 28.333c6.8 0 12.333-5.533 12.333-12.333S22.8 3.667 16 3.667 3.667 9.2 3.667 16c0 2.173.573 4.293 1.653 6.16.133.227.173.507.107.76l-1.334 4.987L9 26.547a.836.836 0 0 1 .253-.04Z"/><path fill="#B9FF66" d="M19.653 23.68c-.826 0-1.68-.187-2.573-.573-.84-.36-1.68-.84-2.493-1.44a20.066 20.066 0 0 1-2.307-1.974 21.26 21.26 0 0 1-1.973-2.306c-.6-.84-1.08-1.667-1.427-2.48-.373-.88-.56-1.747-.56-2.574 0-.586.107-1.146.307-1.666.213-.547.56-1.04 1.013-1.467.853-.84 2.08-1.147 3.053-.68.334.147.614.387.827.707l1.547 2.173c.16.213.28.44.373.667.107.266.173.533.173.786 0 .347-.093.694-.28 1-.12.2-.293.44-.52.667l-.173.187c.08.106.173.24.32.4.28.32.587.666.92 1 .333.32.667.64 1 .92.16.133.293.24.4.306l.187-.186c.24-.24.48-.427.72-.547.44-.28 1.12-.347 1.72-.093.213.08.426.2.653.36l2.227 1.573c.306.213.546.507.706.84.134.333.187.627.187.933 0 .4-.093.787-.267 1.16a4.514 4.514 0 0 1-.613.934c-.427.466-.92.813-1.453 1.04a4.312 4.312 0 0 1-1.694.333ZM11.72 10.32c-.08 0-.347 0-.68.333-.253.24-.427.494-.547.774-.12.28-.173.6-.173.92 0 .56.133 1.16.4 1.8.28.666.693 1.373 1.2 2.08.52.706 1.107 1.413 1.76 2.066.653.64 1.347 1.24 2.067 1.774.693.506 1.4.906 2.106 1.213 1.014.44 1.947.547 2.707.227.267-.107.507-.294.747-.534.12-.133.213-.266.293-.44a.78.78 0 0 0 .067-.293c0-.027 0-.067-.04-.147L19.4 18.547a1.076 1.076 0 0 0-.267-.147.966.966 0 0 0-.28.213l-.506.507c-.387.387-1 .493-1.494.32l-.24-.107c-.306-.16-.653-.4-1.04-.733-.373-.32-.733-.653-1.12-1.027a25.27 25.27 0 0 1-1.026-1.12c-.347-.413-.587-.746-.747-1.026l-.147-.347a1.466 1.466 0 0 1-.053-.413c0-.374.133-.707.387-.974l.506-.52c.147-.146.2-.226.227-.28a1.41 1.41 0 0 0-.16-.266l-1.56-2.2-.16-.107Z"/></svg>